<svg width="223" height="185" viewBox="0 0 223 185" fill="none" xmlns="http://www.w3.org/2000/svg">
<path fill-rule="evenodd" clip-rule="evenodd" d="M110.215 26.2019C102.599 26.2019 94.983 26.1928 87.3668 26.2056C83.6061 26.212 81.673 28.1627 81.6452 31.9561C81.6259 34.5821 81.6136 37.2091 81.6489 39.8345C81.6965 43.3705 83.7254 45.425 87.2555 45.4299C102.54 45.4502 117.826 45.4491 133.111 45.4304C136.666 45.4261 138.69 43.4048 138.741 39.8709C138.779 37.2449 138.765 34.6185 138.745 31.992C138.717 28.1146 136.796 26.2088 132.907 26.2045C125.342 26.1954 117.779 26.2019 110.215 26.2019ZM156.749 91.234C163.107 91.234 169.464 91.234 175.821 91.234C176.242 91.234 176.664 91.2549 177.082 91.2233C178.535 91.1147 179.54 90.1335 179.536 88.8488C179.533 87.5562 178.522 86.5958 177.069 86.5086C176.859 86.4958 176.648 86.5043 176.437 86.5043C163.354 86.5043 150.272 86.5038 137.189 86.5049C136.82 86.5049 136.444 86.4728 136.087 86.5348C134.918 86.7387 134.189 87.4273 134.082 88.6273C133.968 89.9002 134.6 90.7536 135.799 91.1147C136.287 91.2618 136.838 91.2292 137.36 91.2292C143.823 91.2367 150.286 91.234 156.749 91.234ZM156.728 105.461C163.138 105.461 169.548 105.462 175.958 105.461C176.43 105.461 176.907 105.487 177.374 105.434C178.65 105.289 179.399 104.507 179.501 103.28C179.602 102.031 178.916 101.172 177.704 100.843C177.209 100.709 176.664 100.735 176.142 100.735C163.217 100.729 150.291 100.73 137.367 100.734C136.895 100.734 136.41 100.708 135.955 100.806C134.486 101.121 133.673 102.578 134.207 103.948C134.674 105.148 135.655 105.474 136.867 105.47C143.487 105.451 150.107 105.461 156.728 105.461ZM156.764 72.2666C156.502 72.2666 156.239 72.2666 155.976 72.2666C149.567 72.2666 143.157 72.2553 136.749 72.2751C134.838 72.281 133.742 73.4881 134.131 75.1204C134.514 76.7245 135.763 76.9995 137.175 76.9989C150.255 76.9947 163.336 77.0011 176.417 76.992C178.373 76.9904 179.513 76.0937 179.534 74.6223C179.554 73.1435 178.435 72.2708 176.464 72.2692C169.897 72.2628 163.33 72.2666 156.764 72.2666ZM146.496 119.706C149.754 119.706 153.013 119.72 156.272 119.701C158.081 119.69 159.055 118.89 159.102 117.453C159.152 115.951 158.128 114.996 156.285 114.989C149.821 114.963 143.357 114.964 136.893 114.988C135.06 114.995 134.023 115.95 134.064 117.441C134.104 118.885 135.075 119.69 136.879 119.701C140.084 119.72 143.29 119.706 146.496 119.706Z" fill="white"/>
<path fill-rule="evenodd" clip-rule="evenodd" d="M76.7785 172.294C75.7924 171.956 74.7625 171.709 73.8273 171.263C69.7075 169.3 67.2635 166.068 66.9499 161.471C66.7648 158.75 66.8419 156.008 66.875 153.276C66.8948 151.663 67.8616 150.66 69.2121 150.66C70.5625 150.66 71.5229 151.663 71.5608 153.275C71.6144 155.534 71.5587 157.795 71.5876 160.054C71.6475 164.77 74.4784 167.56 79.2097 167.561C96.7117 167.567 114.215 167.563 131.717 167.563C132.13 167.563 132.543 167.563 133.346 167.563C132.758 166.948 132.395 166.552 132.015 166.172C126.072 160.223 120.142 154.259 114.167 148.341C112.527 146.716 111.603 144.933 112.042 142.563C112.114 142.18 111.925 141.622 111.657 141.325C110.393 139.926 109.059 138.59 107.777 137.258C85.9607 152.606 57.8924 146.159 43.9489 127.252C30.5394 109.07 32.4344 83.3166 48.5111 67.4181C64.8671 51.2435 90.5213 49.617 108.727 63.4898C127.707 77.9528 133.049 105.831 118.173 126.825C119.561 128.185 120.955 129.595 122.411 130.938C122.648 131.156 123.178 131.19 123.537 131.122C125.507 130.75 127.212 131.28 128.599 132.662C135.825 139.855 143.066 147.035 150.213 154.307C153.465 157.615 154.052 162.222 152.057 166.427C151.907 166.744 151.742 167.053 151.485 167.563C152.201 167.563 152.707 167.563 153.213 167.563C162.936 167.563 172.66 167.567 182.383 167.562C187.31 167.56 190.136 164.794 190.137 159.87C190.149 122.447 190.146 85.0238 190.137 47.601C190.137 46.9322 190.037 46.2634 189.971 45.4389C188.982 45.4389 188.103 45.4389 187.225 45.4389C181.233 45.4389 175.241 45.4501 169.249 45.4352C163.651 45.4212 160.324 42.0917 160.317 36.5124C160.308 30.2049 160.315 23.898 160.314 17.5905C160.314 15.568 160.313 15.5611 158.218 15.5595C152.016 15.5557 145.814 15.5584 139.612 15.5584C119.586 15.5584 99.5613 15.5573 79.5355 15.5589C74.3024 15.5589 71.5913 18.2678 71.5839 23.5266C71.5732 30.7801 71.5822 38.0335 71.578 45.2864C71.578 45.8637 71.5962 46.449 71.5106 47.0162C71.3089 48.3538 70.4977 49.0782 69.1393 49.0456C67.8574 49.0145 67.0955 48.297 66.921 47.0274C66.8429 46.4581 66.8552 45.8744 66.8552 45.2971C66.8515 38.5167 67.0537 31.7292 66.7969 24.9584C66.5337 18.0212 69.3271 12.7152 76.778 10.8276C104.74 10.8276 132.703 10.8276 160.665 10.8276C164.323 11.6377 166.91 14.0148 169.445 16.5915C176.37 23.631 183.332 30.6378 190.403 37.5306C193.55 40.5979 194.919 44.119 194.912 48.4934C194.849 85.317 194.876 122.141 194.873 158.965C194.873 159.805 194.862 160.648 194.8 161.484C194.442 166.277 191.307 170.241 186.725 171.717C186.133 171.907 185.54 172.102 184.948 172.295C148.892 172.294 112.835 172.294 76.7785 172.294ZM122.01 100.094C122.131 77.4574 103.761 58.9228 81.0769 58.7922C58.3429 58.6617 39.8858 76.9807 39.7392 99.8207C39.5948 122.341 57.9304 140.978 80.3397 141.089C103.43 141.203 121.888 123.044 122.01 100.094ZM148.441 161.655C148.57 161.58 148.699 161.506 148.829 161.431C148.109 160.089 147.648 158.494 146.626 157.448C139.727 150.388 132.698 143.456 125.743 136.451C124.893 135.595 124.327 135.695 123.549 136.504C121.62 138.508 119.68 140.509 117.637 142.396C116.489 143.456 116.61 144.134 117.675 145.187C124.438 151.864 131.136 158.606 137.862 165.323C138.269 165.729 138.685 166.144 139.158 166.465C141.103 167.788 143.177 167.97 145.263 166.882C147.343 165.795 148.391 164.008 148.441 161.655ZM165.046 19.3207C165.046 25.0723 165.041 30.7426 165.048 36.4134C165.052 39.4867 166.256 40.698 169.341 40.7049C174.646 40.7172 179.952 40.7114 185.257 40.7033C185.639 40.7028 186.02 40.6241 186.314 40.5915C179.232 33.5087 172.196 26.4709 165.046 19.3207ZM111.751 134.1C112.899 135.386 114.068 136.697 115.164 137.926C116.464 136.667 117.695 135.475 118.738 134.465C117.512 133.212 116.278 131.952 115.147 130.796C113.98 131.93 112.751 133.126 111.751 134.1Z" fill="black"/>
<path fill-rule="evenodd" clip-rule="evenodd" d="M110.215 26.2019C117.779 26.2019 125.342 26.1954 132.907 26.2045C136.796 26.2088 138.717 28.1151 138.745 31.992C138.764 34.6185 138.779 37.2449 138.74 39.8709C138.689 43.4048 136.666 45.4256 133.11 45.4304C117.825 45.4491 102.54 45.4502 87.255 45.4299C83.7248 45.425 81.6965 43.3705 81.6484 39.8345C81.6131 37.2091 81.6259 34.5821 81.6446 31.9561C81.6725 28.1633 83.6061 26.2126 87.3663 26.2056C94.983 26.1928 102.599 26.2019 110.215 26.2019ZM134.011 31.0182C118.051 31.0182 102.321 31.0182 86.3711 31.0182C86.3711 33.6982 86.4599 36.314 86.3374 38.9207C86.2662 40.4278 86.8141 40.7408 88.2175 40.7371C102.868 40.6905 117.519 40.7082 132.17 40.7082C132.432 40.7082 132.763 40.8072 132.944 40.6852C133.339 40.4171 133.954 40.0453 133.964 39.7013C134.046 36.872 134.011 34.039 134.011 31.0182Z" fill="black"/>
<path fill-rule="evenodd" clip-rule="evenodd" d="M156.749 91.234C150.286 91.234 143.823 91.2367 137.36 91.2297C136.838 91.2297 136.288 91.2623 135.8 91.1152C134.601 90.7541 133.969 89.9007 134.082 88.6279C134.19 87.4278 134.918 86.7392 136.087 86.5353C136.445 86.4733 136.821 86.5054 137.189 86.5054C150.272 86.5043 163.355 86.5048 176.438 86.5048C176.649 86.5048 176.86 86.4963 177.069 86.5091C178.523 86.5963 179.533 87.5567 179.537 88.8493C179.54 90.134 178.536 91.1152 177.083 91.2238C176.664 91.2554 176.242 91.2345 175.822 91.2345C169.464 91.2345 163.106 91.234 156.749 91.234Z" fill="black"/>
<path fill-rule="evenodd" clip-rule="evenodd" d="M156.728 105.461C150.107 105.461 143.488 105.45 136.868 105.47C135.655 105.474 134.674 105.148 134.207 103.948C133.674 102.577 134.486 101.121 135.955 100.806C136.411 100.708 136.896 100.734 137.367 100.734C150.292 100.73 163.217 100.729 176.142 100.735C176.665 100.735 177.21 100.709 177.705 100.843C178.917 101.171 179.603 102.031 179.501 103.28C179.401 104.507 178.65 105.29 177.375 105.434C176.908 105.487 176.43 105.461 175.958 105.461C169.547 105.462 163.138 105.461 156.728 105.461Z" fill="black"/>
<path fill-rule="evenodd" clip-rule="evenodd" d="M156.764 72.2664C163.33 72.2664 169.897 72.2626 176.464 72.269C178.435 72.2706 179.553 73.1433 179.534 74.6221C179.513 76.0935 178.373 76.9902 176.417 76.9918C163.337 77.0009 150.256 76.9944 137.175 76.9987C135.763 76.9993 134.514 76.7237 134.131 75.1202C133.741 73.4878 134.838 72.2808 136.749 72.2749C143.157 72.2551 149.566 72.2664 155.976 72.2664C156.238 72.2664 156.502 72.2664 156.764 72.2664Z" fill="black"/>
<path fill-rule="evenodd" clip-rule="evenodd" d="M146.496 119.706C143.291 119.706 140.084 119.72 136.878 119.7C135.074 119.69 134.104 118.885 134.064 117.44C134.023 115.95 135.059 114.995 136.892 114.987C143.356 114.963 149.821 114.963 156.285 114.988C158.126 114.996 159.151 115.951 159.102 117.452C159.054 118.89 158.08 119.69 156.271 119.7C153.012 119.72 149.754 119.706 146.496 119.706Z" fill="black"/>
<path fill-rule="evenodd" clip-rule="evenodd" d="M148.441 161.655C148.39 164.007 147.343 165.794 145.263 166.881C143.177 167.97 141.103 167.787 139.158 166.464C138.685 166.143 138.269 165.729 137.862 165.322C131.137 158.606 124.438 151.864 117.675 145.187C116.61 144.134 116.489 143.456 117.637 142.395C119.68 140.509 121.619 138.507 123.549 136.503C124.327 135.694 124.893 135.594 125.743 136.451C132.698 143.456 139.727 150.388 146.626 157.447C147.648 158.493 148.109 160.089 148.829 161.431C148.7 161.505 148.57 161.58 148.441 161.655Z" fill="#EBEBEB"/>
<path fill-rule="evenodd" clip-rule="evenodd" d="M165.046 19.3208C172.196 26.4715 179.232 33.5088 186.314 40.591C186.02 40.6237 185.639 40.7023 185.257 40.7028C179.952 40.7109 174.646 40.7173 169.341 40.7045C166.256 40.6975 165.051 39.4862 165.048 36.413C165.042 30.7427 165.046 25.0724 165.046 19.3208Z" fill="#EBEBEB"/>
<path fill-rule="evenodd" clip-rule="evenodd" d="M111.751 134.1C112.751 133.127 113.98 131.93 115.147 130.796C116.278 131.952 117.512 133.213 118.738 134.465C117.695 135.475 116.464 136.667 115.164 137.926C114.068 136.697 112.898 135.386 111.751 134.1Z" fill="#EBEBEB"/>
<path fill-rule="evenodd" clip-rule="evenodd" d="M134.011 31.0181C134.011 34.0389 134.046 36.8714 133.964 39.7006C133.954 40.0452 133.339 40.4165 132.944 40.6845C132.763 40.8065 132.432 40.7076 132.17 40.7076C117.519 40.7076 102.868 40.6899 88.2175 40.7364C86.8136 40.7407 86.2662 40.4272 86.3374 38.92C86.4599 36.3133 86.3711 33.6976 86.3711 31.0176C102.32 31.0181 118.05 31.0181 134.011 31.0181Z" fill="#EBEBEB"/>
<circle cx="80.9907" cy="100.318" r="40.6625" fill="#EBEBEB"/>
<path fill-rule="evenodd" clip-rule="evenodd" d="M72.4596 119.21C69.3186 119.112 66.4852 118.157 64.1755 115.988C62.0965 114.037 60.0726 112.023 58.1067 109.959C55.9755 107.719 56.0408 104.379 58.1503 102.246C60.2075 100.164 63.6894 100.058 65.899 102.104C67.6255 103.704 69.2446 105.416 70.9159 107.076C72.2739 108.425 72.6932 108.432 74.0323 107.095C80.8873 100.246 87.7308 93.3861 94.5917 86.5441C96.9173 84.2271 100.158 84.0081 102.416 85.958C104.897 88.1022 105.055 91.7249 102.687 94.1536C99.7478 97.1684 96.7418 100.119 93.7662 103.098C89.6995 107.164 85.6242 111.219 81.5721 115.301C79.0521 117.837 76.0155 119.115 72.4596 119.21Z" fill="#FEBA0F"/>
</svg>
