<svg width="236" height="237" viewBox="0 0 236 237" fill="none" xmlns="http://www.w3.org/2000/svg">
<path fill-rule="evenodd" clip-rule="evenodd" d="M70.8561 197.05C69.3716 196.193 67.7468 195.511 66.4417 194.439C64.9301 193.196 64.2374 191.325 64.2115 189.378C64.1383 184.005 64.1808 178.631 64.1855 173.256C64.1855 173.116 64.2764 172.974 64.3849 172.652C64.9962 172.652 65.6475 172.656 66.2989 172.651C74.3335 172.611 82.3823 172.855 90.398 172.455C99.8121 171.986 107.158 163.862 107.535 154.177C107.896 144.948 100.96 136.44 91.8601 135.009C90.5031 134.796 89.113 134.712 87.7371 134.707C80.5203 134.678 73.3034 134.693 66.0865 134.693C65.526 134.693 64.9655 134.693 64.1584 134.693C64.1584 134.126 64.1584 133.638 64.1584 133.149C64.1584 128.492 64.1478 123.833 64.1607 119.177C64.1761 113.633 67.5013 110.311 73.0721 110.309C102.553 110.302 132.036 110.293 161.518 110.32C165.345 110.323 169.096 110.189 172.607 107.486C172.607 108.479 172.607 109.112 172.607 109.745C172.607 135.491 172.541 161.236 172.663 186.982C172.688 192.026 170.958 195.457 166.064 197.049C134.328 197.05 102.592 197.05 70.8561 197.05ZM130.543 121.126C131.104 121.126 131.674 121.188 132.227 121.115C133.653 120.926 134.681 119.76 134.675 118.414C134.669 117.066 133.632 115.916 132.202 115.734C131.647 115.663 131.08 115.702 130.518 115.702C127.862 115.701 126.531 116.618 126.54 118.437C126.551 120.253 127.875 121.151 130.543 121.126ZM103.446 121.145C103.906 121.145 104.367 121.174 104.824 121.139C106.467 121.014 107.541 119.91 107.525 118.394C107.507 116.883 106.418 115.816 104.76 115.71C104.302 115.681 103.842 115.701 103.383 115.701C100.745 115.702 99.4144 116.633 99.4368 118.457C99.4604 120.276 100.763 121.151 103.446 121.145ZM117.146 115.722C116.585 115.722 116.016 115.665 115.462 115.733C114.031 115.907 112.994 117.054 112.981 118.404C112.969 119.745 113.998 120.919 115.421 121.112C115.973 121.188 116.542 121.15 117.104 121.151C119.787 121.152 121.092 120.27 121.109 118.447C121.126 116.62 119.801 115.702 117.146 115.722ZM144.264 115.705C143.805 115.705 143.345 115.681 142.887 115.71C141.238 115.819 140.137 116.903 140.127 118.404C140.116 119.913 141.204 121.017 142.846 121.138C143.303 121.174 143.764 121.151 144.224 121.151C146.896 121.15 148.209 120.263 148.225 118.445C148.242 116.627 146.907 115.702 144.264 115.705ZM89.9437 121.135C89.9437 121.139 89.9437 121.144 89.9437 121.148C90.352 121.148 90.7615 121.17 91.1686 121.145C92.8454 121.043 93.9262 120.009 93.9581 118.494C93.9923 116.904 92.8961 115.792 91.1532 115.711C90.2376 115.669 89.3101 115.646 88.4003 115.733C86.9406 115.869 85.9341 116.978 85.8999 118.356C85.8645 119.798 86.8923 120.953 88.4145 121.125C88.9171 121.184 89.434 121.135 89.9437 121.135ZM157.612 121.137C157.612 121.141 157.612 121.145 157.612 121.15C158.02 121.15 158.429 121.165 158.836 121.148C160.59 121.067 161.744 120.003 161.763 118.458C161.782 116.907 160.636 115.786 158.902 115.71C158.036 115.672 157.162 115.657 156.301 115.722C154.742 115.841 153.713 116.931 153.698 118.392C153.683 119.858 154.692 120.965 156.234 121.129C156.689 121.178 157.153 121.137 157.612 121.137ZM76.3974 121.143C76.3974 121.145 76.3974 121.146 76.3974 121.149C76.8056 121.149 77.2151 121.171 77.6222 121.145C79.2931 121.039 80.3775 119.997 80.4082 118.488C80.44 116.909 79.332 115.793 77.5939 115.711C76.7289 115.67 75.8569 115.659 74.9931 115.722C73.4273 115.835 72.3877 116.91 72.3594 118.364C72.3287 119.889 73.3848 121.002 75.0215 121.138C75.4769 121.176 75.9383 121.143 76.3974 121.143ZM76.3124 191.621C76.3124 191.598 76.3124 191.576 76.3136 191.554C76.9248 191.554 77.5478 191.63 78.1449 191.538C79.5326 191.323 80.3031 190.462 80.3999 189.059C80.4931 187.689 79.6152 186.458 78.2842 186.319C77.0251 186.188 75.7224 186.154 74.4739 186.33C73.0981 186.523 72.3629 187.518 72.3676 188.92C72.3724 190.322 73.1134 191.228 74.4846 191.518C75.0746 191.644 75.7023 191.592 76.3124 191.621ZM89.9001 186.278C89.9001 186.266 89.9001 186.254 89.9001 186.245C89.4411 186.245 88.9809 186.215 88.5242 186.251C86.9513 186.37 85.9188 187.412 85.8987 188.877C85.8775 190.399 86.9501 191.507 88.5974 191.579C89.6133 191.624 90.6411 191.64 91.6524 191.544C93.0365 191.412 93.9428 190.333 93.9605 188.956C93.9782 187.58 93.0908 186.478 91.7314 186.293C91.1308 186.209 90.5101 186.278 89.9001 186.278ZM116.973 191.555C116.973 191.564 116.973 191.574 116.973 191.582C117.484 191.582 117.995 191.614 118.501 191.576C120.025 191.463 121.117 190.338 121.117 188.913C121.117 187.494 120.029 186.344 118.499 186.258C117.433 186.199 116.352 186.189 115.291 186.293C113.966 186.423 112.977 187.621 112.977 188.916C112.977 190.213 113.973 191.375 115.293 191.543C115.846 191.614 116.414 191.555 116.973 191.555ZM130.584 186.241C130.125 186.241 129.665 186.214 129.208 186.247C127.661 186.36 126.572 187.438 126.539 188.861C126.505 190.333 127.642 191.499 129.253 191.579C130.168 191.625 131.09 191.628 132.005 191.577C133.547 191.493 134.642 190.394 134.678 188.969C134.712 187.505 133.574 186.354 131.96 186.245C131.503 186.214 131.043 186.24 130.584 186.241ZM144.164 191.563C144.164 191.571 144.164 191.579 144.164 191.588C144.621 191.588 145.082 191.613 145.539 191.582C147.096 191.482 148.178 190.429 148.224 188.994C148.272 187.511 147.163 186.338 145.544 186.253C144.529 186.2 143.5 186.188 142.489 186.281C141.054 186.413 140.085 187.584 140.123 188.987C140.16 190.333 141.116 191.401 142.483 191.552C143.037 191.615 143.602 191.563 144.164 191.563ZM157.675 191.558C157.675 191.566 157.675 191.574 157.675 191.581C158.186 191.581 158.696 191.615 159.204 191.575C160.746 191.452 161.781 190.35 161.766 188.887C161.749 187.484 160.76 186.375 159.295 186.273C158.181 186.196 157.047 186.187 155.936 186.298C154.571 186.436 153.681 187.569 153.696 188.945C153.711 190.318 154.622 191.38 155.994 191.548C156.548 191.614 157.114 191.558 157.675 191.558ZM103.518 191.565C103.518 191.572 103.518 191.578 103.518 191.585C103.977 191.585 104.438 191.611 104.894 191.579C106.461 191.471 107.501 190.427 107.527 188.961C107.553 187.494 106.533 186.359 104.99 186.262C103.924 186.196 102.845 186.19 101.783 186.287C100.43 186.411 99.4604 187.546 99.4357 188.868C99.4097 190.252 100.416 191.404 101.839 191.557C102.393 191.616 102.958 191.565 103.518 191.565Z" fill="#BEBEBE"/>
<path fill-rule="evenodd" clip-rule="evenodd" d="M119.382 39.8032C120.776 40.7437 121.277 42.0547 121.163 43.7137C121.071 45.033 121.185 46.364 121.13 47.6868C121.053 49.5465 119.937 50.6569 118.297 50.6002C116.734 50.5459 115.737 49.4202 115.703 47.6219C115.677 46.246 115.786 44.8631 115.675 43.4966C115.539 41.8364 116.146 40.6446 117.54 39.8044C118.154 39.8032 118.768 39.8032 119.382 39.8032Z" fill="#FEBA0F"/>
<path fill-rule="evenodd" clip-rule="evenodd" d="M134.575 104.887C134.135 102.274 133.688 99.8653 133.362 97.4392C133.302 96.9908 133.617 96.3666 133.954 96.0102C135.711 94.1517 137.523 92.3451 139.334 90.5374C141.189 88.6848 141.99 86.5289 141.1 83.9778C140.233 81.488 138.323 80.3233 135.767 80.0118C133.484 79.7333 131.219 79.325 128.937 79.03C127.987 78.9073 127.414 78.5226 127.009 77.5975C125.966 75.2104 124.776 72.8893 123.678 70.5269C122.632 68.279 120.912 66.9409 118.424 66.9421C115.946 66.9433 114.202 68.2366 113.159 70.5033C112.069 72.8704 110.888 75.195 109.827 77.5739C109.43 78.4648 108.902 78.9203 107.921 79.0406C105.588 79.3274 103.271 79.7309 100.939 80.0377C98.454 80.3646 96.5826 81.5116 95.7389 83.9494C94.8845 86.4192 95.5265 88.5703 97.3507 90.4017C99.1196 92.1788 100.933 93.9145 102.614 95.7719C103.084 96.2911 103.435 97.2056 103.359 97.8852C103.103 100.207 102.632 102.507 102.232 104.886C98.9284 104.886 95.7589 104.935 92.5942 104.831C92.1505 104.815 91.5628 104.129 91.3233 103.619C85.5602 91.3445 89.1356 76.3514 99.8051 67.9097C117.748 53.7119 144.227 63.9756 147.867 86.5561C148.827 92.5257 147.968 98.2746 145.432 103.757C145.216 104.222 144.638 104.825 144.213 104.838C141.053 104.93 137.887 104.887 134.575 104.887Z" fill="#FEBA0F"/>
<path fill-rule="evenodd" clip-rule="evenodd" d="M100.463 85.6168C103.59 85.1412 106.25 84.6728 108.927 84.3483C111.61 84.0238 113.449 82.7352 114.545 80.2289C115.69 77.6116 116.996 75.0652 118.345 72.2485C119.659 74.913 120.975 77.3332 122.065 79.8513C123.29 82.6833 125.289 84.1418 128.381 84.4073C130.913 84.6244 133.417 85.1601 136.251 85.605C135.757 86.2492 135.475 86.7024 135.111 87.0764C133.364 88.8736 131.609 90.6672 129.824 92.4289C128.251 93.9794 127.59 95.8096 127.938 97.9985C128.292 100.213 128.644 102.428 129.017 104.776C121.907 104.776 114.929 104.776 107.794 104.776C108.115 102.762 108.359 100.751 108.771 98.7749C109.321 96.1294 108.646 93.9546 106.692 92.0938C105.025 90.5055 103.438 88.8346 101.826 87.1897C101.451 86.8062 101.12 86.379 100.463 85.6168Z" fill="black"/>
<path fill-rule="evenodd" clip-rule="evenodd" d="M83.2152 88.6128C82.9131 94.2697 83.7238 99.5738 85.8572 104.89C83.9704 104.89 82.3113 104.889 80.6499 104.89C77.6857 104.893 74.6921 104.644 71.7668 104.982C69.2475 105.272 66.8061 106.231 64.242 106.918C64.2491 106.976 64.1676 106.604 64.1676 106.233C64.157 103.218 64.1393 100.203 64.1676 97.1867C64.2148 92.0336 67.5979 88.6517 72.7368 88.6163C76.1517 88.5939 79.569 88.6128 83.2152 88.6128Z" fill="#BEBEBE"/>
<path fill-rule="evenodd" clip-rule="evenodd" d="M153.544 88.6989C157.736 88.6989 161.787 88.4381 165.788 88.772C169.824 89.1083 172.671 92.8407 172.59 96.9305C172.507 101.052 169.451 104.572 165.252 104.791C160.57 105.035 155.866 104.846 151.004 104.846C153.03 99.6327 153.946 94.3404 153.544 88.6989Z" fill="#BEBEBE"/>
<path fill-rule="evenodd" clip-rule="evenodd" d="M99.4342 47.9311C99.4342 47.0107 99.387 46.0867 99.4448 45.1699C99.5392 43.6831 100.575 42.64 101.953 42.5538C103.43 42.4618 104.693 43.3999 104.797 44.9528C104.929 46.9375 104.931 48.9435 104.795 50.9271C104.689 52.4812 103.414 53.4204 101.944 53.3225C100.571 53.2293 99.5663 52.1779 99.4365 50.6923C99.4271 50.5908 99.4283 50.4881 99.4283 50.3855C99.4283 49.5666 99.4283 48.7476 99.4283 47.9299C99.4294 47.9311 99.4318 47.9311 99.4342 47.9311Z" fill="#FEBA0F"/>
<path fill-rule="evenodd" clip-rule="evenodd" d="M131.978 47.8826C131.979 46.9622 131.931 46.0383 131.991 45.1226C132.084 43.6464 133.143 42.6151 134.535 42.5526C135.963 42.4877 137.193 43.3668 137.299 44.8524C137.443 46.8843 137.442 48.9411 137.307 50.9742C137.209 52.4657 135.996 53.372 134.582 53.3283C133.138 53.2835 132.066 52.2026 131.985 50.645C131.938 49.7258 131.976 48.803 131.978 47.8826Z" fill="#FEBA0F"/>
<path d="M156.362 28.4245C156.877 31.4854 157.922 34.5227 160.026 36.8697C162.682 39.8304 166.212 40.4416 169.921 41.1602C172.94 41.7455 175.697 42.9456 177.637 45.4059C179.599 47.8945 180.434 51.0439 180.831 54.1343C180.707 53.1703 180.955 52.1543 180.831 51.1843C180.434 48.0927 179.6 44.9445 177.637 42.4559C175.697 39.9956 172.94 38.7943 169.921 38.2102C166.208 37.4916 162.69 36.8792 160.026 33.9197C157.92 31.5786 156.876 28.533 156.362 25.4745C156.522 26.4267 156.201 27.4651 156.362 28.4245Z" fill="#FFE19E"/>
<path d="M215.042 23.0295C217.363 26.5848 219.481 30.5378 219.996 34.8165C220.059 35.3286 220.086 36.9098 220.091 35.0548C220.096 33.1893 220.074 34.669 220.021 35.1256C219.952 35.7227 219.838 36.3151 219.679 36.8945C219.235 38.5158 218.429 40.0097 217.369 41.3089C215.147 44.0311 212.031 45.7622 209.442 48.0856C206.666 50.5766 205.425 53.4581 205.407 57.1763C205.397 59.4112 205.485 61.5175 206.255 63.6521C207.133 66.0888 208.556 68.2848 210.132 70.3251C209.664 69.7197 210.615 68.0016 210.132 67.3751C208.751 65.5862 207.493 63.6864 206.608 61.5989C206.136 60.4874 205.771 59.3286 205.578 58.1357C205.539 57.8961 205.504 57.6566 205.479 57.4158C205.583 58.4354 205.482 57.7333 205.571 57.4335C205.722 56.9285 205.793 56.4034 205.967 55.9019C207.136 52.5401 210.096 50.4232 212.815 48.3593C215.65 46.207 218.406 43.8388 219.533 40.3354C220.297 37.9553 220.234 35.272 220.081 32.8058C219.798 28.1813 217.523 23.8838 215.042 20.0795C215.484 20.7591 214.585 22.3309 215.042 23.0295Z" fill="#F5B8C1"/>
<path d="M54.4878 54.7232C56.2696 53.3638 58.4797 52.7195 60.7087 53.0724C63.038 53.4405 65.0405 54.8176 66.499 56.6312C66.4766 56.6041 66.5096 56.171 66.5096 56.1994C66.5131 55.8524 66.5143 55.5043 66.5143 55.1562C66.5143 54.8081 66.5143 54.4612 66.5096 54.1131C66.5096 54.0246 66.5509 53.7438 66.499 53.6812C65.0405 51.8664 63.038 50.4917 60.7087 50.1224C58.4797 49.7695 56.2684 50.4138 54.4878 51.7732C54.4594 51.7944 54.4771 52.2405 54.4771 52.2051C54.4736 52.5532 54.4724 52.9001 54.4724 53.2482C54.4724 53.5951 54.4724 53.9432 54.4771 54.2913C54.4783 54.3491 54.5173 54.7008 54.4878 54.7232Z" fill="#FF7D57"/>
<path d="M20.3652 21.3267C22.7087 24.698 26.8363 26.6131 30.925 26.2284C31.0383 26.2178 30.8554 23.2843 30.925 23.2784C26.8375 23.6643 22.7099 21.748 20.3652 18.3767C20.39 18.4121 20.3546 18.8251 20.3546 18.8086C20.351 19.1555 20.3499 19.5036 20.3499 19.8517C20.3499 20.1986 20.3499 20.5467 20.3546 20.8948C20.3558 20.9904 20.3145 21.2535 20.3652 21.3267Z" fill="#FFE19E"/>
<path d="M12.6587 55.9586C14.0495 55.9586 15.1769 54.8312 15.1769 53.4405C15.1769 52.0498 14.0495 50.9224 12.6587 50.9224C11.268 50.9224 10.1406 52.0498 10.1406 53.4405C10.1406 54.8312 11.268 55.9586 12.6587 55.9586Z" fill="#FFE19E"/>
<path d="M91.2328 9.08313L91.5219 10.9652C92.1532 15.0645 94.1545 18.2388 96.662 19.1155L97.8137 19.5179L96.6773 19.9616C94.2017 20.9268 92.3137 24.1694 91.8275 28.2876L91.6033 30.1792L91.3142 28.2971C90.6829 24.1989 88.6816 21.0247 86.1741 20.1468L85.0225 19.7433L86.1588 19.3008C88.6344 18.3355 90.5224 15.0929 91.0086 10.9747L91.2328 9.08313Z" fill="#FFC430"/>
<path d="M76.4994 35.1116L76.589 35.8609C76.7849 37.4928 77.5354 38.7767 78.5172 39.1566L78.9679 39.3313L78.5124 39.4917C77.5189 39.841 76.7271 41.1001 76.4793 42.7249L76.366 43.4707L76.2763 42.7214C76.0805 41.0906 75.33 39.8068 74.3482 39.4257L73.8975 39.251L74.3541 39.0905C75.3465 38.7413 76.1383 37.4822 76.3849 35.8573L76.4994 35.1116Z" fill="#FFC430"/>
<path d="M37.0997 44.882C38.0956 46.3947 38.9382 48.0526 39.1718 49.871C39.1989 50.0858 39.1494 50.3914 39.232 50.5849C39.2296 50.3678 39.2273 50.1519 39.2249 49.9347C39.2166 50.1047 39.2013 50.2746 39.1824 50.4433C39.1482 50.7383 39.0975 51.031 39.0349 51.3212C38.8685 52.0812 38.6337 52.8588 38.2951 53.5597C37.6826 54.8317 36.5699 55.8701 35.3415 56.5416C34.4034 57.0537 32.9709 57.5859 31.9856 56.8885C31.5065 56.5486 31.2151 55.9752 31.0664 55.4182C31.0239 55.2577 31.0239 55.0666 30.9708 54.9132C31.2269 55.6459 30.8835 55.9138 31.0192 55.345C31.103 54.9922 31.267 54.6606 31.5372 54.414C32.5107 53.5255 34.3149 53.8358 35.2483 54.63C35.7994 55.0984 36.1274 55.7781 36.2879 56.4719C36.315 56.5935 36.3386 56.7162 36.3575 56.8389C36.3658 56.9003 36.374 56.9628 36.3823 57.0254C36.4189 57.5788 36.4271 57.4974 36.4071 56.7787C36.2914 57.2661 36.2938 57.7865 36.1746 58.2797C35.8194 59.7512 35.1315 61.0869 33.8972 62.0073C30.5295 64.5172 26.2154 63.1142 22.7368 61.6746C22.8949 61.7406 22.5598 63.0257 22.7368 63.0988C26.3735 64.6033 31.2068 66.109 34.4683 62.9466C35.712 61.7418 36.2808 59.9435 36.4035 58.249C36.5074 56.7941 36.6041 54.9745 35.7215 53.7284C34.8613 52.513 32.4588 51.8416 31.3814 53.1585C30.9496 53.6871 30.9484 54.3656 30.9448 55.0111C30.9413 55.7392 30.9106 56.4719 31.1714 57.1658C31.7685 58.7399 33.2317 58.8579 34.6371 58.2974C36.2159 57.6685 37.6791 56.3858 38.3718 54.8199C39.1093 53.1538 39.265 51.444 39.245 49.648C39.2202 47.3635 38.3434 45.3445 37.1021 43.4565C37.3145 43.7846 36.8779 44.5469 37.0997 44.882Z" fill="#C2E0ED"/>
<path d="M27.3781 78.8483C27.4702 79.3132 27.5516 79.7805 27.6118 80.2501C27.6542 80.5911 27.6767 80.931 27.7073 81.272C27.7144 81.3369 27.7227 81.6991 27.7191 81.3298C27.7156 80.8248 27.6613 81.9198 27.6755 81.7865C27.5669 82.7965 27.2991 83.7972 26.7869 84.6798C25.7686 86.4392 24.0104 87.2227 22.1259 87.7242C20.3441 88.1998 18.4219 88.5667 17.1216 89.9898C16.1882 91.0105 15.7551 92.3498 15.643 93.708C15.4707 95.7895 15.6749 97.884 16.1846 99.9042C16.0725 99.4605 16.2979 98.9283 16.1846 98.4799C16.0348 97.8864 15.9014 97.2881 15.8023 96.684C15.7528 96.3795 15.7115 96.0739 15.6796 95.7671C15.6654 95.629 15.6548 95.491 15.6454 95.3517C15.6336 95.2184 15.6253 95.0839 15.6206 94.9505C15.6206 95.1511 15.6194 95.3529 15.6194 95.5535C15.5144 94.8172 15.8082 93.8295 16.069 93.1428C16.6224 91.6831 17.7517 90.6152 19.1854 90.0205C20.9105 89.3031 22.8339 89.1709 24.4989 88.2906C26.3574 87.3077 27.3864 85.4681 27.6519 83.4231C27.9056 81.4561 27.7628 79.3627 27.3793 77.4252C27.4678 77.8783 27.2873 78.3892 27.3781 78.8483Z" fill="#FF7D57"/>
<path d="M229.819 93.3222C228.089 91.8756 225.705 91.8472 223.682 92.6638C221.385 93.5913 219.823 95.5654 218.77 97.7449C216.547 102.342 216.404 108.078 212.558 111.799C209.041 115.202 203.816 115.88 199.147 116.109C193.952 116.364 187.782 116.13 183.497 119.603C182.507 120.406 181.666 121.426 181.234 122.636C180.894 123.585 180.915 124.579 180.942 125.573C180.999 127.742 182.508 130.086 184.894 129.981C184.925 129.979 184.884 128.557 184.894 128.557C182.86 128.647 181.352 126.867 181.017 124.983C181.004 124.911 180.997 124.654 180.966 124.616C181.034 124.698 180.869 125.431 180.999 124.936C181.06 124.709 181.096 124.479 181.168 124.254C181.344 123.698 181.607 123.175 181.934 122.695C182.563 121.77 183.422 121.011 184.355 120.403C188.736 117.549 194.393 117.778 199.4 117.519C203.896 117.288 208.866 116.595 212.328 113.439C216.106 109.993 216.478 104.592 218.345 100.117C219.337 97.739 220.832 95.4356 223.223 94.2887C225.33 93.2762 227.956 93.1842 229.82 94.7441C229.59 94.5553 230.059 93.5228 229.819 93.3222Z" fill="#F5B8C1"/>
<path d="M125.035 15.756C127.089 17.4104 128.27 19.8659 128.748 22.423C128.663 21.9663 128.834 21.4601 128.748 20.9987C128.27 18.4417 127.089 15.9849 125.035 14.3306C125.093 14.3778 125.026 14.9536 125.026 15.0433C125.026 15.212 125.026 15.3796 125.029 15.5471C125.029 15.5802 125.011 15.7383 125.035 15.756Z" fill="#FFE19E"/>
<path d="M229.927 10.9652C228.89 10.9652 228.045 10.1215 228.045 9.08315C228.045 8.04593 228.89 7.20105 229.927 7.20105C230.965 7.20105 231.81 8.04475 231.81 9.08315C231.809 10.1204 230.964 10.9652 229.927 10.9652ZM229.927 7.48543C229.047 7.48543 228.329 8.20169 228.329 9.08315C228.329 9.96461 229.046 10.6809 229.927 10.6809C230.808 10.6809 231.525 9.96461 231.525 9.08315C231.525 8.20169 230.808 7.48543 229.927 7.48543Z" fill="#C2E0ED"/>
<path d="M222.719 61.0397C221.317 61.0397 220.179 59.8998 220.179 58.4992C220.179 57.0985 221.319 55.9586 222.719 55.9586C224.12 55.9586 225.259 57.0985 225.259 58.4992C225.259 59.8998 224.12 61.0397 222.719 61.0397ZM222.719 56.2442C221.476 56.2442 220.463 57.2554 220.463 58.4992C220.463 59.7429 221.476 60.7553 222.719 60.7553C223.963 60.7553 224.974 59.7441 224.974 58.4992C224.974 57.2554 223.963 56.2442 222.719 56.2442Z" fill="#FFE19E"/>
<path d="M27.9162 110.993C28.9458 110.993 29.7806 110.158 29.7806 109.128C29.7806 108.099 28.9458 107.264 27.9162 107.264C26.8865 107.264 26.0518 108.099 26.0518 109.128C26.0518 110.158 26.8865 110.993 27.9162 110.993Z" fill="#FF7D57"/>
<path d="M54.4711 15.559C53.2049 15.559 52.1748 14.5288 52.1748 13.2627C52.1748 11.9965 53.2049 10.9652 54.4711 10.9652C55.7384 10.9652 56.7685 11.9965 56.7685 13.2627C56.7685 14.5288 55.7384 15.559 54.4711 15.559ZM54.4711 11.2496C53.3631 11.2496 52.4592 12.1523 52.4592 13.2627C52.4592 14.3719 53.3631 15.2746 54.4711 15.2746C55.5803 15.2746 56.4842 14.3719 56.4842 13.2627C56.4842 12.1523 55.5815 11.2496 54.4711 11.2496Z" fill="#FFE19E"/>
<path d="M187.199 19.6736C186.485 19.6736 185.902 19.0919 185.902 18.3768C185.902 17.6617 186.484 17.08 187.199 17.08C187.914 17.08 188.496 17.6617 188.496 18.3768C188.496 19.0919 187.914 19.6736 187.199 19.6736ZM187.199 17.3655C186.641 17.3655 186.188 17.8198 186.188 18.3768C186.188 18.9337 186.642 19.388 187.199 19.388C187.756 19.388 188.21 18.9337 188.21 18.3768C188.21 17.8198 187.756 17.3655 187.199 17.3655Z" fill="#FF7D57"/>
<path fill-rule="evenodd" clip-rule="evenodd" d="M149.342 145.89C157.473 145.915 164.015 152.507 163.983 160.643C163.952 168.688 157.339 175.223 149.261 175.19C141.173 175.157 134.659 168.564 134.684 160.438C134.708 152.424 141.316 145.866 149.342 145.89ZM149.302 173.236C156.247 173.273 162 167.575 162.029 160.632C162.059 153.659 156.429 147.892 149.548 147.845C142.405 147.795 136.679 153.412 136.64 160.507C136.602 167.486 142.285 173.199 149.302 173.236Z" fill="black"/>
<path fill-rule="evenodd" clip-rule="evenodd" d="M150.082 158.586C147.971 158.586 145.921 158.586 143.87 158.586C143.442 158.586 143.016 158.597 142.589 158.583C141.933 158.563 141.506 158.151 141.526 157.577C141.544 157.027 141.955 156.64 142.59 156.638C144.848 156.628 147.106 156.633 149.364 156.633C149.584 156.633 149.803 156.633 150.032 156.633C149.784 155.52 148.672 154.702 147.374 154.685C145.787 154.667 144.2 154.689 142.613 154.675C141.883 154.67 141.395 154.135 141.546 153.515C141.688 152.93 142.108 152.72 142.687 152.723C144.436 152.732 146.186 152.726 147.936 152.726C150.621 152.726 153.307 152.723 155.993 152.729C156.726 152.73 157.186 153.16 157.141 153.77C157.1 154.316 156.686 154.672 156.041 154.676C154.495 154.685 152.95 154.679 151.369 154.679C151.661 155.332 151.938 155.952 152.243 156.633C153.421 156.633 154.659 156.631 155.899 156.634C156.681 156.636 157.124 156.978 157.142 157.583C157.16 158.207 156.697 158.583 155.891 158.585C154.672 158.589 153.451 158.586 152.198 158.586C151.168 162.163 148.457 162.79 145.194 162.44C145.196 162.496 145.199 162.552 145.201 162.607C145.814 163.152 146.425 163.699 147.039 164.244C148.59 165.621 150.143 166.999 151.695 168.376C151.77 168.444 151.849 168.508 151.919 168.582C152.348 169.029 152.374 169.594 151.988 169.998C151.616 170.387 151.076 170.42 150.616 170.032C149.918 169.44 149.244 168.82 148.559 168.212C146.4 166.293 144.241 164.373 142.081 162.456C141.698 162.116 141.388 161.744 141.604 161.187C141.815 160.644 142.269 160.534 142.796 160.537C144.322 160.544 145.847 160.553 147.373 160.534C148.632 160.517 149.618 159.817 150.082 158.586Z" fill="black"/>
</svg>
