<svg width="23" height="24" viewBox="0 0 23 24" fill="none" xmlns="http://www.w3.org/2000/svg">
<path fill-rule="evenodd" clip-rule="evenodd" d="M1.09937 7.11136C1.17329 7.06812 1.24325 7.01292 1.32179 6.98348C4.47483 5.8183 7.62919 4.65634 10.7822 3.48932C10.9994 3.40882 11.2007 3.40836 11.4185 3.48886C14.5717 4.65542 17.7254 5.81692 20.8793 6.98072C21.1161 7.06766 21.1176 7.07709 21.027 7.30847C21.0074 7.357 21.0083 7.41634 21.0083 7.47062C21.0074 9.00035 21.0058 10.5305 21.0129 12.0603C21.0129 12.1454 21.0809 12.2344 21.1293 12.3137C21.2294 12.4796 21.3372 12.6396 21.4428 12.8022C21.4428 12.8995 21.4428 12.9959 21.4428 13.0934C21.3092 13.3032 21.1761 13.5143 21.0206 13.7593C21.0699 13.9269 21.1521 14.1581 21.2076 14.3975C21.2949 14.7775 21.3655 15.1616 21.4428 15.5438C21.4428 15.6692 21.4428 15.7932 21.4428 15.9181C21.364 16.0505 21.3026 16.201 21.2036 16.3139C20.9847 16.5591 20.6329 16.609 20.3439 16.4625C20.0499 16.3139 19.8874 16.0096 19.9162 15.6655C19.9749 14.9872 20.1188 14.3304 20.3641 13.6866C20.143 13.5394 19.9633 13.3588 19.9265 13.0631C19.888 12.7523 19.9914 12.5129 20.2149 12.3128C20.2713 12.2622 20.3315 12.1748 20.3315 12.1037C20.3384 10.637 20.3362 9.16917 20.3362 7.702C20.3362 7.67509 20.3291 7.64818 20.3223 7.59666C20.2479 7.62403 20.1815 7.64657 20.1159 7.67302C17.2339 8.84579 14.3515 10.0169 11.471 11.195C11.2143 11.2997 10.9822 11.2971 10.7261 11.1925C7.61136 9.92012 4.49419 8.65466 1.37855 7.38598C1.28175 7.34642 1.19199 7.28639 1.09937 7.23602C1.09937 7.19439 1.09937 7.15276 1.09937 7.11136Z" fill="#636363"/>
<path fill-rule="evenodd" clip-rule="evenodd" d="M4.24701 9.30566C4.81967 9.53819 5.37891 9.76405 5.93771 9.99152C7.54481 10.6461 9.15257 11.2982 10.7568 11.9594C10.9942 12.0574 11.2082 12.0551 11.4454 11.9578C13.5493 11.0958 15.6558 10.2411 17.7614 9.38455C17.8214 9.36017 17.8835 9.33832 17.9398 9.31739C17.9552 9.3374 17.9695 9.34729 17.9686 9.35695C17.964 10.2908 17.968 11.2246 17.949 12.1579C17.9374 12.6998 17.6912 13.1526 17.3636 13.5554C16.7056 14.3668 15.8386 14.8521 14.9023 15.2019C13.428 15.7528 11.9078 16.0118 10.3401 15.8754C8.76163 15.7378 7.24451 15.3669 5.87985 14.4818C5.26429 14.0832 4.71979 13.5954 4.43467 12.8764C4.32555 12.6018 4.25251 12.2929 4.24393 11.9962C4.21863 11.139 4.23381 10.2809 4.23337 9.4225C4.23337 9.39007 4.24085 9.35787 4.24701 9.30566Z" fill="#636363"/>
</svg>
