<svg width="21" height="20" viewBox="0 0 21 20" fill="none" xmlns="http://www.w3.org/2000/svg">
<path fill-rule="evenodd" clip-rule="evenodd" d="M9.9212 17.82C10.0034 17.82 10.0856 17.82 10.1678 17.82C10.282 17.7398 10.4062 17.6701 10.5092 17.5787C11.683 16.5348 12.7424 15.3952 13.6668 14.1446C14.5088 13.0061 15.2206 11.8023 15.6426 10.4601C16.076 9.08263 16.1186 7.70665 15.5254 6.36202C14.7536 4.61288 13.3944 3.48029 11.4576 2.99503C11.1274 2.91219 10.7832 2.87989 10.4454 2.82422C10.1782 2.82422 9.911 2.82422 9.6438 2.82422C9.3606 2.8664 9.0738 2.89319 8.7948 2.95266C5.6234 3.6264 3.6118 6.57064 4.2318 9.6076C4.4488 10.6724 4.8622 11.664 5.411 12.6077C6.4946 14.4703 7.9192 16.0775 9.5342 17.5395C9.6508 17.6452 9.7914 17.7269 9.9212 17.82ZM10.143 11.5711C8.3674 11.649 6.8456 10.2908 6.7572 8.54797C6.6708 6.85431 8.1098 5.39986 9.9462 5.32367C11.7268 5.24976 13.2504 6.60997 13.3322 8.34638C13.4122 10.0455 11.9834 11.4897 10.143 11.5711Z" fill="#636363"/>
</svg>
