<svg width="14" height="17" viewBox="0 0 14 17" fill="none" xmlns="http://www.w3.org/2000/svg">
<path fill-rule="evenodd" clip-rule="evenodd" d="M4.19249 0.526367C4.30953 0.526367 4.42638 0.526367 4.54342 0.526367C4.97149 0.695277 5.39823 0.867417 5.82744 1.03253C6.20098 1.17617 6.57832 1.19175 6.96725 1.07813C7.46163 0.933917 7.95848 0.797117 8.45989 0.682357C8.74755 0.616617 9.04623 0.584887 9.34149 0.568927C9.55771 0.557337 9.62516 0.639037 9.63143 0.857917C9.63447 0.978757 9.61946 1.10264 9.59457 1.2212C9.46689 1.82597 9.20469 2.37545 8.88948 2.90213C8.62861 3.33723 8.31739 3.73167 7.9334 4.07386C8.14772 4.18463 8.35273 4.28134 8.54881 4.39439C8.74641 4.50801 8.94249 4.62771 9.1266 4.76147C10.8723 6.02991 12.1729 7.666 13.0902 9.60932C13.5359 10.5536 13.8327 11.5424 13.8357 12.5999C13.8403 14.1148 13.1793 15.2403 11.8523 15.9688C10.9854 16.4449 10.0395 16.6555 9.06808 16.7691C8.73121 16.8086 8.39206 16.8333 8.05367 16.8652C7.57487 16.8652 7.09664 16.8652 6.61765 16.8652C6.57091 16.8574 6.52436 16.8464 6.47724 16.843C6.02181 16.8071 5.56448 16.7877 5.11133 16.7339C4.11915 16.6159 3.15794 16.3819 2.27843 15.8841C1.26744 15.311 0.602059 14.4762 0.374249 13.324C0.199449 12.4397 0.29958 11.5675 0.54392 10.7088C1.00391 9.09119 1.84561 7.68215 2.92215 6.40592C3.62192 5.57638 4.40605 4.84089 5.35472 4.29654C5.42597 4.2555 5.49855 4.21655 5.58538 4.16829C5.50995 4.11148 5.4501 4.06949 5.39329 4.02351C4.56166 3.35015 3.98292 2.51377 3.76442 1.45433C3.66638 0.978757 3.78 0.757407 4.19249 0.526367ZM6.60359 7.85809C6.53139 7.87386 6.47477 7.88583 6.41815 7.89875C6.10256 7.97019 5.81604 8.09958 5.56334 8.30573C4.91012 8.83849 4.83051 10.026 5.7484 10.5111C5.97621 10.6313 6.22568 10.7138 6.47097 10.797C6.56901 10.8301 6.6053 10.8669 6.60416 10.971C6.59884 11.4122 6.60226 11.8538 6.60112 12.295C6.60112 12.3347 6.59143 12.3744 6.58611 12.4158C6.19642 12.3109 5.95094 12.0765 5.8244 11.7181C5.79248 11.6269 5.73871 11.5327 5.66936 11.4673C5.54377 11.3482 5.35852 11.3488 5.21089 11.443C5.06858 11.534 4.99486 11.7035 5.03875 11.872C5.20538 12.5081 5.61787 12.9193 6.22264 13.1498C6.345 13.1965 6.51942 13.2007 6.58098 13.2873C6.64444 13.3768 6.59865 13.5433 6.60226 13.6759C6.6091 13.9463 6.76338 14.1193 6.99822 14.1212C7.2399 14.1237 7.40083 13.9472 7.4071 13.67C7.41014 13.5486 7.40767 13.4274 7.40767 13.3016C7.50476 13.2862 7.5876 13.2738 7.67044 13.2586C7.9771 13.203 8.2621 13.0951 8.5167 12.91C9.2957 12.3421 9.36239 11.0368 8.34798 10.5257C8.09889 10.4005 7.82643 10.3167 7.5572 10.2399C7.43066 10.204 7.4033 10.1523 7.40539 10.0336C7.41185 9.64029 7.40786 9.24642 7.40786 8.85331C7.40786 8.80144 7.40786 8.74957 7.40786 8.69713C7.78957 8.71138 8.1139 8.94356 8.23018 9.27302C8.32632 9.54605 8.53266 9.66575 8.76484 9.58424C8.99189 9.50406 9.08005 9.27397 8.98657 9.00227C8.81101 8.4925 8.44811 8.17197 7.95183 7.99508C7.77874 7.93333 7.59691 7.89628 7.4071 7.84498C7.4071 7.70913 7.41242 7.57138 7.40596 7.43401C7.39475 7.19024 7.22983 7.02361 7.00696 7.0219C6.78162 7.02038 6.61746 7.18169 6.60454 7.42774C6.5977 7.56492 6.60359 7.70324 6.60359 7.85809Z" fill="#636363"/>
</svg>
