<svg width="21" height="19" viewBox="0 0 21 19" fill="none" xmlns="http://www.w3.org/2000/svg">
<path fill-rule="evenodd" clip-rule="evenodd" d="M1.72095 7.10564C1.74635 6.95318 1.76795 6.80036 1.79815 6.6488C2.11355 5.05922 3.00875 3.79328 4.44835 2.84018C5.69035 2.0183 7.09355 1.63148 8.63175 1.63184C10.9593 1.6322 13.2867 1.63202 15.6147 1.63202C15.6755 1.63202 15.7363 1.63202 15.8107 1.63202C15.8599 2.19002 15.8095 2.7257 15.4861 3.21386C14.9871 3.96716 14.2481 4.3583 13.2709 4.36784C12.5975 4.37414 11.9237 4.36604 11.2499 4.37252C11.1643 4.37324 11.0641 4.40456 10.9961 4.45136C10.0829 5.08388 9.17375 5.72072 8.26495 6.35828C8.19355 6.4085 8.14155 6.43244 8.04795 6.38258C7.02735 5.83952 5.80495 6.44396 5.76935 7.51748C5.74855 8.13848 5.75435 8.76056 5.77075 9.38138C5.78295 9.83552 6.01795 10.1948 6.43575 10.4538C6.46315 10.4709 6.49075 10.4877 6.51815 10.5049C6.52235 10.5078 6.52435 10.513 6.53995 10.5339C6.39475 10.7962 6.22895 11.0617 6.09935 11.341C6.00955 11.5347 5.89135 11.5999 5.65375 11.593C5.00835 11.5745 4.36215 11.5819 3.71615 11.5902C3.57495 11.592 3.48855 11.541 3.40415 11.4552C2.61755 10.6542 2.08555 9.73778 1.85575 8.68568C1.80035 8.43134 1.76535 8.1734 1.72095 7.91726C1.72095 7.64708 1.72095 7.37636 1.72095 7.10564Z" fill="#636363"/>
<path fill-rule="evenodd" clip-rule="evenodd" d="M11.7768 15.1961C11.7768 15.8061 11.7768 16.3956 11.7768 16.9929C9.43881 16.9929 7.11301 16.9929 4.76181 16.9929C4.76181 16.9421 4.76181 16.8895 4.76181 16.837C4.76181 16.0452 4.75261 15.253 4.76461 14.4615C4.77421 13.8277 4.62521 13.2301 4.32361 12.6606C4.29781 12.6118 4.27481 12.562 4.23901 12.4894C4.31781 12.4894 4.37581 12.4894 4.43381 12.4894C5.10201 12.4894 5.77041 12.4871 6.43841 12.4918C6.54281 12.4925 6.59461 12.4617 6.64021 12.3778C6.93441 11.8387 7.23221 11.3014 7.53821 10.7679C7.57581 10.7022 7.66021 10.6387 7.73841 10.6144C8.34821 10.4248 8.75381 9.93362 8.76481 9.34286C8.43981 9.34286 8.11481 9.34286 7.78081 9.34286C7.76941 9.37904 7.75761 9.42152 7.74261 9.46292C7.66681 9.67244 7.45241 9.80132 7.21861 9.77936C6.97781 9.75668 6.77541 9.58352 6.77241 9.36158C6.76361 8.74004 6.76281 8.1185 6.77261 7.49732C6.77641 7.25774 7.00801 7.07702 7.26841 7.07702C7.52881 7.07684 7.74901 7.25738 7.76561 7.49714C7.77621 7.65086 7.76761 7.80584 7.76761 7.96892C8.10301 7.96892 8.42381 7.96892 8.78001 7.96892C8.76921 7.75616 8.76781 7.53836 8.74341 7.32254C8.73201 7.2221 8.74741 7.15946 8.84061 7.09466C9.67841 6.51362 10.511 5.92646 11.3492 5.34596C11.413 5.30168 11.5088 5.27486 11.5898 5.27432C12.4472 5.2691 13.3048 5.27306 14.1624 5.26856C14.2742 5.26802 14.3234 5.29592 14.3646 5.39258C14.613 5.97182 14.7668 6.56852 14.8034 7.18862C14.8094 7.29572 14.8544 7.37276 14.9388 7.44836C15.635 8.069 16.3266 8.69414 17.0204 9.3173C17.0638 9.356 17.1146 9.38804 17.1826 9.43808C17.1046 9.47876 17.056 9.50702 17.0046 9.53024C16.3184 9.8393 15.6326 10.1491 14.944 10.4542C14.8516 10.4949 14.8146 10.5408 14.8184 10.6358C14.8266 10.8559 14.8166 11.0768 14.823 11.2971C14.8256 11.3841 14.7952 11.4305 14.7062 11.469C14.345 11.6251 13.9884 11.7889 13.6304 11.9503C13.5776 11.9741 13.5272 12.0013 13.4462 12.0411C13.7332 12.1705 13.9944 12.2864 14.2542 12.4061C14.4416 12.4923 14.6944 12.5443 14.792 12.6831C14.8858 12.8161 14.825 13.042 14.819 13.2269C14.8086 13.5415 14.8378 13.8664 14.761 14.1681C14.5988 14.8073 14.0112 15.1893 13.2688 15.195C12.7794 15.199 12.2904 15.1961 11.7768 15.1961Z" fill="#636363"/>
<path fill-rule="evenodd" clip-rule="evenodd" d="M18.105 9.82959C18.2594 10.108 18.4026 10.3662 18.5526 10.6367C17.881 10.9393 17.223 11.2354 16.5496 11.5387C16.3984 11.2669 16.253 11.0057 16.1006 10.7318C16.7726 10.4295 17.4306 10.1331 18.105 9.82959Z" fill="#636363"/>
<path fill-rule="evenodd" clip-rule="evenodd" d="M18.5531 15.2435C18.4013 15.5175 18.2583 15.7758 18.1061 16.0507C17.4401 15.7513 16.7825 15.4554 16.1021 15.1498C16.2505 14.8814 16.3949 14.6204 16.5483 14.3423C17.2147 14.6418 17.8725 14.9375 18.5531 15.2435Z" fill="#636363"/>
<path fill-rule="evenodd" clip-rule="evenodd" d="M18.8248 12.5015C18.8248 12.7963 18.8248 13.0847 18.8248 13.3824C18.1608 13.3824 17.5024 13.3824 16.835 13.3824C16.835 13.0904 16.835 12.8019 16.835 12.5015C17.49 12.5015 18.1484 12.5015 18.8248 12.5015Z" fill="#636363"/>
</svg>
