<svg width="29" height="29" viewBox="0 0 29 29" fill="none" xmlns="http://www.w3.org/2000/svg">
<path fill-rule="evenodd" clip-rule="evenodd" d="M4.99854 21.3922C5.13854 21.0996 5.3729 20.9997 5.69126 21.0137C6.08942 21.0316 6.48926 21.0182 6.90898 21.0182C6.90898 19.971 6.90898 18.9305 6.90898 17.8749C7.66246 17.9942 8.31065 17.6635 8.9821 17.4725C9.75209 17.2538 10.505 17.2438 11.2711 17.4745C11.7939 17.6321 12.3203 17.7898 12.8553 17.8917C13.8289 18.0776 14.7817 17.9382 15.7214 17.6422C16.1543 17.5061 16.5995 17.398 17.0464 17.3208C17.5425 17.2354 18.0345 17.323 18.515 17.4655C18.87 17.5708 19.2259 17.6719 19.579 17.7833C19.9105 17.8878 20.2448 17.9348 20.6105 17.8704C20.6105 18.9184 20.6105 19.9586 20.6105 21.0182C21.0333 21.0182 21.4368 21.0316 21.8394 21.014C22.1575 21 22.3921 21.0994 22.5319 21.3922C22.5319 21.4835 22.5319 21.5748 22.5319 21.6664C22.4017 21.9573 22.1763 22.0505 21.8618 22.05C16.4643 22.0441 11.0664 22.0441 5.66858 22.0502C5.35386 22.0505 5.12902 21.9567 4.99854 21.6664C4.99854 21.5748 4.99854 21.4835 4.99854 21.3922Z" fill="#636363"/>
<path fill-rule="evenodd" clip-rule="evenodd" d="M13.7584 14.0788C15.8354 14.0788 17.9128 14.0777 19.9898 14.0813C20.1474 14.0816 20.3121 14.095 20.4619 14.1407C20.8348 14.2538 21.0395 14.5436 21.0432 14.9345C21.0468 15.3167 21.0448 15.6989 21.0437 16.0813C21.0426 16.6318 20.6094 16.9821 20.0721 16.8474C19.6415 16.7396 19.217 16.6063 18.792 16.4773C17.8646 16.1964 16.9414 16.2031 16.0116 16.4761C15.4658 16.6363 14.9168 16.7979 14.3584 16.8984C13.5845 17.0373 12.8308 16.8796 12.0846 16.6528C11.5904 16.503 11.0844 16.3756 10.5745 16.2969C9.82609 16.1816 9.10089 16.3499 8.38885 16.5803C8.08561 16.6783 7.77929 16.7701 7.46989 16.8455C6.91997 16.9799 6.48709 16.6369 6.48597 16.0774C6.48513 15.7008 6.48373 15.3242 6.48653 14.9476C6.48989 14.4901 6.78277 14.158 7.23665 14.0975C7.34361 14.0833 7.45281 14.0799 7.56089 14.0799C9.62673 14.0785 11.6923 14.0788 13.7584 14.0788Z" fill="#636363"/>
<path fill-rule="evenodd" clip-rule="evenodd" d="M14.7845 12.8674C14.1019 12.8674 13.4265 12.8674 12.7397 12.8674C12.7363 12.8033 12.7313 12.7479 12.7313 12.6924C12.731 11.5458 12.7307 10.3992 12.7313 9.25264C12.7316 8.84748 12.8948 8.68676 13.3033 8.68648C13.6455 8.6862 13.9879 8.68256 14.3301 8.68816C14.607 8.69292 14.7954 8.8752 14.7963 9.15128C14.7999 10.3721 14.7971 11.5929 14.7966 12.8134C14.7963 12.8246 14.7918 12.8355 14.7845 12.8674Z" fill="#636363"/>
<path fill-rule="evenodd" clip-rule="evenodd" d="M10.6459 12.8682C9.96272 12.8682 9.2868 12.8682 8.59968 12.8682C8.59688 12.8044 8.59212 12.749 8.59212 12.6932C8.59184 11.5464 8.59156 10.3998 8.59212 9.25288C8.59212 8.85024 8.75788 8.687 9.16584 8.68672C9.5024 8.68644 9.83896 8.68364 10.1755 8.68784C10.4662 8.69148 10.6571 8.86452 10.6582 9.15236C10.6636 10.3732 10.6599 11.5942 10.6591 12.815C10.6591 12.8257 10.654 12.8366 10.6459 12.8682Z" fill="#636363"/>
<path fill-rule="evenodd" clip-rule="evenodd" d="M18.9238 12.8676C18.2423 12.8676 17.5664 12.8676 16.8759 12.8676C16.8728 12.7988 16.8678 12.738 16.8678 12.6772C16.8672 11.5418 16.8669 10.4064 16.8675 9.27103C16.8678 8.84347 17.0271 8.68667 17.4572 8.68639C17.7937 8.68639 18.1303 8.68247 18.4669 8.68807C18.7427 8.69255 18.9345 8.87763 18.9353 9.15035C18.9392 10.3656 18.937 11.581 18.9364 12.7962C18.9364 12.8175 18.9291 12.8391 18.9238 12.8676Z" fill="#636363"/>
<path fill-rule="evenodd" clip-rule="evenodd" d="M8.55908 6.79219C8.619 6.59787 8.65792 6.39319 8.74332 6.21063C8.93176 5.80855 9.13672 5.41375 9.34896 5.02371C9.4744 4.79327 9.77092 4.77787 9.88964 5.00327C10.1436 5.48655 10.4057 5.97011 10.6022 6.47775C10.8173 7.03271 10.4796 7.62575 9.9182 7.78647C9.34168 7.95167 8.75536 7.60867 8.61312 7.02123C8.59576 6.94983 8.59212 6.87507 8.58204 6.80171C8.57448 6.79863 8.56692 6.79555 8.55908 6.79219Z" fill="#636363"/>
<path fill-rule="evenodd" clip-rule="evenodd" d="M18.9468 6.79248C18.9188 7.22928 18.7275 7.54904 18.34 7.7274C17.9393 7.91192 17.5535 7.8576 17.2228 7.56948C16.9042 7.29228 16.7544 6.92352 16.9154 6.52312C17.1248 6.00176 17.3846 5.49972 17.6425 4.99964C17.7484 4.79384 18.0368 4.78824 18.1546 4.98536C18.4587 5.49412 18.753 6.00988 18.9151 6.5864C18.935 6.65696 18.9381 6.73228 18.9468 6.79248Z" fill="#636363"/>
<path fill-rule="evenodd" clip-rule="evenodd" d="M14.8086 6.8018C14.7766 7.24532 14.5762 7.56536 14.1786 7.7384C13.7804 7.91172 13.4016 7.84872 13.0782 7.56424C12.7592 7.28424 12.6204 6.91128 12.7797 6.51424C12.9891 5.99288 13.2506 5.49168 13.5099 4.99216C13.6121 4.7956 13.8977 4.79084 14.0122 4.97956C14.3228 5.49112 14.6154 6.01388 14.7817 6.59488C14.8013 6.66488 14.801 6.74104 14.8086 6.8018Z" fill="#636363"/>
</svg>
