<svg width="20" height="21" viewBox="0 0 20 21" fill="none" xmlns="http://www.w3.org/2000/svg">
<path d="M12.6591 4.875C13.3963 5.01882 14.128 5.34392 14.6591 5.875C15.1902 6.40608 15.5153 7.13784 15.6591 7.875M13.1591 1.375C14.6906 1.54514 16.0688 2.28607 17.1591 3.375C18.2494 4.46393 18.9871 5.84369 19.1591 7.375M19.1586 14.8517V17.5614C19.1628 18.5973 18.2314 19.4623 17.1856 19.3679C8.15918 19.375 1.15918 12.31 1.16624 3.34419C1.07205 2.30395 1.93276 1.37606 2.96729 1.37509H5.68243C6.12165 1.37077 6.54746 1.526 6.88049 1.81184C7.82731 2.62449 8.43631 5.38277 8.20199 6.47928C8.01905 7.33536 7.15608 7.93429 6.56937 8.51984C7.85776 10.7812 9.73383 12.6535 11.9997 13.9394C12.5864 13.3538 13.1865 12.4926 14.0443 12.31C15.1446 12.0758 17.9207 12.6856 18.7301 13.639C19.0171 13.9771 19.1696 14.4087 19.1586 14.8517Z" stroke="#6A6A6A" stroke-width="1.5" stroke-linecap="round" stroke-linejoin="round"/>
</svg>
