<svg width="67" height="67" viewBox="0 0 67 67" fill="none" xmlns="http://www.w3.org/2000/svg">
<path fill-rule="evenodd" clip-rule="evenodd" d="M40.118 4.45281C41.0037 4.83825 41.6096 5.41707 41.6122 6.47373C41.6122 6.59781 41.8802 6.78393 42.0557 6.83673C46.4368 8.15937 49.3461 10.9809 50.7215 15.3501C50.9334 16.0233 51.037 16.7354 51.1354 17.437C51.1849 17.7881 51.2971 17.9181 51.6568 17.9148C52.0838 17.9115 52.5326 17.9109 52.9358 18.0303C54.0776 18.3669 54.7838 19.147 54.9653 20.3337C55.1515 21.5547 54.6274 22.6688 53.582 23.2324C53.2025 23.437 53.1068 23.6707 53.1147 24.0674C53.1239 24.5128 53.1035 24.9748 52.9926 25.4032C52.6758 26.6295 51.5749 27.4399 50.2391 27.4861C49.9421 27.4967 49.6444 27.4881 49.3395 27.4881C49.2682 28.393 49.2537 29.2556 49.1237 30.0998C48.696 32.8744 47.3377 35.1237 45.1076 36.8153C44.6324 37.1763 44.3974 37.5215 44.4799 38.1055C44.5189 38.3775 44.4865 38.66 44.4865 39.0091C45.1439 39.0091 45.7557 39.0249 46.3655 38.9959C46.489 38.99 46.6474 38.8395 46.714 38.7147C47.3199 37.5967 48.2663 37.0852 49.5184 37.0924C50.0813 37.0957 50.643 37.0806 51.2053 37.0971C52.858 37.1439 54.0644 38.357 54.0664 40.0136C54.075 46.9654 54.0651 53.9178 54.0803 60.8709C54.0816 61.4352 53.8466 61.787 53.3919 62.0477C53.2045 62.0477 53.0177 62.0477 52.8296 62.0477C52.3187 61.7316 52.1564 61.2768 52.1617 60.6776C52.1854 57.9801 52.1722 55.2821 52.1722 52.5833C52.1722 52.3886 52.1722 52.1946 52.1722 51.9266C50.8245 52.5886 49.5586 52.6236 48.3297 51.9121C47.0816 51.1887 46.5022 50.039 46.3906 48.6339C41.2604 48.6339 36.1725 48.6339 31.0918 48.6339C30.3599 51.9695 28.7878 52.8803 25.2733 51.9953C25.2733 52.2078 25.2733 52.4084 25.2733 52.6084C25.2733 55.325 25.2594 58.0422 25.2845 60.7594C25.2898 61.3508 25.1116 61.7718 24.5948 62.0484C24.4073 62.0484 24.2199 62.0484 24.0325 62.0484C23.521 61.7322 23.3639 61.2762 23.3659 60.6776C23.3817 54.3409 23.3758 48.0049 23.3758 41.6682C23.3758 41.4458 23.3758 41.2227 23.3758 40.836C22.6108 40.995 21.9099 41.129 21.2162 41.292C20.9641 41.3514 20.7311 41.4894 20.4836 41.5752C19.9589 41.7553 19.4593 41.5574 19.2541 41.098C19.0369 40.6122 19.2329 40.0849 19.7603 39.8308C20.8387 39.312 21.9865 39.0652 23.1791 39.019C23.4787 39.0071 23.779 39.0091 24.0787 39.0131C24.9439 39.0236 25.2719 39.3457 25.2726 40.2043C25.2759 42.9605 25.2673 45.7167 25.2772 48.4715C25.2818 49.874 26.4058 50.7927 27.6928 50.4713C28.5871 50.2489 29.129 49.5051 29.1323 48.4497C29.1395 45.9747 29.1349 43.5004 29.1349 41.0254C29.1349 40.6881 29.1448 40.3502 29.129 40.0136C29.0986 39.3721 28.7462 39.0256 28.0987 38.9946C27.7991 38.9807 27.4981 39.0025 27.1991 38.984C26.6606 38.9523 26.3075 38.6078 26.2804 38.1095C26.2527 37.6092 26.5708 37.2119 27.0777 37.1109C28.6313 36.8034 29.9302 37.3842 30.7631 38.7458C30.8311 38.856 30.9691 38.9919 31.0786 38.9966C31.6918 39.021 32.3069 39.0084 32.9814 39.0084C32.9814 38.4679 33.0005 37.9828 32.9695 37.5017C32.9609 37.3644 32.8355 37.1967 32.7154 37.1089C29.6273 34.8498 28.1324 31.8045 28.1885 27.9871C28.1905 27.8419 28.1693 27.6967 28.1568 27.5251C27.6849 27.4967 27.2354 27.5046 26.7979 27.4353C25.3544 27.2076 24.3981 26.1008 24.3565 24.6481C24.3545 24.5729 24.346 24.497 24.3559 24.4231C24.4351 23.8212 24.2786 23.4291 23.678 23.0859C22.6451 22.4952 22.2386 21.1937 22.5501 20.0374C22.8676 18.8573 23.8298 18.0336 25.0416 17.9333C25.429 17.901 25.8224 17.928 26.1233 17.928C26.4375 16.7103 26.621 15.5527 27.0335 14.4828C28.5317 10.5934 31.3268 8.06169 35.3257 6.88425C35.7092 6.77139 35.861 6.64401 35.8788 6.22095C35.9184 5.30949 36.5454 4.81251 37.3057 4.45215C38.2436 4.45281 39.1814 4.45281 40.118 4.45281ZM28.2287 17.9056C28.4505 17.9056 28.6703 17.9056 28.8901 17.9056C32.9576 17.9056 37.0252 17.9049 41.0921 17.9076C41.3357 17.9076 41.5832 17.9036 41.8201 17.9491C42.2907 18.0382 42.5369 18.3748 42.5481 18.8236C42.5613 19.3002 42.3138 19.6533 41.8201 19.7536C41.5852 19.8018 41.3363 19.7958 41.0921 19.7958C36.0134 19.7978 30.9334 19.7965 25.8534 19.7991C25.592 19.7991 25.3234 19.7938 25.0706 19.848C24.6159 19.9456 24.3631 20.2552 24.3413 20.7231C24.3196 21.1891 24.5367 21.5263 24.9796 21.6682C25.2053 21.7402 25.4587 21.7488 25.6996 21.7488C34.378 21.7527 43.0563 21.7527 51.7353 21.7488C51.9953 21.7488 52.2673 21.7369 52.5108 21.659C52.9319 21.5237 53.1431 21.1779 53.1299 20.7508C53.1167 20.3001 52.8778 19.9648 52.4197 19.8539C52.2046 19.8018 51.9736 19.8004 51.7498 19.7998C49.8385 19.7958 47.9264 19.7971 46.0144 19.7971C45.8455 19.7971 45.6765 19.8031 45.5082 19.7925C44.8931 19.7523 44.5208 19.4058 44.5096 18.8705C44.4984 18.3128 44.8825 17.926 45.5247 17.9142C46.5556 17.8937 47.5865 17.9062 48.6175 17.9056C48.8174 17.9056 49.0161 17.9056 49.2161 17.9056C49.1441 14.0532 45.8428 9.68793 41.5878 8.75667C41.5878 9.21273 41.5957 9.65691 41.5865 10.1011C41.5726 10.7353 41.2063 11.1492 40.6645 11.1597C40.1279 11.1709 39.7141 10.7551 39.6982 10.1341C39.6778 9.34803 39.6916 8.55999 39.6916 7.77261C39.691 7.31391 39.6916 6.85389 39.6916 6.40839C38.994 6.40839 38.3881 6.40839 37.8014 6.40839C37.8014 8.33823 37.8014 10.2192 37.8014 12.1418C38.466 12.1418 39.0844 12.1154 39.7009 12.1497C40.2817 12.1821 40.6671 12.6236 40.6354 13.1417C40.6051 13.6473 40.2203 14.0083 39.6566 14.0254C39.1135 14.0419 38.5696 14.0334 38.0258 14.0314C36.5837 14.0241 35.859 13.2942 35.8557 11.8428C35.8537 10.8172 35.8557 9.79221 35.8557 8.75403C31.763 9.68991 28.372 13.807 28.2287 17.9056ZM30.0906 23.6852C30.0906 25.3583 30.0741 26.968 30.0932 28.5771C30.146 32.945 33.4058 36.5262 37.7928 37.0561C42.0214 37.567 46.0798 34.7362 47.1113 30.5413C47.2315 30.0535 47.3291 29.5473 47.3371 29.0477C47.3641 27.273 47.3483 25.4962 47.3483 23.6852C41.5997 23.6852 35.8781 23.6852 30.0906 23.6852ZM31.0582 46.6565C36.2154 46.6565 41.3014 46.6565 46.3814 46.6565C46.3814 44.7267 46.3814 42.8437 46.3814 40.935C45.7102 40.935 45.0785 40.935 44.4166 40.935C44.3657 41.1171 44.3162 41.2947 44.2667 41.4722C43.6503 43.6977 41.6769 45.4032 39.456 45.6269C36.4398 45.9312 33.9694 44.2369 33.1444 41.3059C33.1042 41.164 32.986 40.9389 32.8949 40.9343C32.2884 40.9007 31.6792 40.9171 31.0575 40.9171C31.0582 42.8793 31.0582 44.7471 31.0582 46.6565ZM52.1716 44.3868C52.1716 42.9434 52.1795 41.4999 52.1676 40.0565C52.1623 39.3826 51.7967 39.017 51.1241 38.9959C50.581 38.9787 50.0371 38.9853 49.4933 38.9926C48.6782 39.0038 48.3244 39.3516 48.3238 40.1614C48.3191 42.9354 48.3178 45.7101 48.3238 48.4841C48.3257 49.6681 49.1488 50.5393 50.245 50.5426C51.3386 50.5459 52.1623 49.676 52.1702 48.492C52.1788 47.1238 52.1722 45.755 52.1716 44.3868ZM42.6319 38.2507C39.9906 39.2368 37.4674 39.219 34.9126 38.2917C34.9126 39.0276 34.867 39.6988 34.9211 40.3614C35.0762 42.2563 36.6701 43.7439 38.5775 43.8198C40.4605 43.8944 42.1759 42.5665 42.4841 40.7172C42.6115 39.9496 42.5831 39.1569 42.6319 38.2507ZM49.3177 25.5385C50.9222 25.7556 51.5195 25.1385 51.142 23.6892C50.5407 23.6892 49.9368 23.6892 49.3177 23.6892C49.3177 24.336 49.3177 24.9405 49.3177 25.5385ZM28.1555 23.6832C27.5179 23.6832 26.9147 23.6832 26.3174 23.6832C26.0501 25.2633 26.6071 25.8177 28.1555 25.5161C28.1555 24.9194 28.1555 24.3168 28.1555 23.6832Z" fill="white"/>
<path fill-rule="evenodd" clip-rule="evenodd" d="M5.13403 22.4519C5.37031 21.9688 5.73199 21.7411 6.29497 21.7457C8.73103 21.7642 11.1678 21.7483 13.6045 21.7562C14.4242 21.7595 14.9067 22.339 14.6578 23.0083C14.4651 23.5283 14.0282 23.6518 13.522 23.6504C11.6106 23.6465 9.69859 23.6491 7.78723 23.6491C7.56481 23.6491 7.34239 23.6491 7.08103 23.6491C7.08103 31.9691 7.08103 40.2455 7.08103 48.5747C10.8259 48.5747 14.5786 48.5747 18.4423 48.5747C18.1479 47.5431 18.441 46.4066 17.5394 45.5136C16.6484 44.6318 15.8531 43.6544 15.0182 42.7159C14.4961 42.1291 14.4724 41.8473 14.8895 41.1642C15.4947 40.1742 16.1052 39.1875 16.7401 38.1559C15.8293 37.1349 14.9218 36.1178 14.0143 35.1021C13.4401 34.4586 13.4091 34.1854 13.8414 33.4554C14.4222 32.4733 15.0063 31.4912 15.6089 30.4775C14.8083 29.5772 14.013 28.6823 13.2164 27.788C13.0917 27.6481 12.9636 27.5114 12.8402 27.3702C12.3379 26.7973 12.2977 26.231 12.728 25.837C13.1636 25.4384 13.7332 25.5248 14.2387 26.0852C15.0921 27.0316 15.9389 27.984 16.7877 28.9337C16.8622 29.0176 16.9362 29.1027 17.0107 29.1872C17.9592 30.2471 17.9598 30.2643 17.2186 31.513C16.7309 32.3341 16.2458 33.1571 15.7614 33.9794C15.7429 34.0118 15.7343 34.0487 15.7046 34.1279C16.5745 35.1278 17.4595 36.1429 18.3433 37.16C18.903 37.8048 18.9313 38.0833 18.501 38.8133C17.9869 39.6838 17.4774 40.5583 16.9447 41.417C16.7791 41.6836 16.7857 41.8585 17.0055 42.0968C17.8582 43.0181 18.705 43.9468 19.5135 44.9064C19.7398 45.175 19.8982 45.5473 19.9669 45.8957C20.8288 50.2966 20.3946 54.7496 20.4612 59.1822C20.485 60.7523 19.5036 61.6216 18.0714 62.0479C14.547 62.0479 11.0219 62.0479 7.49749 62.0479C6.28177 61.6889 5.49703 60.8989 5.13535 59.6858C5.13535 58.4483 5.13535 57.2108 5.13535 55.9733C5.45479 55.5621 5.79667 55.1905 6.39529 55.403C7.01701 55.6235 7.05661 56.1376 7.04605 56.6894C7.03219 57.4009 7.04143 58.113 7.04341 58.8251C7.04539 59.8244 7.35691 60.1392 8.34889 60.1399C11.309 60.1412 14.2698 60.1405 17.2305 60.1399C18.2898 60.1399 18.5862 59.8415 18.5875 58.7605C18.5901 56.2307 18.5888 53.7009 18.5875 51.1718C18.5875 50.9731 18.5683 50.7738 18.5578 50.5751C14.6922 50.5751 10.8853 50.5751 7.04209 50.5751C7.04209 51.2239 7.05199 51.8219 7.03945 52.4185C7.02823 52.932 6.76357 53.2719 6.25537 53.3709C5.70163 53.4798 5.39275 53.1293 5.13601 52.7109C5.13403 42.6248 5.13403 32.538 5.13403 22.4519Z" fill="white"/>
<path fill-rule="evenodd" clip-rule="evenodd" d="M46.0804 62.0479C45.5874 61.7126 45.433 61.2466 45.4468 60.6586C45.4778 59.4224 45.4567 58.1856 45.4567 56.9487C45.4567 56.7481 45.4567 56.5481 45.4567 56.3184C40.9549 56.3184 36.5223 56.3184 32.0066 56.3184C32.0066 56.8015 32.0066 57.2807 32.0066 57.7605C32.0066 58.7347 31.9789 59.7102 32.0172 60.683C32.0403 61.2856 31.8601 61.737 31.3446 62.0485C31.1572 62.0485 30.9697 62.0485 30.7816 62.0485C30.2734 61.7654 30.086 61.347 30.0966 60.7556C30.1276 59.0343 30.1058 57.3117 30.1084 55.5904C30.1097 54.7126 30.418 54.3919 31.2747 54.3919C36.2524 54.3892 41.2314 54.3886 46.2098 54.3919C47.0176 54.3925 47.3437 54.706 47.3476 55.506C47.3582 57.3025 47.339 59.099 47.3582 60.8955C47.3641 61.4572 47.1259 61.8169 46.6434 62.0492C46.4553 62.0479 46.2679 62.0479 46.0804 62.0479Z" fill="white"/>
<path fill-rule="evenodd" clip-rule="evenodd" d="M10.9005 54.3667C10.9005 55.0405 10.9005 55.6326 10.9005 56.3064C11.1222 56.3064 11.3209 56.3064 11.5189 56.3064C12.8666 56.3064 14.215 56.3011 15.5634 56.3091C16.2273 56.313 16.6035 56.6463 16.622 57.2126C16.6405 57.798 16.2451 58.1953 15.5772 58.2C13.7424 58.2118 11.9076 58.2118 10.0728 58.2006C9.3587 58.196 8.99042 57.8323 8.98184 57.1281C8.96732 55.9302 8.96798 54.731 8.98184 53.5331C8.98976 52.821 9.34682 52.4758 10.0695 52.4731C11.9043 52.4652 13.7398 52.4652 15.5746 52.4738C16.2385 52.4771 16.6101 52.8163 16.6227 53.3859C16.6359 53.9687 16.2432 54.3535 15.5647 54.3621C14.2546 54.3772 12.9432 54.3673 11.6324 54.3673C11.4087 54.3667 11.1856 54.3667 10.9005 54.3667Z" fill="#FEBA0F"/>
<path fill-rule="evenodd" clip-rule="evenodd" d="M44.4793 26.5106C44.4912 27.0234 44.0351 27.4861 43.5229 27.4808C43.024 27.4755 42.6036 27.0551 42.5937 26.5508C42.5831 26.0308 42.9659 25.6209 43.4827 25.5991C44.0186 25.5754 44.4674 25.9859 44.4793 26.5106Z" fill="white"/>
<path fill-rule="evenodd" clip-rule="evenodd" d="M34.863 26.5277C34.863 27.0636 34.4288 27.4959 33.906 27.4794C33.4025 27.4642 33.0005 27.0458 32.9985 26.5336C32.9966 25.9891 33.4097 25.5846 33.9555 25.5964C34.475 25.6096 34.863 26.0063 34.863 26.5277Z" fill="white"/>
</svg>
