<svg width="67" height="67" viewBox="0 0 67 67" fill="none" xmlns="http://www.w3.org/2000/svg">
<path fill-rule="evenodd" clip-rule="evenodd" d="M39.8358 4.32781C40.7215 4.71325 41.3274 5.29207 41.3301 6.34873C41.3301 6.47281 41.598 6.65893 41.7736 6.71173C46.1547 8.03437 49.0639 10.8559 50.4394 15.2251C50.6512 15.8983 50.7549 16.6104 50.8532 17.312C50.9027 17.6631 51.0149 17.7931 51.3746 17.7898C51.8016 17.7865 52.2504 17.7859 52.6537 17.9053C53.7955 18.2419 54.5017 19.022 54.6832 20.2087C54.8693 21.4297 54.3453 22.5438 53.2998 23.1074C52.9203 23.312 52.8246 23.5457 52.8325 23.9424C52.8418 24.3878 52.8213 24.8498 52.7104 25.2782C52.3936 26.5045 51.2928 27.3149 49.9569 27.3611C49.6599 27.3717 49.3623 27.3631 49.0573 27.3631C48.9861 28.268 48.9715 29.1306 48.8415 29.9748C48.4138 32.7494 47.0556 34.9987 44.8254 36.6903C44.3502 37.0513 44.1153 37.3965 44.1978 37.9805C44.2367 38.2525 44.2044 38.535 44.2044 38.8841C44.8617 38.8841 45.4735 38.8999 46.0834 38.8709C46.2068 38.865 46.3652 38.7145 46.4319 38.5897C47.0377 37.4717 47.9842 36.9602 49.2362 36.9674C49.7992 36.9707 50.3608 36.9556 50.9232 36.9721C52.5758 37.0189 53.7823 38.232 53.7843 39.8886C53.7928 46.8404 53.7829 53.7928 53.7981 60.7459C53.7994 61.3102 53.5645 61.662 53.1097 61.9227C52.9223 61.9227 52.7355 61.9227 52.5474 61.9227C52.0366 61.6066 51.8742 61.1518 51.8795 60.5526C51.9033 57.8551 51.8901 55.1571 51.8901 52.4583C51.8901 52.2636 51.8901 52.0696 51.8901 51.8016C50.5423 52.4636 49.2765 52.4986 48.0475 51.7871C46.7995 51.0637 46.22 49.914 46.1085 48.5089C40.9783 48.5089 35.8903 48.5089 30.8097 48.5089C30.0777 51.8445 28.5056 52.7553 24.9911 51.8703C24.9911 52.0828 24.9911 52.2834 24.9911 52.4834C24.9911 55.2 24.9772 57.9172 25.0023 60.6344C25.0076 61.2258 24.8294 61.6468 24.3126 61.9234C24.1252 61.9234 23.9377 61.9234 23.7503 61.9234C23.2388 61.6072 23.0817 61.1512 23.0837 60.5526C23.0995 54.2159 23.0936 47.8799 23.0936 41.5432C23.0936 41.3208 23.0936 41.0977 23.0936 40.711C22.3287 40.87 21.6277 41.004 20.9341 41.167C20.682 41.2264 20.449 41.3644 20.2015 41.4502C19.6768 41.6303 19.1772 41.4324 18.9719 40.973C18.7548 40.4872 18.9508 39.9599 19.4781 39.7058C20.5566 39.187 21.7043 38.9402 22.8969 38.894C23.1966 38.8821 23.4969 38.8841 23.7965 38.8881C24.6618 38.8986 24.9898 39.2207 24.9904 40.0793C24.9937 42.8355 24.9852 45.5917 24.9951 48.3465C24.9997 49.749 26.1237 50.6677 27.4107 50.3463C28.305 50.1239 28.8468 49.3801 28.8501 48.3247C28.8574 45.8497 28.8528 43.3754 28.8528 40.9004C28.8528 40.5631 28.8627 40.2252 28.8468 39.8886C28.8165 39.2471 28.464 38.9006 27.8166 38.8696C27.5169 38.8557 27.216 38.8775 26.917 38.859C26.3784 38.8273 26.0253 38.4828 25.9983 37.9845C25.9705 37.4842 26.2887 37.0869 26.7955 36.9859C28.3492 36.6784 29.6481 37.2592 30.481 38.6208C30.549 38.731 30.6869 38.8669 30.7965 38.8716C31.4096 38.896 32.0247 38.8834 32.6992 38.8834C32.6992 38.3429 32.7184 37.8578 32.6874 37.3767C32.6788 37.2394 32.5534 37.0717 32.4333 36.9839C29.3451 34.7248 27.8502 31.6795 27.9063 27.8621C27.9083 27.7169 27.8872 27.5717 27.8746 27.4001C27.4027 27.3717 26.9533 27.3796 26.5157 27.3103C25.0723 27.0826 24.1159 25.9758 24.0744 24.5231C24.0724 24.4479 24.0638 24.372 24.0737 24.2981C24.1529 23.6962 23.9965 23.3041 23.3959 22.9609C22.363 22.3702 21.9564 21.0687 22.2679 19.9124C22.5854 18.7323 23.5477 17.9086 24.7594 17.8083C25.1469 17.776 25.5402 17.803 25.8412 17.803C26.1553 16.5853 26.3388 15.4277 26.7513 14.3578C28.2495 10.4684 31.0446 7.93669 35.0436 6.75925C35.427 6.64639 35.5788 6.51901 35.5966 6.09595C35.6362 5.18449 36.2632 4.68751 37.0236 4.32715C37.9614 4.32781 38.8993 4.32781 39.8358 4.32781ZM27.9466 17.7806C28.1683 17.7806 28.3881 17.7806 28.6079 17.7806C32.6755 17.7806 36.7431 17.7799 40.81 17.7826C41.0535 17.7826 41.301 17.7786 41.538 17.8241C42.0085 17.9132 42.2547 18.2498 42.2659 18.6986C42.2791 19.1752 42.0316 19.5283 41.538 19.6286C41.303 19.6768 41.0542 19.6708 40.81 19.6708C35.7313 19.6728 30.6513 19.6715 25.5712 19.6741C25.3099 19.6741 25.0413 19.6688 24.7885 19.723C24.3337 19.8206 24.081 20.1302 24.0592 20.5981C24.0374 21.0641 24.2545 21.4013 24.6974 21.5432C24.9231 21.6152 25.1766 21.6238 25.4175 21.6238C34.0958 21.6277 42.7741 21.6277 51.4531 21.6238C51.7132 21.6238 51.9851 21.6119 52.2286 21.534C52.6497 21.3987 52.8609 21.0529 52.8477 20.6258C52.8345 20.1751 52.5956 19.8398 52.1376 19.7289C51.9224 19.6768 51.6914 19.6754 51.4677 19.6748C49.5563 19.6708 47.6443 19.6721 45.7323 19.6721C45.5633 19.6721 45.3943 19.6781 45.226 19.6675C44.6109 19.6273 44.2387 19.2808 44.2275 18.7455C44.2162 18.1878 44.6004 17.801 45.2425 17.7892C46.2735 17.7687 47.3044 17.7812 48.3353 17.7806C48.5353 17.7806 48.7339 17.7806 48.9339 17.7806C48.862 13.9282 45.5607 9.56293 41.3056 8.63167C41.3056 9.08773 41.3136 9.53191 41.3043 9.97609C41.2905 10.6103 40.9242 11.0242 40.3823 11.0347C39.8457 11.0459 39.4319 10.6301 39.4161 10.0091C39.3956 9.22303 39.4095 8.43499 39.4095 7.64761C39.4088 7.18891 39.4095 6.72889 39.4095 6.28339C38.7118 6.28339 38.106 6.28339 37.5192 6.28339C37.5192 8.21323 37.5192 10.0942 37.5192 12.0168C38.1838 12.0168 38.8023 11.9904 39.4187 12.0247C39.9995 12.0571 40.3849 12.4986 40.3533 13.0167C40.3229 13.5223 39.9381 13.8833 39.3745 13.9004C38.8313 13.9169 38.2875 13.9084 37.7436 13.9064C36.3015 13.8991 35.5768 13.1692 35.5735 11.7178C35.5716 10.6922 35.5735 9.66721 35.5735 8.62903C31.4809 9.56491 28.0898 13.682 27.9466 17.7806ZM29.8084 23.5602C29.8084 25.2333 29.7919 26.843 29.8111 28.4521C29.8639 32.82 33.1236 36.4012 37.5106 36.9311C41.7393 37.442 45.7976 34.6112 46.8292 30.4163C46.9493 29.9285 47.047 29.4223 47.0549 28.9227C47.082 27.148 47.0661 25.3712 47.0661 23.5602C41.3175 23.5602 35.596 23.5602 29.8084 23.5602ZM30.776 46.5315C35.9332 46.5315 41.0192 46.5315 46.0992 46.5315C46.0992 44.6017 46.0992 42.7187 46.0992 40.81C45.428 40.81 44.7964 40.81 44.1344 40.81C44.0836 40.9921 44.0341 41.1697 43.9846 41.3472C43.3681 43.5727 41.3947 45.2782 39.1738 45.5019C36.1576 45.8062 33.6873 44.1119 32.8623 41.1809C32.822 41.039 32.7039 40.8139 32.6128 40.8093C32.0062 40.7757 31.3971 40.7921 30.7753 40.7921C30.776 42.7543 30.776 44.6221 30.776 46.5315ZM51.8894 44.2618C51.8894 42.8184 51.8973 41.3749 51.8854 39.9315C51.8802 39.2576 51.5145 38.892 50.842 38.8709C50.2988 38.8537 49.755 38.8603 49.2111 38.8676C48.396 38.8788 48.0423 39.2266 48.0416 40.0364C48.037 42.8104 48.0357 45.5851 48.0416 48.3591C48.0436 49.5431 48.8666 50.4143 49.9629 50.4176C51.0565 50.4209 51.8802 49.551 51.8881 48.367C51.8967 46.9988 51.8901 45.63 51.8894 44.2618ZM42.3498 38.1257C39.7084 39.1118 37.1853 39.094 34.6304 38.1667C34.6304 38.9026 34.5849 39.5738 34.639 40.2364C34.7941 42.1313 36.388 43.6189 38.2954 43.6948C40.1784 43.7694 41.8937 42.4415 42.2019 40.5922C42.3293 39.8246 42.3009 39.0319 42.3498 38.1257ZM49.0356 25.4135C50.64 25.6306 51.2373 25.0135 50.8598 23.5642C50.2585 23.5642 49.6546 23.5642 49.0356 23.5642C49.0356 24.211 49.0356 24.8155 49.0356 25.4135ZM27.8733 23.5582C27.2358 23.5582 26.6325 23.5582 26.0352 23.5582C25.7679 25.1383 26.325 25.6927 27.8733 25.3911C27.8733 24.7944 27.8733 24.1918 27.8733 23.5582Z" fill="black"/>
<path fill-rule="evenodd" clip-rule="evenodd" d="M4.85193 22.3269C5.08821 21.8438 5.44989 21.6161 6.01287 21.6207C8.44893 21.6392 10.8857 21.6233 13.3224 21.6312C14.1421 21.6345 14.6245 22.214 14.3757 22.8833C14.183 23.4033 13.7461 23.5268 13.2399 23.5254C11.3285 23.5215 9.41649 23.5241 7.50513 23.5241C7.28271 23.5241 7.06029 23.5241 6.79893 23.5241C6.79893 31.8441 6.79893 40.1205 6.79893 48.4497C10.5438 48.4497 14.2965 48.4497 18.1602 48.4497C17.8658 47.4181 18.1589 46.2816 17.2573 45.3886C16.3663 44.5068 15.571 43.5294 14.7361 42.5909C14.214 42.0041 14.1903 41.7223 14.6074 41.0392C15.2126 40.0492 15.8231 39.0625 16.458 38.0309C15.5472 37.0099 14.6397 35.9928 13.7322 34.9771C13.158 34.3336 13.127 34.0604 13.5593 33.3304C14.1401 32.3483 14.7242 31.3662 15.3268 30.3525C14.5262 29.4522 13.7309 28.5573 12.9343 27.663C12.8095 27.5231 12.6815 27.3864 12.5581 27.2452C12.0558 26.6723 12.0156 26.106 12.4459 25.712C12.8815 25.3134 13.4511 25.3998 13.9566 25.9602C14.81 26.9066 15.6568 27.859 16.5056 28.8087C16.5801 28.8926 16.654 28.9777 16.7286 29.0622C17.677 30.1221 17.6777 30.1393 16.9365 31.388C16.4488 32.2091 15.9637 33.0321 15.4792 33.8544C15.4608 33.8868 15.4522 33.9237 15.4225 34.0029C16.2924 35.0028 17.1774 36.0179 18.0612 37.035C18.6208 37.6798 18.6492 37.9583 18.2189 38.6883C17.7048 39.5588 17.1952 40.4333 16.6626 41.292C16.497 41.5586 16.5036 41.7335 16.7234 41.9718C17.5761 42.8931 18.4228 43.8218 19.2313 44.7814C19.4577 45.05 19.6161 45.4223 19.6848 45.7707C20.5467 50.1716 20.1125 54.6246 20.1791 59.0572C20.2029 60.6273 19.2214 61.4966 17.7893 61.9229C14.2648 61.9229 10.7398 61.9229 7.21539 61.9229C5.99967 61.5639 5.21493 60.7739 4.85325 59.5608C4.85325 58.3233 4.85325 57.0858 4.85325 55.8483C5.17269 55.4371 5.51457 55.0655 6.11319 55.278C6.73491 55.4985 6.77451 56.0126 6.76395 56.5644C6.75009 57.2759 6.75933 57.988 6.76131 58.7001C6.76329 59.6994 7.07481 60.0142 8.06679 60.0149C11.0269 60.0162 13.9876 60.0155 16.9484 60.0149C18.0077 60.0149 18.304 59.7165 18.3054 58.6355C18.308 56.1057 18.3067 53.5759 18.3054 51.0468C18.3054 50.8481 18.2862 50.6488 18.2757 50.4501C14.41 50.4501 10.6032 50.4501 6.75999 50.4501C6.75999 51.0989 6.76989 51.6969 6.75735 52.2935C6.74613 52.807 6.48147 53.1469 5.97327 53.2459C5.41953 53.3548 5.11065 53.0043 4.85391 52.5859C4.85193 42.4998 4.85193 32.413 4.85193 22.3269Z" fill="black"/>
<path fill-rule="evenodd" clip-rule="evenodd" d="M45.7983 61.9229C45.3052 61.5876 45.1508 61.1216 45.1647 60.5336C45.1957 59.2974 45.1746 58.0606 45.1746 56.8237C45.1746 56.6231 45.1746 56.4231 45.1746 56.1934C40.6727 56.1934 36.2401 56.1934 31.7244 56.1934C31.7244 56.6765 31.7244 57.1557 31.7244 57.6355C31.7244 58.6097 31.6967 59.5852 31.735 60.558C31.7581 61.1606 31.5779 61.612 31.0624 61.9235C30.875 61.9235 30.6876 61.9235 30.4995 61.9235C29.9913 61.6404 29.8038 61.222 29.8144 60.6306C29.8454 58.9093 29.8236 57.1867 29.8263 55.4654C29.8276 54.5876 30.1358 54.2669 30.9925 54.2669C35.9702 54.2642 40.9492 54.2636 45.9276 54.2669C46.7355 54.2675 47.0615 54.581 47.0655 55.381C47.076 57.1775 47.0569 58.974 47.076 60.7705C47.082 61.3322 46.8437 61.6919 46.3612 61.9242C46.1731 61.9229 45.9857 61.9229 45.7983 61.9229Z" fill="black"/>
<path fill-rule="evenodd" clip-rule="evenodd" d="M10.6184 54.2417C10.6184 54.9155 10.6184 55.5076 10.6184 56.1814C10.8401 56.1814 11.0388 56.1814 11.2368 56.1814C12.5845 56.1814 13.9329 56.1761 15.2813 56.1841C15.9452 56.188 16.3214 56.5213 16.3399 57.0876C16.3584 57.673 15.963 58.0703 15.2951 58.075C13.4603 58.0868 11.6255 58.0868 9.79071 58.0756C9.07659 58.071 8.70831 57.7073 8.69973 57.0031C8.68521 55.8052 8.68587 54.606 8.69973 53.4081C8.70765 52.696 9.06471 52.3508 9.78741 52.3481C11.6222 52.3402 13.4577 52.3402 15.2925 52.3488C15.9564 52.3521 16.328 52.6913 16.3406 53.2609C16.3538 53.8437 15.9611 54.2285 15.2826 54.2371C13.9725 54.2522 12.6611 54.2423 11.3503 54.2423C11.1266 54.2417 10.9035 54.2417 10.6184 54.2417Z" fill="#FEBA0F"/>
<path fill-rule="evenodd" clip-rule="evenodd" d="M44.1971 26.3856C44.209 26.8984 43.7529 27.3611 43.2408 27.3558C42.7418 27.3505 42.3214 26.9301 42.3115 26.4258C42.3009 25.9058 42.6837 25.4959 43.2005 25.4741C43.7364 25.4504 44.1852 25.8609 44.1971 26.3856Z" fill="black"/>
<path fill-rule="evenodd" clip-rule="evenodd" d="M34.5809 26.4027C34.5809 26.9386 34.1467 27.3709 33.6239 27.3544C33.1204 27.3392 32.7184 26.9208 32.7164 26.4086C32.7145 25.8641 33.1276 25.4596 33.6734 25.4714C34.1929 25.4846 34.5809 25.8813 34.5809 26.4027Z" fill="black"/>
</svg>
