<svg width="23" height="23" viewBox="0 0 23 23" fill="none" xmlns="http://www.w3.org/2000/svg">
<g clip-path="url(#clip0_428_897)">
<path fill-rule="evenodd" clip-rule="evenodd" d="M0.799805 17.3471C0.799805 12.9271 0.799805 8.50734 0.799805 4.08732C1.04235 3.35725 1.58091 3.16717 2.30251 3.1697C6.82758 3.18609 11.3527 3.17795 15.8777 3.17795C15.9694 3.17795 16.0609 3.17795 16.1734 3.17795C16.1734 3.28608 16.1734 3.36539 16.1734 3.44459C16.1734 4.59937 16.1715 5.75415 16.1755 6.90893C16.176 7.07547 16.1825 7.24751 16.2239 7.40712C16.3918 8.05359 16.9106 8.4376 17.6085 8.43925C18.884 8.44222 20.1596 8.44002 21.4353 8.44002C21.4353 11.409 21.4353 14.378 21.4353 17.3471C21.4095 17.4076 21.3823 17.4675 21.3583 17.5286C21.2157 17.8912 20.9584 18.1453 20.5796 18.2192C20.2822 18.2772 19.9712 18.2638 19.6417 18.2836C19.6417 18.1715 19.6417 18.099 19.6417 18.0265C19.6417 17.4221 19.6353 16.8174 19.6469 16.2131C19.6492 16.0969 19.6942 15.9616 19.7645 15.8696C20.6195 14.7505 20.6913 13.2312 19.9368 12.0143C19.2172 10.8535 17.7856 10.2372 16.4375 10.508C14.1826 10.9609 13.0093 13.5004 14.1865 15.4756C14.4657 15.9441 14.5735 16.3849 14.5466 16.9016C14.5268 17.2834 14.5431 17.6669 14.5423 18.0498C14.5421 18.1153 14.537 18.1806 14.5332 18.2674C14.4367 18.2674 14.3511 18.2674 14.2655 18.2674C10.7054 18.2674 7.14548 18.2674 3.58555 18.2674C3.06162 18.2674 2.53769 18.2697 2.01376 18.2667C1.51535 18.2639 1.13233 18.0624 0.907495 17.6025C0.867015 17.5195 0.835445 17.4324 0.799805 17.3471ZM14.6199 6.75339C10.8437 6.75339 7.08762 6.75339 3.31253 6.75339C3.31253 7.09593 3.32298 7.42417 3.30846 7.75131C3.30032 7.93589 3.35565 7.98737 3.54221 7.98704C7.16165 7.98154 10.7811 7.98297 14.4004 7.98297C14.4715 7.98297 14.5427 7.98297 14.6198 7.98297C14.6199 7.55793 14.6199 7.16325 14.6199 6.75339ZM3.32166 11.8579C6.52156 11.8579 9.70199 11.8579 12.8933 11.8579C12.8933 11.6361 12.8933 11.4249 12.8933 11.2051C9.69825 11.2051 6.51452 11.2051 3.32166 11.2051C3.32166 11.4273 3.32166 11.6331 3.32166 11.8579ZM8.96774 13.3294C7.07684 13.3294 5.20761 13.3294 3.32727 13.3294C3.32727 13.5561 3.32727 13.7729 3.32727 13.9847C5.21641 13.9847 7.0907 13.9847 8.96774 13.9847C8.96774 13.7616 8.96774 13.5552 8.96774 13.3294Z" fill="#636363"/>
<path fill-rule="evenodd" clip-rule="evenodd" d="M14.4079 13.8429C14.349 12.4697 15.526 11.1953 16.9071 11.137C18.4577 11.0715 19.7144 12.1911 19.7776 13.6945C19.8391 15.1603 18.6864 16.4369 17.2468 16.4975C15.6872 16.5632 14.4759 15.4305 14.4079 13.8429Z" fill="#636363"/>
<path fill-rule="evenodd" clip-rule="evenodd" d="M18.949 19.8199C18.5707 19.6703 18.1932 19.5615 17.856 19.3783C17.3352 19.0948 16.8536 19.0901 16.3314 19.3758C15.9945 19.5602 15.616 19.669 15.2368 19.8191C15.2368 18.7521 15.2368 17.7091 15.2368 16.6333C15.8094 16.9847 16.4194 17.1816 17.0815 17.1824C17.7475 17.1832 18.3624 16.9951 18.9491 16.6279C18.949 17.6983 18.949 18.7407 18.949 19.8199Z" fill="#636363"/>
<path fill-rule="evenodd" clip-rule="evenodd" d="M21.3237 7.7578C20.9228 7.7578 20.4741 7.75791 20.0254 7.7578C19.2192 7.7578 18.4132 7.75923 17.6073 7.75725C17.1374 7.75604 16.8565 7.49413 16.8538 7.02872C16.847 5.78605 16.8516 4.54338 16.8522 3.30071C16.8522 3.28168 16.8583 3.26276 16.854 3.28817C18.337 4.7713 19.8369 6.27104 21.3237 7.7578Z" fill="#636363"/>
</g>
<defs>
<clipPath id="clip0_428_897">
<rect width="22" height="22" fill="white" transform="translate(0.0390625 0.558594)"/>
</clipPath>
</defs>
</svg>
