<svg width="23" height="24" viewBox="0 0 23 24" fill="none" xmlns="http://www.w3.org/2000/svg">
<g clip-path="url(#clip0_322_1237)">
<path fill-rule="evenodd" clip-rule="evenodd" d="M0.67627 6.98611C0.75019 6.94287 0.82015 6.88767 0.89869 6.85823C4.05173 5.69305 7.20609 4.53109 10.3591 3.36407C10.5763 3.28357 10.7776 3.28311 10.9954 3.36361C14.1486 4.53017 17.3023 5.69167 20.4562 6.85547C20.693 6.94241 20.6945 6.95184 20.6039 7.18322C20.5843 7.23175 20.5852 7.29109 20.5852 7.34537C20.5843 8.8751 20.5827 10.4053 20.5898 11.935C20.5898 12.0201 20.6578 12.1091 20.7062 12.1885C20.8063 12.3543 20.9141 12.5144 21.0197 12.677C21.0197 12.7743 21.0197 12.8707 21.0197 12.9682C20.8861 13.1779 20.753 13.3891 20.5975 13.634C20.6468 13.8017 20.729 14.0329 20.7845 14.2723C20.8718 14.6522 20.9424 15.0363 21.0197 15.4186C21.0197 15.544 21.0197 15.6679 21.0197 15.7928C20.9409 15.9253 20.8795 16.0757 20.7805 16.1886C20.5616 16.4338 20.2098 16.4837 19.9208 16.3372C19.6268 16.1886 19.4643 15.8844 19.4931 15.5403C19.5518 14.862 19.6957 14.2051 19.941 13.5614C19.7199 13.4142 19.5402 13.2336 19.5034 12.9378C19.4649 12.6271 19.5683 12.3877 19.7918 12.1876C19.8482 12.137 19.9084 12.0496 19.9084 11.9785C19.9153 10.5118 19.9131 9.04392 19.9131 7.57675C19.9131 7.54984 19.906 7.52293 19.8992 7.47141C19.8249 7.49878 19.7584 7.52132 19.6928 7.54777C16.8108 8.72054 13.9284 9.8917 11.0479 11.0698C10.7912 11.1744 10.5591 11.1719 10.303 11.0672C7.18827 9.79487 4.07109 8.52941 0.955449 7.26073C0.858649 7.22117 0.76889 7.16114 0.67627 7.11077C0.67627 7.06914 0.67627 7.02751 0.67627 6.98611Z" fill="#636363"/>
<path fill-rule="evenodd" clip-rule="evenodd" d="M3.8244 9.18066C4.39706 9.41319 4.9563 9.63905 5.5151 9.86652C7.1222 10.5211 8.72996 11.1732 10.3342 11.8344C10.5716 11.9324 10.7856 11.9301 11.0228 11.8328C13.1267 10.9708 15.2332 10.1161 17.3388 9.25955C17.3988 9.23517 17.4609 9.21332 17.5172 9.19239C17.5326 9.2124 17.5469 9.22229 17.546 9.23195C17.5414 10.1658 17.5454 11.0996 17.5264 12.0329C17.5148 12.5748 17.2686 13.0276 16.941 13.4304C16.283 14.2418 15.416 14.7271 14.4797 15.0769C13.0054 15.6278 11.4852 15.8868 9.91752 15.7504C8.33902 15.6128 6.8219 15.2419 5.45724 14.3568C4.84168 13.9582 4.29718 13.4704 4.01206 12.7514C3.90294 12.4768 3.8299 12.1679 3.82132 11.8712C3.79602 11.014 3.8112 10.1559 3.81076 9.2975C3.81076 9.26507 3.81824 9.23287 3.8244 9.18066Z" fill="#636363"/>
</g>
<defs>
<clipPath id="clip0_322_1237">
<rect width="22" height="23" fill="white" transform="translate(0.121582 0.375)"/>
</clipPath>
</defs>
</svg>
