<svg width="160" height="160" viewBox="0 0 160 160" fill="none" xmlns="http://www.w3.org/2000/svg">
<circle cx="80.1216" cy="80.0367" r="79.1763" fill="black"/>
<circle cx="80.1216" cy="80.0367" r="52.7842" fill="black"/>
<path fill-rule="evenodd" clip-rule="evenodd" d="M85.0454 44.6291C85.4683 44.9197 85.7198 45.1302 86.0067 45.283C88.1343 46.4306 88.2796 46.4026 89.6321 44.3515C92.3278 40.2716 95.0198 36.1879 97.6857 32.0894C99.0382 30.0122 99.014 29.9898 101.261 30.9493C102.006 31.2678 102.738 31.6274 103.686 32.0652C100.847 37.7268 98.0546 43.2915 95.2303 48.9251C95.6607 49.1859 95.9662 49.4076 96.2978 49.5622C98.5371 50.6111 98.5557 50.6018 99.9455 48.4947C102.876 44.0553 105.806 39.614 108.972 34.8243C111.606 36.9518 114.292 38.77 116.561 41.0112C132.285 56.5484 137.086 75.1036 131.154 96.3042C128.343 106.347 122.5 114.615 114.579 121.385C112.047 123.548 109.663 123.824 106.863 122.203C102.88 119.901 99.7499 116.665 97.5944 112.62C95.7072 109.082 92.9314 106.379 89.9488 103.877C85.405 100.062 80.7289 96.4029 76.1125 92.677C75.8666 92.4795 75.6467 92.2504 75.2313 91.8666C76.4702 91.0488 77.5936 90.3017 78.7225 89.5658C83.1005 86.7006 87.3332 83.6788 90.6437 79.5263C95.9289 72.9034 95.3104 64.3505 90.5561 57.9829C86.9196 53.1168 82.387 49.5063 76.0827 48.8319C69.3648 48.1147 63.5412 51.781 62.1402 57.7835C61.0224 62.5695 62.3172 66.9941 65.6929 70.4238C68.7128 73.4921 72.2785 76.022 75.6114 78.7811C75.9839 79.0903 76.4031 79.3418 77.0049 79.7629C74.3371 81.4246 71.837 82.984 69.3331 84.5395C67.513 85.6685 65.7097 86.8291 63.8579 87.9078C62.7848 88.53 62.8258 89.1467 63.3549 90.1862C64.7036 92.8204 67.01 94.2568 69.4263 95.7323C74.7171 98.9664 79.9055 102.37 85.1125 105.744C85.9825 106.307 86.7426 107.046 87.512 107.75C90.8821 110.832 91.1262 113.844 88.0392 117.551C84.6971 121.559 81.1705 125.413 77.724 129.333C77.4333 129.663 77.1353 129.987 76.8484 130.32C73.8993 133.757 73.862 133.918 69.3983 132.841C48.1418 127.723 34.2888 114.69 28.5266 93.5656C24.7336 79.6716 26.7325 66.2377 33.769 53.7297C39.9261 42.7829 48.9932 34.964 60.7318 30.314C70.6856 26.3719 80.8985 25.7274 91.3423 27.7804C91.8732 27.8865 92.3911 28.0598 93.2425 28.2908C90.4928 33.7698 87.8026 39.1296 85.0454 44.6291Z" fill="#FEBA0F"/>
<path fill-rule="evenodd" clip-rule="evenodd" d="M77.778 56.321C85.5466 56.5147 89.1589 62.2676 86.8358 68.8811C85.8596 71.6644 84.0432 73.8366 81.843 75.7145C81.5561 75.9586 80.9879 76.1933 80.701 76.0741C77.1818 74.6023 73.767 72.9368 71.5445 69.6356C69.607 66.7592 69.2474 63.6611 70.9521 60.6058C72.6585 57.5487 75.5014 56.2874 77.778 56.321Z" fill="#FFCE00"/>
</svg>
