<svg width="57" height="57" viewBox="0 0 57 57" fill="none" xmlns="http://www.w3.org/2000/svg">
<path fill-rule="evenodd" clip-rule="evenodd" d="M27.138 34.413C29.4184 34.9222 31.641 35.3824 33.8439 35.9213C36.3733 36.5406 37.94 38.1652 38.484 40.7104C39.4174 45.0808 40.3132 49.4596 41.2236 53.8345C41.3967 54.6639 41.0808 55.0702 40.2474 55.0702C27.8961 55.0719 15.5447 55.0719 3.1933 55.0702C2.36271 55.0696 2.02441 54.6296 2.24077 53.8294C3.41134 49.5 4.63979 45.1847 5.74067 40.8374C6.32961 38.5131 7.57661 36.8665 9.85199 36.0826C10.6337 35.8134 11.4643 35.6847 12.2752 35.5027C13.879 35.1419 15.4851 34.7884 17.1412 34.4209C17.1412 33.4785 17.1451 32.5456 17.135 31.6133C17.1339 31.5257 17.0631 31.4194 16.9945 31.3537C15.6958 30.1084 14.9467 28.5832 14.6922 26.8063C14.2954 26.758 13.9122 26.7512 13.5503 26.6602C12.3162 26.3483 11.5632 25.5363 11.3597 24.2938C11.1659 23.1125 11.6025 22.1347 12.5955 21.4603C12.8961 21.2563 13.0102 21.0552 12.9866 20.7112C12.9619 20.3482 12.9804 19.9829 12.981 19.6188C12.9821 18.7876 13.0923 18.6309 13.8768 18.3645C14.0763 17.0045 14.645 15.7991 15.5879 14.7454C15.3665 14.5094 15.1575 14.2869 14.931 14.0447C15.3362 13.6777 15.7273 13.3231 16.1971 12.8971C16.3511 13.1174 16.5607 13.4164 16.6911 13.6024C17.8038 13.2079 18.7574 12.8696 19.7881 12.5038C19.769 12.4184 19.7302 12.2419 19.6914 12.0654C19.5436 11.3894 19.887 10.9426 20.5877 10.9348C21.6285 10.923 22.6698 10.9224 23.71 10.9353C24.404 10.9443 24.739 11.3978 24.5867 12.0801C24.5456 12.2644 24.5035 12.4487 24.4816 12.542C25.3936 12.8943 26.2731 13.2428 27.161 13.5676C27.27 13.6075 27.4678 13.5676 27.551 13.4872C27.7612 13.2849 27.9287 13.0382 28.1293 12.7898C28.5963 13.2635 28.9672 13.6401 29.4094 14.0891C29.1492 14.2756 28.8941 14.4572 28.603 14.6656C29.61 15.7744 30.217 16.9573 30.403 18.3948C31.2229 18.4707 31.3589 19.0388 31.3032 19.734C31.292 19.8717 31.3145 20.0127 31.2993 20.1498C31.2302 20.7967 31.351 21.2687 31.972 21.7054C32.929 22.3775 33.1898 23.6958 32.7964 24.8085C32.4019 25.9251 31.383 26.6911 30.2085 26.7495C30.0197 26.7591 29.8298 26.7507 29.7595 26.7507C29.3617 27.7656 29.0475 28.7349 28.6024 29.6397C28.3254 30.2034 27.8786 30.6945 27.4521 31.1682C27.2234 31.4223 27.1228 31.6566 27.1312 31.9898C27.1509 32.7861 27.138 33.5819 27.138 34.413ZM16.3179 22.6135C16.3179 23.8324 16.291 24.994 16.323 26.1533C16.4045 29.0356 18.654 31.4071 21.5824 31.7296C24.3658 32.037 27.0722 30.1533 27.7629 27.4065C27.8798 26.9406 27.9483 26.4517 27.9601 25.9718C27.9888 24.8535 27.9691 23.7346 27.9691 22.6135C24.0528 22.6135 20.2107 22.6135 16.3179 22.6135ZM30.4693 36.8744C30.4693 37.1031 30.4693 37.2925 30.4693 37.4813C30.4693 39.945 30.4715 42.4081 30.4682 44.8711C30.467 45.6157 30.1731 45.9091 29.4257 45.9097C24.5681 45.9119 19.7111 45.9119 14.8535 45.9091C14.1072 45.9091 13.815 45.6163 13.8138 44.8683C13.811 42.4047 13.8127 39.9416 13.8127 37.4785C13.8127 37.2897 13.8127 37.1009 13.8127 36.8722C13.3974 36.9632 13.031 37.0739 12.6573 37.1161C12.2471 37.1627 12.1358 37.3425 12.1369 37.7528C12.1521 42.8003 12.147 47.849 12.147 52.8971C12.147 53.0612 12.147 53.2253 12.147 53.3765C12.7444 53.3765 13.2586 53.3765 13.8127 53.3765C13.8127 52.3104 13.8228 51.273 13.8088 50.2356C13.802 49.7355 14.0083 49.4141 14.4769 49.2432C14.8349 49.1128 15.2008 48.9926 15.5368 48.8172C17.5734 47.7568 19.7319 47.5416 22.0106 47.5247C24.4703 47.5068 26.7637 47.8327 28.9975 48.8931C30.5907 49.6495 30.467 49.4551 30.4693 51.123C30.4704 51.8777 30.4693 52.633 30.4693 53.3787C31.0638 53.3787 31.5775 53.3787 32.1355 53.3787C32.1355 53.164 32.1355 52.9769 32.1355 52.7903C32.1355 48.9392 32.1355 45.0881 32.1355 41.2369C32.1355 40.0394 32.1451 38.8424 32.1237 37.646C32.1203 37.4875 31.9945 37.2329 31.8703 37.1919C31.4314 37.0497 30.9678 36.9812 30.4693 36.8744ZM15.4952 44.2097C19.955 44.2097 24.3641 44.2097 28.771 44.2097C28.771 41.6174 28.771 39.0599 28.771 36.4839C28.1619 36.3512 27.5808 36.2242 27.0132 36.1C26.2422 38.3507 24.7811 39.7253 22.4518 39.8478C19.8077 39.986 18.1376 38.5738 17.2564 36.1012C16.6675 36.2332 16.0842 36.3642 15.4952 36.4957C15.4952 39.0869 15.4952 41.6303 15.4952 44.2097ZM10.4555 53.3916C10.4555 48.13 10.4555 42.9189 10.4555 37.6718C10.3263 37.705 10.2251 37.7185 10.1335 37.755C8.79606 38.3024 7.89692 39.2673 7.51648 40.657C6.38637 44.7807 5.2838 48.9122 4.17336 53.0415C4.1447 53.1472 4.14976 53.2629 4.13683 53.3911C6.25375 53.3916 8.33132 53.3916 10.4555 53.3916ZM33.8377 37.6364C33.8377 42.9324 33.8377 48.1558 33.8377 53.3675C35.7169 53.3675 37.559 53.3675 39.4315 53.3675C38.5447 49.1201 37.7012 44.9088 36.7711 40.7171C36.4289 39.179 35.3685 38.1866 33.8377 37.6364ZM15.4784 53.3691C19.9533 53.3691 24.3652 53.3691 28.8036 53.3691C28.8036 52.5706 28.789 51.8086 28.8104 51.0477C28.8194 50.742 28.7238 50.5902 28.4316 50.4812C27.5398 50.148 26.6648 49.7692 25.7724 49.4382C25.4723 49.327 25.1402 49.2539 24.8216 49.2505C23.0002 49.2337 21.1789 49.2393 19.3576 49.2466C19.1547 49.2472 18.9378 49.2679 18.7512 49.3399C17.7493 49.7259 16.7507 50.121 15.7627 50.5402C15.634 50.5947 15.4964 50.8027 15.4919 50.9437C15.4649 51.7383 15.4784 52.5352 15.4784 53.3691ZM16.7906 15.9464C16.1465 16.5769 15.6756 17.5451 15.6031 18.3937C19.9634 18.3937 24.322 18.3937 28.8694 18.3937C28.4215 17.5041 28.0253 16.7174 27.5988 15.8711C27.2858 16.1408 27.0936 16.3071 26.9548 16.4268C26.5502 16.0458 26.1658 15.6834 25.7724 15.3136C25.873 15.1866 25.973 15.0596 26.1399 14.8483C25.4105 14.6375 24.7553 14.4482 24.0921 14.2565C23.7566 14.968 23.9331 15.9913 22.7861 15.9278C22.1517 15.8924 21.4234 16.0217 20.9131 15.7491C20.5136 15.535 20.3843 14.8163 20.0876 14.2279C19.4913 14.3942 18.8243 14.5808 18.0746 14.7898C18.2831 15.0399 18.4011 15.1826 18.5107 15.3141C18.1269 15.7103 17.7594 16.0891 17.3772 16.4836C17.1699 16.2937 16.9799 16.12 16.7906 15.9464ZM18.8131 32.6395C18.8131 33.4914 18.7939 34.2534 18.817 35.0149C18.8659 36.6704 20.1944 38.0703 21.8184 38.2035C23.5279 38.3434 25.0919 37.2639 25.3594 35.5954C25.5094 34.6592 25.3863 33.6791 25.3863 32.6822C23.2391 33.6634 21.0603 33.6712 18.8131 32.6395ZM14.6675 20.8899C19.6796 20.8899 24.6468 20.8899 29.6129 20.8899C29.6129 20.6168 29.6129 20.3802 29.6129 20.1206C24.6226 20.1206 19.656 20.1206 14.6675 20.1206C14.6675 20.3842 14.6675 20.6208 14.6675 20.8899ZM14.6174 22.6185C13.9931 22.5281 13.4896 22.6742 13.1625 23.2114C12.895 23.6514 12.9113 24.1072 13.2019 24.5303C13.5418 25.0249 14.0302 25.1575 14.6174 25.0575C14.6174 24.2342 14.6174 23.4295 14.6174 22.6185ZM29.664 25.0636C30.6665 25.2395 31.3252 24.523 31.2976 23.797C31.2684 23.0046 30.6221 22.5337 29.664 22.6298C29.664 23.4317 29.664 24.2359 29.664 25.0636ZM22.7299 12.6195C22.3248 12.6195 21.9674 12.6195 21.5532 12.6195C21.6768 13.1118 21.7847 13.5788 21.9162 14.0391C21.9409 14.1262 22.059 14.2419 22.1371 14.2442C22.2129 14.2459 22.3382 14.1323 22.363 14.0469C22.4962 13.5856 22.6052 13.1169 22.7299 12.6195Z" fill="black"/>
<path fill-rule="evenodd" clip-rule="evenodd" d="M42.7094 17.9541C41.1348 17.0932 39.6035 16.2548 38.0704 15.4169C36.8695 14.7611 35.6681 14.1075 34.4683 13.45C33.6096 12.9791 33.5624 12.3401 34.3514 11.7759C38.1008 9.0948 41.8547 6.41873 45.6019 3.73367C45.9851 3.45943 46.3628 3.28972 46.7854 3.60611C47.1815 3.90226 47.1591 4.29732 47.027 4.73172C46.3425 6.9835 45.671 9.23978 44.9955 11.4949C44.9416 11.6742 44.8927 11.8552 44.828 12.0816C46.0644 12.5334 47.2782 12.9791 48.4937 13.4202C49.9739 13.958 51.4547 14.4936 52.936 15.0269C53.3227 15.1662 53.6896 15.3303 53.7689 15.7906C53.8498 16.2548 53.5497 16.52 53.2294 16.7796C48.9624 20.2419 44.6977 23.7081 40.4324 27.1726C39.8642 27.6339 39.5136 27.6975 39.1354 27.4148C38.7465 27.1231 38.715 26.7489 39.0297 26.0576C39.948 24.0408 40.8679 22.025 41.7856 20.0081C42.0918 19.336 42.3919 18.66 42.7094 17.9541ZM51.2738 16.2216C51.0512 16.1328 50.9147 16.0749 50.7759 16.0238C48.419 15.164 46.061 14.3059 43.7052 13.445C43.0123 13.1915 42.8505 12.8723 43.0567 12.1665C43.2506 11.5022 43.4535 10.8403 43.6519 10.1771C44.0166 8.95487 44.3807 7.7326 44.787 6.37096C41.8648 8.45922 39.0606 10.4626 36.2047 12.5037C38.8544 13.949 41.4079 15.341 43.9598 16.7358C44.6662 17.1219 44.7741 17.4388 44.4414 18.1739C43.6856 19.8457 42.9241 21.5142 42.1666 23.1849C42.0924 23.3479 42.0345 23.5176 41.9682 23.6839C41.9913 23.6991 42.0143 23.7143 42.0373 23.7294C45.0961 21.2427 48.1543 18.7566 51.2738 16.2216Z" fill="#FEBA0F"/>
<path fill-rule="evenodd" clip-rule="evenodd" d="M44.6353 33.3625C44.6353 31.993 44.6353 30.66 44.6353 29.2905C45.1815 29.2905 45.707 29.2905 46.2729 29.2905C46.2729 30.6415 46.2729 31.9885 46.2729 33.3765C46.8354 33.3765 47.3619 33.3765 47.9458 33.3765C47.9458 32.0301 47.9458 30.6701 47.9458 29.2832C48.5162 29.2832 49.0298 29.2832 49.6008 29.2832C49.6008 30.6319 49.6008 31.9913 49.6008 33.3844C50.183 33.3844 50.709 33.3844 51.2743 33.3844C51.2743 32.0267 51.2743 30.6797 51.2743 29.2939C51.8374 29.2939 52.3634 29.2939 52.9299 29.2939C52.9299 30.6347 52.9299 31.9806 52.9299 33.3636C53.7076 33.5255 53.8195 34.0672 53.797 34.7342C53.7638 35.7222 53.8032 36.7124 53.7829 37.7003C53.738 39.8655 52.2735 41.7605 50.1998 42.3657C50.02 42.4185 49.8379 42.4663 49.625 42.5247C49.625 43.0698 49.6334 43.6054 49.6227 44.1409C49.6109 44.7372 49.3226 45.0333 48.7387 45.0783C46.3504 45.2621 44.6668 46.9322 44.6308 49.1537C44.5943 51.4526 46.2374 53.17 48.7545 53.4268C48.7545 53.9483 48.7545 54.4749 48.7545 55.0031C46.5151 55.4021 43.7328 53.1863 43.1073 50.5237C42.474 47.8297 43.9165 44.2674 47.9318 43.4452C47.9318 43.1463 47.9318 42.8406 47.9318 42.5107C46.9635 42.2994 46.0936 41.901 45.3731 41.2114C44.3582 40.2398 43.8272 39.0496 43.8002 37.648C43.78 36.6067 43.794 35.5659 43.7957 34.5252C43.7957 33.8064 43.9104 33.6468 44.6353 33.3625ZM52.0436 35.1203C49.8666 35.1203 47.6772 35.1203 45.4619 35.1203C45.4619 35.9863 45.4484 36.8163 45.4647 37.6452C45.499 39.353 46.8219 40.7613 48.5067 40.9035C50.1835 41.0445 51.7627 39.9324 52.015 38.2555C52.1684 37.244 52.0436 36.1903 52.0436 35.1203Z" fill="black"/>
</svg>
