<svg width="58" height="58" viewBox="0 0 58 58" fill="none" xmlns="http://www.w3.org/2000/svg">
<path fill-rule="evenodd" clip-rule="evenodd" d="M27.4201 34.538C29.7006 35.0472 31.9231 35.5074 34.126 36.0463C36.6554 36.6656 38.2222 38.2902 38.7662 40.8354C39.6996 45.2058 40.5954 49.5846 41.5057 53.9595C41.6788 54.7889 41.363 55.1952 40.5296 55.1952C28.1782 55.1969 15.8268 55.1969 3.47546 55.1952C2.64488 55.1946 2.30658 54.7546 2.52293 53.9544C3.6935 49.625 4.92195 45.3097 6.02284 40.9624C6.61178 38.6381 7.85877 36.9915 10.1342 36.2076C10.9158 35.9384 11.7464 35.8097 12.5573 35.6277C14.1612 35.2669 15.7673 34.9134 17.4234 34.5459C17.4234 33.6035 17.4273 32.6706 17.4172 31.7383C17.4161 31.6507 17.3453 31.5444 17.2767 31.4787C15.978 30.2334 15.2289 28.7082 14.9743 26.9313C14.5776 26.883 14.1943 26.8762 13.8324 26.7852C12.5984 26.4733 11.8453 25.6613 11.6419 24.4188C11.448 23.2375 11.8847 22.2597 12.8777 21.5853C13.1783 21.3813 13.2924 21.1802 13.2688 20.8362C13.2441 20.4732 13.2626 20.1079 13.2632 19.7438C13.2643 18.9126 13.3744 18.7559 14.1589 18.4895C14.3584 17.1295 14.9271 15.9241 15.8701 14.8704C15.6487 14.6344 15.4397 14.4119 15.2132 14.1697C15.6184 13.8027 16.0095 13.4481 16.4793 13.0221C16.6333 13.2424 16.8429 13.5414 16.9732 13.7274C18.0859 13.3329 19.0396 12.9946 20.0702 12.6288C20.0511 12.5434 20.0123 12.3669 19.9736 12.1904C19.8258 11.5144 20.1691 11.0676 20.8699 11.0598C21.9107 11.048 22.952 11.0474 23.9922 11.0603C24.6862 11.0693 25.0211 11.5228 24.8688 12.2051C24.8278 12.3894 24.7857 12.5737 24.7637 12.667C25.6758 13.0193 26.5553 13.3678 27.4432 13.6926C27.5522 13.7325 27.75 13.6926 27.8332 13.6122C28.0434 13.4099 28.2108 13.1632 28.4114 12.9148C28.8784 13.3885 29.2493 13.7651 29.6916 14.2141C29.4314 14.4006 29.1763 14.5822 28.8852 14.7906C29.8922 15.8994 30.4991 17.0823 30.6851 18.5198C31.505 18.5957 31.641 19.1638 31.5854 19.859C31.5742 19.9967 31.5966 20.1377 31.5815 20.2748C31.5124 20.9217 31.6332 21.3937 32.2541 21.8304C33.2112 22.5025 33.4719 23.8208 33.0785 24.9335C32.684 26.0501 31.6652 26.8161 30.4907 26.8745C30.3019 26.8841 30.1119 26.8757 30.0417 26.8757C29.6438 27.8906 29.3297 28.8599 28.8846 29.7647C28.6076 30.3284 28.1608 30.8195 27.7343 31.2932C27.5056 31.5473 27.405 31.7816 27.4134 32.1148C27.4331 32.9111 27.4201 33.7069 27.4201 34.538ZM16.6001 22.7385C16.6001 23.9574 16.5731 25.119 16.6052 26.2783C16.6866 29.1606 18.9362 31.5321 21.8646 31.8546C24.648 32.162 27.3544 30.2783 28.045 27.5315C28.1619 27.0656 28.2305 26.5767 28.2423 26.0968C28.271 24.9785 28.2513 23.8596 28.2513 22.7385C24.335 22.7385 20.4928 22.7385 16.6001 22.7385ZM30.7515 36.9994C30.7515 37.2281 30.7515 37.4175 30.7515 37.6063C30.7515 40.07 30.7537 42.5331 30.7503 44.9961C30.7492 45.7407 30.4553 46.0341 29.7079 46.0347C24.8503 46.0369 19.9932 46.0369 15.1356 46.0341C14.3893 46.0341 14.0971 45.7413 14.096 44.9933C14.0932 42.5297 14.0949 40.0666 14.0949 37.6035C14.0949 37.4147 14.0949 37.2259 14.0949 36.9972C13.6796 37.0882 13.3132 37.1989 12.9395 37.2411C12.5292 37.2877 12.418 37.4675 12.4191 37.8778C12.4343 42.9253 12.4292 47.974 12.4292 53.0221C12.4292 53.1862 12.4292 53.3503 12.4292 53.5015C13.0266 53.5015 13.5408 53.5015 14.0949 53.5015C14.0949 52.4354 14.105 51.398 14.0909 50.3606C14.0842 49.8605 14.2904 49.5391 14.7591 49.3682C15.1171 49.2378 15.4829 49.1176 15.819 48.9422C17.8555 47.8818 20.014 47.6666 22.2928 47.6497C24.7525 47.6318 27.0459 47.9577 29.2797 49.0181C30.8728 49.7745 30.7492 49.5801 30.7515 51.248C30.7526 52.0027 30.7515 52.758 30.7515 53.5037C31.346 53.5037 31.8596 53.5037 32.4177 53.5037C32.4177 53.289 32.4177 53.1019 32.4177 52.9153C32.4177 49.0642 32.4177 45.2131 32.4177 41.3619C32.4177 40.1644 32.4272 38.9674 32.4059 37.771C32.4025 37.6125 32.2766 37.3579 32.1524 37.3169C31.7135 37.1747 31.2499 37.1062 30.7515 36.9994ZM15.7774 44.3347C20.2371 44.3347 24.6463 44.3347 29.0532 44.3347C29.0532 41.7424 29.0532 39.1849 29.0532 36.6089C28.444 36.4762 27.863 36.3492 27.2954 36.225C26.5244 38.4757 25.0633 39.8503 22.7339 39.9728C20.0899 40.111 18.4197 38.6988 17.5386 36.2262C16.9496 36.3582 16.3663 36.4892 15.7774 36.6207C15.7774 39.2119 15.7774 41.7553 15.7774 44.3347ZM10.7377 53.5166C10.7377 48.255 10.7377 43.0439 10.7377 37.7968C10.6085 37.83 10.5073 37.8435 10.4157 37.88C9.07823 38.4274 8.17909 39.3923 7.79864 40.782C6.66853 44.9057 5.56596 49.0372 4.45552 53.1665C4.42686 53.2722 4.43192 53.3879 4.419 53.5161C6.53591 53.5166 8.61349 53.5166 10.7377 53.5166ZM34.1199 37.7614C34.1199 43.0574 34.1199 48.2808 34.1199 53.4925C35.9991 53.4925 37.8412 53.4925 39.7136 53.4925C38.8269 49.2451 37.9834 45.0338 37.0533 40.8421C36.7111 39.304 35.6506 38.3116 34.1199 37.7614ZM15.7605 53.4941C20.2354 53.4941 24.6474 53.4941 29.0858 53.4941C29.0858 52.6956 29.0712 51.9336 29.0925 51.1727C29.1015 50.867 29.006 50.7152 28.7138 50.6062C27.8219 50.273 26.947 49.8942 26.0546 49.5632C25.7545 49.452 25.4224 49.3789 25.1037 49.3755C23.2824 49.3587 21.4611 49.3643 19.6398 49.3716C19.4369 49.3722 19.22 49.3929 19.0334 49.4649C18.0314 49.8509 17.0328 50.246 16.0449 50.6652C15.9162 50.7197 15.7785 50.9277 15.774 51.0687C15.747 51.8633 15.7605 52.6602 15.7605 53.4941ZM17.0727 16.0714C16.4287 16.7019 15.9578 17.6701 15.8853 18.5187C20.2456 18.5187 24.6041 18.5187 29.1515 18.5187C28.7037 17.6291 28.3075 16.8424 27.8809 15.9961C27.5679 16.2658 27.3757 16.4321 27.2369 16.5518C26.8323 16.1708 26.4479 15.8084 26.0546 15.4386C26.1552 15.3116 26.2552 15.1846 26.4221 14.9733C25.6927 14.7625 25.0374 14.5732 24.3743 14.3815C24.0388 15.093 24.2153 16.1163 23.0683 16.0528C22.4338 16.0174 21.7055 16.1467 21.1953 15.8741C20.7957 15.66 20.6665 14.9413 20.3698 14.3529C19.7735 14.5192 19.1065 14.7058 18.3568 14.9148C18.5653 15.1649 18.6833 15.3076 18.7929 15.4391C18.4091 15.8353 18.0415 16.2141 17.6594 16.6086C17.452 16.4187 17.2621 16.245 17.0727 16.0714ZM19.0952 32.7645C19.0952 33.6164 19.0761 34.3784 19.0992 35.1399C19.148 36.7954 20.4765 38.1953 22.1006 38.3285C23.8101 38.4684 25.374 37.3889 25.6415 35.7204C25.7916 34.7842 25.6685 33.8041 25.6685 32.8072C23.5212 33.7884 21.3425 33.7962 19.0952 32.7645ZM14.9496 21.0149C19.9618 21.0149 24.929 21.0149 29.895 21.0149C29.895 20.7418 29.895 20.5052 29.895 20.2456C24.9048 20.2456 19.9382 20.2456 14.9496 20.2456C14.9496 20.5092 14.9496 20.7458 14.9496 21.0149ZM14.8996 22.7435C14.2753 22.6531 13.7717 22.7992 13.4447 23.3364C13.1772 23.7764 13.1935 24.2322 13.484 24.6553C13.824 25.1499 14.3124 25.2825 14.8996 25.1825C14.8996 24.3592 14.8996 23.5545 14.8996 22.7435ZM29.9462 25.1886C30.9487 25.3645 31.6073 24.648 31.5798 23.922C31.5506 23.1296 30.9043 22.6587 29.9462 22.7548C29.9462 23.5567 29.9462 24.3609 29.9462 25.1886ZM23.0121 12.7445C22.6069 12.7445 22.2495 12.7445 21.8354 12.7445C21.959 13.2368 22.0669 13.7038 22.1984 14.1641C22.2231 14.2512 22.3411 14.3669 22.4192 14.3692C22.4951 14.3709 22.6204 14.2573 22.6451 14.1719C22.7783 13.7106 22.8873 13.2419 23.0121 12.7445Z" fill="white"/>
<path fill-rule="evenodd" clip-rule="evenodd" d="M42.9915 18.0791C41.4169 17.2182 39.8856 16.3798 38.3525 15.5419C37.1516 14.8861 35.9502 14.2325 34.7504 13.575C33.8917 13.1041 33.8445 12.4651 34.6335 11.9009C38.3829 9.2198 42.1368 6.54373 45.884 3.85867C46.2672 3.58443 46.6449 3.41472 47.0675 3.73111C47.4637 4.02726 47.4412 4.42232 47.3091 4.85672C46.6246 7.1085 45.9531 9.36478 45.2776 11.6199C45.2237 11.7992 45.1748 11.9802 45.1102 12.2066C46.3465 12.6584 47.5603 13.1041 48.7758 13.5452C50.256 14.083 51.7368 14.6186 53.2182 15.1519C53.6048 15.2912 53.9717 15.4553 54.051 15.9156C54.1319 16.3798 53.8318 16.645 53.5115 16.9046C49.2445 20.3669 44.9798 23.8331 40.7145 27.2976C40.1463 27.7589 39.7957 27.8225 39.4175 27.5398C39.0286 27.2481 38.9971 26.8739 39.3118 26.1826C40.2301 24.1658 41.15 22.15 42.0677 20.1331C42.374 19.461 42.674 18.785 42.9915 18.0791ZM51.5559 16.3466C51.3333 16.2578 51.1968 16.1999 51.058 16.1488C48.7011 15.289 46.3431 14.4309 43.9873 13.57C43.2944 13.3165 43.1326 12.9973 43.3388 12.2915C43.5327 11.6272 43.7356 10.9653 43.934 10.3021C44.2987 9.07987 44.6628 7.8576 45.0691 6.49596C42.1469 8.58422 39.3427 10.5876 36.4868 12.6287C39.1365 14.074 41.69 15.466 44.2419 16.8608C44.9483 17.2469 45.0562 17.5638 44.7235 18.2989C43.9677 19.9707 43.2062 21.6392 42.4487 23.3099C42.3745 23.4729 42.3166 23.6426 42.2503 23.8089C42.2734 23.8241 42.2964 23.8393 42.3194 23.8544C45.3782 21.3677 48.4364 18.8816 51.5559 16.3466Z" fill="#FEBA0F"/>
<path fill-rule="evenodd" clip-rule="evenodd" d="M44.9174 33.4875C44.9174 32.118 44.9174 30.785 44.9174 29.4155C45.4636 29.4155 45.9891 29.4155 46.555 29.4155C46.555 30.7665 46.555 32.1135 46.555 33.5015C47.1175 33.5015 47.644 33.5015 48.2279 33.5015C48.2279 32.1551 48.2279 30.7951 48.2279 29.4082C48.7983 29.4082 49.3119 29.4082 49.8829 29.4082C49.8829 30.7569 49.8829 32.1163 49.8829 33.5094C50.4651 33.5094 50.9911 33.5094 51.5564 33.5094C51.5564 32.1517 51.5564 30.8047 51.5564 29.4189C52.1195 29.4189 52.6455 29.4189 53.212 29.4189C53.212 30.7597 53.212 32.1056 53.212 33.4886C53.9897 33.6505 54.1016 34.1922 54.0791 34.8592C54.0459 35.8472 54.0853 36.8374 54.065 37.8253C54.0201 39.9905 52.5556 41.8855 50.482 42.4907C50.3021 42.5435 50.12 42.5913 49.9071 42.6497C49.9071 43.1948 49.9155 43.7304 49.9048 44.2659C49.893 44.8622 49.6047 45.1583 49.0208 45.2033C46.6325 45.3871 44.9489 47.0572 44.9129 49.2787C44.8764 51.5776 46.5196 53.295 49.0366 53.5518C49.0366 54.0733 49.0366 54.5999 49.0366 55.1281C46.7972 55.5271 44.0149 53.3113 43.3894 50.6487C42.7561 47.9547 44.1986 44.3924 48.2139 43.5702C48.2139 43.2713 48.2139 42.9656 48.2139 42.6357C47.2456 42.4244 46.3757 42.026 45.6553 41.3364C44.6403 40.3648 44.1093 39.1746 44.0823 37.773C44.0621 36.7317 44.0761 35.6909 44.0778 34.6502C44.0778 33.9314 44.1925 33.7718 44.9174 33.4875ZM52.3258 35.2453C50.1487 35.2453 47.9593 35.2453 45.744 35.2453C45.744 36.1113 45.7306 36.9413 45.7469 37.7702C45.7811 39.478 47.104 40.8863 48.7888 41.0285C50.4657 41.1695 52.0448 40.0574 52.2971 38.3805C52.4505 37.369 52.3258 36.3153 52.3258 35.2453Z" fill="white"/>
</svg>
