<svg width="21" height="21" viewBox="0 0 21 21" fill="none" xmlns="http://www.w3.org/2000/svg">
<path fill-rule="evenodd" clip-rule="evenodd" d="M18.41 5.36222C18.0862 5.81322 17.7608 6.26262 17.4418 6.71702C17.4078 6.76582 17.402 6.84202 17.4014 6.90562C17.3984 7.43342 17.3998 7.96082 17.3998 8.51682C17.2308 8.46682 17.0994 8.43002 16.9694 8.38942C16.5986 8.27342 16.2302 8.15042 15.857 8.04262C15.7686 8.01702 15.6592 8.01802 15.5702 8.04422C15.1286 8.17442 14.6908 8.31762 14.2514 8.45522C14.1892 8.47462 14.1258 8.48902 14.0352 8.51322C14.0352 8.10822 14.0138 7.72442 14.0412 7.34402C14.0704 6.94402 13.9622 6.61562 13.7066 6.30742C13.46 6.01002 13.2532 5.67922 13.0186 5.34882C13.5364 5.17322 14.0352 5.00822 14.5302 4.83182C14.6174 4.80082 14.705 4.73562 14.7614 4.66242C15.0494 4.28842 15.3276 3.90642 15.6096 3.52742C15.642 3.48402 15.6768 3.44262 15.7166 3.39282C16.0448 3.83462 16.3622 4.26362 16.683 4.68942C16.7208 4.73942 16.7742 4.79122 16.8314 4.81102C17.3344 4.98642 17.8396 5.15502 18.3444 5.32462C18.3644 5.33122 18.3878 5.32762 18.4096 5.32862C18.41 5.33982 18.41 5.35082 18.41 5.36222Z" fill="#636363"/>
<path fill-rule="evenodd" clip-rule="evenodd" d="M1.32324 5.32878C1.42384 5.30118 1.52604 5.27818 1.62484 5.24538C2.02524 5.11198 2.42644 4.98178 2.82244 4.83678C2.91864 4.80138 3.01584 4.72958 3.07864 4.64838C3.39424 4.23938 3.69844 3.82158 4.01704 3.39258C4.05664 3.44278 4.09144 3.48418 4.12344 3.52758C4.40904 3.91098 4.69124 4.29678 4.98164 4.67618C5.03164 4.74138 5.11024 4.79918 5.18764 4.82658C5.61664 4.97858 6.04924 5.11978 6.48044 5.26538C6.55244 5.28978 6.62344 5.31718 6.71424 5.34998C6.50244 5.64858 6.32004 5.94938 6.09404 6.21278C5.78004 6.57938 5.64584 6.97898 5.69064 7.46138C5.72224 7.80158 5.69684 8.14718 5.69684 8.51618C5.43124 8.43478 5.19364 8.36338 4.95684 8.28938C4.69204 8.20658 4.42964 8.11498 4.16204 8.04218C4.07264 8.01778 3.96404 8.01778 3.87544 8.04418C3.37644 8.19258 2.88104 8.35258 2.35364 8.51798C2.35364 8.43778 2.35444 8.38018 2.35364 8.32238C2.34684 7.84438 2.34104 7.36618 2.33144 6.88818C2.33004 6.82998 2.32304 6.76078 2.29164 6.71578C1.97204 6.26198 1.64684 5.81258 1.32324 5.36178C1.32324 5.35078 1.32324 5.33978 1.32324 5.32878Z" fill="#636363"/>
<path fill-rule="evenodd" clip-rule="evenodd" d="M3.83008 18.4005C3.83008 16.7115 3.83008 15.0339 3.83008 13.3369C4.16928 13.3971 4.50008 13.4541 4.83028 13.5143C6.27208 13.7771 7.71368 14.0435 9.15668 14.3003C9.29668 14.3251 9.32368 14.3815 9.32048 14.5065C9.31308 14.8005 9.31808 15.0945 9.31808 15.4001C9.65028 15.4001 9.96968 15.4001 10.3155 15.4001C10.3155 15.1297 10.3155 14.8599 10.3155 14.5901C10.3155 14.3389 10.3149 14.3355 10.5595 14.2905C12.2911 13.9745 14.0225 13.6601 15.7545 13.3451C15.7651 13.3431 15.7763 13.3461 15.7985 13.3475C15.7985 15.0277 15.7985 16.7091 15.7985 18.4007C11.8139 18.4005 7.83048 18.4005 3.83008 18.4005Z" fill="#636363"/>
<path fill-rule="evenodd" clip-rule="evenodd" d="M15.8096 9.41573C15.8096 9.87593 15.8096 10.3033 15.8096 10.7307C15.8096 11.2089 15.806 11.6873 15.812 12.1655C15.8136 12.2799 15.788 12.3255 15.6642 12.3475C13.9696 12.6509 12.2766 12.9615 10.5826 13.2701C10.5226 13.2813 10.4604 13.2853 10.403 13.3045C9.87356 13.4815 9.35956 13.3245 8.84416 13.2315C7.21556 12.9365 5.58796 12.6373 3.95956 12.3417C3.88476 12.3281 3.82236 12.3281 3.82276 12.2209C3.82676 11.3087 3.82556 10.3969 3.82676 9.48493C3.82676 9.46953 3.83536 9.45433 3.84596 9.41973C4.99616 9.41973 6.14976 9.41973 7.32256 9.41973C7.32256 9.05133 7.33396 8.70213 7.31776 8.35413C7.30936 8.17353 7.36276 8.07893 7.53096 8.00193C8.31856 7.64213 9.12896 7.38753 10.0064 7.43113C10.7964 7.47033 11.5314 7.71453 12.2298 8.07393C12.273 8.09633 12.3076 8.17713 12.309 8.23153C12.316 8.55953 12.3126 8.88773 12.3126 9.21573C12.3126 9.27573 12.3126 9.33613 12.3126 9.41573C13.4808 9.41573 14.6344 9.41573 15.8096 9.41573ZM11.3044 9.41353C11.3084 9.35133 11.3128 9.30753 11.3132 9.26373C11.3142 9.11933 11.3198 8.97433 11.309 8.83053C11.3058 8.78953 11.2602 8.73253 11.2208 8.71633C10.2866 8.33513 9.35056 8.33293 8.41656 8.71633C8.37856 8.73193 8.32756 8.77773 8.32616 8.81113C8.31736 9.00893 8.32176 9.20733 8.32176 9.41353C9.32536 9.41353 10.3066 9.41353 11.3044 9.41353Z" fill="#636363"/>
<path fill-rule="evenodd" clip-rule="evenodd" d="M9.81707 1.38989C10.1331 1.81489 10.4387 2.21789 10.7337 2.62829C10.8201 2.74829 10.9225 2.81749 11.0613 2.86169C11.5003 3.00149 11.9359 3.15209 12.3725 3.29909C12.4129 3.31289 12.4521 3.33089 12.5097 3.35409C12.2837 3.67269 12.0845 3.99569 11.8429 4.28229C11.5725 4.60269 11.4589 4.94609 11.4925 5.36369C11.5187 5.68369 11.4905 6.00829 11.4855 6.33069C11.4849 6.38469 11.4785 6.43849 11.4729 6.51269C11.1081 6.39929 10.7499 6.31529 10.4143 6.17649C10.0111 6.00989 9.63507 6.00829 9.23167 6.17509C8.90467 6.31009 8.55527 6.39129 8.21567 6.49589C8.20547 6.49909 8.19367 6.49629 8.15947 6.49629C8.15567 6.44089 8.14926 6.38349 8.14847 6.32589C8.14246 5.85329 8.14126 5.38049 8.12906 4.90789C8.12686 4.82549 8.09827 4.73229 8.05167 4.66469C7.75167 4.23069 7.44326 3.80249 7.12646 3.35649C7.18626 3.33269 7.23427 3.31109 7.28367 3.29449C7.73587 3.14149 8.18967 2.99329 8.63967 2.83329C8.72187 2.80429 8.80567 2.74329 8.85867 2.67389C9.17887 2.25509 9.49087 1.82929 9.81707 1.38989Z" fill="#636363"/>
</svg>
