<svg width="18" height="17" viewBox="0 0 18 17" fill="none" xmlns="http://www.w3.org/2000/svg">
<path d="M1.29248 2.60417L6.91748 2.60417M6.91748 2.60417C6.91748 3.52464 7.75695 4.27083 8.79248 4.27083C9.82801 4.27083 10.6675 3.52464 10.6675 2.60417M6.91748 2.60417C6.91748 1.68369 7.75695 0.9375 8.79248 0.9375C9.82801 0.9375 10.6675 1.68369 10.6675 2.60417M10.6675 2.60417L16.2925 2.60417M1.29248 8.4375H12.5425M12.5425 8.4375C12.5425 9.35797 13.3819 10.1042 14.4175 10.1042C15.453 10.1042 16.2925 9.35797 16.2925 8.4375C16.2925 7.51703 15.453 6.77083 14.4175 6.77083C13.3819 6.77083 12.5425 7.51703 12.5425 8.4375ZM5.04248 14.2708H16.2925M5.04248 14.2708C5.04248 13.3504 4.20301 12.6042 3.16748 12.6042C2.13195 12.6042 1.29248 13.3504 1.29248 14.2708C1.29248 15.1913 2.13195 15.9375 3.16748 15.9375C4.20301 15.9375 5.04248 15.1913 5.04248 14.2708Z" stroke="#636363" stroke-width="1.5" stroke-linecap="round"/>
</svg>
