<svg width="61" height="63" viewBox="0 0 61 63" fill="none" xmlns="http://www.w3.org/2000/svg">
<path fill-rule="evenodd" clip-rule="evenodd" d="M42.1864 62.4596C40.7386 61.9473 40.0834 60.898 40.0979 59.3911C40.0988 59.291 40.0788 59.1881 40.0661 59.0889C39.9696 58.3273 40.0852 57.4291 39.7103 56.8467C39.349 56.2843 38.4872 56.0313 37.8256 55.6828C37.6664 55.5982 37.4007 55.6045 37.2287 55.6764C36.3696 56.0368 35.5288 56.4417 34.6734 56.8158C33.2511 57.4409 31.958 57.0305 31.1717 55.6992C30.502 54.5644 29.8377 53.4233 29.1934 52.2721C28.4636 50.9736 28.7457 49.6604 29.935 48.7695C30.6821 48.2099 31.4638 47.6939 32.1955 47.1161C32.3738 46.975 32.4921 46.6693 32.5122 46.429C32.5577 45.8439 32.5577 45.2524 32.5122 44.6682C32.493 44.4297 32.3684 44.1285 32.19 43.9866C31.4729 43.4206 30.7104 42.9146 29.976 42.3713C28.7475 41.4613 28.4545 40.1446 29.1952 38.8269C29.8422 37.6785 30.5038 36.5364 31.1754 35.4007C31.9461 34.0976 33.242 33.6772 34.6252 34.276C35.4997 34.6554 36.3587 35.0686 37.2414 35.428C37.4234 35.5026 37.7028 35.4626 37.8903 35.3743C38.2379 35.2142 38.5291 34.9184 38.884 34.7901C39.6456 34.5135 39.9714 34.023 39.9614 33.2122C39.9523 32.567 40.067 31.9182 40.1279 31.2721C40.2845 29.5913 41.2791 28.6713 42.969 28.6594C44.2475 28.6503 45.5279 28.644 46.8073 28.6613C48.3771 28.6822 49.3708 29.6404 49.5082 31.2147C49.5856 32.1047 49.6584 32.9965 49.7849 33.8792C49.8149 34.0921 50.0124 34.3215 50.1944 34.4634C50.4483 34.6591 50.8041 34.7291 51.0379 34.9403C51.7577 35.5891 52.4548 35.59 53.2638 35.0822C53.8262 34.7301 54.4723 34.5098 55.0893 34.2496C56.3906 33.7036 57.69 34.1049 58.4162 35.3079C59.1278 36.49 59.8185 37.6848 60.4856 38.8924C61.1826 40.1527 60.8778 41.475 59.7139 42.3431C58.9659 42.9019 58.1851 43.4187 57.4543 43.9975C57.2787 44.1358 57.1732 44.4452 57.1568 44.6845C57.1149 45.2497 57.1932 45.8248 57.1304 46.3853C57.0867 46.7748 57.2086 46.9741 57.508 47.1789C58.246 47.6821 58.9677 48.2099 59.6857 48.7404C60.896 49.6331 61.1881 50.9754 60.4492 52.2921C59.804 53.4424 59.146 54.5854 58.4717 55.7192C57.6991 57.0187 56.3997 57.43 55.0119 56.8258C54.1756 56.4618 53.343 56.0859 52.5203 55.6937C52.2182 55.55 51.988 55.5272 51.6959 55.7456C51.3082 56.035 50.8896 56.3107 50.4428 56.4854C49.8941 56.6993 49.7539 57.0569 49.7303 57.6011C49.6948 58.4519 49.5938 59.3019 49.4846 60.1464C49.3271 61.3758 48.5445 62.0692 47.4289 62.4569C45.6817 62.4596 43.9336 62.4596 42.1864 62.4596ZM33.4795 54.4916C34.6952 53.9438 35.8773 53.4187 37.0531 52.88C37.6473 52.6079 38.156 52.698 38.7047 53.0593C39.5647 53.6244 40.4565 54.1504 41.3746 54.6136C41.9598 54.9093 42.3038 55.2888 42.3611 55.9467C42.4585 57.0788 42.5686 58.2108 42.7078 59.3392C42.7305 59.5257 42.9253 59.8406 43.0481 59.8451C44.3194 59.8815 45.5934 59.867 46.8947 59.867C47.0321 58.5438 47.1895 57.299 47.2833 56.0477C47.3388 55.307 47.6973 54.8957 48.3562 54.5835C49.1943 54.1859 50.0215 53.7345 50.7677 53.1912C51.4402 52.7007 52.038 52.5952 52.7897 52.9628C53.8926 53.5043 55.0265 53.9829 56.1822 54.5016C56.8856 53.2813 57.5599 52.112 58.2488 50.9181C57.1495 50.1245 56.1021 49.3592 55.0438 48.6103C54.5241 48.2436 54.3722 47.7649 54.4022 47.1388C54.4523 46.0923 54.4559 45.0394 54.4022 43.9939C54.3704 43.365 54.5196 42.8818 55.0347 42.516C55.6316 42.0938 56.2231 41.6661 56.8164 41.2393C57.2878 40.8999 57.7556 40.5586 58.2497 40.201C57.5353 38.9661 56.8592 37.794 56.1785 36.6183C54.9755 37.1598 53.8225 37.6593 52.6869 38.1981C52.0244 38.5129 51.4866 38.4219 50.8796 38.0042C50.0506 37.4346 49.1551 36.9514 48.257 36.4927C47.6755 36.1952 47.3479 35.8084 47.2906 35.145C47.1823 33.8574 47.0312 32.5743 46.8974 31.2912C45.4888 31.2912 44.141 31.2912 42.7551 31.2912C42.6195 32.6161 42.4767 33.9047 42.3574 35.196C42.2956 35.8621 41.9261 36.2206 41.3437 36.5064C40.4929 36.9259 39.6475 37.3809 38.8785 37.9314C38.2033 38.4146 37.6082 38.5147 36.8574 38.1398C35.7581 37.5902 34.6206 37.1197 33.4777 36.6056C32.7733 37.8286 32.0981 38.9998 31.4111 40.1919C32.413 40.9135 33.3421 41.6388 34.3285 42.2758C35.1248 42.7881 35.3514 43.4278 35.2048 44.3424C35.0902 45.0549 35.0201 45.8257 35.1703 46.5191C35.4223 47.6775 35.0556 48.4064 34.0783 49.0061C33.1528 49.574 32.3038 50.2647 31.4101 50.9089C32.1154 52.1311 32.7824 53.2877 33.4795 54.4916Z" fill="#BEBEBE"/>
<path fill-rule="evenodd" clip-rule="evenodd" d="M25.2402 0.0408936C26.3586 0.319354 27.5143 0.494074 28.5872 0.893564C34.2019 2.98565 37.4916 8.39833 36.941 14.5272C36.4432 20.0627 31.9397 24.842 26.2649 25.8576C17.9557 27.3445 10.3544 20.4294 11.0697 12.0329C11.6011 5.79027 16.2021 0.989113 22.4565 0.143723C22.5748 0.127343 22.6877 0.0763839 22.8033 0.0418039C23.6159 0.0408939 24.4276 0.0408936 25.2402 0.0408936ZM34.4121 13.0694C34.4221 7.31361 29.7557 2.62802 24.0172 2.63348C18.2988 2.63803 13.6477 7.29086 13.6323 13.0193C13.6168 18.7532 18.2478 23.427 23.9662 23.4479C29.7265 23.4688 34.4012 18.8251 34.4121 13.0694Z" fill="#BEBEBE"/>
<path fill-rule="evenodd" clip-rule="evenodd" d="M0.614746 41.7353C0.884106 40.7216 1.06429 39.6733 1.43921 38.7014C3.16912 34.2124 7.44066 31.2767 12.2445 31.2558C17.4052 31.2339 22.5649 31.2494 27.7246 31.2521C28.559 31.2521 29.0632 31.6334 29.1933 32.3332C29.3034 32.9238 28.9694 33.5581 28.3916 33.7428C28.1095 33.8329 27.7928 33.8374 27.4916 33.8374C22.4939 33.8429 17.4971 33.832 12.4984 33.8438C8.43528 33.8529 4.98002 36.248 3.73332 39.9872C3.43029 40.8972 3.25284 41.8891 3.231 42.8483C3.16639 45.7721 3.20643 48.6986 3.20734 51.6243C3.20734 51.7426 3.22736 51.8609 3.24738 52.0666C3.50036 52.0666 3.73696 52.0666 3.97174 52.0666C9.92496 52.0666 15.8773 52.0666 21.8296 52.0666C21.9925 52.0666 22.1554 52.0666 22.3173 52.0675C23.4157 52.0702 24.0209 52.5297 24.0181 53.3588C24.0163 54.185 23.3984 54.6573 22.3137 54.6582C15.6498 54.6582 8.98584 54.6491 2.32282 54.6682C1.52202 54.671 0.940526 54.4326 0.614746 53.6827C0.614746 49.6996 0.614746 45.7175 0.614746 41.7353Z" fill="#BEBEBE"/>
<path fill-rule="evenodd" clip-rule="evenodd" d="M44.8698 39.0544C48.4434 39.0726 51.3526 42.0246 51.3281 45.6073C51.3044 49.1527 48.3587 52.0729 44.8197 52.0628C41.2516 52.0519 38.2978 49.0808 38.3214 45.5281C38.346 41.9455 41.288 39.0371 44.8698 39.0544ZM44.857 49.4402C46.9946 49.4284 48.7346 47.6839 48.7346 45.5545C48.7346 43.4124 46.9309 41.6224 44.7988 41.6461C42.6339 41.6697 40.9167 43.436 40.9422 45.6119C40.9668 47.7595 42.7003 49.453 44.857 49.4402Z" fill="#FEBA0F"/>
</svg>
