<svg width="70" height="69" viewBox="0 0 70 69" fill="none" xmlns="http://www.w3.org/2000/svg">
<path fill-rule="evenodd" clip-rule="evenodd" d="M13.4103 65.0435C11.7749 64.3473 11.3927 63.7624 11.3927 61.9522C11.3927 59.2097 11.4527 56.4658 11.3783 53.7253C11.2678 49.6353 13.8581 45.9707 17.6081 44.6253C21.4346 43.2527 25.1921 41.6876 28.9858 40.2221C29.3653 40.0754 29.4874 39.8897 29.5243 39.4686C29.6315 38.2372 29.3564 37.3205 28.3244 36.4393C26.633 34.9978 25.8234 32.9774 25.5115 30.7324C24.0017 30.5379 22.7437 29.8929 21.9178 28.5796C21.0796 27.2473 21.0844 25.8473 21.7458 24.3232C21.2748 24.3232 20.8762 24.3273 20.4776 24.3225C18.9807 24.3034 18.1193 23.4338 18.1125 21.9335C18.1105 21.483 18.0996 21.0318 18.1173 20.5827C18.163 19.4053 19.0531 18.5227 20.2264 18.4879C20.6947 18.4736 21.1636 18.4859 21.6721 18.4859C21.7786 17.948 21.8666 17.4341 21.9833 16.9276C22.6092 14.1946 23.9785 11.8951 26.0091 9.96954C26.218 9.7716 26.3517 9.42554 26.3879 9.13135C26.4446 8.67745 26.4029 8.20375 26.908 7.97918C27.4179 7.75189 27.8124 7.9785 28.0923 8.33685C28.9687 7.9512 29.8103 7.58807 30.6423 7.20652C30.7631 7.15055 30.9024 7.01745 30.9304 6.89664C31.1836 5.80863 31.9099 5.1991 32.9221 4.86328C34.5678 4.86328 36.2134 4.86328 37.8591 4.86328C38.8734 5.19705 39.5942 5.81273 39.8515 6.89732C39.8795 7.01336 40.0392 7.12939 40.1648 7.18673C40.9811 7.56009 41.805 7.91707 42.6875 8.30681C42.7258 8.27473 42.82 8.18532 42.923 8.10682C43.5223 7.64814 44.3632 7.96007 44.3332 8.70407C44.3025 9.48014 44.7004 9.89855 45.1816 10.3798C47.3297 12.5251 48.5944 15.1215 49.0245 18.1262C49.0381 18.221 49.0586 18.3146 49.09 18.4845C49.5575 18.4845 50.021 18.4763 50.4851 18.4859C51.7301 18.5111 52.6284 19.393 52.6646 20.6319C52.6789 21.1213 52.6762 21.6113 52.6666 22.1007C52.642 23.3805 51.7752 24.2665 50.4892 24.3191C50.0476 24.3368 49.6046 24.3218 49.1453 24.3218C49.9275 28.1353 48.8565 29.8997 45.3202 30.7413C45.1373 31.4368 45.0001 32.1488 44.7646 32.8272C44.153 34.5876 43.0984 36.0441 41.6623 37.2386C41.4603 37.4072 41.3067 37.7383 41.2896 38.0051C41.2466 38.6652 41.0637 39.487 41.3743 39.9511C41.6821 40.4098 42.5196 40.5245 43.1353 40.7627C46.5433 42.0869 49.9521 43.4083 53.3649 44.7209C57.035 46.1324 59.31 49.3623 59.3837 53.2932C59.394 53.842 59.3974 54.3901 59.383 54.9382C59.3687 55.5115 59.0486 55.8624 58.5524 55.8815C58.0268 55.9026 57.6602 55.5511 57.6309 54.9566C57.6077 54.4877 57.6125 54.0167 57.6254 53.5471C57.7224 50.2135 55.4044 47.2389 52.627 46.3154C50.4961 45.6069 48.4245 44.7175 46.3365 43.8834C45.9386 43.7243 45.7174 43.7865 45.4553 44.1216C44.14 45.8028 42.8002 47.4641 41.4678 49.1323C40.562 50.2654 39.7423 50.3657 38.616 49.4633C37.8366 48.8395 37.0707 48.1999 36.3035 47.5624C35.993 47.3037 34.7555 47.3378 34.4401 47.5999C33.5821 48.3125 32.7289 49.034 31.8416 49.7091C31.0464 50.3138 30.1434 50.1561 29.4683 49.3207C28.0779 47.5999 26.6944 45.8724 25.332 44.1291C25.0569 43.7769 24.8365 43.7052 24.4105 43.8772C22.2168 44.7632 20.0073 45.6103 17.804 46.4717C15.1393 47.5126 13.2151 50.1882 13.1735 53.0468C13.1284 56.1613 13.1592 59.2759 13.1523 62.3897C13.151 62.9283 13.3789 63.273 13.9352 63.2771C15.8526 63.2907 17.7692 63.2818 19.7725 63.2818C19.7725 63.0429 19.7725 62.8375 19.7725 62.6314C19.7725 59.6151 19.7711 56.5989 19.7759 53.5819C19.7759 53.3499 19.7848 53.1062 19.8572 52.8898C20.0005 52.4625 20.3363 52.2851 20.7786 52.3363C21.2004 52.3861 21.4475 52.6427 21.5171 53.0536C21.5492 53.2448 21.5349 53.4441 21.5349 53.6399C21.5383 56.6146 21.5383 59.5912 21.5383 62.5692C21.5383 62.7815 21.5383 62.9931 21.5383 63.2416C25.8644 63.2416 30.1413 63.2416 34.4893 63.2416C34.4893 62.9993 34.4893 62.7713 34.4893 62.5426C34.4893 58.723 34.4886 54.9041 34.492 51.0844C34.492 50.8319 34.4934 50.5677 34.563 50.3302C34.6893 49.8968 35.0203 49.7091 35.464 49.7473C35.8858 49.7835 36.1493 50.0244 36.2223 50.4394C36.2592 50.6496 36.251 50.8687 36.251 51.0838C36.2523 54.9225 36.2523 58.7619 36.2523 62.6006C36.2523 62.8116 36.2523 63.0218 36.2523 63.2552C40.6057 63.2552 44.8868 63.2552 49.2429 63.2552C49.2429 63.0245 49.2429 62.8163 49.2429 62.6082C49.2429 59.6506 49.2429 56.6924 49.2429 53.7348C49.2429 53.5587 49.2367 53.3813 49.2477 53.2065C49.2804 52.6693 49.5896 52.3444 50.0776 52.3267C50.5834 52.3076 50.9704 52.6379 50.9943 53.1895C51.0264 53.9328 51.0059 54.6781 51.0066 55.4221C51.0073 57.8118 51.0066 60.2014 51.0066 62.5911C51.0066 62.8013 51.0066 63.0116 51.0066 63.2825C52.096 63.2825 53.128 63.2825 54.1607 63.2825C54.9839 63.2825 55.8064 63.2866 56.6289 63.2818C57.3811 63.2771 57.6186 63.0464 57.6241 62.3085C57.6302 61.3283 57.6207 60.3496 57.6275 59.3701C57.6329 58.6561 57.9892 58.2275 58.5442 58.2473C59.0766 58.2657 59.3837 58.667 59.3878 59.3673C59.3926 60.2301 59.3892 61.0908 59.3892 61.9536C59.3885 63.7644 59.009 64.3466 57.3715 65.0449C42.7176 65.0435 28.0636 65.0435 13.4103 65.0435ZM27.2131 24.3225C27.2131 25.62 27.1872 26.8125 27.2206 28.0042C27.2514 29.1168 27.2145 30.254 27.4343 31.3345C28.2131 35.1705 31.9583 37.8987 35.9315 37.6243C40.0194 37.3417 43.2595 34.2326 43.5073 30.2348C43.624 28.3428 43.5462 26.4377 43.5523 24.5389C43.553 24.4863 43.5121 24.4337 43.4677 24.3232C43.2718 24.3232 43.0595 24.3232 42.8479 24.3232C41.203 24.3232 39.558 24.3238 37.913 24.3232C36.995 24.3232 36.5841 24.0563 36.5711 23.459C36.5588 22.8475 36.9915 22.5615 37.9383 22.5608C41.7968 22.5601 45.6553 22.5587 49.5132 22.5615C51.0844 22.5622 50.9008 22.6297 50.9056 21.1677C50.9083 20.2469 50.9056 20.2462 49.9923 20.2455C40.375 20.2455 30.7591 20.2455 21.1424 20.2455C19.8012 20.2455 19.8694 20.1363 19.8749 21.5199C19.879 22.5594 19.8756 22.5601 20.9138 22.5601C24.8897 22.5601 28.8656 22.5594 32.8416 22.5601C33.7876 22.5601 34.2217 22.8475 34.2101 23.457C34.1985 24.0522 33.7821 24.3218 32.8689 24.3225C31.2239 24.3232 29.5782 24.3225 27.9332 24.3225C27.7216 24.3225 27.5101 24.3225 27.2131 24.3225ZM38.0618 18.449C38.0802 18.346 38.1048 18.2716 38.1048 18.1978C38.1069 14.6164 38.1116 11.0343 38.1034 7.45293C38.1028 6.87138 37.8297 6.6318 37.2072 6.62771C36.053 6.61952 34.8981 6.62361 33.7432 6.62566C32.8723 6.62703 32.673 6.8236 32.6723 7.69251C32.6709 11.078 32.6716 14.4642 32.673 17.8497C32.673 18.0402 32.6893 18.2306 32.6996 18.4483C34.5084 18.449 36.2776 18.449 38.0618 18.449ZM31.2682 38.5341C31.2682 39.0215 31.288 39.4269 31.2621 39.829C31.2423 40.1368 31.1358 40.4399 31.1201 40.7477C31.1085 40.9654 31.1113 41.2446 31.2321 41.4002C32.2505 42.7169 33.2948 44.0117 34.3364 45.3106C34.7036 45.7686 36.0694 45.7836 36.4339 45.3304C37.4891 44.0179 38.5389 42.7012 39.5839 41.3811C39.6747 41.2671 39.7839 41.1033 39.7675 40.9791C39.6597 40.1989 39.5184 39.4235 39.3819 38.6079C36.7465 39.6904 34.0388 39.6515 31.2682 38.5341ZM39.9068 18.447C40.8084 18.447 41.6767 18.447 42.5401 18.447C42.5688 18.3596 42.6015 18.305 42.6015 18.2511C42.607 15.7481 42.6118 13.2458 42.607 10.7429C42.6063 10.6207 42.5572 10.4398 42.4698 10.3859C41.648 9.88354 40.8132 9.40233 39.9068 8.87061C39.9068 12.1749 39.9068 15.2956 39.9068 18.447ZM30.8751 8.92249C30.0369 9.39209 29.3148 9.80982 28.5796 10.2043C28.2383 10.388 28.1578 10.6494 28.1599 11.0193C28.1749 13.3107 28.1667 15.6021 28.1701 17.8927C28.1701 18.0777 28.1988 18.2627 28.2145 18.4483C29.1352 18.4483 29.9884 18.4483 30.8751 18.4483C30.8751 15.3113 30.8751 12.2056 30.8751 8.92249ZM26.6835 43.0036C28.0841 44.7598 29.4601 46.4853 30.8642 48.2443C31.5952 47.6614 32.303 47.0955 33.0354 46.5113C31.8559 45.0328 30.7277 43.6069 29.5775 42.1981C29.4909 42.0917 29.2287 42.0302 29.0943 42.078C28.3032 42.3572 27.5258 42.6753 26.6835 43.0036ZM39.9177 48.245C41.3129 46.4969 42.6732 44.7926 44.082 43.0275C43.2629 42.7066 42.5162 42.4377 41.7913 42.1196C41.4466 41.9681 41.276 42.0739 41.0678 42.3408C40.2392 43.4049 39.388 44.4506 38.5485 45.5052C38.285 45.8342 38.029 46.17 37.7581 46.5181C38.4925 47.1058 39.1785 47.6539 39.9177 48.245ZM44.4192 12.1456C44.4192 14.3304 44.4192 16.3856 44.4192 18.4402C45.3884 18.4402 46.3133 18.4402 47.2942 18.4402C46.9413 16.0676 46.0533 14.0076 44.4192 12.1456ZM26.3674 12.1415C24.7416 14.0492 23.8037 16.086 23.5055 18.4538C24.5061 18.4538 25.418 18.4538 26.3674 18.4538C26.3674 16.3836 26.3674 14.342 26.3674 12.1415ZM45.3714 24.3252C45.3714 25.9047 45.3714 27.3831 45.3714 28.9093C46.4389 28.7141 47.1986 28.181 47.5781 27.2166C47.9535 26.2651 47.7453 25.3668 47.1269 24.5696C47.0327 24.4488 46.8443 24.3471 46.6915 24.3361C46.2683 24.3047 45.8403 24.3252 45.3714 24.3252ZM25.4159 24.2597C24.8385 24.3327 24.2672 24.259 23.8706 24.487C23.1239 24.917 22.8454 26.2453 23.1669 27.1497C23.5102 28.1148 24.4665 28.839 25.4159 28.8342C25.4159 27.3565 25.4159 25.878 25.4159 24.2597Z" fill="white"/>
<path fill-rule="evenodd" clip-rule="evenodd" d="M28.0015 56.6094C27.1422 56.6094 26.2822 56.6162 25.4235 56.6074C24.7757 56.6005 24.3853 56.2756 24.371 55.7576C24.3566 55.245 24.76 54.858 25.3805 54.8532C27.1388 54.8395 28.8964 54.8389 30.6553 54.8539C31.2942 54.8593 31.6573 55.2293 31.6369 55.7733C31.6171 56.29 31.2635 56.5985 30.6403 56.6067C29.7598 56.6176 28.8807 56.6087 28.0015 56.6094Z" fill="#FEBA0F"/>
<path fill-rule="evenodd" clip-rule="evenodd" d="M42.7367 56.6085C41.8575 56.6085 40.9791 56.6187 40.1006 56.6051C39.4761 56.5955 39.1355 56.2836 39.1259 55.7546C39.1164 55.2283 39.4604 54.8611 40.0631 54.8557C41.8596 54.8386 43.6561 54.8379 45.4526 54.857C46.0355 54.8632 46.3973 55.2652 46.3741 55.7771C46.3515 56.2733 46.0068 56.5941 45.4314 56.6044C44.5332 56.6187 43.6343 56.6078 42.7367 56.6085Z" fill="#FEBA0F"/>
</svg>
