<svg width="69" height="69" viewBox="0 0 69 69" fill="none" xmlns="http://www.w3.org/2000/svg">
<path fill-rule="evenodd" clip-rule="evenodd" d="M13.1283 64.9185C11.4929 64.2223 11.1106 63.6374 11.1106 61.8272C11.1106 59.0847 11.1707 56.3408 11.0963 53.6003C10.9857 49.5103 13.5761 45.8457 17.3261 44.5003C21.1525 43.1277 24.91 41.5626 28.7037 40.0971C29.0832 39.9504 29.2054 39.7647 29.2423 39.3436C29.3494 38.1122 29.0743 37.1955 28.0423 36.3143C26.3509 34.8728 25.5414 32.8524 25.2295 30.6074C23.7196 30.4129 22.4617 29.7679 21.6358 28.4546C20.7976 27.1223 20.8024 25.7223 21.4638 24.1982C20.9928 24.1982 20.5942 24.2023 20.1956 24.1975C18.6987 24.1784 17.8373 23.3088 17.8305 21.8085C17.8284 21.358 17.8175 20.9068 17.8353 20.4577C17.881 19.2803 18.771 18.3977 19.9444 18.3629C20.4126 18.3486 20.8815 18.3609 21.39 18.3609C21.4965 17.823 21.5846 17.3091 21.7013 16.8026C22.3272 14.0696 23.6964 11.7701 25.7271 9.84454C25.9359 9.6466 26.0697 9.30054 26.1059 9.00635C26.1625 8.55245 26.1209 8.07875 26.626 7.85418C27.1359 7.62689 27.5304 7.8535 27.8102 8.21185C28.6866 7.8262 29.5282 7.46307 30.3603 7.08152C30.4811 7.02555 30.6203 6.89245 30.6483 6.77164C30.9016 5.68363 31.6278 5.0741 32.6401 4.73828C34.2857 4.73828 35.9314 4.73828 37.577 4.73828C38.5913 5.07205 39.3121 5.68773 39.5694 6.77232C39.5974 6.88836 39.7571 7.00439 39.8827 7.06173C40.6991 7.43509 41.5229 7.79207 42.4055 8.18181C42.4437 8.14973 42.5379 8.06032 42.641 7.98182C43.2403 7.52314 44.0812 7.83507 44.0512 8.57907C44.0204 9.35514 44.4184 9.77355 44.8996 10.2548C47.0476 12.4001 48.3124 14.9965 48.7424 18.0012C48.7561 18.096 48.7765 18.1896 48.8079 18.3595C49.2755 18.3595 49.739 18.3513 50.2031 18.3609C51.4481 18.3861 52.3463 19.268 52.3825 20.5069C52.3969 20.9963 52.3941 21.4863 52.3846 21.9757C52.36 23.2555 51.4931 24.1415 50.2072 24.1941C49.7656 24.2118 49.3226 24.1968 48.8632 24.1968C49.6454 28.0103 48.5745 29.7747 45.0381 30.6163C44.8552 31.3118 44.718 32.0238 44.4825 32.7022C43.871 34.4626 42.8164 35.9191 41.3803 37.1136C41.1782 37.2822 41.0247 37.6133 41.0076 37.8801C40.9646 38.5402 40.7817 39.362 41.0922 39.8261C41.4001 40.2848 42.2376 40.3995 42.8533 40.6377C46.2613 41.9619 49.67 43.2833 53.0828 44.5959C56.753 46.0074 59.028 49.2373 59.1017 53.1682C59.1119 53.717 59.1153 54.2651 59.101 54.8132C59.0867 55.3865 58.7665 55.7374 58.2703 55.7565C57.7447 55.7776 57.3782 55.4261 57.3489 54.8316C57.3256 54.3627 57.3304 53.8917 57.3434 53.4221C57.4403 50.0885 55.1223 47.1139 52.345 46.1904C50.214 45.4819 48.1424 44.5925 46.0545 43.7584C45.6565 43.5993 45.4354 43.6615 45.1733 43.9966C43.858 45.6778 42.5181 47.3391 41.1858 49.0073C40.28 50.1404 39.4602 50.2407 38.334 49.3383C37.5545 48.7145 36.7887 48.0749 36.0215 47.4374C35.7109 47.1787 34.4734 47.2128 34.1581 47.4749C33.3001 48.1875 32.4469 48.909 31.5596 49.5841C30.7644 50.1888 29.8613 50.0311 29.1863 49.1957C27.7959 47.4749 26.4123 45.7474 25.0499 44.0041C24.7749 43.6519 24.5544 43.5802 24.1285 43.7522C21.9347 44.6382 19.7253 45.4853 17.522 46.3467C14.8572 47.3876 12.9331 50.0632 12.8914 52.9218C12.8464 56.0363 12.8771 59.1509 12.8703 62.2647C12.8689 62.8033 13.0969 63.148 13.6532 63.1521C15.5705 63.1657 17.4871 63.1568 19.4905 63.1568C19.4905 62.9179 19.4905 62.7125 19.4905 62.5064C19.4905 59.4901 19.4891 56.4739 19.4939 53.4569C19.4939 53.2249 19.5028 52.9812 19.5751 52.7648C19.7184 52.3375 20.0543 52.1601 20.4966 52.2113C20.9184 52.2611 21.1655 52.5177 21.2351 52.9286C21.2672 53.1198 21.2528 53.3191 21.2528 53.5149C21.2563 56.4896 21.2563 59.4662 21.2563 62.4442C21.2563 62.6565 21.2563 62.8681 21.2563 63.1166C25.5823 63.1166 29.8593 63.1166 34.2072 63.1166C34.2072 62.8743 34.2072 62.6463 34.2072 62.4176C34.2072 58.598 34.2065 54.7791 34.2099 50.9594C34.2099 50.7069 34.2113 50.4427 34.2809 50.2052C34.4072 49.7718 34.7383 49.5841 35.1819 49.6223C35.6037 49.6585 35.8672 49.8994 35.9402 50.3144C35.9771 50.5246 35.9689 50.7437 35.9689 50.9588C35.9703 54.7975 35.9703 58.6369 35.9703 62.4756C35.9703 62.6866 35.9703 62.8968 35.9703 63.1302C40.3237 63.1302 44.6047 63.1302 48.9608 63.1302C48.9608 62.8995 48.9608 62.6913 48.9608 62.4832C48.9608 59.5256 48.9608 56.5674 48.9608 53.6098C48.9608 53.4337 48.9547 53.2563 48.9656 53.0815C48.9984 52.5443 49.3076 52.2194 49.7956 52.2017C50.3014 52.1826 50.6884 52.5129 50.7123 53.0645C50.7444 53.8078 50.7239 54.5531 50.7246 55.2971C50.7253 57.6868 50.7246 60.0764 50.7246 62.4661C50.7246 62.6763 50.7246 62.8866 50.7246 63.1575C51.8139 63.1575 52.846 63.1575 53.8787 63.1575C54.7019 63.1575 55.5244 63.1616 56.3468 63.1568C57.099 63.1521 57.3366 62.9214 57.342 62.1835C57.3482 61.2033 57.3386 60.2246 57.3454 59.2451C57.3509 58.5311 57.7072 58.1025 58.2621 58.1223C58.7945 58.1407 59.1017 58.542 59.1058 59.2423C59.1105 60.1051 59.1071 60.9658 59.1071 61.8286C59.1064 63.6394 58.7269 64.2216 57.0895 64.9199C42.4355 64.9185 27.7816 64.9185 13.1283 64.9185ZM26.9311 24.1975C26.9311 25.495 26.9052 26.6875 26.9386 27.8792C26.9693 28.9918 26.9325 30.129 27.1522 31.2095C27.931 35.0455 31.6763 37.7737 35.6495 37.4993C39.7374 37.2167 42.9775 34.1076 43.2253 30.1098C43.342 28.2178 43.2642 26.3127 43.2703 24.4139C43.271 24.3613 43.23 24.3087 43.1857 24.1982C42.9898 24.1982 42.7775 24.1982 42.5659 24.1982C40.9209 24.1982 39.2759 24.1988 37.631 24.1982C36.7129 24.1982 36.302 23.9313 36.289 23.334C36.2768 22.7225 36.7095 22.4365 37.6562 22.4358C41.5147 22.4351 45.3733 22.4337 49.2311 22.4365C50.8024 22.4372 50.6188 22.5047 50.6236 21.0427C50.6263 20.1219 50.6236 20.1212 49.7103 20.1205C40.093 20.1205 30.477 20.1205 20.8604 20.1205C19.5191 20.1205 19.5874 20.0113 19.5929 21.3949C19.5969 22.4344 19.5935 22.4351 20.6317 22.4351C24.6076 22.4351 28.5836 22.4344 32.5595 22.4351C33.5055 22.4351 33.9397 22.7225 33.9281 23.332C33.9164 23.9272 33.5001 24.1968 32.5868 24.1975C30.9418 24.1982 29.2962 24.1975 27.6512 24.1975C27.4396 24.1975 27.228 24.1975 26.9311 24.1975ZM37.7798 18.324C37.7982 18.221 37.8228 18.1466 37.8228 18.0728C37.8248 14.4914 37.8296 10.9093 37.8214 7.32793C37.8207 6.74638 37.5477 6.5068 36.9252 6.50271C35.771 6.49452 34.6161 6.49861 33.4612 6.50066C32.5902 6.50203 32.3909 6.6986 32.3902 7.56751C32.3889 10.953 32.3896 14.3392 32.3909 17.7247C32.3909 17.9152 32.4073 18.1056 32.4175 18.3233C34.2263 18.324 35.9955 18.324 37.7798 18.324ZM30.9862 38.4091C30.9862 38.8965 31.006 39.3019 30.9801 39.704C30.9603 40.0118 30.8538 40.3149 30.8381 40.6227C30.8265 40.8404 30.8292 41.1196 30.95 41.2752C31.9684 42.5919 33.0127 43.8867 34.0543 45.1856C34.4215 45.6436 35.7874 45.6586 36.1518 45.2054C37.2071 43.8929 38.2569 42.5762 39.3019 41.2561C39.3927 41.1421 39.5019 40.9783 39.4855 40.8541C39.3776 40.0739 39.2363 39.2985 39.0998 38.4829C36.4645 39.5654 33.7567 39.5265 30.9862 38.4091ZM39.6247 18.322C40.5264 18.322 41.3946 18.322 42.2581 18.322C42.2867 18.2346 42.3195 18.18 42.3195 18.1261C42.3249 15.6231 42.3297 13.1208 42.3249 10.6179C42.3243 10.4957 42.2751 10.3148 42.1878 10.2609C41.3659 9.75854 40.5312 9.27733 39.6247 8.74561C39.6247 12.0499 39.6247 15.1706 39.6247 18.322ZM30.593 8.79749C29.7549 9.26709 29.0327 9.68482 28.2976 10.0793C27.9563 10.263 27.8758 10.5244 27.8778 10.8943C27.8928 13.1857 27.8846 15.4771 27.8881 17.7677C27.8881 17.9527 27.9167 18.1377 27.9324 18.3233C28.8532 18.3233 29.7064 18.3233 30.593 18.3233C30.593 15.1863 30.593 12.0806 30.593 8.79749ZM26.4014 42.8786C27.802 44.6348 29.1781 46.3603 30.5821 48.1193C31.3132 47.5364 32.021 46.9705 32.7534 46.3863C31.5739 44.9078 30.4456 43.4819 29.2955 42.0731C29.2088 41.9667 28.9467 41.9052 28.8122 41.953C28.0211 42.2322 27.2437 42.5503 26.4014 42.8786ZM39.6356 48.12C41.0308 46.3719 42.3912 44.6676 43.8 42.9025C42.9809 42.5816 42.2342 42.3127 41.5093 41.9946C41.1646 41.8431 40.9939 41.9489 40.7858 42.2158C39.9571 43.2799 39.106 44.3256 38.2664 45.3802C38.003 45.7092 37.747 46.045 37.476 46.3931C38.2105 46.9808 38.8964 47.5289 39.6356 48.12ZM44.1372 12.0206C44.1372 14.2054 44.1372 16.2606 44.1372 18.3152C45.1064 18.3152 46.0313 18.3152 47.0121 18.3152C46.6592 15.9426 45.7712 13.8826 44.1372 12.0206ZM26.0854 12.0165C24.4595 13.9242 23.5217 15.961 23.2234 18.3288C24.224 18.3288 25.136 18.3288 26.0854 18.3288C26.0854 16.2586 26.0854 14.217 26.0854 12.0165ZM45.0893 24.2002C45.0893 25.7797 45.0893 27.2581 45.0893 28.7843C46.1569 28.5891 46.9166 28.056 47.2961 27.0916C47.6715 26.1401 47.4633 25.2418 46.8449 24.4446C46.7507 24.3238 46.5623 24.2221 46.4094 24.2111C45.9862 24.1797 45.5583 24.2002 45.0893 24.2002ZM25.1339 24.1347C24.5565 24.2077 23.9852 24.134 23.5886 24.362C22.8419 24.792 22.5634 26.1203 22.8849 27.0247C23.2282 27.9898 24.1845 28.714 25.1339 28.7092C25.1339 27.2315 25.1339 25.753 25.1339 24.1347Z" fill="black"/>
<path fill-rule="evenodd" clip-rule="evenodd" d="M27.7194 56.4844C26.8601 56.4844 26 56.4912 25.1414 56.4824C24.4936 56.4755 24.1032 56.1506 24.0889 55.6326C24.0745 55.12 24.4779 54.733 25.0984 54.7282C26.8567 54.7145 28.6143 54.7139 30.3732 54.7289C31.0121 54.7343 31.3752 55.1043 31.3548 55.6483C31.335 56.165 30.9814 56.4735 30.3582 56.4817C29.4777 56.4926 28.5986 56.4837 27.7194 56.4844Z" fill="#FEBA0F"/>
<path fill-rule="evenodd" clip-rule="evenodd" d="M42.4547 56.4835C41.5756 56.4835 40.6971 56.4937 39.8186 56.4801C39.1941 56.4705 38.8535 56.1586 38.8439 55.6296C38.8344 55.1033 39.1784 54.7361 39.7811 54.7307C41.5776 54.7136 43.3741 54.7129 45.1706 54.732C45.7535 54.7382 46.1153 55.1402 46.0921 55.6521C46.0696 56.1483 45.7249 56.4691 45.1495 56.4794C44.2512 56.4937 43.3523 56.4828 42.4547 56.4835Z" fill="#FEBA0F"/>
</svg>
