<svg width="32" height="31" viewBox="0 0 32 31" fill="none" xmlns="http://www.w3.org/2000/svg">
<path fill-rule="evenodd" clip-rule="evenodd" d="M12.6622 16.7726C11.6102 16.7726 10.5966 16.7685 9.5832 16.7799C9.49633 16.7808 9.3864 16.8656 9.32828 16.9427C8.86857 17.5521 8.41916 18.1694 7.9659 18.7838C7.57691 19.3115 7.05386 19.5063 6.49713 19.3324C5.91887 19.1522 5.59954 18.6943 5.59231 18.0258C5.58801 17.6247 5.59154 17.2234 5.59154 16.7985C5.49191 16.7806 5.40766 16.7608 5.32217 16.7511C3.58464 16.5525 2.38524 15.2643 2.37094 13.5128C2.35018 10.9701 2.35064 8.42692 2.37032 5.88436C2.38508 3.9817 3.79005 2.61809 5.69717 2.6164C9.48634 2.61302 13.2754 2.61271 17.0647 2.61656C18.9819 2.61871 20.3732 4.00953 20.3803 5.92418C20.3851 7.17048 20.3814 8.41662 20.3814 9.66292C20.3814 9.77085 20.3814 9.87863 20.3814 10.0179C20.5316 10.0179 20.6495 10.0179 20.7674 10.0179C22.9685 10.0179 25.1698 10.0118 27.3708 10.0201C28.9957 10.0262 30.2549 11.021 30.595 12.5605C30.6531 12.8231 30.6745 13.0986 30.6751 13.3681C30.6809 15.8507 30.6835 18.3332 30.6768 20.8158C30.6722 22.5295 29.5942 23.8353 27.9646 24.1205C27.8086 24.1479 27.6491 24.1557 27.4522 24.1766C27.4522 24.5748 27.4436 24.9637 27.4542 25.3522C27.4708 25.9647 27.2417 26.4306 26.6674 26.6852C26.1404 26.9189 25.6325 26.7834 25.1442 26.2964C24.4965 25.6505 23.8572 24.9964 23.1982 24.3622C23.084 24.2523 22.8906 24.1688 22.7334 24.1678C20.4821 24.1555 18.2307 24.1646 15.9795 24.1574C14.3745 24.1523 13.1156 23.1874 12.7578 21.6886C12.6909 21.4088 12.669 21.1127 12.6668 20.8235C12.6571 19.5973 12.6627 18.3713 12.6627 17.1449C12.6622 17.0358 12.6622 16.9265 12.6622 16.7726ZM26.1033 25.4607C26.1258 25.4494 26.1481 25.438 26.1705 25.4264C26.1705 24.9589 26.1705 24.4913 26.1705 24.0235C26.1705 22.9671 26.2574 22.8808 27.325 22.8779C28.5775 22.8747 29.3787 22.0801 29.3807 20.8247C29.3845 18.3323 29.3847 15.8401 29.3805 13.3477C29.3784 12.0939 28.5764 11.3002 27.3209 11.2997C23.5522 11.2985 19.7837 11.2985 16.015 11.2997C14.754 11.3 13.9462 12.1085 13.9448 13.3772C13.9416 15.8495 13.9417 18.3218 13.9448 20.7938C13.9462 22.0773 14.753 22.877 16.0398 22.8776C18.3912 22.8788 20.7428 22.8817 23.0946 22.8734C23.4106 22.8725 23.6507 22.9714 23.8681 23.1971C24.3278 23.6748 24.8051 24.136 25.2722 24.607C25.552 24.8886 25.8266 25.176 26.1033 25.4607ZM19.078 10.0179C19.0894 9.9246 19.0985 9.88524 19.0985 9.84573C19.0994 8.51902 19.1025 7.19231 19.0956 5.8656C19.0945 5.67726 19.0637 5.48353 19.0125 5.3018C18.7659 4.42558 18.0241 3.89868 17.0344 3.89791C13.6974 3.8953 10.3606 3.89699 7.02372 3.89699C6.55125 3.89699 6.07878 3.8873 5.60661 3.8996C4.51252 3.9282 3.67781 4.70771 3.6709 5.7652C3.65383 8.38833 3.65691 11.0118 3.6709 13.6349C3.67551 14.4854 4.26084 15.2022 5.09139 15.4013C5.39843 15.475 5.72792 15.4658 6.04772 15.4728C6.64089 15.4859 6.87136 15.7064 6.87259 16.2925C6.87366 16.8607 6.87289 17.4293 6.87289 18.0727C6.98621 17.9308 7.05478 17.8507 7.1172 17.7662C7.58291 17.1358 8.05477 16.5099 8.50895 15.8715C8.70913 15.5901 8.9579 15.4691 9.29984 15.4724C10.3049 15.4814 11.31 15.4756 12.3152 15.4756C12.422 15.4756 12.529 15.4756 12.6382 15.4756C12.764 14.1775 12.407 12.8686 13.0853 11.6325C12.908 11.6246 12.8104 11.6168 12.7128 11.6166C11.8183 11.6155 10.9237 11.6229 10.0292 11.6109C9.81674 11.6082 9.70958 11.6735 9.62471 11.8706C9.34642 12.5154 9.04769 13.1515 8.75418 13.7897C8.63395 14.0516 8.42915 14.2005 8.13733 14.1887C7.86135 14.1775 7.62873 14.0357 7.57415 13.7705C7.53325 13.5722 7.56677 13.3265 7.65056 13.1395C8.66485 10.8779 9.69728 8.62449 10.717 6.36529C10.8515 6.06717 11.0258 5.83547 11.3732 5.83408C11.7208 5.83255 11.9002 6.06225 12.034 6.36022C12.6299 7.68754 13.2357 9.01056 13.8388 10.3348C13.8831 10.4318 13.9345 10.5258 13.9921 10.6402C14.6929 10.1217 15.4674 9.9901 16.2922 10.0132C17.0654 10.0348 17.8399 10.0178 18.6139 10.0178C18.7619 10.0179 18.9101 10.0179 19.078 10.0179ZM12.4187 10.3239C12.0701 9.55806 11.7329 8.81699 11.3744 8.02932C11.016 8.82144 10.6817 9.56021 10.3361 10.3239C11.0584 10.3239 11.7177 10.3239 12.4187 10.3239Z" fill="white"/>
<path fill-rule="evenodd" clip-rule="evenodd" d="M20.4482 19.6512C20.0746 19.0929 19.6997 18.5734 19.3705 18.0264C19.1491 17.6585 19.2803 17.2687 19.6192 17.0997C19.9496 16.9351 20.2981 17.0651 20.5006 17.43C20.5444 17.509 20.5752 17.597 20.6282 17.6684C20.9426 18.0925 21.2617 18.513 21.6022 18.9655C22.53 18.1841 23.0309 17.2622 23.2269 16.1239C23.0931 16.1239 22.9844 16.1239 22.8759 16.1239C21.4592 16.1239 20.0424 16.1254 18.6258 16.1217C18.4877 16.1213 18.3413 16.1119 18.213 16.0665C17.9322 15.9672 17.7745 15.6803 17.8169 15.3959C17.8643 15.0781 18.0987 14.8541 18.4361 14.8488C19.1794 14.8375 19.9231 14.8436 20.6667 14.8424C20.7746 14.8424 20.8824 14.8424 21.0292 14.8424C21.0292 14.4297 21.0269 14.0513 21.03 13.6731C21.0335 13.1931 21.2597 12.9226 21.6562 12.917C22.0633 12.9111 22.3073 13.1949 22.3102 13.6805C22.3124 14.0321 22.3121 14.3839 22.3135 14.7355C22.3136 14.755 22.3219 14.7746 22.3372 14.8425C22.4316 14.8425 22.5373 14.8425 22.6428 14.8425C23.3462 14.8425 24.0495 14.8405 24.7529 14.8434C25.249 14.8454 25.5235 15.0811 25.5178 15.4913C25.5122 15.8839 25.2372 16.114 24.7621 16.1243C24.6926 16.126 24.6233 16.1314 24.6076 16.1322C24.3926 16.7741 24.2452 17.4168 23.9644 17.995C23.6831 18.5742 23.2686 19.0885 22.9033 19.6455C23.3188 19.8503 23.8184 19.9341 24.3279 19.9776C24.4178 19.9855 24.5092 19.9785 24.599 19.9867C24.9758 20.0213 25.2307 20.3039 25.2187 20.6692C25.2072 21.0242 24.9489 21.2614 24.5601 21.2617C23.6286 21.262 22.7501 21.0396 21.9288 20.6051C21.7491 20.5102 21.6147 20.5081 21.4353 20.6048C20.6442 21.0307 19.796 21.2497 18.8956 21.2613C18.4239 21.267 18.117 21.0208 18.1053 20.6246C18.0943 20.2444 18.3847 19.9939 18.8521 19.9819C19.4191 19.9667 19.9622 19.8491 20.4482 19.6512Z" fill="white"/>
</svg>
