<svg width="21" height="20" viewBox="0 0 21 20" fill="none" xmlns="http://www.w3.org/2000/svg">
<path fill-rule="evenodd" clip-rule="evenodd" d="M9.99859 17.3729C10.0808 17.3729 10.163 17.3729 10.2452 17.3729C10.3594 17.2928 10.4836 17.223 10.5866 17.1316C11.7604 16.0878 12.8198 14.9482 13.7442 13.6976C14.5862 12.5591 15.298 11.3553 15.72 10.0131C16.1534 8.63561 16.196 7.25963 15.6028 5.915C14.831 4.16586 13.4718 3.03327 11.535 2.54801C11.2048 2.46517 10.8606 2.43287 10.5228 2.3772C10.2556 2.3772 9.98839 2.3772 9.72119 2.3772C9.43799 2.41938 9.15119 2.44617 8.87219 2.50564C5.70079 3.17938 3.68919 6.12362 4.30919 9.16058C4.52619 10.2253 4.93959 11.2169 5.48839 12.1607C6.57199 14.0232 7.99659 15.6305 9.61159 17.0925C9.72819 17.1981 9.86879 17.2798 9.99859 17.3729ZM10.2204 11.124C8.44479 11.2019 6.92299 9.84382 6.83459 8.10095C6.74819 6.40729 8.18719 4.95284 10.0236 4.87665C11.8042 4.80274 13.3278 6.16295 13.4096 7.89936C13.4896 9.59853 12.0608 11.0427 10.2204 11.124Z" fill="#636363"/>
</svg>
