<svg width="18" height="18" viewBox="0 0 18 18" fill="none" xmlns="http://www.w3.org/2000/svg">
<path fill-rule="evenodd" clip-rule="evenodd" d="M8.61427 1.30424C12.7708 1.29098 16.1825 4.68231 16.1913 8.84255C16.2005 13.012 12.8831 16.3878 8.72834 16.4456C4.51846 16.5039 1.08412 13.1498 1.05199 8.94897C1.01952 4.71461 4.3964 1.31767 8.61427 1.30424ZM4.07187 6.46306C4.08105 6.53735 4.08581 6.579 4.09159 6.62065C4.16452 7.15122 4.33214 7.65442 4.56572 8.13229C5.46961 9.98155 6.83641 11.4126 8.56922 12.5016C9.28118 12.9492 10.044 13.2843 10.8858 13.4021C10.9871 13.4164 11.1157 13.4031 11.1991 13.3509C11.8803 12.9259 12.4967 12.4199 13.0261 11.8143C13.2269 11.5848 13.216 11.4563 12.9743 11.2761C12.3497 10.811 11.6911 10.3986 10.9785 10.0801C10.7522 9.97883 10.6748 10.0006 10.5065 10.1828C10.3105 10.3952 10.1254 10.6177 9.92531 10.8258C9.88587 10.8667 9.7888 10.8936 9.73746 10.8751C9.46699 10.7768 9.19057 10.6842 8.93812 10.549C7.79895 9.93803 7.01984 9.01986 6.62136 7.78396C6.58889 7.68332 6.60589 7.61634 6.68375 7.54987C6.87534 7.38582 7.06506 7.21956 7.25189 7.05024C7.51267 6.81377 7.54922 6.7422 7.37854 6.44011C7.02035 5.8055 6.64329 5.18058 6.25093 4.56654C6.05968 4.267 5.91484 4.25884 5.64981 4.49599C5.0628 5.02112 4.5681 5.62632 4.14463 6.28966C4.10638 6.34916 4.0887 6.42175 4.07187 6.46306ZM8.94662 4.95074C11.1299 5.18449 12.3167 6.38231 12.5462 8.54658C12.741 8.54658 12.9442 8.54658 13.1658 8.54658C13.1347 7.28467 12.6708 6.22948 11.736 5.39546C10.9463 4.69115 10.0129 4.34707 8.94679 4.33381C8.94662 4.55804 8.94662 4.75694 8.94662 4.95074ZM10.9057 8.54539C11.1196 8.54539 11.3217 8.54539 11.5233 8.54539C11.585 7.0822 10.2092 5.8786 8.94968 5.98094C8.94968 6.1829 8.94968 6.3852 8.94968 6.58614C10.2651 6.84403 10.715 7.29436 10.9057 8.54539Z" fill="#636363"/>
</svg>
