<svg width="20" height="20" viewBox="0 0 20 20" fill="none" xmlns="http://www.w3.org/2000/svg">
<path fill-rule="evenodd" clip-rule="evenodd" d="M7.03233 1.71362C7.14937 1.71362 7.26622 1.71362 7.38326 1.71362C7.81133 1.88253 8.23807 2.05467 8.66728 2.21978C9.04082 2.36342 9.41816 2.379 9.80709 2.26538C10.3015 2.12117 10.7983 1.98437 11.2997 1.86961C11.5874 1.80387 11.8861 1.77214 12.1813 1.75618C12.3976 1.74459 12.465 1.82629 12.4713 2.04517C12.4743 2.16601 12.4593 2.28989 12.4344 2.40845C12.3067 3.01322 12.0445 3.5627 11.7293 4.08938C11.4685 4.52448 11.1572 4.91892 10.7732 5.26111C10.9876 5.37188 11.1926 5.46859 11.3887 5.58164C11.5863 5.69526 11.7823 5.81496 11.9664 5.94872C13.7122 7.21716 15.0127 8.85325 15.93 10.7966C16.3758 11.7409 16.6726 12.7296 16.6756 13.7872C16.6802 15.302 16.0191 16.4276 14.6922 17.1561C13.8252 17.6322 12.8794 17.8427 11.9079 17.9563C11.5711 17.9959 11.2319 18.0206 10.8935 18.0525C10.4147 18.0525 9.93648 18.0525 9.45749 18.0525C9.41075 18.0447 9.3642 18.0337 9.31708 18.0303C8.86165 17.9943 8.40432 17.975 7.95117 17.9212C6.95899 17.8032 5.99778 17.5691 5.11827 17.0713C4.10728 16.4983 3.4419 15.6634 3.21409 14.5113C3.03929 13.627 3.13942 12.7547 3.38376 11.8961C3.84375 10.2784 4.68545 8.8694 5.76199 7.59317C6.46176 6.76363 7.24589 6.02814 8.19456 5.48379C8.26581 5.44275 8.33839 5.4038 8.42522 5.35554C8.34979 5.29873 8.28994 5.25674 8.23313 5.21076C7.4015 4.5374 6.82276 3.70102 6.60426 2.64158C6.50622 2.16601 6.61984 1.94466 7.03233 1.71362ZM9.44343 9.04534C9.37123 9.06111 9.31461 9.07308 9.25799 9.086C8.9424 9.15744 8.65588 9.28683 8.40318 9.49298C7.74996 10.0257 7.67035 11.2132 8.58824 11.6983C8.81605 11.8186 9.06552 11.901 9.31081 11.9843C9.40885 12.0173 9.44514 12.0542 9.444 12.1583C9.43868 12.5995 9.4421 13.041 9.44096 13.4822C9.44096 13.5219 9.43127 13.5616 9.42595 13.6031C9.03626 13.4982 8.79078 13.2637 8.66424 12.9054C8.63232 12.8142 8.57855 12.7199 8.5092 12.6546C8.38361 12.5355 8.19836 12.536 8.05073 12.6303C7.90842 12.7213 7.8347 12.8908 7.87859 13.0593C8.04522 13.6954 8.45771 14.1066 9.06248 14.337C9.18484 14.3838 9.35926 14.388 9.42082 14.4746C9.48428 14.5641 9.43849 14.7305 9.4421 14.8631C9.44894 15.1335 9.60322 15.3066 9.83806 15.3085C10.0797 15.311 10.2407 15.1345 10.2469 14.8573C10.25 14.7358 10.2475 14.6146 10.2475 14.4888C10.3446 14.4735 10.4274 14.4611 10.5103 14.4459C10.8169 14.3902 11.1019 14.2823 11.3565 14.0973C12.1355 13.5293 12.2022 12.224 11.1878 11.7129C10.9387 11.5877 10.6663 11.5039 10.397 11.4272C10.2705 11.3913 10.2431 11.3396 10.2452 11.2208C10.2517 10.8275 10.2477 10.4337 10.2477 10.0406C10.2477 9.98869 10.2477 9.93682 10.2477 9.88438C10.6294 9.89863 10.9537 10.1308 11.07 10.4603C11.1662 10.7333 11.3725 10.853 11.6047 10.7715C11.8317 10.6913 11.9199 10.4612 11.8264 10.1895C11.6509 9.67975 11.288 9.35922 10.7917 9.18233C10.6186 9.12058 10.4368 9.08353 10.2469 9.03223C10.2469 8.89638 10.2523 8.75863 10.2458 8.62126C10.2346 8.37749 10.0697 8.21086 9.8468 8.20915C9.62146 8.20763 9.4573 8.36894 9.44438 8.61499C9.43754 8.75217 9.44343 8.89049 9.44343 9.04534Z" fill="#636363"/>
<path fill-rule="evenodd" clip-rule="evenodd" d="M10.2583 13.6687C10.2583 13.1878 10.2583 12.7122 10.2583 12.1838C10.5004 12.2965 10.7398 12.3729 10.9391 12.508C11.2315 12.7061 11.2056 13.1756 10.9123 13.423C10.7272 13.5788 10.5053 13.6427 10.2583 13.6687Z" fill="#636363"/>
<path fill-rule="evenodd" clip-rule="evenodd" d="M9.43144 9.86084C9.43144 10.3138 9.43144 10.7358 9.43144 11.1576C9.00432 11.1523 8.67619 10.8367 8.7197 10.4719C8.74782 10.2374 8.89906 10.0932 9.09476 9.99156C9.19546 9.93931 9.3068 9.90853 9.43144 9.86084Z" fill="#636363"/>
</svg>
