<svg width="20" height="22" viewBox="0 0 20 22" fill="none" xmlns="http://www.w3.org/2000/svg">
<path d="M6.9668 16.5556V17.6667C6.9668 18.1044 7.04924 18.5379 7.20943 18.9423C7.36962 19.3467 7.60441 19.7142 7.90039 20.0237C8.19638 20.3332 8.54777 20.5787 8.93449 20.7463C9.32122 20.9138 9.73571 21 10.1543 21C10.5729 21 10.9874 20.9138 11.3741 20.7463C11.7608 20.5787 12.1122 20.3332 12.4082 20.0237C12.7042 19.7142 12.939 19.3467 13.0992 18.9423C13.2593 18.5379 13.3418 18.1044 13.3418 17.6667V16.5556M16.5293 7.66667C16.5293 11 18.6543 16.5556 18.6543 16.5556H1.6543C1.6543 16.5556 3.7793 12.1111 3.7793 7.66667C3.7793 4.03555 6.68205 1 10.1543 1C13.6265 1 16.5293 4.03555 16.5293 7.66667Z" stroke="white" stroke-width="1.5" stroke-linecap="round" stroke-linejoin="round"/>
</svg>
