<svg width="19" height="23" viewBox="0 0 19 23" fill="none" xmlns="http://www.w3.org/2000/svg">
<path d="M6.08838 17.1806V18.2917C6.08838 18.7294 6.17083 19.1629 6.33101 19.5673C6.4912 19.9717 6.72599 20.3392 7.02198 20.6487C7.31796 20.9582 7.66935 21.2037 8.05608 21.3713C8.4428 21.5388 8.85729 21.625 9.27588 21.625C9.69447 21.625 10.109 21.5388 10.4957 21.3713C10.8824 21.2037 11.2338 20.9582 11.5298 20.6487C11.8258 20.3392 12.0606 19.9717 12.2207 19.5673C12.3809 19.1629 12.4634 18.7294 12.4634 18.2917V17.1806M15.6509 8.29167C15.6509 11.625 17.7759 17.1806 17.7759 17.1806H0.775879C0.775879 17.1806 2.90088 12.7361 2.90088 8.29167C2.90088 4.66055 5.80363 1.625 9.27588 1.625C12.7481 1.625 15.6509 4.66055 15.6509 8.29167Z" stroke="black" stroke-width="1.5" stroke-linecap="round" stroke-linejoin="round"/>
</svg>
