<svg width="56" height="56" viewBox="0 0 56 56" fill="none" xmlns="http://www.w3.org/2000/svg">
<g clip-path="url(#clip0_1700_181)">
<path fill-rule="evenodd" clip-rule="evenodd" d="M46.5401 54.3695C45.8999 54.3695 45.3582 54.3695 44.7768 54.3695C44.7768 49.9975 44.7768 45.6525 44.7768 41.2696C38.916 41.2696 33.0953 41.2696 27.234 41.2696C27.234 45.6168 27.234 49.9618 27.234 54.3513C26.6411 54.3513 26.0867 54.3513 25.4762 54.3513C25.4762 50.0074 25.4762 45.647 25.4762 41.3059C25.0246 41.093 24.8756 41.4087 24.6946 41.6458C22.2136 44.9034 19.7342 48.1616 17.2548 51.4198C16.9562 51.8125 16.6624 52.2096 16.3566 52.5968C15.1202 54.1621 13.0269 54.7809 11.1283 54.1456C9.2435 53.5153 7.91305 51.7471 7.90755 49.7484C7.8905 43.6962 7.8949 37.644 7.9037 31.5912C7.9059 30.1359 8.8321 29.1976 10.5321 28.8984C10.5321 28.1064 10.5277 27.3045 10.5332 26.5032C10.5387 25.7475 10.8462 25.44 11.5986 25.4318C12.0914 25.4263 12.5847 25.4312 13.1215 25.4312C13.1215 24.8218 13.1215 24.2289 13.1215 23.5601C12.1656 23.4204 11.1806 23.2736 10.1944 23.1322C7.6089 22.7621 5.0217 22.4002 2.43725 22.0229C1.50225 21.8859 0.893399 21.1979 0.882949 20.2557C0.865899 18.7564 0.863699 17.2571 0.882949 15.7578C0.895049 14.7755 1.6502 14.0468 2.6402 14.0237C3.2023 14.0099 3.7655 14.0215 4.3881 14.0215C4.3881 13.1954 4.38535 12.4149 4.38865 11.6345C4.3925 10.8089 4.68675 10.5108 5.51175 10.5108C11.1982 10.5092 16.8846 10.5092 22.5716 10.5108C23.3978 10.5108 23.6959 10.8095 23.698 11.6323C23.7019 13.0518 23.6992 14.4719 23.7344 15.9041C24.1133 14.5924 24.9394 13.714 26.1653 13.2894C26.255 11.1098 26.222 8.96971 26.459 6.85936C26.7742 4.05601 29.308 1.82686 32.1306 1.75646C34.7074 1.69211 37.288 1.68441 39.8642 1.75866C42.953 1.84721 45.5138 4.48336 45.6304 7.58151C45.659 8.33006 45.6199 9.08136 45.6491 9.82991C45.6766 10.5378 45.7635 11.2434 45.802 11.9507C45.8251 12.3836 45.8064 12.8181 45.8064 13.2614C47.6665 14.198 48.5064 15.5301 48.2418 17.1449C47.958 18.8708 46.8052 19.896 44.7999 20.2035C44.6453 21.078 44.5249 21.9618 44.328 22.8281C43.9479 24.5006 43.0988 25.9207 41.7782 27.0097C41.3525 27.3612 41.2045 27.7066 41.2502 28.2115C41.2744 28.481 41.2546 28.7543 41.2546 29.0546C43.0652 29.3142 44.8362 29.5601 46.605 29.8246C47.4525 29.9511 48.3149 30.0424 49.1367 30.2723C51.6606 30.9791 53.5097 33.3254 53.5256 35.945C53.5636 42.0335 53.5388 48.1231 53.5383 54.2116C53.5383 54.2463 53.5257 54.282 53.5102 54.3579C52.9652 54.3579 52.4103 54.3579 51.7953 54.3579C51.7953 50.8803 51.7953 47.3999 51.7953 43.8931C50.0238 43.8931 48.3122 43.8931 46.5401 43.8931C46.5401 47.3713 46.5401 50.8511 46.5401 54.3695ZM18.4324 32.7358C19.5796 31.792 20.7869 31.2255 22.1262 30.9433C23.0369 30.7514 23.9483 30.5605 24.8585 30.3653C26.7995 29.9495 28.7404 29.5309 30.7215 29.1052C30.7215 28.7477 30.6946 28.4188 30.7281 28.0965C30.7754 27.6345 30.6066 27.3474 30.2353 27.0466C29.0259 26.0692 28.1811 24.8114 27.7812 23.3055C27.5112 22.2891 27.3577 21.2424 27.1504 20.1996C25.2259 19.8894 24.5511 19.3427 23.7288 17.41C23.7206 17.4452 23.7057 17.4799 23.7057 17.5151C23.703 18.8857 23.7019 20.2568 23.6997 21.628C23.6969 23.3594 22.6101 24.5584 21.052 24.5507C19.518 24.5435 18.4373 23.3473 18.4334 21.6533C18.4329 21.419 18.4334 21.1847 18.4334 20.9449C16.8203 21.139 15.8528 20.77 15.277 19.6931C15.1004 19.3631 14.9112 19.2773 14.562 19.2789C11.5447 19.2916 8.52905 19.2877 5.51285 19.285C4.6884 19.2844 4.39305 18.9858 4.3892 18.1613C4.3859 17.3814 4.38865 16.6015 4.38865 15.8117C3.7743 15.8117 3.2199 15.8117 2.66715 15.8117C2.66715 17.3198 2.66715 18.7905 2.66715 20.264C2.85965 20.3019 3.0197 20.3421 3.18195 20.3652C6.5265 20.8442 9.87105 21.3205 13.215 21.7996C14.3524 21.9624 14.9129 22.6092 14.9217 23.7647C14.9255 24.3065 14.9222 24.8488 14.9222 25.4307C15.4953 25.4307 16.0035 25.4252 16.5117 25.4318C17.2289 25.4411 17.5474 25.7552 17.5534 26.4713C17.5611 27.3854 17.5446 28.2995 17.5644 29.213C17.5688 29.4132 17.6293 29.6541 17.7526 29.8015C18.2338 30.3785 18.4576 31.0275 18.4351 31.7722C18.4252 32.0565 18.4324 32.3409 18.4324 32.7358ZM28.862 15.8832C28.9753 17.872 28.9725 19.8328 29.2255 21.7605C29.5407 24.1646 30.9014 25.8767 33.1916 26.7919C34.2916 27.2314 35.445 27.1973 36.5961 27.1863C39.5639 27.1571 42.0356 25.1238 42.6813 22.2247C43.1119 20.292 42.9992 18.3362 43.0118 16.3843C43.013 16.2259 42.9882 16.0669 42.9739 15.8893C42.6642 15.8893 42.392 15.8997 42.1214 15.8865C41.836 15.8733 41.5522 15.837 41.2667 15.8112C41.2266 16.9843 40.6787 17.6443 39.8108 17.5085C39.4968 17.4595 39.1547 17.2615 38.9303 17.0294C38.4743 16.5586 38.564 15.974 38.8582 15.3904C36.9002 15.1402 35.0379 15.1198 33.1614 15.397C33.5067 16.5372 33.1877 17.3011 32.322 17.5024C31.4365 17.7087 30.8486 17.1152 30.6836 15.8832C30.1187 15.8832 29.5611 15.8832 28.862 15.8832ZM43.8836 10.4822C43.8836 9.52246 43.9034 8.62596 43.8792 7.73166C43.8171 5.41671 41.9355 3.52746 39.6156 3.49611C37.2033 3.46366 34.7905 3.47136 32.3776 3.49446C30.5665 3.51206 28.9659 4.67586 28.3576 6.37591C27.8758 7.72231 28.1668 9.11051 28.0799 10.4828C33.3901 10.4822 38.6113 10.4822 43.8836 10.4822ZM16.6767 14.0446C16.6767 15.4614 16.6751 16.8138 16.6773 18.1663C16.6789 18.8477 16.9589 19.2305 17.4775 19.2784C17.9885 19.3257 18.3064 19.0083 18.4389 18.3192C18.5341 17.8242 18.8894 17.5162 19.3431 17.5343C19.8183 17.5536 20.1528 17.9116 20.1847 18.4418C20.1935 18.5876 20.1874 18.7344 20.1874 18.8802C20.1879 19.8674 20.1791 20.8547 20.1918 21.8419C20.1989 22.4084 20.5487 22.7797 21.0438 22.7923C21.5574 22.8055 21.9177 22.42 21.9424 21.8298C21.9446 21.7748 21.943 21.7198 21.943 21.6654C21.943 18.6855 21.943 15.7056 21.9419 12.7257C21.9419 12.5854 21.9249 12.4452 21.9155 12.3016C16.6443 12.3016 11.4094 12.3016 6.18715 12.3016C6.18715 14.0638 6.18715 15.7881 6.18715 17.4997C9.11315 17.4997 11.9946 17.4997 14.936 17.4997C14.936 16.3293 14.936 15.1891 14.936 14.0451C15.5382 14.0446 16.08 14.0446 16.6767 14.0446ZM25.4371 32.0268C24.1826 32.3095 22.9808 32.5372 21.8033 32.8557C20.5702 33.1895 19.5554 33.9095 18.786 34.9281C18.5852 35.1932 18.4642 35.576 18.4483 35.9115C18.4087 36.748 18.4972 37.5961 17.9473 38.3485C19.347 39.63 20.7126 40.8807 22.0997 42.1501C22.5293 41.5886 22.9583 41.1079 23.2949 40.5689C23.78 39.7934 24.3762 39.3017 25.3469 39.4573C25.37 39.4612 25.4009 39.4166 25.4366 39.3875C25.4372 36.9664 25.4371 34.5398 25.4371 32.0268ZM14.9151 42.9861C13.7843 42.9861 12.7101 42.9894 11.636 42.9845C10.8445 42.9812 10.5382 42.6781 10.5332 41.896C10.5283 41.0963 10.5321 40.2966 10.5321 39.5013C10.2115 39.4535 9.95135 39.415 9.67635 39.3743C9.66645 39.492 9.65545 39.564 9.65545 39.6361C9.6549 42.9795 9.6516 46.323 9.6604 49.6664C9.66095 49.9546 9.70825 50.2516 9.7891 50.5288C10.1532 51.7724 11.4979 52.7552 12.6199 52.6188C13.8475 52.4703 14.8815 51.4341 14.9024 50.1906C14.9431 47.8168 14.9151 45.4424 14.9151 42.9861ZM51.7877 42.0869C51.7877 41.8718 51.7877 41.7096 51.7877 41.5484C51.7832 39.6306 51.8372 37.7105 51.7579 35.796C51.682 33.9683 50.3153 32.3739 48.552 31.9201C47.9063 31.7535 47.2348 31.6886 46.5527 31.5736C46.5527 35.1085 46.5527 38.5867 46.5527 42.0869C48.2957 42.0869 50.0062 42.0869 51.7877 42.0869ZM9.6549 34.1614C9.6549 35.0023 9.64885 35.8438 9.65655 36.6848C9.66315 37.3756 9.9794 37.7122 10.6504 37.716C12.3328 37.7254 14.0147 37.7259 15.6966 37.7155C16.3396 37.7116 16.6696 37.3739 16.6729 36.7216C16.6817 35.0392 16.6828 33.3573 16.6723 31.6754C16.6685 31.0319 16.3302 30.703 15.679 30.7002C13.9966 30.6914 12.3147 30.6909 10.6328 30.7008C9.98875 30.7046 9.66535 31.0401 9.6571 31.6935C9.64665 32.5158 9.6549 33.3386 9.6549 34.1614ZM31.6268 39.437C34.5606 39.437 37.4536 39.437 40.3498 39.437C40.3498 37.2353 40.3498 35.0722 40.3498 32.8755C37.9777 35.8664 33.8802 35.7608 31.6268 32.8738C31.6268 35.0722 31.6268 37.2348 31.6268 39.437ZM32.4804 28.4551C32.4804 28.9699 32.4661 29.4583 32.4826 29.9462C32.5618 32.2837 34.879 33.8853 37.0988 33.1422C38.9325 32.5279 39.8763 30.6403 39.4286 28.4727C37.1291 29.1432 34.8279 29.1388 32.4804 28.4551ZM27.9078 12.2884C27.9804 13.5369 28.7558 14.2371 29.9268 14.126C30.5065 14.071 31.0818 13.9538 31.656 13.8493C34.1541 13.3945 36.6599 13.2894 39.1772 13.6772C40.1694 13.8295 41.1562 14.0341 42.1528 14.1265C43.2759 14.2305 44.0871 13.4049 44.0365 12.289C38.6723 12.2884 33.3071 12.2884 27.9078 12.2884ZM42.1544 39.4348C43.0476 39.4348 43.8941 39.4348 44.7339 39.4348C44.7339 36.7178 44.7339 34.0404 44.7339 31.3289C43.8666 31.2073 43.0256 31.0902 42.1544 30.9692C42.1544 33.8182 42.1544 36.6078 42.1544 39.4348ZM29.8162 31.1045C29.0825 31.2618 28.3791 31.4411 27.6652 31.5549C27.2906 31.6143 27.2004 31.7694 27.2027 32.1258C27.2169 34.4287 27.2093 36.731 27.212 39.0344C27.212 39.173 27.2367 39.3116 27.2494 39.448C28.1222 39.448 28.956 39.448 29.8162 39.448C29.8162 36.6705 29.8162 33.9188 29.8162 31.1045ZM16.6965 49.2572C18.1964 47.2844 19.6038 45.4331 21.0322 43.5548C19.8739 42.4961 18.7585 41.4775 17.637 40.4517C17.312 41.3796 18.1265 42.6033 16.6971 43.0362C16.6965 45.0662 16.6965 47.0847 16.6965 49.2572ZM12.3125 28.9034C13.495 28.9034 14.6329 28.9034 15.7549 28.9034C15.7549 28.3099 15.7549 27.7561 15.7549 27.2154C14.5856 27.2154 13.4609 27.2154 12.3125 27.2154C12.3125 27.7836 12.3125 28.3242 12.3125 28.9034ZM12.3323 39.4942C12.3323 40.1069 12.3323 40.6607 12.3323 41.2014C13.5016 41.2014 14.6263 41.2014 15.7643 41.2014C15.7643 40.6184 15.7643 40.0656 15.7643 39.4942C14.6054 39.4942 13.4807 39.4942 12.3323 39.4942ZM27.1922 14.9284C26.2489 14.8696 25.4025 15.7611 25.4553 16.7555C25.4949 17.492 26.1917 18.4616 27.1922 18.3511C27.1922 17.2236 27.1922 16.0939 27.1922 14.9284ZM44.7834 18.3797C45.7019 18.4352 46.6105 17.536 46.5164 16.4811C46.4543 15.7809 45.7156 14.8074 44.7834 14.968C44.7834 16.0944 44.7834 17.2241 44.7834 18.3797Z" fill="white"/>
<path fill-rule="evenodd" clip-rule="evenodd" d="M35.9906 54.3972C34.0337 54.3972 32.0779 54.3988 30.121 54.3966C29.2591 54.3955 28.9676 54.1057 28.9665 53.2477C28.9638 51.3639 28.9627 49.4802 28.9671 47.5975C28.9687 46.8066 29.2729 46.4992 30.0594 46.4986C34.0089 46.4959 37.9585 46.4959 41.9086 46.4986C42.6984 46.4992 43.0064 46.8061 43.0086 47.5909C43.0124 49.4928 43.0124 51.3942 43.0086 53.2961C43.0069 54.0853 42.6995 54.3939 41.9152 54.3955C39.9401 54.3999 37.9656 54.3972 35.9906 54.3972ZM30.7496 48.2757C30.7496 49.7557 30.7496 51.1742 30.7496 52.6091C34.2564 52.6091 37.7346 52.6091 41.2156 52.6091C41.2156 51.145 41.2156 49.7134 41.2156 48.2757C37.7132 48.2757 34.2476 48.2757 30.7496 48.2757Z" fill="#FEBA0F"/>
<path fill-rule="evenodd" clip-rule="evenodd" d="M28.9946 43.0098C29.5638 43.0098 30.1045 43.0098 30.6825 43.0098C30.6825 43.568 30.6825 44.1208 30.6825 44.7076C30.1292 44.7076 29.5765 44.7076 28.9946 44.7076C28.9946 44.1532 28.9946 43.6131 28.9946 43.0098Z" fill="white"/>
<path fill-rule="evenodd" clip-rule="evenodd" d="M41.2783 44.7019C41.2783 44.125 41.2783 43.5854 41.2783 43.0156C41.8404 43.0156 42.381 43.0156 42.9657 43.0156C42.9657 43.5546 42.9657 44.1079 42.9657 44.7019C42.4311 44.7019 41.8778 44.7019 41.2783 44.7019Z" fill="white"/>
<path fill-rule="evenodd" clip-rule="evenodd" d="M34.2548 21.9002C34.2548 21.3067 34.2548 20.7661 34.2548 20.1627C35.6116 20.2128 36.9311 20.127 38.1702 19.4043C38.4661 19.9081 38.7494 20.3893 39.053 20.9063C37.5663 21.794 35.9708 22.0003 34.2548 21.9002Z" fill="white"/>
</g>
<defs>
<clipPath id="clip0_1700_181">
<rect width="55" height="55" fill="white" transform="translate(0.416565 0.75)"/>
</clipPath>
</defs>
</svg>
