<svg width="54" height="54" viewBox="0 0 54 54" fill="none" xmlns="http://www.w3.org/2000/svg">
<path fill-rule="evenodd" clip-rule="evenodd" d="M46.2581 53.2445C45.6179 53.2445 45.0761 53.2445 44.4948 53.2445C44.4948 48.8725 44.4948 44.5275 44.4948 40.1446C38.634 40.1446 32.8133 40.1446 26.952 40.1446C26.952 44.4918 26.952 48.8368 26.952 53.2263C26.3591 53.2263 25.8047 53.2263 25.1942 53.2263C25.1942 48.8824 25.1942 44.522 25.1942 40.1809C24.7426 39.968 24.5936 40.2837 24.4126 40.5208C21.9316 43.7784 19.4522 47.0366 16.9728 50.2948C16.6741 50.6875 16.3804 51.0846 16.0746 51.4718C14.8382 53.0371 12.7449 53.6559 10.8463 53.0206C8.96146 52.3903 7.63101 50.6221 7.62551 48.6234C7.60846 42.5712 7.61286 36.519 7.62166 30.4662C7.62386 29.0109 8.55006 28.0726 10.2501 27.7734C10.2501 26.9814 10.2457 26.1795 10.2512 25.3782C10.2567 24.6225 10.5642 24.315 11.3166 24.3068C11.8094 24.3013 12.3027 24.3062 12.8395 24.3062C12.8395 23.6968 12.8395 23.1039 12.8395 22.4351C11.8836 22.2954 10.8986 22.1486 9.91241 22.0072C7.32686 21.6371 4.73966 21.2752 2.15521 20.8979C1.22021 20.7609 0.611355 20.0729 0.600905 19.1307C0.583855 17.6314 0.581655 16.1321 0.600905 14.6328C0.613005 13.6505 1.36816 12.9218 2.35816 12.8987C2.92026 12.8849 3.48346 12.8965 4.10606 12.8965C4.10606 12.0704 4.10331 11.2899 4.10661 10.5095C4.11046 9.68391 4.40471 9.38581 5.22971 9.38581C10.9162 9.38416 16.6026 9.38416 22.2896 9.38581C23.1157 9.38581 23.4138 9.68446 23.416 10.5073C23.4199 11.9268 23.4171 13.3469 23.4523 14.7791C23.8313 13.4674 24.6574 12.589 25.8833 12.1644C25.973 9.98476 25.94 7.84471 26.177 5.73436C26.4922 2.93101 29.026 0.701862 31.8486 0.631462C34.4254 0.567112 37.006 0.559412 39.5822 0.633662C42.671 0.722212 45.2318 3.35836 45.3484 6.45651C45.377 7.20506 45.3379 7.95636 45.3671 8.70491C45.3946 9.41276 45.4815 10.1184 45.52 10.8257C45.5431 11.2586 45.5244 11.6931 45.5244 12.1364C47.3845 13.073 48.2243 14.4051 47.9598 16.0199C47.676 17.7458 46.5232 18.771 44.5179 19.0785C44.3633 19.953 44.2429 20.8368 44.046 21.7031C43.6659 23.3756 42.8167 24.7957 41.4962 25.8847C41.0705 26.2362 40.9225 26.5816 40.9682 27.0865C40.9924 27.356 40.9726 27.6293 40.9726 27.9296C42.7832 28.1892 44.5542 28.4351 46.323 28.6996C47.1705 28.8261 48.0329 28.9174 48.8546 29.1473C51.3786 29.8541 53.2277 32.2004 53.2436 34.82C53.2816 40.9085 53.2568 46.9981 53.2563 53.0866C53.2563 53.1213 53.2436 53.157 53.2282 53.2329C52.6832 53.2329 52.1282 53.2329 51.5133 53.2329C51.5133 49.7553 51.5133 46.2749 51.5133 42.7681C49.7418 42.7681 48.0302 42.7681 46.2581 42.7681C46.2581 46.2463 46.2581 49.7261 46.2581 53.2445ZM18.1503 31.6108C19.2976 30.667 20.5049 30.1005 21.8441 29.8183C22.7549 29.6264 23.6663 29.4355 24.5765 29.2403C26.5175 28.8245 28.4584 28.4059 30.4395 27.9802C30.4395 27.6227 30.4126 27.2938 30.4461 26.9715C30.4934 26.5095 30.3246 26.2224 29.9533 25.9216C28.7439 24.9442 27.8991 23.6864 27.4992 22.1805C27.2292 21.1641 27.0757 20.1174 26.8684 19.0746C24.9439 18.7644 24.2691 18.2177 23.4468 16.285C23.4386 16.3202 23.4237 16.3549 23.4237 16.3901C23.421 17.7607 23.4199 19.1318 23.4177 20.503C23.4149 22.2344 22.3281 23.4334 20.77 23.4257C19.236 23.4185 18.1553 22.2223 18.1514 20.5283C18.1509 20.294 18.1514 20.0597 18.1514 19.8199C16.5383 20.014 15.5708 19.645 14.995 18.5681C14.8184 18.2381 14.6292 18.1523 14.28 18.1539C11.2627 18.1666 8.24701 18.1627 5.23081 18.16C4.40636 18.1594 4.11101 17.8608 4.10716 17.0363C4.10386 16.2564 4.10661 15.4765 4.10661 14.6867C3.49226 14.6867 2.93786 14.6867 2.38511 14.6867C2.38511 16.1948 2.38511 17.6655 2.38511 19.139C2.57761 19.1769 2.73766 19.2171 2.89991 19.2402C6.24446 19.7192 9.58901 20.1955 12.933 20.6746C14.0704 20.8374 14.6309 21.4842 14.6397 22.6397C14.6435 23.1815 14.6402 23.7238 14.6402 24.3057C15.2133 24.3057 15.7215 24.3002 16.2297 24.3068C16.9469 24.3161 17.2654 24.6302 17.2714 25.3463C17.2791 26.2604 17.2626 27.1745 17.2824 28.088C17.2868 28.2882 17.3473 28.5291 17.4705 28.6765C17.9518 29.2535 18.1756 29.9025 18.1531 30.6472C18.1432 30.9315 18.1503 31.2159 18.1503 31.6108ZM28.58 14.7582C28.6933 16.747 28.6905 18.7078 28.9435 20.6355C29.2587 23.0396 30.6194 24.7517 32.9096 25.6669C34.0096 26.1064 35.1629 26.0723 36.3141 26.0613C39.2819 26.0321 41.7536 23.9988 42.3993 21.0997C42.8299 19.167 42.7172 17.2112 42.7298 15.2593C42.7309 15.1009 42.7062 14.9419 42.6919 14.7643C42.3822 14.7643 42.11 14.7747 41.8394 14.7615C41.5539 14.7483 41.2701 14.712 40.9847 14.6862C40.9445 15.8593 40.3967 16.5193 39.5288 16.3835C39.2148 16.3345 38.8727 16.1365 38.6483 15.9044C38.1923 15.4336 38.282 14.849 38.5762 14.2654C36.6182 14.0152 34.7559 13.9948 32.8793 14.272C33.2247 15.4122 32.9057 16.1761 32.04 16.3774C31.1545 16.5837 30.5666 15.9902 30.4016 14.7582C29.8367 14.7582 29.279 14.7582 28.58 14.7582ZM43.6016 9.35721C43.6016 8.39746 43.6214 7.50096 43.5972 6.60666C43.535 4.29171 41.6535 2.40246 39.3336 2.37111C36.9213 2.33866 34.5084 2.34636 32.0956 2.36946C30.2844 2.38706 28.6839 3.55086 28.0756 5.25091C27.5938 6.59731 27.8848 7.98551 27.7979 9.35776C33.1081 9.35721 38.3293 9.35721 43.6016 9.35721ZM16.3947 12.9196C16.3947 14.3364 16.3931 15.6888 16.3953 17.0413C16.3969 17.7227 16.6769 18.1055 17.1955 18.1534C17.7065 18.2007 18.0244 17.8833 18.1569 17.1942C18.2521 16.6992 18.6074 16.3912 19.0611 16.4093C19.5363 16.4286 19.8707 16.7866 19.9026 17.3168C19.9114 17.4626 19.9054 17.6094 19.9054 17.7552C19.9059 18.7424 19.8971 19.7297 19.9098 20.7169C19.9169 21.2834 20.2667 21.6547 20.7617 21.6673C21.2754 21.6805 21.6357 21.295 21.6604 20.7048C21.6626 20.6498 21.661 20.5948 21.661 20.5404C21.661 17.5605 21.661 14.5806 21.6599 11.6007C21.6599 11.4604 21.6428 11.3202 21.6335 11.1766C16.3623 11.1766 11.1274 11.1766 5.90511 11.1766C5.90511 12.9388 5.90511 14.6631 5.90511 16.3747C8.83111 16.3747 11.7126 16.3747 14.654 16.3747C14.654 15.2043 14.654 14.0641 14.654 12.9201C15.2562 12.9196 15.798 12.9196 16.3947 12.9196ZM25.1551 30.9018C23.9006 31.1845 22.6988 31.4122 21.5213 31.7307C20.2882 32.0645 19.2734 32.7845 18.504 33.8031C18.3032 34.0682 18.1822 34.451 18.1663 34.7865C18.1267 35.623 18.2152 36.4711 17.6652 37.2235C19.065 38.505 20.4306 39.7557 21.8177 41.0251C22.2473 40.4636 22.6763 39.9829 23.0129 39.4439C23.498 38.6684 24.0942 38.1767 25.0649 38.3323C25.088 38.3362 25.1188 38.2916 25.1546 38.2625C25.1551 35.8414 25.1551 33.4148 25.1551 30.9018ZM14.6331 41.8611C13.5023 41.8611 12.4281 41.8644 11.354 41.8595C10.5625 41.8562 10.2562 41.5531 10.2512 40.771C10.2463 39.9713 10.2501 39.1716 10.2501 38.3763C9.92946 38.3285 9.66931 38.29 9.39431 38.2493C9.38441 38.367 9.37341 38.439 9.37341 38.5111C9.37286 41.8545 9.36956 45.198 9.37836 48.5414C9.37891 48.8296 9.42621 49.1266 9.50706 49.4038C9.87116 50.6474 11.2159 51.6302 12.3379 51.4938C13.5655 51.3453 14.5995 50.3091 14.6204 49.0656C14.6611 46.6918 14.6331 44.3174 14.6331 41.8611ZM51.5056 40.9619C51.5056 40.7468 51.5056 40.5846 51.5056 40.4234C51.5012 38.5056 51.5551 36.5855 51.4759 34.671C51.4 32.8433 50.0333 31.2489 48.27 30.7951C47.6243 30.6285 46.9527 30.5636 46.2707 30.4486C46.2707 33.9835 46.2707 37.4617 46.2707 40.9619C48.0137 40.9619 49.7242 40.9619 51.5056 40.9619ZM9.37286 33.0364C9.37286 33.8773 9.36681 34.7188 9.37451 35.5598C9.38111 36.2506 9.69736 36.5872 10.3684 36.591C12.0508 36.6004 13.7327 36.6009 15.4146 36.5905C16.0576 36.5866 16.3876 36.2489 16.3909 35.5966C16.3997 33.9142 16.4008 32.2323 16.3903 30.5504C16.3865 29.9069 16.0482 29.578 15.397 29.5752C13.7146 29.5664 12.0327 29.5659 10.3508 29.5758C9.70671 29.5796 9.38331 29.9151 9.37506 30.5685C9.36461 31.3908 9.37286 32.2136 9.37286 33.0364ZM31.3448 38.312C34.2785 38.312 37.1715 38.312 40.0678 38.312C40.0678 36.1103 40.0678 33.9472 40.0678 31.7505C37.6957 34.7414 33.5982 34.6358 31.3448 31.7488C31.3448 33.9472 31.3448 36.1098 31.3448 38.312ZM32.1984 27.3301C32.1984 27.8449 32.1841 28.3333 32.2006 28.8212C32.2798 31.1587 34.597 32.7603 36.8168 32.0172C38.6505 31.4029 39.5943 29.5153 39.1466 27.3477C36.847 28.0182 34.5458 28.0138 32.1984 27.3301ZM27.6257 11.1634C27.6983 12.4119 28.4738 13.1121 29.6448 13.001C30.2245 12.946 30.7998 12.8288 31.374 12.7243C33.8721 12.2695 36.3779 12.1644 38.8952 12.5522C39.8874 12.7045 40.8741 12.9091 41.8707 13.0015C42.9938 13.1055 43.8051 12.2799 43.7545 11.164C38.3903 11.1634 33.0251 11.1634 27.6257 11.1634ZM41.8724 38.3098C42.7656 38.3098 43.612 38.3098 44.4519 38.3098C44.4519 35.5928 44.4519 32.9154 44.4519 30.2039C43.5845 30.0823 42.7436 29.9652 41.8724 29.8442C41.8724 32.6932 41.8724 35.4828 41.8724 38.3098ZM29.5342 29.9795C28.8005 30.1368 28.0971 30.3161 27.3832 30.4299C27.0086 30.4893 26.9184 30.6444 26.9206 31.0008C26.9349 33.3037 26.9272 35.606 26.93 37.9094C26.93 38.048 26.9547 38.1866 26.9674 38.323C27.8402 38.323 28.674 38.323 29.5342 38.323C29.5342 35.5455 29.5342 32.7938 29.5342 29.9795ZM16.4145 48.1322C17.9144 46.1594 19.3218 44.3081 20.7502 42.4298C19.5919 41.3711 18.4765 40.3525 17.355 39.3267C17.03 40.2546 17.8445 41.4783 16.4151 41.9112C16.4145 43.9412 16.4145 45.9597 16.4145 48.1322ZM12.0305 27.7784C13.213 27.7784 14.3509 27.7784 15.4729 27.7784C15.4729 27.1849 15.4729 26.6311 15.4729 26.0904C14.3036 26.0904 13.1789 26.0904 12.0305 26.0904C12.0305 26.6586 12.0305 27.1992 12.0305 27.7784ZM12.0503 38.3692C12.0503 38.9819 12.0503 39.5357 12.0503 40.0764C13.2196 40.0764 14.3443 40.0764 15.4823 40.0764C15.4823 39.4934 15.4823 38.9406 15.4823 38.3692C14.3234 38.3692 13.1987 38.3692 12.0503 38.3692ZM26.9102 13.8034C25.9669 13.7446 25.1205 14.6361 25.1733 15.6305C25.2129 16.367 25.9097 17.3366 26.9102 17.2261C26.9102 16.0986 26.9102 14.9689 26.9102 13.8034ZM44.5014 17.2547C45.4199 17.3102 46.3285 16.411 46.2344 15.3561C46.1723 14.6559 45.4336 13.6824 44.5014 13.843C44.5014 14.9694 44.5014 16.0991 44.5014 17.2547Z" fill="black"/>
</svg>
