<svg width="61" height="61" viewBox="0 0 61 61" fill="none" xmlns="http://www.w3.org/2000/svg">
<path fill-rule="evenodd" clip-rule="evenodd" d="M19.9031 28.2057C19.1423 27.0063 19.5197 26.0367 20.2877 25.0629C21.5015 23.5245 22.6499 21.9339 23.8949 20.2731C23.8025 20.2185 23.6969 20.1693 23.6063 20.1009C22.6709 19.4043 21.7319 18.7119 20.8091 17.9997C20.5865 17.8281 20.4293 17.8269 20.1839 17.9589C18.9665 18.6135 17.7629 18.5433 16.6565 17.7267C14.1551 15.8793 11.6657 14.0145 9.19195 12.1299C7.69195 10.9875 7.42675 8.9997 8.52775 7.5339C9.60655 6.0969 11.5889 5.7897 13.0871 6.8913C15.6059 8.7435 18.1049 10.6239 20.5925 12.5175C21.6923 13.3551 22.0517 14.4993 21.7991 15.8529C21.7715 16.0017 21.8117 16.2429 21.9131 16.3221C22.9397 17.1189 23.9867 17.8905 25.0637 18.6963C25.1879 18.5367 25.3019 18.3957 25.4111 18.2499C26.5673 16.7091 27.7205 15.1647 28.8803 13.6263C30.0581 12.0633 31.8089 12.1965 32.7503 13.9209C33.5825 15.4443 34.4075 16.9707 35.3255 18.4887C35.3363 18.3339 35.3543 18.1791 35.3549 18.0249C35.3567 16.5033 35.3531 14.9817 35.3573 13.4595C35.3597 12.5223 35.7101 12.1779 36.6515 12.1779C42.5693 12.1767 48.4877 12.1767 54.4061 12.1779C55.3715 12.1779 55.7087 12.5199 55.7087 13.5027C55.7099 26.6409 55.7099 39.7785 55.7087 52.9173C55.7087 53.8899 55.3679 54.2373 54.4025 54.2373C39.3197 54.2391 24.2375 54.2391 9.15475 54.2373C8.18755 54.2373 7.84795 53.8917 7.84795 52.9185C7.84675 45.1239 7.84675 37.3293 7.84795 29.5335C7.84795 28.5261 8.17435 28.2063 9.19375 28.2057C12.5585 28.2051 15.9233 28.2057 19.2881 28.2057C19.4681 28.2057 19.6493 28.2057 19.9031 28.2057ZM30.7619 14.4465C27.6047 18.6579 24.5243 22.7673 21.3797 26.9631C27.5165 28.2909 33.5285 29.5923 39.5411 30.8937C39.5657 30.8463 39.5897 30.7989 39.6143 30.7509C36.6869 25.3593 33.7589 19.9671 30.7619 14.4465ZM9.89575 30.2187C9.89575 32.2593 9.89575 34.2261 9.89575 36.1767C15.3485 36.1767 20.7617 36.1767 26.1599 36.1767C26.1599 34.1517 26.1599 32.1669 26.1599 30.2187C20.7221 30.2187 15.3191 30.2187 9.89575 30.2187ZM53.6801 14.2227C48.2165 14.2227 42.8045 14.2227 37.3943 14.2227C37.3943 16.2273 37.3943 18.1935 37.3943 20.1549C42.8429 20.1549 48.2561 20.1549 53.6801 20.1549C53.6801 18.1647 53.6801 16.2105 53.6801 14.2227ZM35.3297 38.2593C29.8673 38.2593 24.4667 38.2593 19.0481 38.2593C19.0481 40.2603 19.0481 42.2271 19.0481 44.1951C24.4979 44.1951 29.9117 44.1951 35.3297 44.1951C35.3297 42.2001 35.3297 40.2447 35.3297 38.2593ZM26.1773 46.2711C20.7167 46.2711 15.3047 46.2711 9.89095 46.2711C9.89095 48.2757 9.89095 50.2419 9.89095 52.2093C15.3377 52.2093 20.7497 52.2093 26.1773 52.2093C26.1773 50.2191 26.1773 48.2649 26.1773 46.2711ZM37.3775 52.2093C42.8429 52.2093 48.2549 52.2093 53.6639 52.2093C53.6639 50.2047 53.6639 48.2367 53.6639 46.2723C48.2183 46.2723 42.8063 46.2723 37.3775 46.2723C37.3775 48.2655 37.3775 50.2203 37.3775 52.2093ZM53.6801 30.2463C49.6013 30.2463 45.5735 30.2463 41.5439 30.2463C41.6753 32.1789 40.5461 33.1539 38.6771 32.7591C38.2559 32.6703 37.8353 32.5785 37.4003 32.4855C37.4003 33.7527 37.4003 34.9617 37.4003 36.1821C42.8429 36.1821 48.2549 36.1821 53.6801 36.1821C53.6801 34.1919 53.6801 32.2371 53.6801 30.2463ZM46.5467 28.1709C48.9575 28.1709 51.3131 28.1709 53.6639 28.1709C53.6639 26.1687 53.6639 24.2019 53.6639 22.2399C51.2759 22.2399 48.9215 22.2399 46.5467 22.2399C46.5467 24.2319 46.5467 26.1849 46.5467 28.1709ZM9.89395 38.2473C9.89395 40.2741 9.89395 42.2391 9.89395 44.1939C12.2849 44.1939 14.6381 44.1939 16.9871 44.1939C16.9871 42.1899 16.9871 40.2267 16.9871 38.2473C14.6015 38.2473 12.2597 38.2473 9.89395 38.2473ZM37.3991 38.2479C37.3991 40.2765 37.3991 42.2427 37.3991 44.1933C39.7943 44.1933 42.1499 44.1933 44.4959 44.1933C44.4959 42.1887 44.4959 40.2243 44.4959 38.2479C42.1079 38.2479 39.7643 38.2479 37.3991 38.2479ZM53.6693 44.2125C53.6693 42.2055 53.6693 40.2387 53.6693 38.2587C51.2855 38.2587 48.9317 38.2587 46.5575 38.2587C46.5575 40.2585 46.5575 42.2247 46.5575 44.2125C48.9341 44.2125 51.2765 44.2125 53.6693 44.2125ZM28.2305 46.2519C28.2305 48.2607 28.2305 50.2263 28.2305 52.2087C30.6143 52.2087 32.9675 52.2087 35.3159 52.2087C35.3159 50.2041 35.3159 48.2373 35.3159 46.2519C32.9483 46.2519 30.6197 46.2519 28.2305 46.2519ZM35.3765 36.1953C35.3765 34.8753 35.3891 33.6087 35.3591 32.3439C35.3555 32.2101 35.1221 32.0025 34.9637 31.9653C33.4355 31.6107 31.9013 31.2831 30.3677 30.9519C29.6681 30.8001 28.9667 30.6573 28.2467 30.5061C28.2467 32.4435 28.2467 34.3101 28.2467 36.1953C30.6209 36.1953 32.9621 36.1953 35.3765 36.1953ZM37.3457 22.2237C37.3409 22.2759 37.3253 22.3161 37.3379 22.3401C38.3549 24.2271 39.3731 26.1135 40.4009 27.9939C40.4537 28.0905 40.5995 28.1943 40.7033 28.1955C41.9657 28.2093 43.2275 28.2045 44.5073 28.2045C44.5073 26.1801 44.5073 24.2133 44.5073 22.2237C42.0977 22.2237 39.7211 22.2237 37.3457 22.2237ZM18.6047 16.4517C19.1837 16.3695 19.6427 16.0287 19.8161 15.5055C19.9997 14.9505 19.8443 14.4525 19.3007 14.0427C16.8623 12.2037 14.4191 10.3713 11.9705 8.5461C11.3183 8.0601 10.5695 8.1507 10.1267 8.7303C9.66955 9.3291 9.79315 10.0845 10.4645 10.5903C12.8897 12.4185 15.3191 14.2413 17.7575 16.0521C18.0035 16.2345 18.3209 16.3209 18.6047 16.4517Z" fill="white"/>
<path fill-rule="evenodd" clip-rule="evenodd" d="M30.8207 19.5664C31.6727 19.6906 32.1047 20.5264 31.6691 21.2134C31.4261 21.5968 31.1327 21.9496 30.8603 22.3138C29.9315 23.557 28.9991 24.7984 28.0733 26.0434C27.7937 26.4196 27.4103 26.6422 26.9813 26.4658C26.6927 26.347 26.3837 26.0572 26.2805 25.7728C26.1911 25.528 26.2931 25.12 26.4587 24.8914C27.6251 23.2786 28.8197 21.6856 30.0341 20.1088C30.2189 19.8688 30.5549 19.7446 30.8207 19.5664Z" fill="#FEBA0F"/>
</svg>
