<svg width="61" height="61" viewBox="0 0 61 61" fill="none" xmlns="http://www.w3.org/2000/svg">
<path fill-rule="evenodd" clip-rule="evenodd" d="M19.621 28.0807C18.8602 26.8813 19.2376 25.9117 20.0056 24.9379C21.2194 23.3995 22.3678 21.8089 23.6128 20.1481C23.5204 20.0935 23.4148 20.0443 23.3242 19.9759C22.3888 19.2793 21.4498 18.5869 20.527 17.8747C20.3044 17.7031 20.1472 17.7019 19.9018 17.8339C18.6844 18.4885 17.4808 18.4183 16.3744 17.6017C13.873 15.7543 11.3836 13.8895 8.90984 12.0049C7.40984 10.8625 7.14464 8.8747 8.24564 7.4089C9.32444 5.9719 11.3068 5.6647 12.805 6.7663C15.3238 8.6185 17.8228 10.4989 20.3104 12.3925C21.4102 13.2301 21.7696 14.3743 21.517 15.7279C21.4894 15.8767 21.5296 16.1179 21.631 16.1971C22.6576 16.9939 23.7046 17.7655 24.7816 18.5713C24.9058 18.4117 25.0198 18.2707 25.129 18.1249C26.2852 16.5841 27.4384 15.0397 28.5982 13.5013C29.776 11.9383 31.5268 12.0715 32.4682 13.7959C33.3004 15.3193 34.1254 16.8457 35.0434 18.3637C35.0542 18.2089 35.0722 18.0541 35.0728 17.8999C35.0746 16.3783 35.071 14.8567 35.0752 13.3345C35.0776 12.3973 35.428 12.0529 36.3694 12.0529C42.2872 12.0517 48.2056 12.0517 54.124 12.0529C55.0894 12.0529 55.4266 12.3949 55.4266 13.3777C55.4278 26.5159 55.4278 39.6535 55.4266 52.7923C55.4266 53.7649 55.0858 54.1123 54.1204 54.1123C39.0376 54.1141 23.9554 54.1141 8.87264 54.1123C7.90544 54.1123 7.56584 53.7667 7.56584 52.7935C7.56464 44.9989 7.56464 37.2043 7.56584 29.4085C7.56584 28.4011 7.89224 28.0813 8.91164 28.0807C12.2764 28.0801 15.6412 28.0807 19.006 28.0807C19.186 28.0807 19.3672 28.0807 19.621 28.0807ZM30.4798 14.3215C27.3226 18.5329 24.2422 22.6423 21.0976 26.8381C27.2344 28.1659 33.2464 29.4673 39.259 30.7687C39.2836 30.7213 39.3076 30.6739 39.3322 30.6259C36.4048 25.2343 33.4768 19.8421 30.4798 14.3215ZM9.61364 30.0937C9.61364 32.1343 9.61364 34.1011 9.61364 36.0517C15.0664 36.0517 20.4796 36.0517 25.8778 36.0517C25.8778 34.0267 25.8778 32.0419 25.8778 30.0937C20.44 30.0937 15.037 30.0937 9.61364 30.0937ZM53.398 14.0977C47.9344 14.0977 42.5224 14.0977 37.1122 14.0977C37.1122 16.1023 37.1122 18.0685 37.1122 20.0299C42.5608 20.0299 47.974 20.0299 53.398 20.0299C53.398 18.0397 53.398 16.0855 53.398 14.0977ZM35.0476 38.1343C29.5852 38.1343 24.1846 38.1343 18.766 38.1343C18.766 40.1353 18.766 42.1021 18.766 44.0701C24.2158 44.0701 29.6296 44.0701 35.0476 44.0701C35.0476 42.0751 35.0476 40.1197 35.0476 38.1343ZM25.8952 46.1461C20.4346 46.1461 15.0226 46.1461 9.60884 46.1461C9.60884 48.1507 9.60884 50.1169 9.60884 52.0843C15.0556 52.0843 20.4676 52.0843 25.8952 52.0843C25.8952 50.0941 25.8952 48.1399 25.8952 46.1461ZM37.0954 52.0843C42.5608 52.0843 47.9728 52.0843 53.3818 52.0843C53.3818 50.0797 53.3818 48.1117 53.3818 46.1473C47.9362 46.1473 42.5242 46.1473 37.0954 46.1473C37.0954 48.1405 37.0954 50.0953 37.0954 52.0843ZM53.398 30.1213C49.3192 30.1213 45.2914 30.1213 41.2618 30.1213C41.3932 32.0539 40.264 33.0289 38.395 32.6341C37.9738 32.5453 37.5532 32.4535 37.1182 32.3605C37.1182 33.6277 37.1182 34.8367 37.1182 36.0571C42.5608 36.0571 47.9728 36.0571 53.398 36.0571C53.398 34.0669 53.398 32.1121 53.398 30.1213ZM46.2646 28.0459C48.6754 28.0459 51.031 28.0459 53.3818 28.0459C53.3818 26.0437 53.3818 24.0769 53.3818 22.1149C50.9938 22.1149 48.6394 22.1149 46.2646 22.1149C46.2646 24.1069 46.2646 26.0599 46.2646 28.0459ZM9.61184 38.1223C9.61184 40.1491 9.61184 42.1141 9.61184 44.0689C12.0028 44.0689 14.356 44.0689 16.705 44.0689C16.705 42.0649 16.705 40.1017 16.705 38.1223C14.3194 38.1223 11.9776 38.1223 9.61184 38.1223ZM37.117 38.1229C37.117 40.1515 37.117 42.1177 37.117 44.0683C39.5122 44.0683 41.8678 44.0683 44.2138 44.0683C44.2138 42.0637 44.2138 40.0993 44.2138 38.1229C41.8258 38.1229 39.4822 38.1229 37.117 38.1229ZM53.3872 44.0875C53.3872 42.0805 53.3872 40.1137 53.3872 38.1337C51.0034 38.1337 48.6496 38.1337 46.2754 38.1337C46.2754 40.1335 46.2754 42.0997 46.2754 44.0875C48.652 44.0875 50.9944 44.0875 53.3872 44.0875ZM27.9484 46.1269C27.9484 48.1357 27.9484 50.1013 27.9484 52.0837C30.3322 52.0837 32.6854 52.0837 35.0338 52.0837C35.0338 50.0791 35.0338 48.1123 35.0338 46.1269C32.6662 46.1269 30.3376 46.1269 27.9484 46.1269ZM35.0944 36.0703C35.0944 34.7503 35.107 33.4837 35.077 32.2189C35.0734 32.0851 34.84 31.8775 34.6816 31.8403C33.1534 31.4857 31.6192 31.1581 30.0856 30.8269C29.386 30.6751 28.6846 30.5323 27.9646 30.3811C27.9646 32.3185 27.9646 34.1851 27.9646 36.0703C30.3388 36.0703 32.68 36.0703 35.0944 36.0703ZM37.0636 22.0987C37.0588 22.1509 37.0432 22.1911 37.0558 22.2151C38.0728 24.1021 39.091 25.9885 40.1188 27.8689C40.1716 27.9655 40.3174 28.0693 40.4212 28.0705C41.6836 28.0843 42.9454 28.0795 44.2252 28.0795C44.2252 26.0551 44.2252 24.0883 44.2252 22.0987C41.8156 22.0987 39.439 22.0987 37.0636 22.0987ZM18.3226 16.3267C18.9016 16.2445 19.3606 15.9037 19.534 15.3805C19.7176 14.8255 19.5622 14.3275 19.0186 13.9177C16.5802 12.0787 14.137 10.2463 11.6884 8.4211C11.0362 7.9351 10.2874 8.0257 9.84464 8.6053C9.38744 9.2041 9.51104 9.9595 10.1824 10.4653C12.6076 12.2935 15.037 14.1163 17.4754 15.9271C17.7214 16.1095 18.0388 16.1959 18.3226 16.3267Z" fill="black"/>
<path fill-rule="evenodd" clip-rule="evenodd" d="M30.5387 19.4414C31.3907 19.5656 31.8227 20.4014 31.3871 21.0884C31.1441 21.4718 30.8507 21.8246 30.5783 22.1888C29.6495 23.432 28.7171 24.6734 27.7913 25.9184C27.5117 26.2946 27.1283 26.5172 26.6993 26.3408C26.4107 26.222 26.1017 25.9322 25.9985 25.6478C25.9091 25.403 26.0111 24.995 26.1767 24.7664C27.3431 23.1536 28.5377 21.5606 29.7521 19.9838C29.9369 19.7438 30.2729 19.6196 30.5387 19.4414Z" fill="#FEBA0F"/>
</svg>
