<svg width="53" height="53" viewBox="0 0 53 53" fill="none" xmlns="http://www.w3.org/2000/svg">
<path fill-rule="evenodd" clip-rule="evenodd" d="M2.56567 27.449C2.56567 26.9436 2.56567 26.4381 2.56567 25.9332C2.59583 25.8282 2.63743 25.7252 2.65355 25.6181C2.81631 24.5381 3.24115 23.5688 3.83239 22.6546C3.99879 22.3967 4.11891 22.0556 4.11943 21.7519C4.13555 15.5161 4.13139 9.28125 4.13347 3.04593C4.13347 2.84261 4.16155 2.63981 4.17663 2.43701C7.80831 2.43701 11.4405 2.43701 15.0722 2.43701C15.0743 2.62629 15.079 2.81557 15.079 3.00485C15.0795 9.27345 15.0764 15.541 15.0894 21.8096C15.0899 22.0696 15.1783 22.3728 15.3275 22.5839C17.0929 25.0809 17.0872 28.3247 15.2994 30.8259C15.1954 30.971 15.0904 31.1587 15.0888 31.3277C15.0727 32.8903 15.0722 34.4539 15.0842 36.0165C15.0883 36.5511 15.3811 36.8428 15.9084 36.848C17.1397 36.86 18.3711 36.8527 19.6024 36.8511C19.6784 36.8511 19.7532 36.8308 19.8515 36.8168C19.8385 36.704 19.8276 36.6135 19.8172 36.5235C19.6466 35.0545 20.476 33.9391 21.8795 33.7514C23.1514 33.5814 24.2325 34.4856 24.4618 35.8902C24.8362 38.1777 25.2205 40.4641 25.6079 42.75C25.6324 42.893 25.6833 43.0958 25.7863 43.1525C26.299 43.4312 26.8341 43.6704 27.3468 43.9174C27.6385 43.7297 27.9906 43.5243 28.3156 43.2814C28.4492 43.1826 28.5449 43.0131 28.6198 42.8582C29.017 42.0225 29.315 41.1229 29.8168 40.357C30.3077 39.6066 31.0024 38.9888 31.591 38.3321C27.2074 37.2547 24.7905 34.4149 24.413 29.8447C22.373 29.5675 21.3366 28.3835 21.3356 26.3357C21.3356 25.1683 21.3356 24.0014 21.3356 22.9214C20.9222 22.6915 20.5166 22.5543 20.2301 22.2885C19.5525 21.6604 19.5572 19.1847 20.24 18.5679C20.54 18.297 20.9612 18.1608 21.386 17.9315C21.4172 17.6985 21.4588 17.3709 21.5046 17.0443C22.2451 11.745 26.9594 7.40301 32.2941 7.17681C34.2482 7.09413 36.2123 7.06969 38.1649 7.16381C42.8251 7.38793 46.1999 9.66761 48.3335 13.7938C49.0214 15.125 49.3438 16.5706 49.479 18.0682C50.309 18.1197 50.7978 18.5768 51.0739 19.3011C51.0739 20.0593 51.0739 20.8169 51.0739 21.5751C50.7926 22.2849 50.2965 22.7394 49.4874 22.8049C49.4874 24.2266 49.5284 25.5848 49.4759 26.9394C49.4255 28.2327 48.5196 29.3153 47.2883 29.6803C47.0044 29.764 46.7069 29.8015 46.3824 29.8665C46.3492 31.7962 45.7647 33.5476 44.5687 35.0774C43.367 36.614 41.8059 37.6259 39.8897 38.1652C40.5153 38.8921 40.873 39.6804 40.8881 40.5764C40.91 41.8852 40.9547 43.2008 40.8528 44.5029C40.6162 47.5038 38.5668 49.9114 35.6834 50.6998C35.3527 50.7897 35.0173 50.863 34.684 50.9452C31.0835 50.9452 27.4836 50.9452 23.8831 50.9452C23.2378 50.6342 22.5441 50.3951 21.9601 49.9957C21.2259 49.4923 20.8478 48.6926 20.6263 47.8184C18.3446 47.8184 16.0888 47.8387 13.8336 47.8075C13.0343 47.7961 12.2174 47.7441 11.4421 47.5652C7.07095 46.5564 4.17039 42.8613 4.13451 38.303C4.11891 36.3467 4.11007 34.39 4.14179 32.4337C4.15479 31.6272 4.12827 30.867 3.53859 30.2378C3.44499 30.1385 3.37947 29.9986 3.33631 29.866C3.07371 29.0621 2.82151 28.2555 2.56567 27.449ZM26.0458 22.8127C26.0458 25.1569 26.0374 27.4449 26.0473 29.7318C26.0645 33.7889 29.1273 36.8371 33.1926 36.8506C34.6767 36.8563 36.1603 36.8553 37.6433 36.8511C41.7466 36.8386 44.81 33.7639 44.8172 29.6523C44.8209 27.5374 44.8178 25.4226 44.8178 23.3072C44.8178 23.1419 44.8178 22.9765 44.8178 22.8122C38.5284 22.8127 32.3149 22.8127 26.0458 22.8127ZM5.71323 14.9097C8.34183 14.9097 10.9179 14.9097 13.493 14.9097C13.493 11.2651 13.493 7.66093 13.493 4.04069C10.8841 4.04069 8.30803 4.04069 5.71323 4.04069C5.71323 7.68121 5.71323 11.2864 5.71323 14.9097ZM20.1443 38.4319C18.785 38.4319 17.4632 38.4387 16.1418 38.4267C15.8293 38.4241 15.5007 38.4106 15.21 38.3118C14.9167 38.212 14.755 38.291 14.5564 38.4907C12.7005 40.3601 10.8363 42.2212 8.96947 44.0796C8.84883 44.1998 8.68763 44.2793 8.54671 44.376C9.47491 45.3391 11.3542 46.1711 12.8279 46.2033C15.2719 46.2564 17.7164 46.2382 20.1614 46.2491C20.7428 46.2517 21.3262 45.5752 21.23 44.9834C20.879 42.8228 20.5156 40.6643 20.1443 38.4319ZM34.7781 46.6848C34.3762 46.0816 34.0142 45.5091 33.617 44.9636C33.5171 44.8274 33.2982 44.7031 33.1323 44.7005C31.8386 44.6792 30.5443 44.6834 29.2505 44.6917C28.6936 44.6953 28.4019 44.974 28.393 45.5372C28.3764 46.5309 28.3774 47.5257 28.3925 48.5189C28.4019 49.0867 28.6806 49.368 29.2448 49.3691C30.9176 49.3743 32.592 49.4086 34.2612 49.3395C36.7245 49.237 38.9028 47.299 39.2189 44.8513C39.3874 43.5461 39.3203 42.2082 39.3281 40.8853C39.337 39.4709 38.3386 38.4366 37.0037 38.4324C35.6621 38.4278 34.6731 39.4428 34.6523 40.8624C34.6408 41.6824 34.6367 42.5035 34.6601 43.3236C34.6668 43.5435 34.7474 43.7853 34.8644 43.9746C35.242 44.5882 35.6517 45.181 36.0719 45.8164C35.6356 46.1097 35.2321 46.3801 34.7781 46.6848ZM7.44119 43.3288C7.49267 43.3049 7.52803 43.2981 7.54883 43.2768C9.55811 41.2727 11.5674 39.2686 13.5725 37.2598C13.6412 37.1912 13.7082 37.0763 13.7041 36.9863C13.6521 35.8122 13.5845 34.6385 13.5278 33.4644C13.5143 33.1893 13.5262 32.9121 13.5262 32.5689C10.8784 34.1201 8.29555 34.1081 5.70595 32.5814C5.70595 34.7399 5.65603 36.8381 5.72207 38.9327C5.77355 40.579 6.39755 42.0485 7.44119 43.3288ZM49.4842 19.6969C40.0889 19.6969 30.7289 19.6969 21.3715 19.6969C21.3715 20.2184 21.3715 20.6984 21.3715 21.1789C30.7575 21.1789 40.1097 21.1789 49.4842 21.1789C49.4842 20.6812 49.4842 20.2122 49.4842 19.6969ZM26.0452 18.0589C26.0452 17.8342 26.0452 17.6637 26.0452 17.4926C26.0458 16.1359 26.0369 14.7787 26.0489 13.4215C26.0577 12.4881 26.6932 11.8501 27.6224 11.823C28.0951 11.8095 28.5688 11.8147 29.0425 11.8204C30.0877 11.8329 30.7154 12.4585 30.7216 13.5078C30.7294 14.8489 30.7237 16.19 30.7237 17.5311C30.7237 17.699 30.7237 17.867 30.7237 18.0417C31.2801 18.0417 31.7741 18.0417 32.2754 18.0417C32.2754 14.9373 32.2754 11.8677 32.2754 8.79765C27.6089 8.91153 23.1327 13.2192 23.01 18.0589C24.0006 18.0589 24.9896 18.0589 26.0452 18.0589ZM40.1138 18.0604C40.1138 17.8431 40.1138 17.672 40.1138 17.5009C40.1144 16.1754 40.105 14.8499 40.1175 13.525C40.1274 12.4527 40.7664 11.8308 41.8402 11.8209C42.2661 11.8168 42.6925 11.8163 43.1184 11.8209C44.1787 11.8329 44.812 12.4746 44.8178 13.5463C44.8219 14.4454 44.8183 15.345 44.8183 16.2441C44.8183 16.8395 44.8183 17.4349 44.8183 18.0433C45.865 18.0433 46.8634 18.0433 47.8624 18.0433C47.5764 12.7502 42.8282 8.85589 38.597 8.80649C38.597 11.8885 38.597 14.9701 38.597 18.0604C39.1019 18.0604 39.5715 18.0604 40.1138 18.0604ZM33.8905 8.70925C33.8905 11.8495 33.8905 14.9482 33.8905 18.0485C34.931 18.0485 35.9356 18.0485 36.947 18.0485C36.947 14.9217 36.947 11.8241 36.947 8.70925C35.9185 8.70925 34.9268 8.70925 33.8905 8.70925ZM5.73559 16.5509C5.73559 17.9954 5.73559 19.3823 5.73559 20.792C8.33663 19.2647 10.9039 19.2772 13.4841 20.7811C13.4841 19.3386 13.4841 17.9512 13.4841 16.5514C10.8774 16.5509 8.31375 16.5509 5.73559 16.5509ZM13.9058 23.3041C12.6667 21.8471 11.1519 21.1274 9.30123 21.2267C7.68715 21.3135 6.36479 22.0181 5.31595 23.3067C6.19943 23.8189 7.01271 24.3009 7.84055 24.7575C7.95703 24.822 8.17751 24.8204 8.28931 24.7512C9.17279 24.2063 10.0396 24.2042 10.9179 24.7539C11.0094 24.8111 11.1696 24.8683 11.2434 24.8277C12.1212 24.3399 12.988 23.8335 13.9058 23.3041ZM4.56715 24.6868C3.18655 27.7943 5.30399 31.6231 8.79787 32.0687C8.79787 31.0147 8.79787 29.9632 8.79787 28.9009C7.76203 28.4084 7.19055 27.6243 7.27791 26.4298C7.28415 26.3471 7.20823 26.2203 7.13387 26.1761C6.28367 25.6737 5.42619 25.1829 4.56715 24.6868ZM14.6437 24.6904C13.7966 25.1782 12.948 25.6587 12.1118 26.1589C12.0203 26.2135 11.948 26.3851 11.9512 26.5C11.9829 27.5567 11.5253 28.3143 10.5992 28.8078C10.5154 28.852 10.4099 28.9601 10.4088 29.0397C10.3958 30.0454 10.4 31.0511 10.4 32.0625C13.9272 31.6371 16.0456 27.7158 14.6437 24.6904ZM24.467 46.2517C23.919 46.2517 23.4463 46.2376 22.9752 46.2553C22.3792 46.2782 22.0958 46.6167 22.1406 47.2137C22.2243 48.3488 23.102 49.2594 24.2372 49.3519C24.7229 49.3914 25.2138 49.3717 25.7026 49.3753C26.103 49.379 26.5028 49.3764 26.8195 49.3764C26.8195 48.25 26.8242 47.2116 26.8148 46.1742C26.8138 46.0109 26.7998 45.8071 26.7051 45.6932C26.4654 45.4036 26.2153 45.0822 25.896 44.909C25.6266 44.7634 25.2122 44.6969 24.9413 44.8014C24.7218 44.8867 24.5804 45.2632 24.4795 45.5377C24.4098 45.7291 24.467 45.9678 24.467 46.2517ZM22.7942 44.817C22.9684 44.6355 23.0573 44.5518 23.1353 44.4592C23.3771 44.1727 23.6304 43.8951 23.8477 43.5909C23.9585 43.4348 24.0807 43.2196 24.0599 43.049C23.9642 42.2831 23.8196 41.5238 23.6933 40.762C23.4338 39.1916 23.1774 37.6207 22.9128 36.0508C22.8249 35.5272 22.4588 35.2428 21.996 35.314C21.5467 35.3837 21.2909 35.7934 21.3751 36.3093C21.4209 36.5896 21.4677 36.8688 21.5145 37.1491C21.9326 39.6508 22.3496 42.152 22.7942 44.817ZM27.6292 13.4205C27.6292 15.0049 27.6292 16.5254 27.6292 18.0365C28.1596 18.0365 28.6541 18.0365 29.1398 18.0365C29.1398 16.4755 29.1398 14.9545 29.1398 13.4205C28.6213 13.4205 28.1382 13.4205 27.6292 13.4205ZM41.7175 13.4121C41.7175 14.9893 41.7175 16.5129 41.7175 18.0521C42.2266 18.0521 42.7081 18.0521 43.2042 18.0521C43.2042 16.4937 43.2042 14.9607 43.2042 13.4121C42.6941 13.4121 42.224 13.4121 41.7175 13.4121ZM33.2223 39.2733C31.7548 40.0881 30.7486 41.3663 30.2068 43.076C31.2057 43.076 32.1251 43.076 33.0143 43.076C33.0855 41.7776 33.1547 40.5166 33.2223 39.2733ZM46.397 28.1994C47.3216 28.2098 48.0085 27.4631 47.9419 26.5765C47.88 25.7502 47.1656 25.1059 46.397 25.2063C46.397 26.1927 46.397 27.1812 46.397 28.1994ZM24.4145 28.2103C24.4145 27.1719 24.4145 26.1657 24.4145 25.1569C23.477 25.2323 22.8935 25.8765 22.92 26.7553C22.9455 27.58 23.5706 28.1942 24.4145 28.2103ZM10.3823 26.6815C10.3771 26.2457 10.0261 25.9114 9.58463 25.9223C9.16603 25.9327 8.83531 26.2608 8.82647 26.6758C8.81711 27.1068 9.16447 27.4579 9.60231 27.4599C10.0391 27.4625 10.3875 27.1152 10.3823 26.6815ZM47.9149 23.9078C47.9149 23.549 47.9149 23.1855 47.9149 22.8106C47.4016 22.8106 46.9201 22.8106 46.4079 22.8106C46.4079 23.0592 46.4079 23.2869 46.4079 23.4877C46.9186 23.6301 47.4089 23.7669 47.9149 23.9078ZM24.4322 23.4934C24.4322 23.276 24.4322 23.0493 24.4322 22.8179C23.9195 22.8179 23.4395 22.8179 22.9393 22.8179C22.9393 23.2006 22.9393 23.5542 22.9393 23.9068C23.4374 23.769 23.9158 23.6364 24.4322 23.4934Z" fill="black"/>
<path fill-rule="evenodd" clip-rule="evenodd" d="M39.3101 30.6211C39.4681 32.4089 38.9367 33.8524 37.3715 34.7593C35.9399 35.5887 34.4871 35.4935 33.146 34.5435C31.8106 33.5965 31.3847 32.2352 31.5522 30.6211C34.1402 30.6211 36.7023 30.6211 39.3101 30.6211ZM37.5701 32.1743C36.8546 32.1743 36.1485 32.1743 35.4418 32.1743C34.7247 32.1743 34.0071 32.1743 33.2718 32.1743C33.5838 33.1509 34.473 33.7458 35.5094 33.7193C36.475 33.6943 37.333 33.0641 37.5701 32.1743Z" fill="black"/>
<path fill-rule="evenodd" clip-rule="evenodd" d="M32.3388 27.4345C32.0346 26.3581 31.5582 25.9156 30.7231 25.9192C29.901 25.9224 29.3966 26.3966 29.122 27.435C28.6285 27.435 28.1314 27.435 27.6364 27.435C27.5974 25.7508 29.0482 24.3244 30.7538 24.3395C32.4521 24.354 33.8977 25.7996 33.8176 27.4345C33.3377 27.4345 32.8551 27.4345 32.3388 27.4345Z" fill="black"/>
<path fill-rule="evenodd" clip-rule="evenodd" d="M38.5232 27.4389C38.0032 27.4389 37.5197 27.4389 37.0392 27.4389C36.9435 25.8196 38.386 24.3651 40.0832 24.3402C41.7925 24.3147 43.2495 25.7379 43.211 27.4311C42.7176 27.4311 42.2225 27.4311 41.728 27.4311C41.4285 26.3567 40.9314 25.9028 40.078 25.9205C39.2705 25.9366 38.7458 26.4431 38.5232 27.4389Z" fill="black"/>
<circle cx="9.55444" cy="26.5889" r="1.95312" fill="white" stroke="#FEBA0F"/>
</svg>
