<svg width="53" height="53" viewBox="0 0 53 53" fill="none" xmlns="http://www.w3.org/2000/svg">
<path fill-rule="evenodd" clip-rule="evenodd" d="M2.84784 27.574C2.84784 27.0686 2.84784 26.5631 2.84784 26.0582C2.878 25.9532 2.9196 25.8502 2.93572 25.7431C3.09848 24.6631 3.52332 23.6938 4.11456 22.7796C4.28096 22.5217 4.40108 22.1806 4.4016 21.8769C4.41772 15.6411 4.41356 9.40625 4.41564 3.17093C4.41564 2.96761 4.44372 2.76481 4.4588 2.56201C8.09048 2.56201 11.7227 2.56201 15.3544 2.56201C15.3564 2.75129 15.3611 2.94057 15.3611 3.12985C15.3616 9.39845 15.3585 15.666 15.3715 21.9346C15.372 22.1946 15.4604 22.4978 15.6097 22.7089C17.3751 25.2059 17.3694 28.4497 15.5816 30.9509C15.4776 31.096 15.3726 31.2837 15.371 31.4527C15.3549 33.0153 15.3544 34.5789 15.3663 36.1415C15.3705 36.6761 15.6632 36.9678 16.1905 36.973C17.4219 36.985 18.6532 36.9777 19.8846 36.9761C19.9605 36.9761 20.0354 36.9558 20.1337 36.9418C20.1207 36.829 20.1098 36.7385 20.0994 36.6485C19.9288 35.1795 20.7582 34.0641 22.1617 33.8764C23.4336 33.7064 24.5147 34.6106 24.744 36.0152C25.1184 38.3027 25.5027 40.5891 25.8901 42.875C25.9145 43.018 25.9655 43.2208 26.0684 43.2775C26.5812 43.5562 27.1162 43.7954 27.629 44.0424C27.9207 43.8547 28.2727 43.6493 28.5977 43.4064C28.7314 43.3076 28.827 43.1381 28.9019 42.9832C29.2992 42.1475 29.5972 41.2479 30.099 40.482C30.5898 39.7316 31.2846 39.1138 31.8732 38.4571C27.4896 37.3797 25.0726 34.5399 24.6951 29.9697C22.6552 29.6925 21.6188 28.5085 21.6178 26.4607C21.6178 25.2933 21.6178 24.1264 21.6178 23.0464C21.2044 22.8165 20.7988 22.6793 20.5122 22.4135C19.8347 21.7854 19.8394 19.3097 20.5221 18.6929C20.8222 18.422 21.2434 18.2858 21.6682 18.0565C21.6994 17.8235 21.741 17.4959 21.7868 17.1693C22.5272 11.87 27.2416 7.52801 32.5762 7.30181C34.5304 7.21913 36.4944 7.19469 38.447 7.28881C43.1073 7.51293 46.4821 9.79261 48.6156 13.9188C49.3036 15.25 49.626 16.6956 49.7612 18.1932C50.5911 18.2447 51.0799 18.7018 51.356 19.4261C51.356 20.1843 51.356 20.9419 51.356 21.7001C51.0747 22.4099 50.5786 22.8644 49.7695 22.9299C49.7695 24.3516 49.8106 25.7098 49.7581 27.0644C49.7076 28.3577 48.8018 29.4403 47.5704 29.8053C47.2865 29.889 46.9891 29.9265 46.6646 29.9915C46.6313 31.9212 46.0468 33.6726 44.8508 35.2024C43.6491 36.739 42.0881 37.7509 40.1719 38.2902C40.7974 39.0171 41.1552 39.8054 41.1703 40.7014C41.1921 42.0102 41.2368 43.3258 41.1349 44.6279C40.8983 47.6288 38.849 50.0364 35.9656 50.8248C35.6349 50.9147 35.2995 50.988 34.9662 51.0702C31.3657 51.0702 27.7657 51.0702 24.1652 51.0702C23.5199 50.7592 22.8262 50.5201 22.2423 50.1207C21.508 49.6173 21.13 48.8176 20.9085 47.9434C18.6267 47.9434 16.371 47.9637 14.1157 47.9325C13.3165 47.9211 12.4996 47.8691 11.7242 47.6902C7.35312 46.6814 4.45256 42.9863 4.41668 38.428C4.40108 36.4717 4.39224 34.515 4.42396 32.5587C4.43696 31.7522 4.41044 30.992 3.82076 30.3628C3.72716 30.2635 3.66164 30.1236 3.61848 29.991C3.35588 29.1871 3.10368 28.3805 2.84784 27.574ZM26.3279 22.9377C26.3279 25.2819 26.3196 27.5699 26.3295 29.8568C26.3466 33.9139 29.4094 36.9621 33.4748 36.9756C34.9589 36.9813 36.4424 36.9803 37.9255 36.9761C42.0288 36.9636 45.0921 33.8889 45.0994 29.7773C45.103 27.6624 45.0999 25.5476 45.0999 23.4322C45.0999 23.2669 45.0999 23.1015 45.0999 22.9372C38.8105 22.9377 32.597 22.9377 26.3279 22.9377ZM5.9954 15.0347C8.624 15.0347 11.2001 15.0347 13.7751 15.0347C13.7751 11.3901 13.7751 7.78593 13.7751 4.16569C11.1663 4.16569 8.5902 4.16569 5.9954 4.16569C5.9954 7.80621 5.9954 11.4114 5.9954 15.0347ZM20.4264 38.5569C19.0672 38.5569 17.7453 38.5637 16.424 38.5517C16.1115 38.5491 15.7828 38.5356 15.4922 38.4368C15.1989 38.337 15.0372 38.416 14.8385 38.6157C12.9826 40.4851 11.1184 42.3462 9.25164 44.2046C9.131 44.3248 8.9698 44.4043 8.82888 44.501C9.75708 45.4641 11.6364 46.2961 13.11 46.3283C15.554 46.3814 17.9986 46.3632 20.4436 46.3741C21.025 46.3767 21.6084 45.7002 21.5122 45.1084C21.1612 42.9478 20.7977 40.7893 20.4264 38.5569ZM35.0603 46.8098C34.6583 46.2066 34.2964 45.6341 33.8991 45.0886C33.7993 44.9524 33.5804 44.8281 33.4145 44.8255C32.1207 44.8042 30.8264 44.8084 29.5327 44.8167C28.9758 44.8203 28.684 45.099 28.6752 45.6622C28.6586 46.6559 28.6596 47.6507 28.6747 48.6439C28.684 49.2117 28.9628 49.493 29.527 49.4941C31.1998 49.4993 32.8742 49.5336 34.5434 49.4645C37.0066 49.362 39.1849 47.424 39.5011 44.9763C39.6696 43.6711 39.6025 42.3332 39.6103 41.0103C39.6191 39.5959 38.6207 38.5616 37.2859 38.5574C35.9443 38.5528 34.9552 39.5678 34.9344 40.9874C34.923 41.8074 34.9188 42.6285 34.9422 43.4486C34.949 43.6685 35.0296 43.9103 35.1466 44.0996C35.5241 44.7132 35.9339 45.306 36.354 45.9414C35.9178 46.2347 35.5142 46.5051 35.0603 46.8098ZM7.72336 43.4538C7.77484 43.4299 7.8102 43.4231 7.831 43.4018C9.84028 41.3977 11.8496 39.3936 13.8547 37.3848C13.9233 37.3162 13.9904 37.2013 13.9862 37.1113C13.9342 35.9372 13.8666 34.7635 13.81 33.5894C13.7964 33.3143 13.8084 33.0371 13.8084 32.6939C11.1606 34.2451 8.57772 34.2331 5.98812 32.7064C5.98812 34.8649 5.9382 36.9631 6.00424 39.0577C6.05572 40.704 6.67972 42.1735 7.72336 43.4538ZM49.7664 19.8219C40.371 19.8219 31.011 19.8219 21.6536 19.8219C21.6536 20.3434 21.6536 20.8234 21.6536 21.3039C31.0396 21.3039 40.3918 21.3039 49.7664 21.3039C49.7664 20.8062 49.7664 20.3372 49.7664 19.8219ZM26.3274 18.1839C26.3274 17.9592 26.3274 17.7887 26.3274 17.6176C26.3279 16.2609 26.3191 14.9037 26.331 13.5465C26.3399 12.6131 26.9753 11.9751 27.9046 11.948C28.3772 11.9345 28.851 11.9397 29.3247 11.9454C30.3699 11.9579 30.9975 12.5835 31.0038 13.6328C31.0116 14.9739 31.0058 16.315 31.0058 17.6561C31.0058 17.824 31.0058 17.992 31.0058 18.1667C31.5622 18.1667 32.0562 18.1667 32.5575 18.1667C32.5575 15.0623 32.5575 11.9927 32.5575 8.92265C27.891 9.03653 23.4149 13.3442 23.2922 18.1839C24.2828 18.1839 25.2718 18.1839 26.3274 18.1839ZM40.396 18.1854C40.396 17.9681 40.396 17.797 40.396 17.6259C40.3965 16.3004 40.3872 14.9749 40.3996 13.65C40.4095 12.5777 41.0486 11.9558 42.1224 11.9459C42.5483 11.9418 42.9747 11.9413 43.4006 11.9459C44.4608 11.9579 45.0942 12.5996 45.0999 13.6713C45.1041 14.5704 45.1004 15.47 45.1004 16.3691C45.1004 16.9645 45.1004 17.5599 45.1004 18.1683C46.1472 18.1683 47.1456 18.1683 48.1445 18.1683C47.8585 12.8752 43.1104 8.98089 38.8792 8.93149C38.8792 12.0135 38.8792 15.0951 38.8792 18.1854C39.3841 18.1854 39.8536 18.1854 40.396 18.1854ZM34.1726 8.83425C34.1726 11.9745 34.1726 15.0732 34.1726 18.1735C35.2132 18.1735 36.2178 18.1735 37.2292 18.1735C37.2292 15.0467 37.2292 11.9491 37.2292 8.83425C36.2006 8.83425 35.209 8.83425 34.1726 8.83425ZM6.01776 16.6759C6.01776 18.1204 6.01776 19.5073 6.01776 20.917C8.6188 19.3897 11.186 19.4022 13.7663 20.9061C13.7663 19.4636 13.7663 18.0762 13.7663 16.6764C11.1595 16.6759 8.59592 16.6759 6.01776 16.6759ZM14.188 23.4291C12.9488 21.9721 11.4341 21.2524 9.5834 21.3517C7.96932 21.4385 6.64696 22.1431 5.59812 23.4317C6.4816 23.9439 7.29488 24.4259 8.12272 24.8825C8.2392 24.947 8.45968 24.9454 8.57148 24.8762C9.45496 24.3313 10.3218 24.3292 11.2001 24.8789C11.2916 24.9361 11.4518 24.9933 11.5256 24.9527C12.4034 24.4649 13.2702 23.9585 14.188 23.4291ZM4.84932 24.8118C3.46872 27.9193 5.58616 31.7481 9.08004 32.1937C9.08004 31.1397 9.08004 30.0882 9.08004 29.0259C8.0442 28.5334 7.47272 27.7493 7.56008 26.5548C7.56632 26.4721 7.4904 26.3453 7.41604 26.3011C6.56584 25.7987 5.70836 25.3079 4.84932 24.8118ZM14.9259 24.8154C14.0788 25.3032 13.2302 25.7837 12.394 26.2839C12.3025 26.3385 12.2302 26.5101 12.2333 26.625C12.265 27.6817 11.8074 28.4393 10.8813 28.9328C10.7976 28.977 10.692 29.0851 10.691 29.1647C10.678 30.1704 10.6822 31.1761 10.6822 32.1875C14.2093 31.7621 16.3278 27.8408 14.9259 24.8154ZM24.7492 46.3767C24.2011 46.3767 23.7284 46.3626 23.2573 46.3803C22.6614 46.4032 22.378 46.7417 22.4227 47.3387C22.5064 48.4738 23.3842 49.3844 24.5194 49.4769C25.005 49.5164 25.4959 49.4967 25.9847 49.5003C26.3851 49.504 26.785 49.5014 27.1017 49.5014C27.1017 48.375 27.1064 47.3366 27.097 46.2992C27.096 46.1359 27.0819 45.9321 26.9873 45.8182C26.7476 45.5286 26.4974 45.2072 26.1782 45.034C25.9088 44.8884 25.4944 44.8219 25.2234 44.9264C25.004 45.0117 24.8626 45.3882 24.7617 45.6627C24.692 45.8541 24.7492 46.0928 24.7492 46.3767ZM23.0764 44.942C23.2506 44.7605 23.3395 44.6768 23.4175 44.5842C23.6593 44.2977 23.9125 44.0201 24.1299 43.7159C24.2406 43.5598 24.3628 43.3446 24.342 43.174C24.2464 42.4081 24.1018 41.6488 23.9754 40.887C23.716 39.3166 23.4596 37.7457 23.1949 36.1758C23.107 35.6522 22.741 35.3678 22.2782 35.439C21.8289 35.5087 21.573 35.9184 21.6573 36.4343C21.703 36.7146 21.7498 36.9938 21.7966 37.2741C22.2147 39.7758 22.6318 42.277 23.0764 44.942ZM27.9113 13.5455C27.9113 15.1299 27.9113 16.6504 27.9113 18.1615C28.4417 18.1615 28.9362 18.1615 29.4219 18.1615C29.4219 16.6005 29.4219 15.0795 29.4219 13.5455C28.9035 13.5455 28.4204 13.5455 27.9113 13.5455ZM41.9997 13.5371C41.9997 15.1143 41.9997 16.6379 41.9997 18.1771C42.5088 18.1771 42.9903 18.1771 43.4864 18.1771C43.4864 16.6187 43.4864 15.0857 43.4864 13.5371C42.9762 13.5371 42.5062 13.5371 41.9997 13.5371ZM33.5044 39.3983C32.037 40.2131 31.0308 41.4913 30.489 43.201C31.4879 43.201 32.4072 43.201 33.2964 43.201C33.3677 41.9026 33.4368 40.6416 33.5044 39.3983ZM46.6792 28.3244C47.6037 28.3348 48.2906 27.5881 48.2241 26.7015C48.1622 25.8752 47.4477 25.2309 46.6792 25.3313C46.6792 26.3177 46.6792 27.3062 46.6792 28.3244ZM24.6967 28.3353C24.6967 27.2969 24.6967 26.2907 24.6967 25.2819C23.7591 25.3573 23.1757 26.0015 23.2022 26.8803C23.2277 27.705 23.8527 28.3192 24.6967 28.3353ZM10.6645 26.8065C10.6593 26.3707 10.3083 26.0364 9.8668 26.0473C9.4482 26.0577 9.11748 26.3858 9.10864 26.8008C9.09928 27.2318 9.44664 27.5829 9.88448 27.5849C10.3213 27.5875 10.6697 27.2402 10.6645 26.8065ZM48.197 24.0328C48.197 23.674 48.197 23.3105 48.197 22.9356C47.6838 22.9356 47.2023 22.9356 46.6901 22.9356C46.6901 23.1842 46.6901 23.4119 46.6901 23.6127C47.2007 23.7551 47.6911 23.8919 48.197 24.0328ZM24.7144 23.6184C24.7144 23.401 24.7144 23.1743 24.7144 22.9429C24.2016 22.9429 23.7217 22.9429 23.2214 22.9429C23.2214 23.3256 23.2214 23.6792 23.2214 24.0318C23.7196 23.894 24.198 23.7614 24.7144 23.6184Z" fill="white"/>
<path fill-rule="evenodd" clip-rule="evenodd" d="M39.5922 30.7461C39.7503 32.5339 39.2189 33.9774 37.6537 34.8843C36.2221 35.7137 34.7692 35.6185 33.4281 34.6685C32.0928 33.7215 31.6669 32.3602 31.8343 30.7461C34.4224 30.7461 36.9844 30.7461 39.5922 30.7461ZM37.8523 32.2993C37.1368 32.2993 36.4306 32.2993 35.7239 32.2993C35.0069 32.2993 34.2893 32.2993 33.554 32.2993C33.866 33.2759 34.7552 33.8708 35.7915 33.8443C36.7572 33.8193 37.6152 33.1891 37.8523 32.2993Z" fill="white"/>
<path fill-rule="evenodd" clip-rule="evenodd" d="M32.6209 27.5595C32.3167 26.4831 31.8404 26.0406 31.0053 26.0442C30.1832 26.0474 29.6788 26.5216 29.4042 27.56C28.9107 27.56 28.4136 27.56 27.9186 27.56C27.8796 25.8758 29.3304 24.4494 31.036 24.4645C32.7343 24.479 34.1799 25.9246 34.0998 27.5595C33.6198 27.5595 33.1373 27.5595 32.6209 27.5595Z" fill="white"/>
<path fill-rule="evenodd" clip-rule="evenodd" d="M38.8055 27.5639C38.2855 27.5639 37.8019 27.5639 37.3214 27.5639C37.2257 25.9446 38.6682 24.4901 40.3655 24.4652C42.0747 24.4397 43.5318 25.8629 43.4933 27.5561C42.9998 27.5561 42.5048 27.5561 42.0102 27.5561C41.7107 26.4817 41.2136 26.0278 40.3603 26.0455C39.5527 26.0616 39.028 26.5681 38.8055 27.5639Z" fill="white"/>
<circle cx="9.83655" cy="26.7139" r="1.95312" fill="white" stroke="#FEBA0F"/>
</svg>
