<svg width="14" height="14" viewBox="0 0 14 14" fill="none" xmlns="http://www.w3.org/2000/svg">
<path fill-rule="evenodd" clip-rule="evenodd" d="M13.1251 4.79223C13.0432 5.04843 12.906 5.25843 12.647 5.36833C12.6274 5.37673 12.6141 5.41383 12.6078 5.44043C12.3425 6.50723 12.0793 7.57473 11.8133 8.64083C11.7468 8.90753 11.6299 8.99153 11.3331 8.99293C9.42417 9.00063 7.51597 9.00903 5.60707 9.01393C4.37017 9.01743 3.13327 9.01463 1.89637 9.01463C1.55617 9.01463 1.46447 8.94183 1.38257 8.61213C1.13407 7.61043 0.88207 6.61083 0.63777 5.60913C0.60277 5.46843 0.56427 5.36483 0.41727 5.29483C0.21497 5.19963 0.12817 4.99593 0.0595703 4.79223C0.0595703 4.70683 0.0595703 4.62213 0.0595703 4.53673C0.12607 4.30503 0.23597 4.10623 0.45717 3.98513C0.79597 3.80103 1.19987 3.88573 1.43927 4.19373C1.66397 4.48213 1.64227 4.90283 1.38957 5.17583C1.36927 5.19753 1.35037 5.21923 1.32517 5.24723C1.35247 5.27803 1.37557 5.30673 1.40147 5.33333C1.69407 5.62943 1.98737 5.92553 2.28207 6.22023C2.93587 6.87473 3.86897 6.81173 4.43037 6.07253C4.94907 5.38933 5.46427 4.70263 5.98087 4.01733C6.00117 3.99073 6.02007 3.96273 6.03757 3.93753C5.74147 3.43563 5.76667 3.06603 6.11457 2.78673C6.41067 2.54943 6.83557 2.56623 7.11837 2.82733C7.42147 3.10733 7.43687 3.51543 7.15407 3.91723C7.17577 3.94803 7.19817 3.98233 7.22337 4.01593C7.73437 4.70053 8.24397 5.38583 8.75707 6.06833C9.31287 6.80893 10.2481 6.87613 10.904 6.22443C11.2239 5.90733 11.5417 5.58743 11.8546 5.27453C11.7811 5.15203 11.6915 5.04143 11.6418 4.91543C11.4871 4.51573 11.7006 4.06983 12.0989 3.93263C12.5105 3.79123 12.9473 4.00613 13.0824 4.41703C13.0957 4.45693 13.1104 4.49613 13.1251 4.53603C13.1251 4.62213 13.1251 4.70683 13.1251 4.79223Z" fill="#FFBE40"/>
<path fill-rule="evenodd" clip-rule="evenodd" d="M6.61322 11.4051C5.06552 11.4051 3.51712 11.4058 1.96942 11.4051C1.63342 11.4051 1.51162 11.2812 1.51092 10.9424C1.51092 10.7002 1.51022 10.458 1.51162 10.2158C1.51232 9.93583 1.65372 9.79583 1.93792 9.79513C2.20182 9.79443 2.46502 9.79443 2.72892 9.79443C5.56532 9.79443 8.40172 9.79443 11.2381 9.79443C11.5944 9.79443 11.719 9.92113 11.7197 10.2795C11.7197 10.5133 11.7204 10.7471 11.719 10.9816C11.7176 11.2644 11.579 11.4044 11.2962 11.4044C9.73452 11.4058 8.17352 11.4051 6.61322 11.4051Z" fill="#F1962B"/>
</svg>
