<svg width="21" height="20" viewBox="0 0 21 20" fill="none" xmlns="http://www.w3.org/2000/svg">
<path d="M7.31135 8.65778L13.9394 5.34375M13.9426 14.6578L7.32075 11.3469M19.627 4C19.627 5.65685 18.2838 7 16.627 7C14.9701 7 13.627 5.65685 13.627 4C13.627 2.34315 14.9701 1 16.627 1C18.2838 1 19.627 2.34315 19.627 4ZM7.62695 10C7.62695 11.6569 6.28381 13 4.62695 13C2.9701 13 1.62695 11.6569 1.62695 10C1.62695 8.34315 2.9701 7 4.62695 7C6.28381 7 7.62695 8.34315 7.62695 10ZM19.627 16C19.627 17.6569 18.2838 19 16.627 19C14.9701 19 13.627 17.6569 13.627 16C13.627 14.3431 14.9701 13 16.627 13C18.2838 13 19.627 14.3431 19.627 16Z" stroke="white" stroke-width="1.5"/>
</svg>
