<svg width="21" height="21" viewBox="0 0 21 21" fill="none" xmlns="http://www.w3.org/2000/svg">
<path d="M7.43293 9.28278L14.061 5.96875M14.0642 15.2828L7.44233 11.9719M19.7485 4.625C19.7485 6.28185 18.4054 7.625 16.7485 7.625C15.0917 7.625 13.7485 6.28185 13.7485 4.625C13.7485 2.96815 15.0917 1.625 16.7485 1.625C18.4054 1.625 19.7485 2.96815 19.7485 4.625ZM7.74854 10.625C7.74854 12.2819 6.40539 13.625 4.74854 13.625C3.09168 13.625 1.74854 12.2819 1.74854 10.625C1.74854 8.96815 3.09168 7.625 4.74854 7.625C6.40539 7.625 7.74854 8.96815 7.74854 10.625ZM19.7485 16.625C19.7485 18.2819 18.4054 19.625 16.7485 19.625C15.0917 19.625 13.7485 18.2819 13.7485 16.625C13.7485 14.9681 15.0917 13.625 16.7485 13.625C18.4054 13.625 19.7485 14.9681 19.7485 16.625Z" stroke="black" stroke-width="1.5"/>
</svg>
