<svg width="24" height="24" viewBox="0 0 24 24" fill="none" xmlns="http://www.w3.org/2000/svg">
<path fill-rule="evenodd" clip-rule="evenodd" d="M4.17221 4.03296C4.75089 4.03296 5.28288 4.03296 5.84132 4.03296C5.84132 8.32292 5.84132 12.6005 5.84132 16.8778C5.8611 16.8888 5.88088 16.9001 5.90066 16.9114C6.22404 16.5597 6.54742 16.2076 6.84941 15.8791C7.2779 16.3048 7.662 16.686 8.02586 17.0475C7.0272 18.0464 6.01497 19.0589 5.02137 20.0527C4.02409 19.0545 3.01278 18.0425 2.02539 17.0544C2.37269 16.7067 2.7538 16.3255 3.16159 15.9173C3.44748 16.2271 3.77155 16.5781 4.09562 16.9291C4.12092 16.913 4.14645 16.8964 4.17198 16.8803C4.17221 12.6039 4.17221 8.32775 4.17221 4.03296Z" fill="#636363"/>
<path fill-rule="evenodd" clip-rule="evenodd" d="M20.7451 5.67382C16.8816 5.67382 13.0399 5.67382 9.17749 5.67382C9.17749 5.13171 9.17749 4.59328 9.17749 4.0376C13.0265 4.0376 16.8806 4.0376 20.7451 4.0376C20.7451 4.58293 20.7451 5.12711 20.7451 5.67382Z" fill="#636363"/>
<path fill-rule="evenodd" clip-rule="evenodd" d="M18.2671 8.18457C18.2671 8.73404 18.2671 9.26603 18.2671 9.81136C15.2366 9.81136 12.2179 9.81136 9.17798 9.81136C9.17798 9.27937 9.17798 8.74117 9.17798 8.18457C12.1958 8.18457 15.2205 8.18457 18.2671 8.18457Z" fill="#636363"/>
<path fill-rule="evenodd" clip-rule="evenodd" d="M9.16846 13.9532C9.16846 13.4035 9.16846 12.8717 9.16846 12.3264C11.3696 12.3264 13.5589 12.3264 15.7699 12.3264C15.7699 12.8584 15.7699 13.3966 15.7699 13.9532C13.5815 13.9532 11.3857 13.9532 9.16846 13.9532Z" fill="#636363"/>
<path fill-rule="evenodd" clip-rule="evenodd" d="M9.17529 16.4705C10.5544 16.4705 11.9148 16.4705 13.2891 16.4705C13.2891 17.0133 13.2891 17.545 13.2891 18.0972C11.927 18.0972 10.5606 18.0972 9.17529 18.0972C9.17529 17.5669 9.17529 17.0289 9.17529 16.4705Z" fill="#636363"/>
</svg>
