<svg width="21" height="19" viewBox="0 0 21 19" fill="none" xmlns="http://www.w3.org/2000/svg">
<path fill-rule="evenodd" clip-rule="evenodd" d="M1.521 7.16814C1.5464 7.01568 1.568 6.86286 1.5982 6.7113C1.9136 5.12172 2.8088 3.85578 4.2484 2.90268C5.4904 2.0808 6.8936 1.69398 8.4318 1.69434C10.7594 1.6947 13.0868 1.69452 15.4148 1.69452C15.4756 1.69452 15.5364 1.69452 15.6108 1.69452C15.66 2.25252 15.6096 2.7882 15.2862 3.27636C14.7872 4.02966 14.0482 4.4208 13.071 4.43034C12.3976 4.43664 11.7238 4.42854 11.05 4.43502C10.9644 4.43574 10.8642 4.46706 10.7962 4.51386C9.883 5.14638 8.9738 5.78322 8.065 6.42078C7.9936 6.471 7.9416 6.49494 7.848 6.44508C6.8274 5.90202 5.605 6.50646 5.5694 7.57998C5.5486 8.20098 5.5544 8.82306 5.5708 9.44388C5.583 9.89802 5.818 10.2573 6.2358 10.5163C6.2632 10.5334 6.2908 10.5502 6.3182 10.5674C6.3224 10.5703 6.3244 10.5755 6.34 10.5964C6.1948 10.8587 6.029 11.1242 5.8994 11.4035C5.8096 11.5972 5.6914 11.6624 5.4538 11.6555C4.8084 11.637 4.1622 11.6444 3.5162 11.6527C3.375 11.6545 3.2886 11.6035 3.2042 11.5177C2.4176 10.7167 1.8856 9.80028 1.6558 8.74818C1.6004 8.49384 1.5654 8.2359 1.521 7.97976C1.521 7.70958 1.521 7.43886 1.521 7.16814Z" fill="#636363"/>
<path fill-rule="evenodd" clip-rule="evenodd" d="M11.5774 15.2586C11.5774 15.8686 11.5774 16.4581 11.5774 17.0554C9.23935 17.0554 6.91355 17.0554 4.56235 17.0554C4.56235 17.0046 4.56235 16.952 4.56235 16.8995C4.56235 16.1077 4.55315 15.3155 4.56515 14.524C4.57475 13.8902 4.42575 13.2926 4.12415 12.7231C4.09835 12.6743 4.07535 12.6245 4.03955 12.5519C4.11835 12.5519 4.17635 12.5519 4.23435 12.5519C4.90255 12.5519 5.57095 12.5496 6.23895 12.5543C6.34335 12.555 6.39515 12.5242 6.44075 12.4403C6.73495 11.9012 7.03275 11.3639 7.33875 10.8304C7.37635 10.7647 7.46075 10.7012 7.53895 10.6769C8.14875 10.4873 8.55435 9.99612 8.56535 9.40536C8.24035 9.40536 7.91535 9.40536 7.58135 9.40536C7.56995 9.44154 7.55815 9.48402 7.54315 9.52542C7.46735 9.73494 7.25295 9.86382 7.01915 9.84186C6.77835 9.81918 6.57595 9.64602 6.57295 9.42408C6.56415 8.80254 6.56335 8.181 6.57315 7.55982C6.57695 7.32024 6.80855 7.13952 7.06895 7.13952C7.32935 7.13934 7.54955 7.31988 7.56615 7.55964C7.57675 7.71336 7.56815 7.86834 7.56815 8.03142C7.90355 8.03142 8.22435 8.03142 8.58055 8.03142C8.56975 7.81866 8.56835 7.60086 8.54395 7.38504C8.53255 7.2846 8.54795 7.22196 8.64115 7.15716C9.47895 6.57612 10.3116 5.98896 11.1498 5.40846C11.2136 5.36418 11.3094 5.33736 11.3904 5.33682C12.2478 5.3316 13.1054 5.33556 13.963 5.33106C14.0748 5.33052 14.124 5.35842 14.1652 5.45508C14.4136 6.03432 14.5674 6.63102 14.604 7.25112C14.61 7.35822 14.655 7.43526 14.7394 7.51086C15.4356 8.1315 16.1272 8.75664 16.821 9.3798C16.8644 9.4185 16.9152 9.45054 16.9832 9.50058C16.9052 9.54126 16.8566 9.56952 16.8052 9.59274C16.119 9.9018 15.4332 10.2116 14.7446 10.5167C14.6522 10.5574 14.6152 10.6033 14.619 10.6983C14.6272 10.9184 14.6172 11.1393 14.6236 11.3596C14.6262 11.4466 14.5958 11.493 14.5068 11.5315C14.1456 11.6876 13.7889 11.8514 13.431 12.0128C13.3781 12.0366 13.3278 12.0638 13.2468 12.1036C13.5338 12.233 13.795 12.3489 14.0548 12.4686C14.2422 12.5548 14.495 12.6068 14.5926 12.7456C14.6863 12.8786 14.6256 13.1045 14.6196 13.2894C14.6092 13.604 14.6384 13.9289 14.5616 14.2306C14.3994 14.8698 13.8118 15.2518 13.0694 15.2575C12.58 15.2615 12.091 15.2586 11.5774 15.2586Z" fill="#636363"/>
<path fill-rule="evenodd" clip-rule="evenodd" d="M17.9053 9.89209C18.0597 10.1705 18.2029 10.4287 18.3529 10.6992C17.6813 11.0018 17.0233 11.2979 16.3499 11.6012C16.1987 11.3294 16.0533 11.0682 15.9009 10.7943C16.5729 10.492 17.2309 10.1956 17.9053 9.89209Z" fill="#636363"/>
<path fill-rule="evenodd" clip-rule="evenodd" d="M18.3533 15.306C18.2015 15.58 18.0585 15.8383 17.9063 16.1132C17.2403 15.8138 16.5827 15.5179 15.9023 15.2123C16.0507 14.9439 16.1951 14.6829 16.3485 14.4048C17.0149 14.7043 17.6727 15 18.3533 15.306Z" fill="#636363"/>
<path fill-rule="evenodd" clip-rule="evenodd" d="M18.6251 12.564C18.6251 12.8588 18.6251 13.1472 18.6251 13.4449C17.9611 13.4449 17.3027 13.4449 16.6353 13.4449C16.6353 13.1529 16.6353 12.8644 16.6353 12.564C17.2903 12.564 17.9487 12.564 18.6251 12.564Z" fill="#636363"/>
</svg>
