<svg width="23" height="23" viewBox="0 0 23 23" fill="none" xmlns="http://www.w3.org/2000/svg">
<path fill-rule="evenodd" clip-rule="evenodd" d="M2.68018 18.0224C2.68018 16.0948 2.68018 14.1672 2.68018 12.2397C2.86294 11.9511 3.06842 11.8808 3.30609 12.0485C3.63172 12.2783 3.988 12.3623 4.38308 12.3609C6.32122 12.3543 8.25958 12.3579 10.1977 12.3579C10.2731 12.3579 10.3483 12.3579 10.4365 12.3579C10.4365 12.7523 10.4325 13.1154 10.4378 13.4781C10.4418 13.751 10.5888 13.9093 10.8461 13.9108C11.6092 13.915 12.3724 13.9146 13.1357 13.9111C13.3731 13.9097 13.5197 13.7682 13.5422 13.533C13.5502 13.4487 13.546 13.3634 13.5462 13.2788C13.5464 12.978 13.5462 12.6773 13.5462 12.3579C13.6414 12.3579 13.7127 12.3579 13.7841 12.3579C15.7405 12.3579 17.6967 12.3557 19.6532 12.3596C19.9965 12.3605 20.3117 12.2886 20.5992 12.0977C20.9246 11.8819 21.0977 11.9182 21.3021 12.2397C21.3021 14.1672 21.3021 16.0948 21.3021 18.0224C21.2606 18.1474 21.2315 18.2783 21.176 18.3967C20.8711 19.0469 20.353 19.3434 19.6373 19.3427C14.5401 19.339 9.44283 19.3408 4.3456 19.3405C4.28497 19.3405 4.22434 19.3394 4.16393 19.337C3.50627 19.3101 2.94209 18.8736 2.74962 18.2442C2.72692 18.1703 2.70332 18.0964 2.68018 18.0224Z" fill="#636363"/>
<path fill-rule="evenodd" clip-rule="evenodd" d="M2.68018 10.275C2.68018 9.34151 2.68018 8.40805 2.68018 7.47436C2.68745 7.4651 2.69869 7.45673 2.70156 7.44614C2.93812 6.56184 3.46526 6.15618 4.38021 6.15618C5.54936 6.15596 6.71828 6.15618 7.88743 6.15618C7.95687 6.15618 8.02632 6.15618 8.10856 6.15618C8.10856 5.90198 8.10723 5.67842 8.10878 5.45487C8.11517 4.4912 8.76908 3.83156 9.729 3.82935C11.2372 3.82605 12.7455 3.82627 14.2539 3.83134C14.4272 3.832 14.6071 3.85052 14.7727 3.89902C15.4389 4.09369 15.8611 4.68477 15.873 5.41893C15.877 5.6588 15.8737 5.89889 15.8737 6.15618C15.9707 6.15618 16.0423 6.15618 16.1136 6.15618C17.3129 6.15618 18.5123 6.15243 19.7116 6.15772C20.5137 6.16125 21.0884 6.62997 21.2716 7.41153C21.2767 7.4338 21.2917 7.45364 21.3021 7.47458C21.3021 8.39592 21.3021 9.31726 21.3021 10.2388C21.2932 10.2604 21.2822 10.2814 21.2763 10.3036C21.0399 11.1752 20.5064 11.5843 19.6058 11.5846C17.6599 11.5846 15.7143 11.5846 13.7684 11.5846C13.6979 11.5846 13.6273 11.5846 13.546 11.5846C13.546 11.4637 13.5473 11.3674 13.5458 11.2708C13.5402 10.9549 13.4025 10.8134 13.0898 10.8125C12.3504 10.8103 11.6109 10.8098 10.8715 10.8129C10.5904 10.814 10.4477 10.9575 10.4376 11.2373C10.4336 11.3495 10.4369 11.4622 10.4369 11.5658C10.3977 11.5766 10.3864 11.5824 10.375 11.5824C8.30191 11.5826 6.22884 11.589 4.15599 11.5784C3.51531 11.5751 2.94584 11.1132 2.75227 10.4952C2.7289 10.4216 2.70421 10.3484 2.68018 10.275ZM14.3103 5.38564C12.7609 5.38564 11.2198 5.38564 9.67168 5.38564C9.67168 5.64293 9.67168 5.88853 9.67168 6.14472C11.2211 6.14472 12.762 6.14472 14.3103 6.14472C14.3103 5.88765 14.3103 5.64183 14.3103 5.38564Z" fill="#636363"/>
</svg>
