<svg width="48" height="49" viewBox="0 0 48 49" fill="none" xmlns="http://www.w3.org/2000/svg">
<path fill-rule="evenodd" clip-rule="evenodd" d="M0.279574 5.99683C0.599794 5.00323 1.18947 4.28719 2.27217 4.09819C2.48331 4.06147 2.70255 4.05769 2.91801 4.05769C6.44151 4.05553 9.96501 4.05499 13.4891 4.05661C15.135 4.05715 16.1156 5.03185 16.1172 6.67669C16.121 10.2002 16.1232 13.7242 16.1124 17.2477C16.1113 17.6441 16.0276 18.0404 15.992 18.3488C17.936 18.3385 19.9286 18.3234 21.9206 18.318C23.93 18.3131 25.9388 18.3072 27.9481 18.3207C29.3526 18.3304 30.3419 19.3148 30.3457 20.721C30.357 24.3838 30.3533 28.0466 30.3435 31.7095C30.343 32.0405 30.2593 32.371 30.2231 32.6339C30.9905 32.6064 31.7853 32.5556 32.5791 32.554C35.6852 32.5443 38.7918 32.5492 41.8985 32.5502C43.6659 32.5508 44.6109 33.5001 44.6109 35.2729C44.612 38.6733 44.6114 42.0731 44.6114 45.473C44.6114 47.1616 44.2188 47.7507 42.6701 48.389C38.6811 48.389 34.6927 48.389 30.7043 48.389C30.3198 48.2076 29.9358 48.0261 29.5508 47.8447C29.2041 48.0202 28.8413 48.2043 28.4778 48.389C24.4581 48.389 20.4383 48.389 16.4186 48.389C16.0967 48.2205 15.7787 48.045 15.4503 47.8906C15.3742 47.8549 15.25 47.8657 15.1701 47.9025C14.8396 48.0542 14.5178 48.2254 14.1921 48.3884C10.2032 48.3884 6.21471 48.3884 2.22573 48.3884C1.21431 48.1012 0.563614 47.4537 0.277954 46.4407C0.277954 42.4517 0.277954 38.4632 0.277954 34.4743C0.461014 34.0925 0.644074 33.7107 0.821194 33.3408C0.641374 32.9785 0.459394 32.6129 0.277954 32.2484C0.277954 28.2286 0.277954 24.2089 0.277954 20.1891C0.462094 19.8257 0.646234 19.4617 0.820654 19.1167C0.639754 18.7316 0.458854 18.3472 0.277954 17.9632C0.279574 13.9742 0.279574 9.98527 0.279574 5.99683ZM8.19921 46.8084C9.97635 46.8084 11.753 46.8106 13.5296 46.8073C14.237 46.8062 14.5302 46.5303 14.5313 45.8337C14.5367 42.2648 14.5367 38.6954 14.5318 35.1266C14.5313 34.424 14.2445 34.1373 13.5436 34.1368C9.97473 34.1319 6.40533 34.1319 2.83647 34.1368C2.13663 34.1378 1.86177 34.4278 1.86123 35.1358C1.85907 38.6895 1.85961 42.2427 1.86123 45.7964C1.86123 46.5287 2.13879 46.8062 2.86887 46.8073C4.64547 46.8106 6.42207 46.8084 8.19921 46.8084ZM1.85961 11.9509C1.85961 13.7123 1.85907 15.4733 1.86015 17.2348C1.86069 18.0556 2.11989 18.3164 2.94231 18.3169C6.44961 18.318 9.95691 18.3185 13.4642 18.3169C14.2553 18.3169 14.5318 18.0475 14.5323 17.2639C14.535 13.741 14.535 10.218 14.5323 6.69559C14.5318 5.90665 14.2591 5.63881 13.4691 5.63881C9.94611 5.63719 6.42369 5.63719 2.90073 5.63881C2.13555 5.63881 1.86123 5.91151 1.86015 6.66643C1.85799 8.42791 1.85961 10.1888 1.85961 11.9509ZM36.6734 46.8084C38.45 46.8084 40.2266 46.81 42.0038 46.8079C42.7398 46.8068 43.0292 46.5298 43.0298 45.8105C43.033 42.2567 43.0325 38.703 43.0298 35.1493C43.0292 34.4213 42.7484 34.1368 42.0173 34.1362C38.4635 34.1324 34.9098 34.1319 31.356 34.1362C30.6319 34.1373 30.3533 34.4251 30.3527 35.159C30.35 38.6976 30.3506 42.2351 30.3527 45.7738C30.3533 46.533 30.6303 46.8068 31.389 46.8079C33.1499 46.81 34.9114 46.8084 36.6734 46.8084ZM28.7689 40.4726C28.7689 38.696 28.7711 36.9194 28.7684 35.1428C28.7673 34.4046 28.5048 34.1373 27.7607 34.1368C24.2075 34.133 20.6543 34.1324 17.1011 34.1373C16.3883 34.1378 16.121 34.4111 16.1205 35.1223C16.1178 38.6906 16.1178 42.2594 16.1205 45.8278C16.121 46.5368 16.3948 46.8068 17.1038 46.8073C20.657 46.81 24.2102 46.8095 27.7634 46.8079C28.4989 46.8073 28.7673 46.5384 28.7684 45.8018C28.7711 44.0258 28.7689 42.2492 28.7689 40.4726ZM8.18571 32.5497C9.93099 32.5497 11.6768 32.5508 13.4226 32.5497C14.292 32.5486 14.5334 32.3137 14.534 31.4584C14.5356 27.9673 14.5356 24.4762 14.534 20.9845C14.534 20.1464 14.2888 19.9007 13.4637 19.9002C9.95691 19.8997 6.45015 19.8997 2.94339 19.9002C2.10693 19.9002 1.86123 20.1427 1.86123 20.9678C1.86015 24.4745 1.86015 27.9813 1.86123 31.4881C1.86123 32.2943 2.10909 32.5481 2.90289 32.5497C4.66329 32.5519 6.42423 32.5497 8.18571 32.5497ZM28.7689 26.2657C28.7689 24.474 28.7711 22.6817 28.7684 20.89C28.7667 20.167 28.5097 19.9007 27.8034 19.9007C24.2351 19.898 20.6667 19.8986 17.0984 19.9007C16.3802 19.9007 16.121 20.1572 16.1205 20.8765C16.1178 24.4448 16.1178 28.0132 16.1205 31.5815C16.121 32.2937 16.3818 32.5486 17.1076 32.5492C20.6603 32.5519 24.2135 32.5519 27.7661 32.5492C28.514 32.5486 28.7673 32.2943 28.7678 31.5491C28.7711 29.7881 28.7689 28.0267 28.7689 26.2657Z" fill="black"/>
<path fill-rule="evenodd" clip-rule="evenodd" d="M47.7736 14.8092C47.6273 15.1111 47.515 15.4351 47.3292 15.71C46.84 16.4352 46.1142 16.7284 45.2605 16.7327C44.2728 16.7376 43.2851 16.7338 42.23 16.7338C42.23 17.3154 42.2192 17.8657 42.2402 18.4143C42.244 18.5093 42.3677 18.6135 42.4568 18.6897C42.8456 19.025 43.0281 19.4538 43.0292 19.9571C43.033 22.3055 43.0454 24.6545 43.0249 27.0035C43.0124 28.3713 41.9962 29.3601 40.6375 29.3822C40.097 29.3914 39.5559 29.3936 39.0154 29.3801C37.7793 29.3498 36.749 28.4399 36.7247 27.2147C36.6761 24.7436 36.6874 22.2704 36.7274 19.7988C36.7333 19.4424 37.04 19.0914 37.2047 18.7361C37.3003 18.5299 37.4483 18.3257 37.4688 18.1113C37.5098 17.6712 37.4807 17.2247 37.4807 16.7338C36.4471 16.7338 35.4627 16.7349 34.4772 16.7333C33.6607 16.7322 32.9533 16.4735 32.4506 15.805C31.822 14.9675 31.7961 14.0786 32.2627 13.1498C33.5576 10.5713 34.8439 7.98851 36.1339 5.40785C36.5751 4.52441 37.0519 3.65663 37.451 2.75429C37.8544 1.84277 38.4435 1.17155 39.4247 0.894531C39.7028 0.894531 39.9809 0.894531 40.2595 0.894531C41.0144 1.11431 41.6344 1.50581 41.9967 2.23751C43.9207 6.11903 45.8474 10 47.7731 13.8815C47.7736 14.1909 47.7736 14.5004 47.7736 14.8092ZM42.2246 15.1305C43.3505 15.1305 44.4143 15.1673 45.4743 15.1165C46.0937 15.0868 46.3523 14.5058 46.0553 13.9085C44.248 10.2749 42.44 6.64229 40.6013 3.02483C40.4793 2.78507 40.1245 2.56853 39.8486 2.52479C39.4403 2.45945 39.2103 2.79371 39.0321 3.15173C37.465 6.30155 35.8877 9.44651 34.3136 12.5931C34.0857 13.0483 33.8432 13.4971 33.6332 13.9604C33.3826 14.5133 33.637 15.0825 34.2088 15.11C35.2823 15.1619 36.3607 15.1246 37.4801 15.1246C37.4801 14.3708 37.4774 13.6482 37.4807 12.9252C37.4877 11.4634 38.5018 10.3867 39.8637 10.392C41.2121 10.3969 42.2116 11.4542 42.223 12.8939C42.2294 13.6191 42.2246 14.3443 42.2246 15.1305ZM41.4275 19.9279C40.3772 19.9279 39.3529 19.9279 38.3387 19.9279C38.3161 19.9803 38.2945 20.0073 38.2945 20.0343C38.2901 22.3649 38.2815 24.6956 38.2918 27.0262C38.2939 27.5117 38.5996 27.7822 39.0926 27.7984C39.5089 27.8124 39.9263 27.8033 40.3427 27.8027C41.2024 27.8016 41.447 27.5608 41.4475 26.7055C41.4491 24.6059 41.4486 22.5064 41.4475 20.4069C41.4481 20.2562 41.4356 20.1056 41.4275 19.9279ZM40.6424 18.2922C40.6424 17.965 40.6429 17.661 40.6424 17.357C40.6418 15.845 40.6472 14.333 40.6381 12.8215C40.6348 12.3118 40.3038 11.9796 39.8475 11.9845C39.4106 11.9894 39.0991 12.3101 39.0634 12.7929C39.0596 12.8388 39.0613 12.8852 39.0613 12.9317C39.0613 14.6132 39.0607 16.2953 39.0629 17.9769C39.0629 18.0789 39.0861 18.181 39.0996 18.2933C39.6153 18.2923 40.1018 18.2922 40.6424 18.2922Z" fill="black"/>
<path fill-rule="evenodd" clip-rule="evenodd" d="M23.2722 11.9744C24.7253 11.9744 26.1785 11.9733 27.6316 11.9755C27.8006 11.976 27.9751 11.9739 28.1387 12.0084C28.5367 12.0921 28.7564 12.3508 28.7602 12.759C28.7645 13.1656 28.5539 13.4308 28.157 13.5247C28.0091 13.5598 27.8509 13.5615 27.6964 13.5615C24.7286 13.5636 21.7607 13.5631 18.7924 13.5625C18.6844 13.5625 18.5753 13.5647 18.4684 13.5528C17.9975 13.5015 17.7118 13.2083 17.707 12.7774C17.7026 12.3427 17.9824 12.0403 18.4495 11.9868C18.5872 11.9712 18.727 11.9749 18.8663 11.9744C20.3351 11.9739 21.8034 11.9744 23.2722 11.9744Z" fill="black"/>
<path fill-rule="evenodd" clip-rule="evenodd" d="M23.208 7.21965C21.7419 7.21965 20.2758 7.21965 18.8097 7.21911C18.6709 7.21911 18.53 7.22667 18.3933 7.20777C17.9916 7.15161 17.7513 6.91779 17.7129 6.51225C17.6751 6.10779 17.8609 5.82051 18.2475 5.69793C18.4187 5.64393 18.6115 5.64015 18.7946 5.64015C21.7575 5.63691 24.7205 5.63745 27.683 5.63853C27.8217 5.63853 27.9638 5.63259 28.0988 5.65743C28.5173 5.73357 28.7824 6.06621 28.7635 6.47391C28.7451 6.88593 28.4579 7.18455 28.0226 7.21101C27.6992 7.23099 27.3746 7.21965 27.0506 7.21965C25.7697 7.22019 24.4889 7.21965 23.208 7.21965Z" fill="black"/>
<path fill-rule="evenodd" clip-rule="evenodd" d="M23.2253 10.3879C21.7565 10.3879 20.2882 10.3884 18.8194 10.3868C18.665 10.3868 18.5078 10.3917 18.3572 10.3658C17.9759 10.3015 17.7507 10.0682 17.714 9.6832C17.6757 9.27874 17.8571 8.99092 18.2448 8.8651C18.4025 8.8138 18.5791 8.8057 18.747 8.80516C21.7462 8.80192 24.7448 8.80192 27.7445 8.80516C27.8973 8.80516 28.0566 8.81326 28.2019 8.857C28.5918 8.97418 28.7889 9.25174 28.7597 9.65728C28.7311 10.0628 28.4984 10.3074 28.0944 10.3685C27.9427 10.3917 27.7861 10.3863 27.6322 10.3868C26.1629 10.3884 24.6941 10.3879 23.2253 10.3879Z" fill="black"/>
<path fill-rule="evenodd" clip-rule="evenodd" d="M23.2323 15.1495C24.7011 15.1495 26.1694 15.1495 27.6382 15.1501C27.7921 15.1501 27.9492 15.1441 28.1004 15.1684C28.5043 15.2327 28.7349 15.4805 28.7598 15.8855C28.7851 16.2916 28.5853 16.5708 28.1938 16.6804C28.0194 16.729 27.8277 16.7317 27.6436 16.7317C24.7065 16.735 21.7689 16.7344 18.8319 16.7328C18.678 16.7328 18.5208 16.7355 18.3702 16.708C17.9425 16.6291 17.6881 16.3073 17.7076 15.8915C17.7265 15.4805 18.0116 15.1798 18.4555 15.1609C19.0111 15.1376 19.5684 15.1495 20.1246 15.1495C21.1603 15.149 22.1966 15.1495 23.2323 15.1495Z" fill="black"/>
<path fill-rule="evenodd" clip-rule="evenodd" d="M4.36361 42.068C3.69671 42.0631 3.29711 41.508 3.49367 41.028C3.57197 40.8368 3.72263 40.664 3.87167 40.5144C5.30645 39.0699 6.74825 37.6319 8.18843 36.1928C8.27591 36.1059 8.36123 36.0157 8.45735 35.939C8.80673 35.662 9.25655 35.683 9.54383 35.9849C9.82031 36.2754 9.83219 36.7036 9.56813 37.0368C9.50117 37.1211 9.42287 37.1967 9.34673 37.2728C7.88549 38.7346 6.42803 40.2007 4.95761 41.6527C4.75997 41.8488 4.49645 41.9773 4.36361 42.068Z" fill="black"/>
<path fill-rule="evenodd" clip-rule="evenodd" d="M5.8842 36.4295C5.77296 36.6876 5.73786 36.8852 5.62392 37.0137C5.33988 37.3356 5.03856 37.6482 4.71078 37.9242C4.38462 38.1985 3.951 38.1445 3.66912 37.848C3.38346 37.5483 3.35484 37.1288 3.64158 36.8031C3.91482 36.4921 4.19346 36.1638 4.53312 35.9402C4.74264 35.8025 5.10768 35.7491 5.33718 35.8349C5.56398 35.9192 5.70816 36.2259 5.8842 36.4295Z" fill="black"/>
<path fill-rule="evenodd" clip-rule="evenodd" d="M9.871 7.97639C9.69766 8.26745 9.61666 8.49155 9.46492 8.64545C7.93402 10.1936 6.39394 11.7332 4.84954 13.2679C4.48288 13.6324 4.01416 13.6459 3.69178 13.3354C3.34672 13.0038 3.3532 12.5383 3.742 12.1474C5.27668 10.6024 6.81892 9.06503 8.35846 7.52549C8.62252 7.26089 8.95516 7.12535 9.27916 7.32029C9.51298 7.46177 9.66472 7.73933 9.871 7.97639Z" fill="black"/>
<path fill-rule="evenodd" clip-rule="evenodd" d="M4.14165 9.65016C3.97101 9.51516 3.66105 9.38394 3.56439 9.16092C3.46719 8.93736 3.49095 8.55936 3.62541 8.35956C3.86949 7.99668 4.21509 7.69104 4.55637 7.40646C4.86363 7.14996 5.22327 7.17858 5.52945 7.43724C5.82105 7.68348 5.93715 8.0577 5.71791 8.34714C5.38905 8.7813 4.95921 9.1404 4.56015 9.5184C4.48995 9.58374 4.35981 9.58482 4.14165 9.65016Z" fill="black"/>
<path fill-rule="evenodd" clip-rule="evenodd" d="M32.7011 42.155C32.463 41.9697 32.1703 41.8482 32.0688 41.6349C31.9673 41.4211 32.0267 41.1106 32.0785 40.8557C32.105 40.7256 32.2643 40.6176 32.3728 40.508C33.8243 39.0554 35.2764 37.6033 36.7295 36.1523C36.8273 36.054 36.9229 35.9466 37.0395 35.8764C37.3819 35.6706 37.7242 35.6841 38.0153 35.9666C38.3074 36.249 38.3263 36.5886 38.1351 36.9396C38.0914 37.019 38.0277 37.0908 37.9629 37.1556C36.4352 38.6855 34.9103 40.2174 33.3729 41.737C33.2066 41.9012 32.9684 41.9919 32.7011 42.155Z" fill="black"/>
<path fill-rule="evenodd" clip-rule="evenodd" d="M32.5943 38.1259C32.4415 37.9974 32.1348 37.8576 32.0473 37.6324C31.9582 37.404 31.9998 37.0346 32.1375 36.8294C32.3734 36.4784 32.7104 36.1868 33.0387 35.9103C33.326 35.6689 33.6743 35.6722 33.9778 35.8984C34.2769 36.1209 34.4595 36.4838 34.2321 36.7835C33.8773 37.2501 33.4146 37.6367 32.9874 38.046C32.9318 38.0984 32.8125 38.0844 32.5943 38.1259Z" fill="black"/>
<path fill-rule="evenodd" clip-rule="evenodd" d="M23.2344 35.6416C23.4834 35.8236 23.7793 35.9364 23.883 36.1449C23.9883 36.356 23.9305 36.666 23.8894 36.9236C23.8711 37.0397 23.7264 37.1406 23.6292 37.2389C22.1469 38.7234 20.671 40.2149 19.1704 41.6804C18.9706 41.8748 18.6325 42.0492 18.376 42.0276C18.1476 42.0082 17.8657 41.7441 17.7469 41.5157C17.5898 41.2122 17.7334 40.8969 17.9894 40.6436C19.0311 39.6128 20.0635 38.5727 21.0993 37.5365C21.5901 37.0456 22.0718 36.545 22.5762 36.0682C22.7457 35.9078 22.972 35.8085 23.2344 35.6416Z" fill="black"/>
<path fill-rule="evenodd" clip-rule="evenodd" d="M18.3707 38.1335C18.2141 38.0071 17.9079 37.8743 17.814 37.6513C17.7189 37.4245 17.74 37.0476 17.8755 36.8472C18.1201 36.4854 18.4668 36.1819 18.8086 35.899C19.0981 35.6598 19.4485 35.6797 19.7482 35.9082C20.0517 36.1393 20.1927 36.5205 19.9788 36.8056C19.6359 37.263 19.1796 37.6367 18.7611 38.0352C18.7033 38.0898 18.5872 38.0817 18.3707 38.1335Z" fill="black"/>
<path fill-rule="evenodd" clip-rule="evenodd" d="M9.88184 22.2173C9.69878 22.5181 9.60914 22.7536 9.4466 22.9177C7.92812 24.4535 6.39938 25.9795 4.86794 27.5029C4.4813 27.8879 4.00934 27.9095 3.67832 27.5849C3.33812 27.2512 3.35054 26.7911 3.73988 26.4002C5.27402 24.8579 6.81464 23.3222 8.35256 21.7837C8.61338 21.5229 8.93306 21.3636 9.26516 21.5656C9.5006 21.7081 9.6599 21.9749 9.88184 22.2173Z" fill="black"/>
<path fill-rule="evenodd" clip-rule="evenodd" d="M5.10559 21.4385C5.28001 21.5735 5.59105 21.7009 5.68879 21.9223C5.78707 22.147 5.76709 22.526 5.63263 22.7269C5.39017 23.0909 5.04619 23.3992 4.70329 23.6806C4.39873 23.93 4.03045 23.9117 3.72751 23.6514C3.44563 23.4089 3.30415 23.0455 3.53743 22.7447C3.87061 22.3144 4.29451 21.952 4.69195 21.5735C4.76053 21.5076 4.89013 21.5054 5.10559 21.4385Z" fill="black"/>
<path fill-rule="evenodd" clip-rule="evenodd" d="M24.1335 22.2104C23.9548 22.5047 23.8646 22.7423 23.7015 22.9076C22.1814 24.446 20.6511 25.9742 19.1175 27.4987C18.7292 27.8842 18.2556 27.901 17.9278 27.571C17.6033 27.2449 17.6238 26.7643 18.0056 26.3798C19.5306 24.8462 21.0625 23.3196 22.5913 21.7903C22.851 21.5306 23.1702 21.3632 23.5044 21.5608C23.7436 21.7023 23.9083 21.9701 24.1335 22.2104Z" fill="#FEBA0F"/>
<path fill-rule="evenodd" clip-rule="evenodd" d="M18.5143 23.8387C17.8749 23.8274 17.4688 23.1669 17.8134 22.6874C18.1044 22.2819 18.4873 21.9303 18.8755 21.6107C19.1504 21.3844 19.4922 21.4481 19.7692 21.6771C20.05 21.9087 20.184 22.2754 19.9874 22.5411C19.6467 23.0012 19.1979 23.3829 18.7805 23.7825C18.7152 23.8436 18.5748 23.8274 18.5143 23.8387Z" fill="#FEBA0F"/>
</svg>
