<svg width="55" height="55" viewBox="0 0 55 55" fill="none" xmlns="http://www.w3.org/2000/svg">
<path fill-rule="evenodd" clip-rule="evenodd" d="M4.56162 9.12183C4.88184 8.12823 5.47152 7.41219 6.55422 7.22319C6.76536 7.18647 6.9846 7.18269 7.20006 7.18269C10.7236 7.18053 14.2471 7.17999 17.7711 7.18161C19.417 7.18215 20.3977 8.15685 20.3993 9.80169C20.4031 13.3252 20.4052 16.8492 20.3944 20.3727C20.3933 20.7691 20.3096 21.1654 20.274 21.4738C22.218 21.4635 24.2106 21.4484 26.2027 21.443C28.212 21.4381 30.2208 21.4322 32.2301 21.4457C33.6347 21.4554 34.624 22.4398 34.6277 23.846C34.6391 27.5088 34.6353 31.1716 34.6256 34.8345C34.625 35.1655 34.5413 35.496 34.5052 35.7589C35.2725 35.7314 36.0674 35.6806 36.8612 35.679C39.9673 35.6693 43.0739 35.6742 46.1805 35.6752C47.9479 35.6758 48.8929 36.6251 48.8929 38.3979C48.894 41.7983 48.8935 45.1981 48.8935 48.598C48.8935 50.2866 48.5009 50.8757 46.9522 51.514C42.9632 51.514 38.9747 51.514 34.9863 51.514C34.6018 51.3326 34.2179 51.1511 33.8329 50.9697C33.4862 51.1452 33.1233 51.3293 32.7599 51.514C28.7401 51.514 24.7204 51.514 20.7006 51.514C20.3788 51.3455 20.0607 51.17 19.7324 51.0156C19.6562 50.9799 19.532 50.9907 19.4521 51.0275C19.1216 51.1792 18.7998 51.3504 18.4742 51.5134C14.4852 51.5134 10.4968 51.5134 6.50778 51.5134C5.49636 51.2262 4.84566 50.5787 4.56 49.5657C4.56 45.5767 4.56 41.5882 4.56 37.5993C4.74306 37.2175 4.92612 36.8357 5.10324 36.4658C4.92342 36.1035 4.74144 35.7379 4.56 35.3734C4.56 31.3536 4.56 27.3339 4.56 23.3141C4.74414 22.9507 4.92828 22.5867 5.1027 22.2417C4.9218 21.8566 4.7409 21.4722 4.56 21.0882C4.56162 17.0992 4.56162 13.1103 4.56162 9.12183ZM12.4813 49.9334C14.2584 49.9334 16.035 49.9356 17.8116 49.9323C18.519 49.9312 18.8122 49.6553 18.8133 48.9587C18.8187 45.3898 18.8187 41.8204 18.8138 38.2516C18.8133 37.549 18.5266 37.2623 17.8256 37.2618C14.2568 37.2569 10.6874 37.2569 7.11852 37.2618C6.41868 37.2628 6.14382 37.5528 6.14328 38.2608C6.14112 41.8145 6.14166 45.3677 6.14328 48.9214C6.14328 49.6537 6.42084 49.9312 7.15092 49.9323C8.92752 49.9356 10.7041 49.9334 12.4813 49.9334ZM6.14166 15.0759C6.14166 16.8373 6.14112 18.5983 6.1422 20.3598C6.14274 21.1806 6.40194 21.4414 7.22436 21.4419C10.7317 21.443 14.239 21.4435 17.7463 21.4419C18.5374 21.4419 18.8138 21.1725 18.8144 20.3889C18.8171 16.866 18.8171 13.343 18.8144 9.82059C18.8138 9.03165 18.5411 8.76381 17.7511 8.76381C14.2282 8.76219 10.7057 8.76219 7.18278 8.76381C6.4176 8.76381 6.14328 9.03651 6.1422 9.79143C6.14004 11.5529 6.14166 13.3138 6.14166 15.0759ZM40.9555 49.9334C42.7321 49.9334 44.5087 49.935 46.2858 49.9329C47.0218 49.9318 47.3113 49.6548 47.3118 48.9355C47.315 45.3817 47.3145 41.828 47.3118 38.2743C47.3113 37.5463 47.0305 37.2618 46.2993 37.2612C42.7456 37.2574 39.1918 37.2569 35.6381 37.2612C34.9139 37.2623 34.6353 37.5501 34.6348 38.284C34.6321 41.8226 34.6326 45.3601 34.6348 48.8988C34.6353 49.658 34.9123 49.9318 35.671 49.9329C37.432 49.935 39.1934 49.9334 40.9555 49.9334ZM33.0509 43.5976C33.0509 41.821 33.0531 40.0444 33.0504 38.2678C33.0493 37.5296 32.7869 37.2623 32.0428 37.2618C28.4896 37.258 24.9364 37.2574 21.3832 37.2623C20.6704 37.2628 20.4031 37.5361 20.4025 38.2473C20.3998 41.8156 20.3998 45.3844 20.4025 48.9528C20.4031 49.6618 20.6768 49.9318 21.3859 49.9323C24.9391 49.935 28.4923 49.9345 32.0455 49.9329C32.7809 49.9323 33.0493 49.6634 33.0504 48.9268C33.0531 47.1508 33.0509 45.3742 33.0509 43.5976ZM12.4678 35.6747C14.213 35.6747 15.9589 35.6758 17.7047 35.6747C18.5741 35.6736 18.8155 35.4387 18.816 34.5834C18.8176 31.0923 18.8176 27.6012 18.816 24.1095C18.816 23.2714 18.5708 23.0257 17.7457 23.0252C14.239 23.0247 10.7322 23.0247 7.22544 23.0252C6.38898 23.0252 6.14328 23.2677 6.14328 24.0928C6.1422 27.5995 6.1422 31.1063 6.14328 34.6131C6.14328 35.4193 6.39114 35.6731 7.18494 35.6747C8.94534 35.6769 10.7063 35.6747 12.4678 35.6747ZM33.0509 29.3907C33.0509 27.599 33.0531 25.8067 33.0504 24.015C33.0488 23.292 32.7917 23.0257 32.0854 23.0257C28.5171 23.023 24.9488 23.0236 21.3805 23.0257C20.6623 23.0257 20.4031 23.2822 20.4025 24.0015C20.3998 27.5698 20.3998 31.1382 20.4025 34.7065C20.4031 35.4187 20.6639 35.6736 21.3896 35.6742C24.9423 35.6769 28.4955 35.6769 32.0482 35.6742C32.7961 35.6736 33.0493 35.4193 33.0499 34.6741C33.0531 32.9131 33.0509 31.1517 33.0509 29.3907Z" fill="white"/>
<path fill-rule="evenodd" clip-rule="evenodd" d="M52.0557 17.9342C51.9094 18.2361 51.7971 18.5601 51.6113 18.835C51.1221 19.5602 50.3963 19.8534 49.5426 19.8577C48.5549 19.8626 47.5672 19.8588 46.5121 19.8588C46.5121 20.4404 46.5013 20.9907 46.5223 21.5393C46.5261 21.6343 46.6498 21.7385 46.7389 21.8147C47.1277 22.15 47.3102 22.5788 47.3113 23.0821C47.3151 25.4305 47.3275 27.7795 47.307 30.1285C47.2945 31.4963 46.2783 32.4851 44.9196 32.5072C44.3791 32.5164 43.838 32.5186 43.2975 32.5051C42.0614 32.4748 41.0311 31.5649 41.0068 30.3397C40.9582 27.8686 40.9695 25.3954 41.0095 22.9238C41.0154 22.5674 41.3221 22.2164 41.4868 21.8611C41.5824 21.6549 41.7304 21.4507 41.7509 21.2363C41.7919 20.7962 41.7628 20.3497 41.7628 19.8588C40.7292 19.8588 39.7448 19.8599 38.7593 19.8583C37.9428 19.8572 37.2354 19.5985 36.7327 18.93C36.1041 18.0925 36.0782 17.2036 36.5448 16.2748C37.8397 13.6963 39.126 11.1135 40.416 8.53285C40.8572 7.64941 41.334 6.78163 41.7331 5.87929C42.1365 4.96777 42.7256 4.29655 43.7068 4.01953C43.9849 4.01953 44.263 4.01953 44.5416 4.01953C45.2965 4.23931 45.9165 4.63081 46.2788 5.36251C48.2028 9.24403 50.1295 13.125 52.0552 17.0065C52.0557 17.3159 52.0557 17.6254 52.0557 17.9342ZM46.5067 18.2555C47.6326 18.2555 48.6964 18.2923 49.7564 18.2415C50.3758 18.2118 50.6344 17.6308 50.3374 17.0335C48.5301 13.3999 46.7221 9.76729 44.8834 6.14983C44.7614 5.91007 44.4066 5.69353 44.1307 5.64979C43.7224 5.58445 43.4924 5.91871 43.3142 6.27673C41.7471 9.42655 40.1698 12.5715 38.5957 15.7181C38.3678 16.1733 38.1253 16.6221 37.9153 17.0854C37.6647 17.6383 37.9191 18.2075 38.4909 18.235C39.5644 18.2869 40.6428 18.2496 41.7622 18.2496C41.7622 17.4958 41.7595 16.7732 41.7628 16.0502C41.7698 14.5884 42.7839 13.5117 44.1458 13.517C45.4942 13.5219 46.4937 14.5792 46.5051 16.0189C46.5115 16.7441 46.5067 17.4693 46.5067 18.2555ZM45.7096 23.0529C44.6593 23.0529 43.635 23.0529 42.6208 23.0529C42.5982 23.1053 42.5766 23.1323 42.5766 23.1593C42.5722 25.4899 42.5636 27.8206 42.5739 30.1512C42.576 30.6367 42.8817 30.9072 43.3747 30.9234C43.791 30.9374 44.2084 30.9283 44.6248 30.9277C45.4845 30.9266 45.7291 30.6858 45.7296 29.8305C45.7312 27.7309 45.7307 25.6314 45.7296 23.5319C45.7302 23.3812 45.7177 23.2306 45.7096 23.0529ZM44.9245 21.4172C44.9245 21.09 44.925 20.786 44.9245 20.482C44.9239 18.97 44.9293 17.458 44.9202 15.9465C44.9169 15.4368 44.5859 15.1046 44.1296 15.1095C43.6927 15.1144 43.3812 15.4351 43.3455 15.9179C43.3417 15.9638 43.3434 16.0102 43.3434 16.0567C43.3434 17.7382 43.3428 19.4203 43.345 21.1019C43.345 21.2039 43.3682 21.306 43.3817 21.4183C43.8974 21.4173 44.3839 21.4172 44.9245 21.4172Z" fill="white"/>
<path fill-rule="evenodd" clip-rule="evenodd" d="M27.5543 15.0994C29.0074 15.0994 30.4606 15.0983 31.9137 15.1005C32.0827 15.101 32.2572 15.0989 32.4208 15.1334C32.8188 15.2171 33.0385 15.4758 33.0423 15.884C33.0466 16.2906 32.836 16.5558 32.4391 16.6497C32.2912 16.6848 32.133 16.6865 31.9785 16.6865C29.0107 16.6886 26.0428 16.6881 23.0745 16.6875C22.9665 16.6875 22.8574 16.6897 22.7505 16.6778C22.2796 16.6265 21.9939 16.3333 21.9891 15.9024C21.9847 15.4677 22.2645 15.1653 22.7316 15.1118C22.8693 15.0962 23.0091 15.0999 23.1484 15.0994C24.6172 15.0989 26.0855 15.0994 27.5543 15.0994Z" fill="white"/>
<path fill-rule="evenodd" clip-rule="evenodd" d="M27.49 10.3447C26.0239 10.3447 24.5578 10.3447 23.0917 10.3441C22.9529 10.3441 22.812 10.3517 22.6754 10.3328C22.2736 10.2766 22.0333 10.0428 21.995 9.63725C21.9572 9.23279 22.1429 8.94551 22.5296 8.82293C22.7008 8.76893 22.8935 8.76515 23.0766 8.76515C26.0396 8.76191 29.0026 8.76245 31.965 8.76353C32.1038 8.76353 32.2458 8.75759 32.3808 8.78243C32.7993 8.85857 33.0644 9.19121 33.0455 9.59891C33.0272 10.0109 32.7399 10.3096 32.3047 10.336C31.9812 10.356 31.6567 10.3447 31.3327 10.3447C30.0518 10.3452 28.7709 10.3447 27.49 10.3447Z" fill="white"/>
<path fill-rule="evenodd" clip-rule="evenodd" d="M27.5073 13.5129C26.0385 13.5129 24.5702 13.5134 23.1014 13.5118C22.947 13.5118 22.7899 13.5167 22.6392 13.4908C22.258 13.4265 22.0328 13.1932 21.9961 12.8082C21.9577 12.4037 22.1392 12.1159 22.5269 11.9901C22.6846 11.9388 22.8611 11.9307 23.0291 11.9302C26.0282 11.9269 29.0269 11.9269 32.0266 11.9302C32.1794 11.9302 32.3387 11.9383 32.4839 11.982C32.8738 12.0992 33.0709 12.3767 33.0418 12.7823C33.0131 13.1878 32.7804 13.4324 32.3765 13.4935C32.2247 13.5167 32.0681 13.5113 31.9142 13.5118C30.4449 13.5134 28.9761 13.5129 27.5073 13.5129Z" fill="white"/>
<path fill-rule="evenodd" clip-rule="evenodd" d="M27.5143 18.2745C28.9831 18.2745 30.4514 18.2745 31.9202 18.2751C32.0741 18.2751 32.2312 18.2691 32.3824 18.2934C32.7863 18.3577 33.0169 18.6055 33.0417 19.0105C33.0671 19.4166 32.8673 19.6958 32.4758 19.8054C32.3014 19.854 32.1097 19.8567 31.9256 19.8567C28.9885 19.86 26.0509 19.8594 23.1138 19.8578C22.9599 19.8578 22.8028 19.8605 22.6521 19.833C22.2245 19.7541 21.9701 19.4323 21.9896 19.0165C22.0085 18.6055 22.2936 18.3048 22.7375 18.2859C23.2931 18.2626 23.8504 18.2745 24.4066 18.2745C25.4423 18.274 26.4786 18.2745 27.5143 18.2745Z" fill="white"/>
<path fill-rule="evenodd" clip-rule="evenodd" d="M8.64565 45.193C7.97875 45.1881 7.57915 44.633 7.77571 44.153C7.85401 43.9618 8.00468 43.789 8.15372 43.6394C9.5885 42.1949 11.0303 40.7569 12.4705 39.3178C12.558 39.2309 12.6433 39.1407 12.7394 39.064C13.0888 38.787 13.5386 38.808 13.8259 39.1099C14.1024 39.4004 14.1142 39.8286 13.8502 40.1618C13.7832 40.2461 13.7049 40.3217 13.6288 40.3978C12.1675 41.8596 10.7101 43.3257 9.23966 44.7777C9.04202 44.9738 8.77849 45.1023 8.64565 45.193Z" fill="white"/>
<path fill-rule="evenodd" clip-rule="evenodd" d="M10.1663 39.5545C10.0551 39.8126 10.02 40.0102 9.90603 40.1387C9.62199 40.4606 9.32067 40.7732 8.99289 41.0492C8.66673 41.3235 8.23311 41.2695 7.95123 40.973C7.66557 40.6733 7.63695 40.2538 7.92369 39.9281C8.19693 39.6171 8.47557 39.2888 8.81523 39.0652C9.02475 38.9275 9.38979 38.8741 9.61929 38.9599C9.84609 39.0442 9.99027 39.3509 10.1663 39.5545Z" fill="white"/>
<path fill-rule="evenodd" clip-rule="evenodd" d="M14.1531 11.1014C13.9798 11.3925 13.8988 11.6166 13.747 11.7705C12.2161 13.3186 10.676 14.8582 9.13165 16.3929C8.76499 16.7574 8.29627 16.7709 7.97389 16.4604C7.62883 16.1288 7.63531 15.6633 8.02411 15.2724C9.55879 13.7274 11.101 12.19 12.6406 10.6505C12.9046 10.3859 13.2373 10.2504 13.5613 10.4453C13.7951 10.5868 13.9468 10.8643 14.1531 11.1014Z" fill="white"/>
<path fill-rule="evenodd" clip-rule="evenodd" d="M8.42369 12.7752C8.25305 12.6402 7.94309 12.5089 7.84643 12.2859C7.74923 12.0624 7.77299 11.6844 7.90745 11.4846C8.15153 11.1217 8.49713 10.816 8.83841 10.5315C9.14567 10.275 9.50531 10.3036 9.81149 10.5622C10.1031 10.8085 10.2192 11.1827 9.99995 11.4721C9.67109 11.9063 9.24125 12.2654 8.84219 12.6434C8.77199 12.7087 8.64185 12.7098 8.42369 12.7752Z" fill="white"/>
<path fill-rule="evenodd" clip-rule="evenodd" d="M36.9832 45.28C36.7451 45.0947 36.4524 44.9732 36.3509 44.7599C36.2494 44.5461 36.3088 44.2356 36.3606 43.9807C36.3871 43.8506 36.5464 43.7426 36.6549 43.633C38.1064 42.1804 39.5585 40.7283 41.0116 39.2773C41.1094 39.179 41.205 39.0716 41.3216 39.0014C41.664 38.7956 42.0063 38.8091 42.2974 39.0916C42.5895 39.374 42.6084 39.7136 42.4173 40.0646C42.3735 40.144 42.3098 40.2158 42.245 40.2806C40.7173 41.8105 39.1924 43.3424 37.655 44.862C37.4887 45.0262 37.2505 45.1169 36.9832 45.28Z" fill="white"/>
<path fill-rule="evenodd" clip-rule="evenodd" d="M36.8763 41.2509C36.7235 41.1224 36.4167 40.9826 36.3293 40.7574C36.2402 40.529 36.2817 40.1596 36.4194 39.9544C36.6554 39.6034 36.9924 39.3118 37.3207 39.0353C37.608 38.7939 37.9563 38.7972 38.2598 39.0234C38.5589 39.2459 38.7414 39.6088 38.5141 39.9085C38.1593 40.3751 37.6965 40.7617 37.2694 41.171C37.2138 41.2234 37.0944 41.2094 36.8763 41.2509Z" fill="white"/>
<path fill-rule="evenodd" clip-rule="evenodd" d="M27.5165 38.7666C27.7654 38.9486 28.0613 39.0614 28.165 39.2699C28.2703 39.481 28.2125 39.791 28.1715 40.0486C28.1531 40.1647 28.0084 40.2656 27.9112 40.3639C26.4289 41.8484 24.9531 43.3399 23.4524 44.8054C23.2526 44.9998 22.9146 45.1742 22.6581 45.1526C22.4297 45.1332 22.1478 44.8691 22.029 44.6407C21.8718 44.3372 22.0155 44.0219 22.2715 43.7686C23.3131 42.7378 24.3456 41.6977 25.3813 40.6615C25.8722 40.1706 26.3539 39.67 26.8582 39.1932C27.0278 39.0328 27.254 38.9335 27.5165 38.7666Z" fill="white"/>
<path fill-rule="evenodd" clip-rule="evenodd" d="M22.6527 41.2585C22.4961 41.1321 22.1899 40.9993 22.0959 40.7763C22.0009 40.5495 22.022 40.1726 22.1575 39.9722C22.4021 39.6104 22.7488 39.3069 23.0906 39.024C23.3801 38.7848 23.7305 38.8047 24.0302 39.0332C24.3337 39.2643 24.4746 39.6455 24.2608 39.9306C23.9179 40.388 23.4616 40.7617 23.0431 41.1602C22.9853 41.2148 22.8692 41.2067 22.6527 41.2585Z" fill="white"/>
<path fill-rule="evenodd" clip-rule="evenodd" d="M14.1639 25.3423C13.9808 25.6431 13.8912 25.8786 13.7286 26.0427C12.2102 27.5785 10.6814 29.1045 9.14998 30.6279C8.76334 31.0129 8.29138 31.0345 7.96036 30.7099C7.62016 30.3762 7.63258 29.9161 8.02192 29.5252C9.55606 27.9829 11.0967 26.4472 12.6346 24.9087C12.8954 24.6479 13.2151 24.4886 13.5472 24.6906C13.7826 24.8331 13.9419 25.0999 14.1639 25.3423Z" fill="white"/>
<path fill-rule="evenodd" clip-rule="evenodd" d="M9.38758 24.5635C9.562 24.6985 9.87304 24.8259 9.97078 25.0473C10.0691 25.272 10.0491 25.651 9.91462 25.8519C9.67216 26.2159 9.32818 26.5242 8.98528 26.8056C8.68072 27.055 8.31244 27.0367 8.0095 26.7764C7.72762 26.5339 7.58614 26.1705 7.81942 25.8697C8.1526 25.4394 8.5765 25.077 8.97394 24.6985C9.04252 24.6326 9.17212 24.6304 9.38758 24.5635Z" fill="white"/>
<path fill-rule="evenodd" clip-rule="evenodd" d="M28.4156 25.3354C28.2368 25.6297 28.1466 25.8673 27.9836 26.0326C26.4635 27.571 24.9331 29.0992 23.3995 30.6237C23.0112 31.0092 22.5377 31.026 22.2099 30.696C21.8853 30.3699 21.9059 29.8893 22.2876 29.5048C23.8126 27.9712 25.3446 26.4446 26.8733 24.9153C27.1331 24.6556 27.4522 24.4882 27.7865 24.6858C28.0257 24.8273 28.1904 25.0951 28.4156 25.3354Z" fill="#FEBA0F"/>
<path fill-rule="evenodd" clip-rule="evenodd" d="M22.7963 26.9637C22.157 26.9524 21.7509 26.2919 22.0954 25.8124C22.3865 25.4069 22.7693 25.0553 23.1576 24.7357C23.4324 24.5094 23.7743 24.5731 24.0513 24.8021C24.3321 25.0337 24.466 25.4004 24.2694 25.6661C23.9287 26.1262 23.48 26.5079 23.0625 26.9075C22.9972 26.9686 22.8568 26.9524 22.7963 26.9637Z" fill="#FEBA0F"/>
</svg>
