<svg width="115" height="29" viewBox="0 0 115 29" fill="none" xmlns="http://www.w3.org/2000/svg">
<rect x="0.181152" y="3.375" width="104.881" height="24" rx="12" fill="#010101"/>
<circle cx="99.2876" cy="15.375" r="9.5" fill="#FEBA0F"/>
<path fill-rule="evenodd" clip-rule="evenodd" d="M114.062 14.0442C114.062 14.2689 114.062 14.4936 114.062 14.7184C113.879 15.5097 113.408 16.1125 112.799 16.6202C112.512 16.859 112.206 17.0771 111.917 17.3163C110.912 18.1478 110.975 17.9606 111.288 19.2346C111.411 19.7334 111.574 20.2237 111.675 20.7265C112.009 22.3986 111.165 23.5953 109.476 23.8224C108.857 23.906 108.226 23.9271 107.601 23.9327C106.96 23.9392 106.505 24.1537 106.344 24.8199C106.308 24.9648 106.252 25.1055 106.192 25.2419C105.922 25.8559 105.692 26.4939 105.36 27.073C104.994 27.7111 104.406 28.0901 103.65 28.1599C103.047 28.2155 102.495 28.0438 101.989 27.7421C101.46 27.4262 100.936 27.0949 100.437 26.7333C99.9112 26.3513 99.4282 26.3554 98.9074 26.7369C98.4625 27.0619 98.0016 27.3699 97.5265 27.6484C95.8149 28.6545 94.4007 28.2021 93.5995 26.3901C93.3392 25.8012 93.1218 25.1928 92.9009 24.5872C92.7574 24.194 92.5115 23.9739 92.078 23.9766C91.8542 23.9781 91.6305 23.9499 91.4065 23.9344C90.8747 23.8979 90.339 23.8894 89.8117 23.8176C88.6616 23.6614 87.875 22.9853 87.662 22.0082C87.5265 21.3871 87.6352 20.7799 87.7865 20.1771C87.9368 19.579 88.0911 18.9827 88.2405 18.3846C88.2895 18.1891 88.2524 18.021 88.085 17.8851C87.8385 17.6845 87.6105 17.4603 87.3589 17.2667C86.4649 16.5806 85.5564 15.9092 85.2827 14.7182C85.2827 14.4935 85.2827 14.2687 85.2827 14.044C85.467 13.2287 85.9654 12.6238 86.588 12.105C86.8324 11.9013 87.0888 11.7119 87.3372 11.513C88.4503 10.6204 88.3811 10.8079 88.0195 9.39245C87.8672 8.79592 87.7011 8.19735 87.6211 7.58926C87.4733 6.4676 88.0699 5.51271 89.1086 5.12579C89.3435 5.03824 89.5926 4.96327 89.8402 4.94117C90.4828 4.88354 91.1278 4.83526 91.7726 4.82761C92.4071 4.81962 92.8426 4.59029 93.0009 3.94208C93.039 3.78874 93.1054 3.64237 93.1585 3.4926C93.3997 2.81413 93.6304 2.13005 94.0715 1.54508C94.7096 0.69848 95.6716 0.34743 96.6571 0.73401C97.3184 0.99326 97.9144 1.41911 98.5381 1.77407C98.8219 1.9354 99.1013 2.1054 99.383 2.27064C99.5765 2.38454 99.7682 2.38998 99.9634 2.27098C100.259 2.09197 100.556 1.91432 100.854 1.74092C101.426 1.40823 101.975 1.01434 102.581 0.7624C103.613 0.334 104.628 0.66703 105.286 1.57109C105.466 1.81878 105.625 2.09095 105.743 2.3723C105.995 2.9656 106.222 3.56961 106.443 4.17498C106.587 4.56853 106.832 4.788 107.267 4.78562C107.519 4.78392 107.772 4.80381 108.022 4.82999C108.69 4.89969 109.375 4.90666 110.021 5.06884C111.036 5.32418 111.624 6.02441 111.728 7.08742C111.792 7.74413 111.614 8.36769 111.45 8.99278C111.329 9.45314 111.216 9.91571 111.103 10.3781C111.055 10.5733 111.092 10.7416 111.26 10.8772C111.551 11.1118 111.825 11.3675 112.121 11.5958C112.973 12.2517 113.805 12.9189 114.062 14.0442ZM98.1468 15.7338C98.0708 15.6269 98.0212 15.5327 97.9494 15.4606C97.3095 14.8156 96.6737 14.1664 96.0209 13.5347C95.3977 12.9315 94.4166 13.1129 94.0702 13.8796C93.8619 14.3406 93.9692 14.867 94.3684 15.2678C95.3127 16.2179 96.261 17.1637 97.2089 18.1099C97.8442 18.7443 98.5033 18.743 99.1426 18.1043C101.071 16.1782 102.998 14.2504 104.924 12.3229C104.99 12.2568 105.057 12.1903 105.116 12.1175C105.657 11.4365 105.318 10.4303 104.475 10.2151C104.001 10.0937 103.612 10.245 103.276 10.5807C101.873 11.9856 100.468 13.3886 99.0648 14.7937C98.7739 15.0849 98.4893 15.3824 98.1468 15.7338Z" fill="black"/>
<path d="M19.1304 10.5723L23.4712 10.5039V11.7617L22.439 12.1719L23.7241 16.1914L24.1753 17.9141L24.6196 16.2598L26.0073 12.1855L24.9409 11.7617V10.5723L29.1313 10.5039V11.7617L28.106 12.1855L25.1528 20.375H22.9106L20.0874 12.1582L19.1304 11.7617V10.5723ZM32.2857 17.0596C32.3222 17.6201 32.4908 18.0576 32.7916 18.3721C33.0969 18.682 33.4934 18.8369 33.981 18.8369C34.3274 18.8369 34.6737 18.7891 35.0201 18.6934C35.371 18.5931 35.6604 18.4928 35.8883 18.3926C36.1207 18.2878 36.2688 18.2148 36.3326 18.1738L36.9342 19.3359C36.9342 19.3542 36.7701 19.4704 36.442 19.6846C36.1184 19.8942 35.7196 20.0856 35.2457 20.2588C34.7763 20.4274 34.275 20.5117 33.7418 20.5117C32.5569 20.5117 31.6545 20.1836 31.0347 19.5273C30.415 18.8711 30.1051 17.9414 30.1051 16.7383C30.1051 15.9271 30.2532 15.2161 30.5494 14.6055C30.8502 13.9902 31.2808 13.5163 31.8414 13.1836C32.4019 12.8464 33.0673 12.6777 33.8375 12.6777C34.8629 12.6777 35.649 12.9717 36.1959 13.5596C36.7428 14.1475 37.0162 14.9495 37.0162 15.9658C37.0162 16.1891 37.0048 16.4056 36.982 16.6152C36.9592 16.8249 36.9433 16.957 36.9342 17.0117L32.2857 17.0596ZM33.7008 14.3525C33.3179 14.3525 33.0058 14.4824 32.7642 14.7422C32.5227 14.9974 32.3723 15.3346 32.3131 15.7539H34.8492C34.8492 15.3346 34.7558 14.9974 34.5689 14.7422C34.3821 14.4824 34.0927 14.3525 33.7008 14.3525ZM41.4899 13.7783C41.4899 13.7601 41.5993 13.653 41.818 13.457C42.0368 13.2611 42.2897 13.0833 42.5768 12.9238C42.8685 12.7598 43.1556 12.6777 43.4381 12.6777C43.6615 12.6777 43.8711 12.696 44.0671 12.7324C44.263 12.7689 44.4157 12.8076 44.5251 12.8486C44.639 12.8896 44.7096 12.9147 44.737 12.9238L44.6276 15.6172H43.3698L43.1579 14.4277C42.9163 14.4277 42.6816 14.487 42.4538 14.6055C42.2305 14.7194 42.0391 14.847 41.8796 14.9883C41.7246 15.125 41.6471 15.1979 41.6471 15.207V18.9053L43.0485 19.2539V20.375H38.4274V19.2539L39.5485 18.9053V14.3525L38.4274 14.0039V12.8828L41.3669 12.8145L41.4899 13.7783ZM46.5925 10.5039C46.5925 10.1211 46.711 9.81576 46.948 9.58789C47.185 9.36003 47.4675 9.24609 47.7956 9.24609C48.5795 9.24609 48.9714 9.66536 48.9714 10.5039C48.9714 10.8958 48.8507 11.208 48.6091 11.4404C48.3721 11.6683 48.101 11.7822 47.7956 11.7822C47.4128 11.7822 47.1166 11.6729 46.907 11.4541C46.6973 11.2308 46.5925 10.9141 46.5925 10.5039ZM49.9216 19.2539V20.375H45.7244V19.2539L46.8454 18.9053V14.3525L45.7244 14.0039V12.8828L48.9441 12.8145V18.9053L49.9216 19.2539ZM52.5838 12.3701C52.5838 11.3766 52.8686 10.627 53.4383 10.1211C54.008 9.61068 54.9468 9.35547 56.2547 9.35547C56.8061 9.35547 57.3325 9.39421 57.8338 9.47168C58.3397 9.5446 58.7475 9.62435 59.0574 9.71094C59.3719 9.79297 59.5701 9.84766 59.6522 9.875L59.6248 11.8506H58.0867L57.9022 11.0098C57.811 11.0007 57.6082 10.9801 57.2938 10.9482C56.9839 10.9163 56.6831 10.9004 56.3914 10.9004C55.7671 10.9004 55.325 11.0052 55.0653 11.2148C54.81 11.4245 54.6824 11.7253 54.6824 12.1172V12.9238L59.9324 12.8145V18.9053L60.9168 19.2539V20.375H56.8563V19.2539L57.8338 18.9053V14.3252H54.6824V18.9053L55.6668 19.2539V20.375H51.4627V19.2539L52.5838 18.9053V14.3252H51.326V13.1631L52.5838 12.9238V12.3701ZM64.4267 17.0596C64.4631 17.6201 64.6317 18.0576 64.9325 18.3721C65.2379 18.682 65.6343 18.8369 66.122 18.8369C66.4683 18.8369 66.8147 18.7891 67.161 18.6934C67.5119 18.5931 67.8013 18.4928 68.0292 18.3926C68.2616 18.2878 68.4097 18.2148 68.4735 18.1738L69.0751 19.3359C69.0751 19.3542 68.911 19.4704 68.5829 19.6846C68.2593 19.8942 67.8606 20.0856 67.3866 20.2588C66.9172 20.4274 66.4159 20.5117 65.8827 20.5117C64.6978 20.5117 63.7955 20.1836 63.1757 19.5273C62.5559 18.8711 62.246 17.9414 62.246 16.7383C62.246 15.9271 62.3941 15.2161 62.6903 14.6055C62.9911 13.9902 63.4218 13.5163 63.9823 13.1836C64.5429 12.8464 65.2082 12.6777 65.9784 12.6777C67.0038 12.6777 67.7899 12.9717 68.3368 13.5596C68.8837 14.1475 69.1571 14.9495 69.1571 15.9658C69.1571 16.1891 69.1457 16.4056 69.1229 16.6152C69.1002 16.8249 69.0842 16.957 69.0751 17.0117L64.4267 17.0596ZM65.8417 14.3525C65.4589 14.3525 65.1467 14.4824 64.9052 14.7422C64.6636 14.9974 64.5132 15.3346 64.454 15.7539H66.9901C66.9901 15.3346 66.8967 14.9974 66.7099 14.7422C66.523 14.4824 66.2336 14.3525 65.8417 14.3525ZM75.7568 19.6299C75.5517 19.8395 75.276 20.04 74.9297 20.2314C74.5833 20.4183 74.1549 20.5117 73.6445 20.5117C72.6829 20.5117 71.9629 20.1859 71.4844 19.5342C71.0104 18.8825 70.7734 17.9642 70.7734 16.7793C70.7734 15.444 71.0924 14.4277 71.7304 13.7305C72.3685 13.0286 73.3232 12.6777 74.5947 12.6777C74.8818 12.6777 75.2327 12.7233 75.6474 12.8145V11.0371L74.5263 10.7568V9.63574L77.7461 9.52637V18.8779L78.8672 19.1582V20.2793L75.8799 20.375L75.7568 19.6299ZM75.6474 14.5645C75.3467 14.4232 74.9821 14.3525 74.5537 14.3525C73.984 14.3525 73.5716 14.5531 73.3164 14.9541C73.0657 15.3551 72.9404 15.9248 72.9404 16.6631C72.9404 17.3831 73.0475 17.9255 73.2617 18.29C73.4804 18.6546 73.8222 18.8369 74.2871 18.8369C74.5469 18.8369 74.7793 18.7799 74.9844 18.666C75.1894 18.5475 75.3512 18.4176 75.4697 18.2764C75.5882 18.1351 75.6474 18.0553 75.6474 18.0371V14.5645Z" fill="white"/>
</svg>
