<svg width="52" height="52" viewBox="0 0 52 52" fill="none" xmlns="http://www.w3.org/2000/svg">
<path fill-rule="evenodd" clip-rule="evenodd" d="M13.7891 49.6192C10.2599 49.6192 6.73119 49.6192 3.20195 49.6192C3.18824 49.4068 3.16284 49.194 3.16284 48.9807C3.1603 39.7827 3.16081 30.5832 3.16081 21.3838C3.16081 21.173 3.16081 20.9627 3.16081 20.729C2.36181 20.697 1.9458 20.2206 1.63696 19.6065C1.63696 16.8138 1.63696 14.0211 1.63696 11.2289C1.88586 10.7275 2.18453 10.2475 2.77985 10.1505C3.14049 10.0921 3.1664 9.91987 3.16538 9.62933C3.15725 7.42889 3.15979 5.22795 3.16284 3.02751C3.16284 2.84617 3.18824 2.66483 3.20195 2.48299C6.73119 2.48299 10.2604 2.48299 13.7891 2.48299C13.7891 5.00953 13.7891 7.53556 13.7891 10.0469C14.9473 10.3206 15.3262 10.8012 15.3303 11.9364C15.3318 12.3169 15.3303 12.6973 15.3303 13.1032C16.3665 13.1032 17.3534 13.1032 18.3338 13.1032C18.5496 12.1442 19.0124 11.6611 19.8043 11.6154C20.3696 11.5824 20.9406 11.5793 21.5059 11.6174C22.3207 11.6718 22.8992 12.2839 22.9084 13.1027C22.9256 14.6367 22.9246 16.1707 22.9089 17.7047C22.9007 18.4971 22.3872 19.0741 21.6009 19.1783C21.1935 19.2321 20.7755 19.2148 20.3615 19.2159C19.0662 19.2194 18.6893 18.9405 18.3099 17.7052C17.3382 17.7052 16.3624 17.7052 15.3308 17.7052C15.3308 18.0755 15.3313 18.424 15.3308 18.7719C15.3303 20.0199 15.0087 20.4481 13.8267 20.7722C13.8267 26.8229 13.8267 32.8736 13.8267 38.9639C15.8021 38.9639 17.7476 38.9659 19.693 38.9583C19.7799 38.9573 19.9089 38.8872 19.9455 38.8135C20.1456 38.4092 20.3229 37.9947 20.5185 37.5579C19.0789 37.0154 17.6912 36.4922 16.2075 35.9335C17.6902 35.3742 19.0886 34.8475 20.522 34.307C19.8977 32.929 19.2852 31.5773 18.6202 30.1098C20.0923 30.7747 21.4373 31.3828 22.8205 32.007C22.9856 31.5702 23.11 31.1775 23.2792 30.8052C23.6022 30.0921 23.7053 29.3555 23.6906 28.5723C23.6581 26.8249 23.685 25.0756 23.6789 23.3267C23.6738 21.8958 24.0218 20.5716 25.0295 19.5277C25.5939 18.9436 26.2969 18.493 26.9333 17.9856C26.8739 17.6173 26.7413 17.1698 26.7393 16.7213C26.7215 13.3003 26.7312 9.87975 26.7286 6.45871C26.7276 5.40319 27.0415 4.47059 27.7633 3.68734C28.3917 3.00567 29.2039 2.67753 30.0842 2.48096C32.9078 2.48096 35.7305 2.48096 38.5542 2.48096C39.4533 2.67296 40.2741 3.01024 40.9126 3.70765C41.6568 4.52342 41.9397 5.49868 41.9397 6.57706C41.9397 9.36722 41.9514 12.1574 41.9336 14.9476C41.9265 15.9939 42.1002 17.0606 41.6349 18.074C41.7639 18.142 41.8569 18.1923 41.9504 18.2406C43.719 19.1518 44.8518 20.5767 44.9061 22.5744C45.0072 26.2814 44.9909 29.992 44.9564 33.701C44.9442 35.0476 43.9755 35.8837 42.63 35.9243C42.3928 35.932 42.1551 35.9253 41.8345 35.9253C41.9788 36.1483 42.0667 36.2875 42.1576 36.4242C44.1122 39.3555 46.0734 42.2839 48.0148 45.2234C48.3139 45.677 48.5227 46.1885 48.7731 46.6736C48.7731 46.9189 48.7731 47.1642 48.7731 47.4096C48.7396 47.4761 48.6985 47.5396 48.6736 47.6092C48.3871 48.4087 47.8416 48.9324 46.9953 49.0584C46.1018 49.1915 45.3724 48.8582 44.8426 48.1248C44.5648 47.7402 44.3138 47.338 44.0487 46.9443C43.8775 46.6903 43.7018 46.4389 43.5286 46.1859C43.4966 46.2007 43.4656 46.2169 43.4341 46.2311C43.4341 47.3608 43.4341 48.4905 43.4341 49.6197C41.4084 49.6197 39.3827 49.6197 37.3575 49.6197C37.3575 48.1105 37.3575 46.6014 37.3575 45.0862C29.4736 45.0862 21.6507 45.0862 13.7896 45.0862C13.7891 46.6192 13.7891 48.1192 13.7891 49.6192ZM4.71361 20.7346C4.71361 29.8721 4.71361 38.969 4.71361 48.0643C7.24523 48.0643 9.73977 48.0643 12.2455 48.0643C12.2455 38.938 12.2455 29.8422 12.2455 20.7346C9.71945 20.7346 7.2371 20.7346 4.71361 20.7346ZM40.4031 11.5062C40.4031 9.81981 40.4087 8.13291 40.4016 6.44652C40.3955 4.96178 39.4919 4.02665 38.001 4.01395C35.5482 3.99363 33.0948 3.99261 30.6419 4.01446C29.1597 4.02766 28.2484 4.97702 28.2459 6.45922C28.2403 9.86349 28.2433 13.2668 28.2454 16.671C28.2459 17.4314 28.5019 17.6808 29.2745 17.6813C32.6478 17.6829 36.02 17.6829 39.3933 17.6813C40.1624 17.6808 40.4016 17.4365 40.4026 16.6578C40.4052 14.9404 40.4036 13.2231 40.4031 11.5062ZM3.19535 11.6291C3.19535 14.1602 3.19535 16.6644 3.19535 19.1793C6.74287 19.1793 10.2564 19.1793 13.7597 19.1793C13.7597 16.636 13.7597 14.1313 13.7597 11.6291C10.2188 11.6291 6.71442 11.6291 3.19535 11.6291ZM37.3885 19.2367C37.2056 21.1872 35.859 22.1767 34.3855 22.2468C32.8174 22.3215 31.7355 21.2878 31.2463 19.2519C30.7689 19.2519 30.2878 19.2519 29.8109 19.2519C29.7951 19.3296 29.7789 19.3738 29.7789 19.4175C29.7758 21.3492 29.7779 23.2805 29.7692 25.2122C29.7682 25.458 29.8601 25.5403 30.0979 25.6064C30.4915 25.7156 30.8862 25.8619 31.2423 26.0605C32.0306 26.5004 32.7895 26.9941 33.5768 27.4375C33.7317 27.5244 33.9827 27.5503 34.1498 27.4909C35.0773 27.1627 36.0617 27.4187 36.6601 28.204C36.9201 28.5443 37.1467 28.9096 37.3864 29.2656C37.8131 29.9011 38.0818 29.993 38.8661 29.7634C38.8661 26.2606 38.8661 22.7583 38.8661 19.2362C38.3627 19.2367 37.8918 19.2367 37.3885 19.2367ZM38.8945 48.0592C39.9455 48.0592 40.9187 48.0592 41.9366 48.0592C41.9366 46.6492 41.9417 45.2726 41.928 43.8961C41.9265 43.7594 41.8249 43.6127 41.7426 43.4892C41.1605 42.6064 40.5606 41.7358 39.9927 40.8443C39.8215 40.5761 39.63 40.4933 39.3227 40.4944C36.272 40.505 33.2212 40.501 30.17 40.501C30.0364 40.501 29.9033 40.501 29.7169 40.501C29.8962 40.9195 30.0527 41.2878 30.2513 41.7536C28.798 41.0942 27.4499 40.4832 26.0663 39.8554C25.6081 41.0841 25.1596 42.2869 24.6862 43.5542C29.4756 43.5542 34.1615 43.5542 38.8945 43.5542C38.8945 45.0684 38.8945 46.5491 38.8945 48.0592ZM4.69939 10.0499C4.78168 10.0687 4.82485 10.0875 4.86854 10.0875C7.22796 10.09 9.58688 10.0865 11.9463 10.0977C12.2521 10.0992 12.2927 9.95797 12.2917 9.7045C12.2846 7.92719 12.2887 6.15038 12.2861 4.37307C12.2861 4.26945 12.2648 4.16532 12.2495 4.0363C9.72809 4.0363 7.2244 4.0363 4.69888 4.0363C4.69939 6.04981 4.69939 8.03691 4.69939 10.0499ZM40.4143 31.3807C38.8854 31.3807 37.4321 31.3757 35.9789 31.3823C35.0168 31.3873 34.3479 31.9969 34.3291 32.867C34.3098 33.7407 35.0047 34.4127 35.9698 34.4178C38.1463 34.4269 40.3234 34.4244 42.5005 34.4188C43.1684 34.4167 43.4407 34.1328 43.4422 33.4562C43.4463 31.877 43.4437 30.2973 43.4422 28.7181C43.4417 28.6017 43.4209 28.4849 43.4092 28.365C42.404 28.365 41.4292 28.365 40.4143 28.365C40.4143 29.3626 40.4143 30.3389 40.4143 31.3807ZM28.3698 37.5604C28.5329 37.9246 28.6898 38.2086 28.7899 38.5123C28.9093 38.875 29.1206 38.9791 29.5005 38.9761C32.3841 38.9598 35.2683 38.968 38.1524 38.9659C38.3114 38.9659 38.4709 38.9512 38.7117 38.938C38.1326 38.0689 37.5744 37.2861 37.0791 36.4638C36.8257 36.0432 36.5382 35.8984 36.0485 35.9132C34.5902 35.9548 33.5687 35.2843 32.9993 33.9225C32.9459 33.796 32.7077 33.6756 32.5533 33.6726C31.4338 33.6513 30.3122 33.6929 29.1942 33.6467C28.6721 33.6254 28.4953 33.856 28.4079 34.3218C29.8144 34.8531 31.2037 35.3773 32.6813 35.9355C31.1889 36.4973 29.8027 37.0205 28.3698 37.5604ZM13.8074 43.5111C17.2823 43.5111 20.716 43.5111 24.1935 43.5111C23.7292 42.2747 23.2802 41.0785 22.821 39.8574C21.4241 40.4888 20.0725 41.1003 18.6258 41.7556C18.8326 41.2832 18.989 40.9251 19.1587 40.538C17.3428 40.538 15.5807 40.538 13.8069 40.538C13.8074 41.5382 13.8074 42.5008 13.8074 43.5111ZM23.6713 37.8017C23.9319 38.4864 24.1696 39.1097 24.4429 39.8254C24.7202 39.1051 24.965 38.4697 25.2205 37.8058C25.8702 38.0943 26.4843 38.3676 27.198 38.685C26.8719 37.9566 26.5956 37.339 26.3121 36.7056C27.0029 36.4435 27.6308 36.2047 28.3373 35.936C27.6201 35.6592 26.9719 35.4083 26.3162 35.1553C26.6088 34.5005 26.8795 33.8936 27.2 33.1773C26.4721 33.5045 25.857 33.7808 25.2216 34.0658C24.9645 33.3963 24.7253 32.7735 24.4454 32.0441C24.161 32.7817 23.9187 33.412 23.6682 34.0627C23.0089 33.7681 22.3928 33.4943 21.6888 33.1809C22.0133 33.9042 22.2861 34.5138 22.5746 35.1568C21.896 35.4184 21.2601 35.6622 20.5545 35.9335C21.2738 36.2103 21.9097 36.4557 22.5731 36.7101C22.278 37.3745 22.0047 37.9907 21.6938 38.6896C22.4035 38.3711 23.014 38.0968 23.6713 37.8017ZM32.8906 32.1167C33.015 31.8562 33.111 31.5936 33.2588 31.3655C33.4026 31.1445 33.428 30.9789 33.2629 30.7499C32.8967 30.2475 32.7661 29.6766 32.8413 29.0518C32.8545 28.938 32.7702 28.7546 32.6742 28.6947C31.8813 28.2 31.0889 27.7011 30.269 27.2531C29.3334 26.7421 28.3109 27.1734 27.9746 28.1796C27.9111 28.3681 27.8634 28.5626 27.8141 28.7556C27.5845 29.6552 27.357 30.5543 27.1071 31.5387C28.1722 31.0587 29.1521 30.6158 30.2558 30.1175C29.9307 30.8545 29.6605 31.4686 29.3756 32.1167C30.5987 32.1167 31.7472 32.1167 32.8906 32.1167ZM40.4351 19.353C40.4351 21.8252 40.4351 24.2953 40.4351 26.7645C41.451 26.7645 42.4365 26.7645 43.4239 26.7645C43.4239 25.3651 43.4727 24.0007 43.4117 22.642C43.3386 21.0328 41.93 19.5216 40.4351 19.353ZM28.2439 19.3007C26.7789 19.6913 25.7051 20.5071 25.4227 21.9151C25.1565 23.2434 25.2109 24.6362 25.1215 26.0478C26.0571 26.0478 26.8663 26.0793 27.6694 26.0259C27.8705 26.0127 28.2159 25.7273 28.219 25.5622C28.2565 23.4984 28.2439 21.4331 28.2439 19.3007ZM38.5649 35.9274C38.6497 36.0798 38.6817 36.1488 38.7239 36.2108C39.7347 37.7291 40.747 39.2468 41.7594 40.7646C43.1791 42.8944 44.5963 45.0268 46.019 47.1546C46.2847 47.5528 46.688 47.6686 46.9943 47.4573C47.2884 47.2547 47.3057 46.8971 47.0339 46.481C46.7571 46.0579 46.4731 45.6389 46.1927 45.2183C44.2123 42.2458 42.2328 39.2727 40.2452 36.3063C40.1441 36.1549 39.9821 35.9655 39.8287 35.9452C39.4401 35.8928 39.0413 35.9274 38.5649 35.9274ZM19.9018 17.658C20.4184 17.658 20.8882 17.658 21.3728 17.658C21.3728 16.1453 21.3728 14.657 21.3728 13.1616C20.8649 13.1616 20.396 13.1616 19.9018 13.1616C19.9018 14.6667 19.9018 16.1448 19.9018 17.658ZM15.3577 14.6656C15.3577 15.1832 15.3577 15.6531 15.3577 16.1356C16.37 16.1356 17.3549 16.1356 18.3429 16.1356C18.3429 15.6267 18.3429 15.1573 18.3429 14.6656C17.3407 14.6656 16.367 14.6656 15.3577 14.6656ZM32.8667 19.2423C32.8316 20.0697 33.4935 20.7219 34.3377 20.7174C35.1804 20.7128 35.8387 20.0453 35.7793 19.2423C34.8091 19.2423 33.8369 19.2423 32.8667 19.2423ZM26.5407 27.6036C26.0561 27.6036 25.6523 27.6036 25.2068 27.6036C25.249 28.7003 24.9986 29.8035 25.7041 30.8545C25.9901 29.7446 26.2578 28.7033 26.5407 27.6036ZM35.9063 29.8025C35.6066 29.4099 35.4989 28.8491 34.8883 28.8989C34.7146 28.9126 34.4307 29.0975 34.4144 29.2291C34.3819 29.5094 34.4916 29.8066 34.5414 30.0916C35.0712 29.9793 35.4684 29.895 35.9063 29.8025Z" fill="black"/>
<path fill-rule="evenodd" clip-rule="evenodd" d="M38.8692 13.1077C35.8261 13.1077 32.8277 13.1077 29.8008 13.1077C29.8008 11.0947 29.8008 9.10857 29.8008 7.08643C32.821 7.08643 35.8301 7.08643 38.8692 7.08643C38.8692 9.08876 38.8692 11.0743 38.8692 13.1077ZM37.3428 8.59656C35.3034 8.59656 33.3066 8.59656 31.3074 8.59656C31.3074 9.60585 31.3074 10.5801 31.3074 11.5757C33.328 11.5757 35.3247 11.5757 37.3428 11.5757C37.3428 10.5755 37.3428 9.60077 37.3428 8.59656Z" fill="#FEBA0F"/>
<path fill-rule="evenodd" clip-rule="evenodd" d="M30.5576 14.6665C31.0559 14.6665 31.5212 14.6665 32.0129 14.6665C32.0129 15.1592 32.0129 15.6265 32.0129 16.136C31.5329 16.136 31.0574 16.136 30.5576 16.136C30.5576 15.6529 30.5576 15.1836 30.5576 14.6665Z" fill="black"/>
<path fill-rule="evenodd" clip-rule="evenodd" d="M35.0585 14.6738C35.0585 15.167 35.0585 15.6359 35.0585 16.1408C34.5795 16.1408 34.1147 16.1408 33.6118 16.1408C33.6118 15.6653 33.6118 15.1863 33.6118 14.6738C34.0685 14.6738 34.5337 14.6738 35.0585 14.6738Z" fill="black"/>
<path fill-rule="evenodd" clip-rule="evenodd" d="M38.0955 14.6665C38.0955 15.1821 38.0955 15.6509 38.0955 16.1482C37.6033 16.1482 37.137 16.1482 36.6433 16.1482C36.6433 15.6509 36.6433 15.1719 36.6433 14.6665C37.1254 14.6665 37.5911 14.6665 38.0955 14.6665Z" fill="black"/>
</svg>
