<svg width="52" height="52" viewBox="0 0 52 52" fill="none" xmlns="http://www.w3.org/2000/svg">
<path fill-rule="evenodd" clip-rule="evenodd" d="M14.0712 49.7442C10.542 49.7442 7.01329 49.7442 3.48406 49.7442C3.47034 49.5318 3.44495 49.319 3.44495 49.1057C3.44241 39.9077 3.44292 30.7082 3.44292 21.5088C3.44292 21.298 3.44292 21.0877 3.44292 20.854C2.64391 20.822 2.2279 20.3456 1.91907 19.7315C1.91907 16.9388 1.91907 14.1461 1.91907 11.3539C2.16796 10.8525 2.46664 10.3725 3.06195 10.2755C3.4226 10.2171 3.4485 10.0449 3.44749 9.75433C3.43936 7.55389 3.4419 5.35295 3.44495 3.15251C3.44495 2.97117 3.47034 2.78983 3.48406 2.60799C7.01329 2.60799 10.5425 2.60799 14.0712 2.60799C14.0712 5.13453 14.0712 7.66056 14.0712 10.1719C15.2294 10.4456 15.6083 10.9262 15.6124 12.0614C15.6139 12.4419 15.6124 12.8223 15.6124 13.2282C16.6486 13.2282 17.6355 13.2282 18.6159 13.2282C18.8317 12.2692 19.2945 11.7861 20.0864 11.7404C20.6517 11.7074 21.2227 11.7043 21.788 11.7424C22.6028 11.7968 23.1813 12.4089 23.1905 13.2277C23.2077 14.7617 23.2067 16.2957 23.191 17.8297C23.1828 18.6221 22.6693 19.1991 21.883 19.3033C21.4756 19.3571 21.0576 19.3398 20.6436 19.3409C19.3483 19.3444 18.9714 19.0655 18.592 17.8302C17.6203 17.8302 16.6445 17.8302 15.6129 17.8302C15.6129 18.2005 15.6134 18.549 15.6129 18.8969C15.6124 20.1449 15.2908 20.5731 14.1088 20.8972C14.1088 26.9479 14.1088 32.9986 14.1088 39.0889C16.0842 39.0889 18.0297 39.0909 19.9751 39.0833C20.062 39.0823 20.191 39.0122 20.2276 38.9385C20.4277 38.5342 20.605 38.1197 20.8006 37.6829C19.361 37.1404 17.9733 36.6172 16.4896 36.0585C17.9723 35.4992 19.3707 34.9725 20.8041 34.432C20.1798 33.054 19.5673 31.7023 18.9024 30.2348C20.3744 30.8997 21.7194 31.5078 23.1026 32.132C23.2677 31.6952 23.3921 31.3025 23.5613 30.9302C23.8843 30.2171 23.9874 29.4805 23.9727 28.6973C23.9402 26.9499 23.9671 25.2006 23.961 23.4517C23.9559 22.0208 24.3039 20.6966 25.3117 19.6527C25.876 19.0686 26.579 18.618 27.2154 18.1106C27.156 17.7423 27.0234 17.2948 27.0214 16.8463C27.0036 13.4253 27.0133 10.0047 27.0107 6.58371C27.0097 5.52819 27.3236 4.59559 28.0454 3.81234C28.6738 3.13067 29.486 2.80253 30.3663 2.60596C33.1899 2.60596 36.0126 2.60596 38.8363 2.60596C39.7354 2.79796 40.5562 3.13524 41.1947 3.83265C41.9389 4.64842 42.2218 5.62368 42.2218 6.70206C42.2218 9.49222 42.2335 12.2824 42.2157 15.0726C42.2086 16.1189 42.3823 17.1856 41.917 18.199C42.046 18.267 42.139 18.3173 42.2325 18.3656C44.0011 19.2768 45.1339 20.7017 45.1882 22.6994C45.2893 26.4064 45.273 30.117 45.2385 33.826C45.2263 35.1726 44.2577 36.0087 42.9121 36.0493C42.6749 36.057 42.4372 36.0503 42.1166 36.0503C42.2609 36.2733 42.3488 36.4125 42.4397 36.5492C44.3943 39.4805 46.3555 42.4089 48.2969 45.3484C48.596 45.802 48.8048 46.3135 49.0552 46.7986C49.0552 47.0439 49.0552 47.2892 49.0552 47.5346C49.0217 47.6011 48.9806 47.6646 48.9557 47.7342C48.6692 48.5337 48.1237 49.0574 47.2774 49.1834C46.3839 49.3165 45.6545 48.9832 45.1247 48.2498C44.8469 47.8652 44.5959 47.463 44.3308 47.0693C44.1596 46.8153 43.9839 46.5639 43.8107 46.3109C43.7787 46.3257 43.7477 46.3419 43.7162 46.3561C43.7162 47.4858 43.7162 48.6155 43.7162 49.7447C41.6905 49.7447 39.6648 49.7447 37.6396 49.7447C37.6396 48.2355 37.6396 46.7264 37.6396 45.2112C29.7557 45.2112 21.9328 45.2112 14.0718 45.2112C14.0712 46.7442 14.0712 48.2442 14.0712 49.7442ZM4.99572 20.8596C4.99572 29.9971 4.99572 39.094 4.99572 48.1893C7.52733 48.1893 10.0219 48.1893 12.5276 48.1893C12.5276 39.063 12.5276 29.9672 12.5276 20.8596C10.0016 20.8596 7.51921 20.8596 4.99572 20.8596ZM40.6852 11.6312C40.6852 9.94481 40.6908 8.25791 40.6837 6.57152C40.6776 5.08678 39.774 4.15165 38.2832 4.13895C35.8303 4.11863 33.3769 4.11761 30.924 4.13946C29.4418 4.15266 28.5305 5.10202 28.528 6.58422C28.5224 9.98849 28.5254 13.3918 28.5275 16.796C28.528 17.5564 28.784 17.8058 29.5566 17.8063C32.9299 17.8079 36.3022 17.8079 39.6754 17.8063C40.4445 17.8058 40.6837 17.5615 40.6847 16.7828C40.6873 15.0654 40.6858 13.3481 40.6852 11.6312ZM3.47746 11.7541C3.47746 14.2852 3.47746 16.7894 3.47746 19.3043C7.02497 19.3043 10.5385 19.3043 14.0418 19.3043C14.0418 16.761 14.0418 14.2563 14.0418 11.7541C10.5009 11.7541 6.99653 11.7541 3.47746 11.7541ZM37.6706 19.3617C37.4877 21.3122 36.1411 22.3017 34.6676 22.3718C33.0995 22.4465 32.0176 21.4128 31.5284 19.3769C31.051 19.3769 30.5699 19.3769 30.093 19.3769C30.0772 19.4546 30.061 19.4988 30.061 19.5425C30.0579 21.4742 30.06 23.4055 30.0513 25.3372C30.0503 25.583 30.1423 25.6653 30.38 25.7314C30.7736 25.8406 31.1683 25.9869 31.5244 26.1855C32.3127 26.6254 33.0716 27.1191 33.8589 27.5625C34.0138 27.6494 34.2648 27.6753 34.4319 27.6159C35.3594 27.2877 36.3438 27.5437 36.9422 28.329C37.2022 28.6693 37.4288 29.0346 37.6685 29.3906C38.0952 30.0261 38.3639 30.118 39.1482 29.8884C39.1482 26.3856 39.1482 22.8833 39.1482 19.3612C38.6448 19.3617 38.1739 19.3617 37.6706 19.3617ZM39.1766 48.1842C40.2276 48.1842 41.2008 48.1842 42.2187 48.1842C42.2187 46.7742 42.2238 45.3976 42.2101 44.0211C42.2086 43.8844 42.107 43.7377 42.0247 43.6142C41.4426 42.7314 40.8427 41.8608 40.2748 40.9693C40.1036 40.7011 39.9121 40.6183 39.6048 40.6194C36.5541 40.63 33.5034 40.626 30.4521 40.626C30.3185 40.626 30.1854 40.626 29.999 40.626C30.1783 41.0445 30.3348 41.4128 30.5334 41.8786C29.0801 41.2192 27.732 40.6082 26.3484 39.9804C25.8902 41.2091 25.4417 42.4119 24.9683 43.6792C29.7577 43.6792 34.4436 43.6792 39.1766 43.6792C39.1766 45.1934 39.1766 46.6741 39.1766 48.1842ZM4.98149 10.1749C5.06378 10.1937 5.10696 10.2125 5.15064 10.2125C7.51006 10.215 9.86898 10.2115 12.2284 10.2227C12.5342 10.2242 12.5748 10.083 12.5738 9.8295C12.5667 8.05219 12.5708 6.27538 12.5682 4.49807C12.5682 4.39445 12.5469 4.29032 12.5317 4.1613C10.0102 4.1613 7.50651 4.1613 4.98099 4.1613C4.98149 6.17481 4.98149 8.16191 4.98149 10.1749ZM40.6964 31.5057C39.1675 31.5057 37.7142 31.5007 36.261 31.5073C35.299 31.5123 34.63 32.1219 34.6112 32.992C34.5919 33.8657 35.2868 34.5377 36.2519 34.5428C38.4284 34.5519 40.6055 34.5494 42.7826 34.5438C43.4505 34.5417 43.7228 34.2578 43.7243 33.5812C43.7284 32.002 43.7258 30.4223 43.7243 28.8431C43.7238 28.7267 43.703 28.6099 43.6913 28.49C42.6861 28.49 41.7113 28.49 40.6964 28.49C40.6964 29.4876 40.6964 30.4639 40.6964 31.5057ZM28.6519 37.6854C28.815 38.0496 28.9719 38.3336 29.072 38.6373C29.1914 39 29.4027 39.1041 29.7826 39.1011C32.6663 39.0848 35.5504 39.093 38.4345 39.0909C38.5935 39.0909 38.753 39.0762 38.9938 39.063C38.4147 38.1939 37.8565 37.4111 37.3612 36.5888C37.1078 36.1682 36.8203 36.0234 36.3306 36.0382C34.8723 36.0798 33.8508 35.4093 33.2814 34.0475C33.228 33.921 32.9898 33.8006 32.8354 33.7976C31.7159 33.7763 30.5943 33.8179 29.4763 33.7717C28.9542 33.7504 28.7774 33.981 28.69 34.4468C30.0965 34.9781 31.4858 35.5023 32.9634 36.0605C31.471 36.6223 30.0849 37.1455 28.6519 37.6854ZM14.0895 43.6361C17.5644 43.6361 20.9981 43.6361 24.4756 43.6361C24.0113 42.3997 23.5623 41.2035 23.1031 39.9824C21.7062 40.6138 20.3546 41.2253 18.9079 41.8806C19.1147 41.4082 19.2711 41.0501 19.4408 40.663C17.6249 40.663 15.8628 40.663 14.089 40.663C14.0895 41.6632 14.0895 42.6258 14.0895 43.6361ZM23.9534 37.9267C24.214 38.6114 24.4517 39.2347 24.725 39.9504C25.0023 39.2301 25.2471 38.5947 25.5026 37.9308C26.1523 38.2193 26.7664 38.4926 27.4801 38.81C27.154 38.0816 26.8777 37.464 26.5942 36.8306C27.285 36.5685 27.9129 36.3297 28.6194 36.061C27.9022 35.7842 27.2541 35.5333 26.5983 35.2803C26.8909 34.6255 27.1616 34.0186 27.4821 33.3023C26.7542 33.6295 26.1391 33.9058 25.5037 34.1908C25.2466 33.5213 25.0074 32.8985 24.7275 32.1691C24.4431 32.9067 24.2008 33.537 23.9503 34.1877C23.291 33.8931 22.6749 33.6193 21.9709 33.3059C22.2955 34.0292 22.5682 34.6388 22.8567 35.2818C22.1781 35.5434 21.5422 35.7872 20.8366 36.0585C21.5559 36.3353 22.1918 36.5807 22.8552 36.8351C22.5601 37.4995 22.2868 38.1157 21.976 38.8146C22.6856 38.4961 23.2961 38.2218 23.9534 37.9267ZM33.1727 32.2417C33.2971 31.9812 33.3931 31.7186 33.5409 31.4905C33.6847 31.2695 33.7101 31.1039 33.545 30.8749C33.1788 30.3725 33.0482 29.8016 33.1234 29.1768C33.1366 29.063 33.0523 28.8796 32.9563 28.8197C32.1634 28.325 31.371 27.8261 30.5511 27.3781C29.6155 26.8671 28.593 27.2984 28.2567 28.3046C28.1932 28.4931 28.1455 28.6876 28.0962 28.8806C27.8666 29.7802 27.6391 30.6793 27.3892 31.6637C28.4543 31.1837 29.4342 30.7408 30.5379 30.2425C30.2129 30.9795 29.9426 31.5936 29.6577 32.2417C30.8808 32.2417 32.0293 32.2417 33.1727 32.2417ZM40.7172 19.478C40.7172 21.9502 40.7172 24.4203 40.7172 26.8895C41.7331 26.8895 42.7186 26.8895 43.706 26.8895C43.706 25.4901 43.7548 24.1257 43.6938 22.767C43.6207 21.1578 42.2121 19.6466 40.7172 19.478ZM28.526 19.4257C27.061 19.8163 25.9872 20.6321 25.7048 22.0401C25.4386 23.3684 25.493 24.7612 25.4036 26.1728C26.3392 26.1728 27.1484 26.2043 27.9515 26.1509C28.1526 26.1377 28.498 25.8523 28.5011 25.6872C28.5387 23.6234 28.526 21.5581 28.526 19.4257ZM38.847 36.0524C38.9318 36.2048 38.9638 36.2738 39.006 36.3358C40.0168 37.8541 41.0291 39.3718 42.0415 40.8896C43.4612 43.0194 44.8784 45.1518 46.3011 47.2796C46.5668 47.6778 46.9701 47.7936 47.2764 47.5823C47.5705 47.3797 47.5878 47.0221 47.316 46.606C47.0392 46.1829 46.7552 45.7639 46.4749 45.3433C44.4944 42.3708 42.5149 39.3977 40.5273 36.4313C40.4262 36.2799 40.2642 36.0905 40.1108 36.0702C39.7222 36.0178 39.3234 36.0524 38.847 36.0524ZM20.1839 17.783C20.7005 17.783 21.1703 17.783 21.6549 17.783C21.6549 16.2703 21.6549 14.782 21.6549 13.2866C21.147 13.2866 20.6781 13.2866 20.1839 13.2866C20.1839 14.7917 20.1839 16.2698 20.1839 17.783ZM15.6398 14.7906C15.6398 15.3082 15.6398 15.7781 15.6398 16.2606C16.6521 16.2606 17.637 16.2606 18.625 16.2606C18.625 15.7517 18.625 15.2823 18.625 14.7906C17.6228 14.7906 16.6491 14.7906 15.6398 14.7906ZM33.1488 19.3673C33.1138 20.1947 33.7756 20.8469 34.6198 20.8424C35.4625 20.8378 36.1208 20.1703 36.0614 19.3673C35.0912 19.3673 34.119 19.3673 33.1488 19.3673ZM26.8228 27.7286C26.3382 27.7286 25.9344 27.7286 25.4889 27.7286C25.5311 28.8253 25.2807 29.9285 25.9862 30.9795C26.2722 29.8696 26.5399 28.8283 26.8228 27.7286ZM36.1884 29.9275C35.8887 29.5349 35.781 28.9741 35.1704 29.0239C34.9967 29.0376 34.7128 29.2225 34.6965 29.3541C34.664 29.6344 34.7737 29.9316 34.8235 30.2166C35.3533 30.1043 35.7505 30.02 36.1884 29.9275Z" fill="white"/>
<path fill-rule="evenodd" clip-rule="evenodd" d="M39.1512 13.2327C36.1081 13.2327 33.1097 13.2327 30.0828 13.2327C30.0828 11.2197 30.0828 9.23357 30.0828 7.21143C33.1031 7.21143 36.1122 7.21143 39.1512 7.21143C39.1512 9.21376 39.1512 11.1993 39.1512 13.2327ZM37.6249 8.72156C35.5854 8.72156 33.5887 8.72156 31.5894 8.72156C31.5894 9.73085 31.5894 10.7051 31.5894 11.7007C33.61 11.7007 35.6068 11.7007 37.6249 11.7007C37.6249 10.7005 37.6249 9.72577 37.6249 8.72156Z" fill="#FEBA0F"/>
<path fill-rule="evenodd" clip-rule="evenodd" d="M30.8397 14.7915C31.338 14.7915 31.8032 14.7915 32.2949 14.7915C32.2949 15.2842 32.2949 15.7515 32.2949 16.261C31.8149 16.261 31.3395 16.261 30.8397 16.261C30.8397 15.7779 30.8397 15.3086 30.8397 14.7915Z" fill="white"/>
<path fill-rule="evenodd" clip-rule="evenodd" d="M35.3406 14.7988C35.3406 15.292 35.3406 15.7609 35.3406 16.2658C34.8616 16.2658 34.3969 16.2658 33.894 16.2658C33.894 15.7903 33.894 15.3113 33.894 14.7988C34.3506 14.7988 34.8159 14.7988 35.3406 14.7988Z" fill="white"/>
<path fill-rule="evenodd" clip-rule="evenodd" d="M38.3776 14.7915C38.3776 15.3071 38.3776 15.7759 38.3776 16.2732C37.8854 16.2732 37.4191 16.2732 36.9254 16.2732C36.9254 15.7759 36.9254 15.2969 36.9254 14.7915C37.4075 14.7915 37.8732 14.7915 38.3776 14.7915Z" fill="white"/>
</svg>
