<svg width="29" height="30" viewBox="0 0 29 30" fill="none" xmlns="http://www.w3.org/2000/svg">
<path fill-rule="evenodd" clip-rule="evenodd" d="M24.2769 14.8873C24.2769 15.3043 24.2769 15.721 24.2769 16.1381C24.2604 16.2886 24.2442 16.4382 24.2277 16.5881C23.9807 18.8844 23.1343 20.91 21.6399 22.6277C20.0531 24.4515 18.0873 25.59 15.7479 26.0187C15.3603 26.09 14.9672 26.13 14.5766 26.1845C14.174 26.1845 13.7716 26.1845 13.369 26.1845C13.0837 26.148 12.7981 26.1161 12.5136 26.0732C11.192 25.8763 9.95327 25.4323 8.79575 24.7418C8.72043 24.6968 8.60115 24.6864 8.51659 24.7113C7.98907 24.8694 7.46603 25.0416 6.94103 25.2087C6.16655 25.4546 5.39263 25.704 4.61675 25.9447C4.25751 26.0558 4.00215 25.7936 4.09119 25.4175C4.10239 25.3705 4.11499 25.3235 4.12731 25.2768C4.47199 23.9866 4.81359 22.6961 5.16583 21.4082C5.21371 21.2331 5.20167 21.0979 5.11095 20.9422C4.48627 19.8677 4.06431 18.7106 3.85151 17.4761C3.77283 17.0197 3.72887 16.5565 3.66895 16.0966C3.66895 15.6938 3.66895 15.2907 3.66895 14.8876C3.68547 14.7376 3.70227 14.5877 3.71823 14.4375C3.96491 12.1413 4.81191 10.1156 6.30627 8.39796C7.89303 6.57415 9.85919 5.4359 12.198 5.00699C12.5858 4.93594 12.9787 4.89563 13.369 4.84082C13.7716 4.84082 14.174 4.84082 14.5766 4.84082C14.6284 4.85271 14.6797 4.87127 14.732 4.87504C16.344 4.99307 17.8521 5.4707 19.2277 6.3436C21.8972 8.03778 23.54 10.4807 24.1168 13.6765C24.1887 14.0767 24.224 14.4836 24.2769 14.8873ZM5.03703 24.9456C5.13895 24.9184 5.20895 24.903 5.27727 24.8813C6.23067 24.5776 7.19303 24.3001 8.13327 23.9579C8.59079 23.7914 8.94079 23.8645 9.35183 24.1061C11.2359 25.2125 13.2693 25.5787 15.4051 25.2481C17.42 24.9367 19.1762 24.0371 20.6171 22.5424C22.8909 20.1847 23.8105 17.3262 23.3695 14.0309C23.0897 11.9412 22.2035 10.1249 20.761 8.63199C18.4849 6.27632 15.7255 5.32773 12.543 5.77926C10.7123 6.03881 9.09423 6.83776 7.71159 8.11057C5.73927 9.92626 4.64727 12.2077 4.48291 14.9363C4.35859 17.0025 4.83403 18.9299 5.89131 20.6937C6.03355 20.9312 6.06351 21.1504 5.98847 21.4201C5.66619 22.5792 5.35987 23.7433 5.03703 24.9456Z" fill="#6A6A6A" stroke="#6A6A6A" stroke-width="0.25" stroke-miterlimit="10"/>
<path fill-rule="evenodd" clip-rule="evenodd" d="M16.7549 21.9848C14.884 21.9189 13.2328 21.2363 11.7631 20.0731C9.99014 18.6701 8.68954 16.8805 7.79186 14.7664C7.13554 13.2204 7.28086 11.7353 8.07158 10.2992C8.2925 9.89816 8.5851 9.53885 8.85222 9.16649C8.90598 9.09138 8.9855 9.0067 9.0667 8.9864C9.51106 8.87678 9.96355 8.78659 10.4149 8.9226C10.5451 8.96204 10.6882 9.06412 10.761 9.1807C11.3014 10.0432 11.783 10.9395 12.1207 11.9108C12.2663 12.3298 12.1641 12.7254 11.9429 13.0812C11.7807 13.3422 11.5951 13.5942 11.3851 13.8146C11.2157 13.9924 11.1975 14.1614 11.3148 14.3465C11.5674 14.7449 11.7984 15.1672 12.1041 15.5181C13.001 16.5473 14.0709 17.3581 15.2368 18.0329C15.5764 18.2296 15.6349 18.2296 15.8883 17.9326C16.2437 17.5179 16.5841 17.089 16.9131 16.6514C17.2049 16.2642 17.5479 16.1398 17.9875 16.3269C18.1717 16.4052 18.3445 16.5162 18.5153 16.6247C19.2175 17.0713 19.9164 17.5243 20.6175 17.972C20.888 18.1449 20.9365 18.2658 20.8757 18.5953C20.741 19.3266 20.5086 20.0165 20.0606 20.6099C19.4404 21.4317 18.592 21.8116 17.6165 21.9276C17.3312 21.9622 17.0425 21.9668 16.7549 21.9848ZM17.6243 17.0478C17.5387 17.169 17.4846 17.2575 17.4199 17.3364C17.0904 17.7377 16.7936 18.1762 16.4201 18.5277C15.7679 19.1425 15.5409 19.1025 14.9282 18.7733C13.4588 17.9839 12.1727 16.9533 11.1323 15.6114C10.8411 15.2365 10.6126 14.8206 10.4779 14.3549C10.3732 13.9918 10.3816 13.6711 10.6845 13.3892C10.8817 13.2056 11.0396 12.9742 11.2028 12.7547C11.3913 12.5009 11.4537 12.228 11.2975 11.9221C10.9595 11.2603 10.6218 10.5982 10.3021 9.92658C10.1965 9.70473 10.0512 9.66471 9.83782 9.67689C9.54606 9.694 9.31282 9.78013 9.16303 10.0637C8.95162 10.4648 8.68898 10.8404 8.51118 11.2556C8.08446 12.2512 8.04274 13.2694 8.4605 14.2867C9.2319 16.1645 10.3477 17.7879 11.8513 19.108C13.4056 20.4721 15.1883 21.2258 17.2556 21.1386C17.9161 21.1107 18.5413 20.9466 19.0714 20.5072C19.6291 20.0441 19.8926 19.4075 20.0391 18.7081C20.05 18.6541 19.9915 18.5564 19.9394 18.521C19.313 18.1054 18.6827 17.6971 18.0508 17.2903C17.9161 17.2035 17.773 17.1316 17.6243 17.0478Z" fill="#6A6A6A" stroke="#6A6A6A" stroke-width="0.25" stroke-miterlimit="10"/>
</svg>
